0
SECTION
2
ENTITIES
0
LINE
8
0
10
-0.498749
20
0.0635681
30
-0.306702
11
-0.406134
21
0.0890656
31
-0.312744
62
0
0
LINE
8
0
10
-0.406134
20
0.0890656
30
-0.312744
11
-0.45105
21
0.207846
31
-0.2159
62
0
0
LINE
8
0
10
-0.45105
20
0.207846
30
-0.2159
11
-0.377075
21
0.110077
31
-0.108224
62
0
0
LINE
8
0
10
-0.377075
20
0.110077
30
-0.108224
11
-0.313931
21
0.114133
31
-0.167029
62
0
0
LINE
8
0
10
-0.313931
20
0.114133
30
-0.167029
11
-0.459436
21
-0.00844727
31
-0.207697
62
0
0
LINE
8
0
10
-0.0543213
20
-0.38092
30
-0.495331
11
-0.201648
21
-0.41756
31
-0.485837
62
1
0
LINE
8
0
10
-0.201648
20
-0.41756
30
-0.485837
11
-0.180298
21
-0.387036
31
-0.453693
62
1
0
LINE
8
0
10
-0.180298
20
-0.387036
30
-0.453693
11
-0.280429
21
-0.338129
31
-0.46846
62
1
0
LINE
8
0
10
-0.280429
20
-0.338129
30
-0.46846
11
-0.324796
21
-0.471017
31
-0.43616
62
1
0
LINE
8
0
10
-0.324796
20
-0.471017
30
-0.43616
11
-0.239807
21
-0.380243
31
-0.4302
62
1
0
LINE
8
0
10
-0.239807
20
-0.380243
30
-0.4302
11
-0.299225
21
-0.267459
31
-0.362204
62
1
0
LINE
8
0
10
-0.299225
20
-0.267459
30
-0.362204
11
-0.162463
21
-0.139752
31
-0.350403
62
1
0
LINE
8
0
10
-0.162463
20
-0.139752
30
-0.350403
11
-0.269763
21
-0.151132
31
-0.429807
62
1
0
LINE
8
0
10
-0.269763
20
-0.151132
30
-0.429807
11
-0.161099
21
-0.238254
31
-0.345917
62
1
0
LINE
8
0
10
-0.161099
20
-0.238254
30
-0.345917
11
-0.0580109
21
-0.0892242
31
-0.196017
62
1
0
LINE
8
0
10
-0.0580109
20
-0.0892242
30
-0.196017
11
-0.0245667
21
-0.121497
31
-0.266156
62
1
0
LINE
8
0
10
-0.0245667
20
-0.121497
30
-0.266156
11
-0.0853851
21
-0.0194611
31
-0.409033
62
1
0
LINE
8
0
10
-0.0853851
20
-0.0194611
30
-0.409033
11
-0.122629
21
-0.141675
31
-0.355878
62
1
0
LINE
8
0
10
-0.122629
20
-0.141675
30
-0.355878
11
-0.255765
21
-0.289038
31
-0.230249
62
1
0
LINE
8
0
10
-0.255765
20
-0.289038
30
-0.230249
11
-0.323001
21
-0.357172
31
-0.203882
62
1
0
LINE
8
0
10
-0.323001
20
-0.357172
30
-0.203882
11
-0.265652
21
-0.255896
31
-0.135941
62
1
0
LINE
8
0
10
-0.265652
20
-0.255896
30
-0.135941
11
-0.270175
21
-0.34429
31
-0.0628265
62
1
0
LINE
8
0
10
-0.270175
20
-0.34429
30
-0.0628265
11
-0.279642
21
-0.356906
31
0.0719116
62
1
0
LINE
8
0
10
-0.279642
20
-0.356906
30
0.0719116
11
-0.206317
21
-0.474423
31
0.10162
62
1
0
LINE
8
0
10
-0.206317
20
-0.474423
30
0.10162
11
-0.24075
21
-0.403928
31
0.134305
62
1
0
LINE
8
0
10
-0.24075
20
-0.403928
30
0.134305
11
-0.219034
21
-0.445529
31
0.0297699
62
1
0
LINE
8
0
10
-0.219034
20
-0.445529
30
0.0297699
11
-0.301505
21
-0.467987
31
0.120627
62
1
0
LINE
8
0
10
-0.301505
20
-0.467987
30
0.120627
11
-0.296378
21
-0.320999
31
0.196085
62
1
0
LINE
8
0
10
-0.296378
20
-0.320999
30
0.196085
11
-0.342712
21
-0.420306
31
0.243271
62
1
0
LINE
8
0
10
0.377228
20
0.321655
30
0.0820313
11
0.284631
21
0.225021
31
0.177182
62
4
0
LINE
8
0
10
0.284631
20
0.225021
30
0.177182
11
0.277206
21
0.121686
31
0.178354
62
4
0
LINE
8
0
10
0.277206
20
0.121686
30
0.178354
11
0.346805
21
0.0933594
31
0.112225
62
4
0
LINE
8
0
10
0.346805
20
0.0933594
30
0.112225
11
0.367422
21
0.148026
31
0.188974
62
4
0
LINE
8
0
10
0.367422
20
0.148026
30
0.188974
11
0.43399
21
0.14061
31
0.0758789
62
4
0
LINE
8
0
10
0.43399
20
0.14061
30
0.0758789
11
0.39433
21
0.241006
31
-0.0635925
62
4
0
LINE
8
0
10
0.39433
20
0.241006
30
-0.0635925
11
0.399429
21
0.289896
31
-0.08573
62
4
0
LINE
8
0
10
0.399429
20
0.289896
30
-0.08573
11
0.280832
21
0.424689
31
0.0406769
62
4
0
LINE
8
0
10
0.280832
20
0.424689
30
0.0406769
11
0.295691
21
0.378482
31
0.0321899
62
4
0
LINE
8
0
10
0.295691
20
0.378482
30
0.0321899
11
0.258182
21
0.482568
31
-0.0227509
62
4
0
LINE
8
0
10
0.258182
20
0.482568
30
-0.0227509
11
0.245007
21
0.414133
31
0.122131
62
4
0
LINE
8
0
10
0.245007
20
0.414133
30
0.122131
11
0.184344
21
0.485883
31
0.14231
62
4
0
LINE
8
0
10
-0.102356
20
0.00088501
30
0.390137
11
-0.244116
21
0.149265
31
0.411908
62
5
0
LINE
8
0
10
-0.244116
20
0.149265
30
0.411908
11
-0.378964
21
0.158658
31
0.320126
62
5
0
LINE
8
0
10
-0.378964
20
0.158658
30
0.320126
11
-0.276059
21
0.19668
31
0.367404
62
5
0
LINE
8
0
10
-0.276059
20
0.19668
30
0.367404
11
-0.366705
21
0.299319
31
0.254401
62
5
0
LINE
8
0
10
-0.366705
20
0.299319
30
0.254401
11
-0.483728
21
0.37225
31
0.198618
62
5
0
LINE
8
0
10
-0.483728
20
0.37225
30
0.198618
11
-0.351416
21
0.308072
31
0.149509
62
5
0
LINE
8
0
10
-0.351416
20
0.308072
30
0.149509
11
-0.459338
21
0.377991
31
0.249887
62
5
0
LINE
8
0
10
-0.459338
20
0.377991
30
0.249887
11
-0.396945
21
0.408057
31
0.324045
62
5
0
LINE
8
0
10
-0.396945
20
0.408057
30
0.324045
11
-0.47113
21
0.301398
31
0.17453
62
5
0
LINE
8
0
10
0.252197
20
0.186127
30
0.0434265
11
0.124362
21
0.167139
31
-0.045993
62
7
0
LINE
8
0
10
0.124362
20
0.167139
30
-0.045993
11
0.183221
21
0.104242
31
-0.0649902
62
7
0
LINE
8
0
10
0.183221
20
0.104242
30
-0.0649902
11
0.102948
21
0.127597
31
-0.0552216
62
7
0
LINE
8
0
10
0.102948
20
0.127597
30
-0.0552216
11
0.141547
21
0.0256531
31
-0.0539856
62
7
0
LINE
8
0
10
0.141547
20
0.0256531
30
-0.0539856
11
0.28045
21
0.084375
31
0.0734467
62
7
0
LINE
8
0
10
0.28045
20
0.084375
30
0.0734467
11
0.187433
21
0.0351563
31
-0.0230499
62
7
0
LINE
8
0
10
0.187433
20
0.0351563
30
-0.0230499
11
0.335977
21
0.0223846
31
0.126346
62
7
0
LINE
8
0
10
0.335977
20
0.0223846
30
0.126346
11
0.215228
21
0.0599304
31
0.00466309
62
7
0
LINE
8
0
10
0.215228
20
0.0599304
30
0.00466309
11
0.196542
21
0.189377
31
-0.130807
62
7
0
LINE
8
0
10
0.196542
20
0.189377
30
-0.130807
11
0.31492
21
0.126379
31
-0.212619
62
7
0
LINE
8
0
10
0.31492
20
0.126379
30
-0.212619
11
0.395633
21
0.0995911
31
-0.302029
62
7
0
LINE
8
0
10
0.395633
20
0.0995911
30
-0.302029
11
0.434048
21
0.130829
31
-0.31655
62
7
0
LINE
8
0
10
0.434048
20
0.130829
30
-0.31655
11
0.42395
21
0.160172
31
-0.276138
62
7
0
LINE
8
0
10
0.220886
20
0.0657349
30
-0.124878
11
0.126166
21
0.1371
31
-0.108344
62
8
0
LINE
8
0
10
0.126166
20
0.1371
30
-0.108344
11
0.247684
21
0.0599579
31
-0.201663
62
8
0
LINE
8
0
10
0.247684
20
0.0599579
30
-0.201663
11
0.279095
21
0.119504
31
-0.176285
62
8
0
LINE
8
0
10
0.279095
20
0.119504
30
-0.176285
11
0.234482
21
0.117838
31
-0.30217
62
8
0
LINE
8
0
10
0.234482
20
0.117838
30
-0.30217
11
0.306699
21
0.151447
31
-0.266061
62
8
0
LINE
8
0
10
0.306699
20
0.151447
30
-0.266061
11
0.364029
21
0.242798
31
-0.371329
62
8
0
LINE
8
0
10
0.364029
20
0.242798
30
-0.371329
11
0.386835
21
0.35311
31
-0.24787
62
8
0
LINE
8
0
10
0.386835
20
0.35311
30
-0.24787
11
0.42124
21
0.421408
31
-0.384906
62
8
0
LINE
8
0
10
0.0691833
20
-0.194183
30
-0.32608
11
-0.0482513
21
-0.0834778
31
-0.220721
62
9
0
LINE
8
0
10
-0.0482513
20
-0.0834778
30
-0.220721
11
0.0250366
21
-0.187015
31
-0.27265
62
9
0
LINE
8
0
10
0.0250366
20
-0.187015
30
-0.27265
11
-0.10116
21
-0.314035
31
-0.230362
62
9
0
LINE
8
0
10
-0.10116
20
-0.314035
30
-0.230362
11
-0.00516663
21
-0.300513
31
-0.245889
62
9
0
LINE
8
0
10
-0.00516663
20
-0.300513
30
-0.245889
11
-0.0324768
21
-0.360892
31
-0.256226
62
9
0
LINE
8
0
10
-0.0324768
20
-0.360892
30
-0.256226
11
-0.0321198
21
-0.465097
31
-0.309317
62
9
0
LINE
8
0
10
-0.434265
20
0.284943
30
0.0245667
11
-0.401379
21
0.421768
31
-0.103754
62
11
0
LINE
8
0
10
-0.401379
20
0.421768
30
-0.103754
11
-0.288696
21
0.46792
31
-0.15712
62
11
0
LINE
8
0
10
-0.288696
20
0.46792
30
-0.15712
11
-0.407257
21
0.469431
31
-0.238995
62
11
0
LINE
8
0
10
0.162781
20
-0.385468
30
-0.00747681
11
0.126517
21
-0.386429
31
0.0805237
62
12
0
LINE
8
0
10
0.126517
20
-0.386429
30
0.0805237
11
0.129291
21
-0.421722
31
0.136966
62
12
0
LINE
8
0
10
0.129291
20
-0.421722
30
0.136966
11
0.138931
21
-0.389844
31
0.105518
62
12
0
LINE
8
0
10
0.138931
20
-0.389844
30
0.105518
11
-0.00930176
21
-0.327487
31
-0.0142975
62
12
0
LINE
8
0
10
-0.00930176
20
-0.327487
30
-0.0142975
11
0.0276123
21
-0.218521
31
-0.0168518
62
12
0
LINE
8
0
10
0.0276123
20
-0.218521
30
-0.0168518
11
0.101807
21
-0.219455
31
-0.0528229
62
12
0
LINE
8
0
10
0.101807
20
-0.219455
30
-0.0528229
11
0.187408
21
-0.203616
31
-0.095697
62
12
0
LINE
8
0
10
0.187408
20
-0.203616
30
-0.095697
11
0.324115
21
-0.164368
31
-0.192725
62
12
0
LINE
8
0
10
0.324115
20
-0.164368
30
-0.192725
11
0.286386
21
-0.274881
31
-0.119748
62
12
0
LINE
8
0
10
0.286386
20
-0.274881
30
-0.119748
11
0.421893
21
-0.24129
31
-0.261398
62
12
0
LINE
8
0
10
0.421893
20
-0.24129
30
-0.261398
11
0.370844
21
-0.374518
31
-0.219641
62
12
0
LINE
8
0
10
0.370844
20
-0.374518
30
-0.219641
11
0.26033
21
-0.270404
31
-0.110355
62
12
0
LINE
8
0
10
0.26033
20
-0.270404
30
-0.110355
11
0.289389
21
-0.203918
31
-0.00417175
62
12
0
LINE
8
0
10
0.289389
20
-0.203918
30
-0.00417175
11
0.143793
21
-0.315979
31
0.058194
62
12
0
LINE
8
0
10
0.143793
20
-0.315979
30
0.058194
11
0.178931
21
-0.400711
31
-0.0720215
62
12
0
LINE
8
0
10
0.178931
20
-0.400711
30
-0.0720215
11
0.0796051
21
-0.363486
31
-0.11973
62
12
0
LINE
8
0
10
0.0796051
20
-0.363486
30
-0.11973
11
0.0254242
21
-0.40322
31
-0.0714355
62
12
0
LINE
8
0
10
0.0254242
20
-0.40322
30
-0.0714355
11
0.116135
21
-0.311163
31
-0.0634796
62
12
0
LINE
8
0
10
0.116135
20
-0.311163
30
-0.0634796
11
0.14946
21
-0.221716
31
0.0566925
62
12
0
LINE
8
0
10
0.14946
20
-0.221716
30
0.0566925
11
0.0429016
21
-0.182669
31
0.0274139
62
12
0
LINE
8
0
10
0.0429016
20
-0.182669
30
0.0274139
11
-0.0309906
21
-0.291708
31
0.133963
62
12
0
LINE
8
0
10
-0.0309906
20
-0.291708
30
0.133963
11
-0.161142
21
-0.31337
31
0.155963
62
12
0
LINE
8
0
10
-0.161142
20
-0.31337
30
0.155963
11
-0.220459
21
-0.298959
31
0.0736298
62
12
0
LINE
8
0
10
-0.220459
20
-0.298959
30
0.0736298
11
-0.277057
21
-0.415771
31
0.166034
62
12
0
LINE
8
0
10
-0.277057
20
-0.415771
30
0.166034
11
-0.386646
21
-0.480499
31
0.25246
62
12
0
LINE
8
0
10
-0.386646
20
-0.480499
30
0.25246
11
-0.268085
21
-0.393616
31
0.325592
62
12
0
LINE
8
0
10
-0.268085
20
-0.393616
30
0.325592
11
-0.233524
21
-0.435281
31
0.432581
62
12
0
LINE
8
0
10
-0.233524
20
-0.435281
30
0.432581
11
-0.314978
21
-0.326215
31
0.35141
62
12
0
LINE
8
0
10
-0.314978
20
-0.326215
30
0.35141
11
-0.390115
21
-0.313498
31
0.496851
62
12
0
LINE
8
0
10
-0.0732117
20
-0.405334
30
-0.241211
11
0.0442413
21
-0.485507
31
-0.347247
62
13
0
LINE
8
0
10
0.0442413
20
-0.485507
30
-0.347247
11
-0.0682312
21
-0.356024
31
-0.473215
62
13
0
LINE
8
0
10
0.342072
20
0.193512
30
-0.102325
11
0.269818
21
0.044812
31
-0.0946533
62
15
0
LINE
8
0
10
0.269818
20
0.044812
30
-0.0946533
11
0.40625
21
0.0144165
31
-0.172327
62
15
0
LINE
8
0
10
0.40625
20
0.0144165
30
-0.172327
11
0.431912
21
-0.0590454
31
-0.11713
62
15
0
LINE
8
0
10
-0.492828
20
0.440948
30
0.101532
11
-0.406989
21
0.463947
31
-0.00574036
62
16
0
LINE
8
0
10
-0.406989
20
0.463947
30
-0.00574036
11
-0.490292
21
0.428845
31
-0.154459
62
16
0
LINE
8
0
10
0.355072
20
-0.43515
30
0.311035
11
0.403687
21
-0.37771
31
0.401837
62
17
0
LINE
8
0
10
0.403687
20
-0.37771
30
0.401837
11
0.412723
21
-0.322028
31
0.294666
62
17
0
LINE
8
0
10
0.412723
20
-0.322028
30
0.294666
11
0.469568
21
-0.253665
31
0.377979
62
17
0
LINE
8
0
10
0.469568
20
-0.253665
30
0.377979
11
0.328888
21
-0.143069
31
0.421329
62
17
0
LINE
8
0
10
0.328888
20
-0.143069
30
0.421329
11
0.390851
21
-0.267435
31
0.43692
62
17
0
LINE
8
0
10
0.194519
20
-0.281372
30
-0.344086
11
0.116681
21
-0.274945
31
-0.22341
62
19
0
LINE
8
0
10
0.116681
20
-0.274945
30
-0.22341
11
-0.00139465
21
-0.15416
31
-0.240897
62
19
0
LINE
8
0
10
-0.00139465
20
-0.15416
30
-0.240897
11
-0.127362
21
-0.0695374
31
-0.339362
62
19
0
LINE
8
0
10
-0.127362
20
-0.0695374
30
-0.339362
11
0.0149475
21
0.0132172
31
-0.228253
62
19
0
LINE
8
0
10
0.0149475
20
0.0132172
30
-0.228253
11
-0.0718628
21
0.000198364
31
-0.377127
62
19
0
LINE
8
0
10
-0.0718628
20
0.000198364
30
-0.377127
11
0.00332031
21
-0.115588
31
-0.405719
62
19
0
LINE
8
0
10
-0.247925
20
-0.31073
30
-0.252319
11
-0.351874
21
-0.27464
31
-0.136716
62
20
0
LINE
8
0
10
-0.351874
20
-0.27464
30
-0.136716
11
-0.220157
21
-0.365945
31
-0.0528259
62
20
0
LINE
8
0
10
-0.220157
20
-0.365945
30
-0.0528259
11
-0.176495
21
-0.318924
31
0.0699097
62
20
0
LINE
8
0
10
-0.176495
20
-0.318924
30
0.0699097
11
-0.189862
21
-0.192545
31
0.119156
62
20
0
LINE
8
0
10
-0.189862
20
-0.192545
30
0.119156
11
-0.294635
21
-0.151648
31
0.140012
62
20
0
LINE
8
0
10
-0.294635
20
-0.151648
30
0.140012
11
-0.318027
21
-0.01875
31
0.152179
62
20
0
LINE
8
0
10
-0.318027
20
-0.01875
30
0.152179
11
-0.294461
21
-0.0078186
31
0.0787628
62
20
0
LINE
8
0
10
-0.294461
20
-0.0078186
30
0.0787628
11
-0.325378
21
-0.0527435
31
-0.0602509
62
20
0
LINE
8
0
10
-0.325378
20
-0.0527435
30
-0.0602509
11
-0.23681
21
-0.143793
31
-0.189166
62
20
0
LINE
8
0
10
-0.23681
20
-0.143793
30
-0.189166
11
-0.269989
21
-0.116574
31
-0.317889
62
20
0
LINE
8
0
10
-0.269989
20
-0.116574
30
-0.317889
11
-0.36069
21
-0.219809
31
-0.274594
62
20
0
LINE
8
0
10
-0.36069
20
-0.219809
30
-0.274594
11
-0.374396
21
-0.188525
31
-0.215396
62
20
0
LINE
8
0
10
-0.374396
20
-0.188525
30
-0.215396
11
-0.39201
21
-0.133191
31
-0.246442
62
20
0
LINE
8
0
10
-0.39201
20
-0.133191
30
-0.246442
11
-0.291302
21
-0.105533
31
-0.336566
62
20
0
LINE
8
0
10
-0.291302
20
-0.105533
30
-0.336566
11
-0.156473
21
0.00726013
31
-0.369058
62
20
0
LINE
8
0
10
-0.156473
20
0.00726013
30
-0.369058
11
-0.0102448
21
-0.087149
31
-0.250351
62
20
0
LINE
8
0
10
-0.0102448
20
-0.087149
30
-0.250351
11
0.012085
21
-0.104535
31
-0.212155
62
20
0
LINE
8
0
10
0.012085
20
-0.104535
30
-0.212155
11
0.0746338
21
-0.239648
31
-0.276489
62
20
0
LINE
8
0
10
0.0746338
20
-0.239648
30
-0.276489
11
0.00269165
21
-0.267361
31
-0.157901
62
20
0
LINE
8
0
10
0.00269165
20
-0.267361
30
-0.157901
11
0.065744
21
-0.198834
31
-0.039093
62
20
0
LINE
8
0
10
0.065744
20
-0.198834
30
-0.039093
11
0.0338104
21
-0.229614
31
0.0820587
62
20
0
LINE
8
0
10
0.0338104
20
-0.229614
30
0.0820587
11
-0.0236115
21
-0.263187
31
0.103226
62
20
0
LINE
8
0
10
-0.0236115
20
-0.263187
30
0.103226
11
-0.0675476
21
-0.193085
31
0.176825
62
20
0
LINE
8
0
10
-0.0675476
20
-0.193085
30
0.176825
11
0.00335999
21
-0.121262
31
0.0686188
62
20
0
LINE
8
0
10
0.00335999
20
-0.121262
30
0.0686188
11
-0.0865906
21
-0.189487
31
0.122745
62
20
0
LINE
8
0
10
-0.0865906
20
-0.189487
30
0.122745
11
0.0367401
21
-0.229138
31
0.128036
62
20
0
LINE
8
0
10
0.0367401
20
-0.229138
30
0.128036
11
-0.0804474
21
-0.106915
31
0.0389557
62
20
0
LINE
8
0
10
-0.0804474
20
-0.106915
30
0.0389557
11
-0.0750641
21
-0.0604706
31
0.0205078
62
20
0
LINE
8
0
10
-0.0750641
20
-0.0604706
30
0.0205078
11
-0.0187775
21
-0.183344
31
-0.105624
62
20
0
LINE
8
0
10
-0.0187775
20
-0.183344
30
-0.105624
11
-0.146045
21
-0.325003
31
-0.149103
62
20
0
LINE
8
0
10
-0.146045
20
-0.325003
30
-0.149103
11
-0.203879
21
-0.265823
31
-0.256302
62
20
0
LINE
8
0
10
-0.203879
20
-0.265823
30
-0.256302
11
-0.235428
21
-0.395471
31
-0.203586
62
20
0
LINE
8
0
10
-0.235428
20
-0.395471
30
-0.203586
11
-0.167953
21
-0.485861
31
-0.145386
62
20
0
LINE
8
0
10
-0.167953
20
-0.485861
30
-0.145386
11
-0.133246
21
-0.439398
31
-0.132193
62
20
0
LINE
8
0
10
-0.133246
20
-0.439398
30
-0.132193
11
-0.253757
21
-0.425793
31
-0.267307
62
20
0
LINE
8
0
10
-0.253757
20
-0.425793
30
-0.267307
11
-0.111392
21
-0.436588
31
-0.126324
62
20
0
LINE
8
0
10
-0.111392
20
-0.436588
30
-0.126324
11
-0.0430389
21
-0.427304
31
-0.0723541
62
20
0
LINE
8
0
10
-0.0430389
20
-0.427304
30
-0.0723541
11
0.0147949
21
-0.465674
31
-0.105771
62
20
0
LINE
8
0
10
0.0147949
20
-0.465674
30
-0.105771
11
-0.120218
21
-0.372748
31
-0.204904
62
20
0
LINE
8
0
10
-0.120218
20
-0.372748
30
-0.204904
11
-0.251971
21
-0.429584
31
-0.119568
62
20
0
LINE
8
0
10
-0.251971
20
-0.429584
30
-0.119568
11
-0.338232
21
-0.483014
31
-0.124173
62
20
0
LINE
8
0
10
0.105927
20
0.258514
30
-0.098938
11
0.0608643
21
0.361301
31
0.0337494
62
21
0
LINE
8
0
10
0.0628357
20
0.363525
30
-0.113251
11
0.00475464
21
0.298788
31
-0.25524
62
22
0
LINE
8
0
10
0.00475464
20
0.298788
30
-0.25524
11
0.0385193
21
0.266141
31
-0.399655
62
22
0
LINE
8
0
10
0.0385193
20
0.266141
30
-0.399655
11
-0.10217
21
0.252847
31
-0.292282
62
22
0
LINE
8
0
10
-0.10217
20
0.252847
30
-0.292282
11
0.0288513
21
0.223413
31
-0.224103
62
22
0
LINE
8
0
10
0.0288513
20
0.223413
30
-0.224103
11
0.062323
21
0.315918
31
-0.111484
62
22
0
LINE
8
0
10
0.062323
20
0.315918
30
-0.111484
11
0.0870972
21
0.344418
31
-0.237781
62
22
0
LINE
8
0
10
0.0870972
20
0.344418
30
-0.237781
11
0.175043
21
0.333075
31
-0.210599
62
22
0
LINE
8
0
10
0.175043
20
0.333075
30
-0.210599
11
0.201868
21
0.35383
31
-0.115787
62
22
0
LINE
8
0
10
0.201868
20
0.35383
30
-0.115787
11
0.253687
21
0.3069
31
-0.26272
62
22
0
LINE
8
0
10
0.253687
20
0.3069
30
-0.26272
11
0.183878
21
0.259366
31
-0.343094
62
22
0
LINE
8
0
10
0.183878
20
0.259366
30
-0.343094
11
0.265176
21
0.220886
31
-0.232141
62
22
0
LINE
8
0
10
0.265176
20
0.220886
30
-0.232141
11
0.150232
21
0.288553
31
-0.193469
62
22
0
LINE
8
0
10
0.150232
20
0.288553
30
-0.193469
11
0.268408
21
0.193457
31
-0.182803
62
22
0
LINE
8
0
10
0.268408
20
0.193457
30
-0.182803
11
0.389001
21
0.277475
31
-0.0432495
62
22
0
LINE
8
0
10
0.389001
20
0.277475
30
-0.0432495
11
0.298209
21
0.397931
31
0.0459686
62
22
0
LINE
8
0
10
0.128693
20
-0.314545
30
0.116913
11
0.0581879
21
-0.389352
31
0.186566
62
23
0
LINE
8
0
10
0.0581879
20
-0.389352
30
0.186566
11
0.144614
21
-0.488074
31
0.250726
62
23
0
LINE
8
0
10
0.355316
20
-0.375366
30
-0.192535
11
0.377307
21
-0.383478
31
-0.113928
62
24
0
LINE
8
0
10
0.377307
20
-0.383478
30
-0.113928
11
0.284866
21
-0.315152
31
0.0345703
62
24
0
LINE
8
0
10
0.284866
20
-0.315152
30
0.0345703
11
0.139471
21
-0.270868
31
0.0920563
62
24
0
LINE
8
0
10
0.139471
20
-0.270868
30
0.0920563
11
0.0417114
21
-0.399234
31
0.0245453
62
24
0
LINE
8
0
10
0.0417114
20
-0.399234
30
0.0245453
11
0.094693
21
-0.297565
31
0.0415375
62
24
0
LINE
8
0
10
0.094693
20
-0.297565
30
0.0415375
11
0.0560577
21
-0.213721
31
-0.0387085
62
24
0
LINE
8
0
10
0.0560577
20
-0.213721
30
-0.0387085
11
0.097522
21
-0.294223
31
-0.127332
62
24
0
LINE
8
0
10
0.097522
20
-0.294223
30
-0.127332
11
0.238824
21
-0.359702
31
-0.270465
62
24
0
LINE
8
0
10
0.238824
20
-0.359702
30
-0.270465
11
0.319583
21
-0.464154
31
-0.406375
62
24
0
LINE
8
0
10
-0.156769
20
-0.0854492
30
-0.0834961
11
-0.279568
21
-0.0718994
31
-0.0237213
62
25
0
LINE
8
0
10
-0.279568
20
-0.0718994
30
-0.0237213
11
-0.328174
21
-0.024649
31
0.0891449
62
25
0
LINE
8
0
10
-0.328174
20
-0.024649
30
0.0891449
11
-0.317535
21
-0.00364685
31
-0.0446594
62
25
0
LINE
8
0
10
-0.317535
20
-0.00364685
30
-0.0446594
11
-0.327808
21
-0.0756531
31
-0.0666229
62
25
0
LINE
8
0
10
-0.327808
20
-0.0756531
30
-0.0666229
11
-0.218814
21
-0.0796814
31
-0.190393
62
25
0
LINE
8
0
10
-0.218814
20
-0.0796814
30
-0.190393
11
-0.199075
21
-0.0168671
31
-0.10686
62
25
0
LINE
8
0
10
-0.199075
20
-0.0168671
30
-0.10686
11
-0.0898163
21
0.0882904
31
-0.168961
62
25
0
LINE
8
0
10
-0.0898163
20
0.0882904
30
-0.168961
11
0.0194885
21
0.13176
31
-0.0949127
62
25
0
LINE
8
0
10
0.0194885
20
0.13176
30
-0.0949127
11
0.118073
21
0.211438
31
0.0166534
62
25
0
LINE
8
0
10
0.118073
20
0.211438
30
0.0166534
11
0.240561
21
0.33519
31
0.0232361
62
25
0
LINE
8
0
10
0.240561
20
0.33519
30
0.0232361
11
0.222607
21
0.21748
31
-0.0205627
62
25
0
LINE
8
0
10
0.222607
20
0.21748
30
-0.0205627
11
0.319516
21
0.195792
31
-0.119614
62
25
0
LINE
8
0
10
0.319516
20
0.195792
30
-0.119614
11
0.169772
21
0.243024
31
-0.0375549
62
25
0
LINE
8
0
10
0.169772
20
0.243024
30
-0.0375549
11
0.0388885
21
0.119968
31
-0.0718597
62
25
0
LINE
8
0
10
0.0388885
20
0.119968
30
-0.0718597
11
0.0940491
21
0.212244
31
-0.175635
62
25
0
LINE
8
0
10
0.0940491
20
0.212244
30
-0.175635
11
-0.0130951
21
0.0767822
31
-0.221796
62
25
0
LINE
8
0
10
-0.0130951
20
0.0767822
30
-0.221796
11
-0.157529
21
0.2203
31
-0.177512
62
25
0
LINE
8
0
10
-0.157529
20
0.2203
30
-0.177512
11
-0.291434
21
0.344537
31
-0.136276
62
25
0
LINE
8
0
10
-0.291434
20
0.344537
30
-0.136276
11
-0.311923
21
0.200854
31
-0.213501
62
25
0
LINE
8
0
10
-0.311923
20
0.200854
30
-0.213501
11
-0.344342
21
0.247052
31
-0.128943
62
25
0
LINE
8
0
10
-0.344342
20
0.247052
30
-0.128943
11
-0.487494
21
0.344858
31
-0.237415
62
25
0
LINE
8
0
10
-0.487494
20
0.344858
30
-0.237415
11
-0.44722
21
0.359973
31
-0.0923767
62
25
0
LINE
8
0
10
-0.44722
20
0.359973
30
-0.0923767
11
-0.458197
21
0.274408
31
-0.15217
62
25
0
LINE
8
0
10
-0.458197
20
0.274408
30
-0.15217
11
-0.373557
21
0.227167
31
-0.157993
62
25
0
LINE
8
0
10
-0.373557
20
0.227167
30
-0.157993
11
-0.341156
21
0.107919
31
-0.0126709
62
25
0
LINE
8
0
10
-0.341156
20
0.107919
30
-0.0126709
11
-0.264417
21
0.00318298
31
-0.0257538
62
25
0
LINE
8
0
10
-0.264417
20
0.00318298
30
-0.0257538
11
-0.200934
21
0.152798
31
0.0568909
62
25
0
LINE
8
0
10
-0.200934
20
0.152798
30
0.0568909
11
-0.158444
21
0.189154
31
0.190714
62
25
0
LINE
8
0
10
-0.158444
20
0.189154
30
0.190714
11
-0.102002
21
0.126093
31
0.210855
62
25
0
LINE
8
0
10
-0.102002
20
0.126093
30
0.210855
11
-0.16489
21
0.140558
31
0.274557
62
25
0
LINE
8
0
10
-0.16489
20
0.140558
30
0.274557
11
-0.240961
21
0.154556
31
0.272342
62
25
0
LINE
8
0
10
-0.240961
20
0.154556
30
0.272342
11
-0.105353
21
0.205496
31
0.351883
62
25
0
LINE
8
0
10
-0.105353
20
0.205496
30
0.351883
11
-0.0683472
21
0.189218
31
0.441504
62
25
0
LINE
8
0
10
-0.0683472
20
0.189218
30
0.441504
11
0.00530701
21
0.335886
31
0.35289
62
25
0
LINE
8
0
10
0.00530701
20
0.335886
30
0.35289
11
0.0441437
21
0.458823
31
0.380273
62
25
0
LINE
8
0
10
0.0441437
20
0.458823
30
0.380273
11
0.169653
21
0.46048
31
0.377087
62
25
0
LINE
8
0
10
-0.317078
20
-0.248047
30
-0.296997
11
-0.247937
21
-0.115717
31
-0.259479
62
26
0
LINE
8
0
10
-0.247937
20
-0.115717
30
-0.259479
11
-0.385532
21
-0.0733185
31
-0.399124
62
26
0
LINE
8
0
10
-0.385532
20
-0.0733185
30
-0.399124
11
-0.368631
21
-0.0599792
31
-0.415228
62
26
0
LINE
8
0
10
0.100891
20
-0.449646
30
-0.327209
11
0.148956
21
-0.499918
31
-0.382425
62
27
0
LINE
8
0
10
-0.278381
20
0.178497
30
-0.333557
11
-0.279123
21
0.180786
31
-0.242746
62
28
0
LINE
8
0
10
-0.279123
20
0.180786
30
-0.242746
11
-0.298605
21
0.0321411
31
-0.290903
62
28
0
LINE
8
0
10
-0.298605
20
0.0321411
30
-0.290903
11
-0.33584
21
-0.0792877
31
-0.192712
62
28
0
LINE
8
0
10
-0.33584
20
-0.0792877
30
-0.192712
11
-0.265857
21
0.0380463
31
-0.149719
62
28
0
LINE
8
0
10
-0.265857
20
0.0380463
30
-0.149719
11
-0.220685
21
0.0423859
31
-0.0795349
62
28
0
LINE
8
0
10
-0.220685
20
0.0423859
30
-0.0795349
11
-0.149539
21
0.179504
31
-0.0897888
62
28
0
LINE
8
0
10
-0.149539
20
0.179504
30
-0.0897888
11
-0.190564
21
0.0631592
31
0.031601
62
28
0
LINE
8
0
10
-0.190564
20
0.0631592
30
0.031601
11
-0.0942047
21
0.0495911
31
-0.0857971
62
28
0
LINE
8
0
10
-0.0942047
20
0.0495911
30
-0.0857971
11
0.0166199
21
0.127997
31
-0.22406
62
28
0
LINE
8
0
10
0.0166199
20
0.127997
30
-0.22406
11
-0.00838318
21
0.258826
31
-0.353735
62
28
0
LINE
8
0
10
-0.00838318
20
0.258826
30
-0.353735
11
-0.108926
21
0.172208
31
-0.468661
62
28
0
LINE
8
0
10
-0.108926
20
0.172208
30
-0.468661
11
-0.0815979
21
0.0577118
31
-0.433185
62
28
0
LINE
8
0
10
-0.0815979
20
0.0577118
30
-0.433185
11
-0.0575745
21
0.114795
31
-0.363724
62
28
0
LINE
8
0
10
-0.0575745
20
0.114795
30
-0.363724
11
0.0671112
21
0.165707
31
-0.424176
62
28
0
LINE
8
0
10
0.0671112
20
0.165707
30
-0.424176
11
0.159763
21
0.12916
31
-0.274936
62
28
0
LINE
8
0
10
0.159763
20
0.12916
30
-0.274936
11
0.24151
21
0.0404816
31
-0.373767
62
28
0
LINE
8
0
10
0.24151
20
0.0404816
30
-0.373767
11
0.207983
21
-0.0551544
31
-0.349478
62
28
0
LINE
8
0
10
0.207983
20
-0.0551544
30
-0.349478
11
0.116669
21
0.0828796
31
-0.442404
62
28
0
LINE
8
0
10
-0.301849
20
-0.453766
30
0.271149
11
-0.223544
21
-0.339462
31
0.12168
62
29
0
LINE
8
0
10
-0.223544
20
-0.339462
30
0.12168
11
-0.238962
21
-0.361554
31
0.212134
62
29
0
LINE
8
0
10
-0.238962
20
-0.361554
30
0.212134
11
-0.250562
21
-0.363101
31
0.286942
62
29
0
LINE
8
0
10
-0.250562
20
-0.363101
30
0.286942
11
-0.329013
21
-0.345285
31
0.164764
62
29
0
LINE
8
0
10
-0.329013
20
-0.345285
30
0.164764
11
-0.202414
21
-0.227145
31
0.271863
62
29
0
LINE
8
0
10
-0.202414
20
-0.227145
30
0.271863
11
-0.334525
21
-0.229883
31
0.311469
62
29
0
LINE
8
0
10
-0.334525
20
-0.229883
30
0.311469
11
-0.260367
21
-0.15307
31
0.23819
62
29
0
LINE
8
0
10
-0.260367
20
-0.15307
30
0.23819
11
-0.137402
21
-0.0654816
31
0.148074
62
29
0
LINE
8
0
10
-0.137402
20
-0.0654816
30
0.148074
11
-0.121555
21
-0.20011
31
0.154721
62
29
0
LINE
8
0
10
-0.121555
20
-0.20011
30
0.154721
11
-0.0344513
21
-0.13887
31
0.0119354
62
29
0
LINE
8
0
10
-0.0344513
20
-0.13887
30
0.0119354
11
0.0350647
21
-0.122867
31
0.136191
62
29
0
LINE
8
0
10
0.0350647
20
-0.122867
30
0.136191
11
0.14772
21
-0.0337952
31
0.0778168
62
29
0
LINE
8
0
10
0.14772
20
-0.0337952
30
0.0778168
11
0.116199
21
-0.0392334
31
-0.0564087
62
29
0
LINE
8
0
10
0.116199
20
-0.0392334
30
-0.0564087
11
0.161783
21
-0.188977
31
0.0241577
62
29
0
LINE
8
0
10
0.161783
20
-0.188977
30
0.0241577
11
0.238632
21
-0.273059
31
-0.0794159
62
29
0
LINE
8
0
10
0.238632
20
-0.273059
30
-0.0794159
11
0.10589
21
-0.221881
31
-0.219611
62
29
0
LINE
8
0
10
0.10589
20
-0.221881
30
-0.219611
11
0.0596466
21
-0.162527
31
-0.130173
62
29
0
LINE
8
0
10
0.0596466
20
-0.162527
30
-0.130173
11
0.0405212
21
-0.0180206
31
-0.0895142
62
29
0
LINE
8
0
10
0.0405212
20
-0.0180206
30
-0.0895142
11
-0.0208923
21
-0.0249329
31
0.0227844
62
29
0
LINE
8
0
10
-0.0208923
20
-0.0249329
30
0.0227844
11
-0.147107
21
-0.144638
31
-0.0842499
62
29
0
LINE
8
0
10
-0.147107
20
-0.144638
30
-0.0842499
11
-0.254205
21
-0.0192474
31
-0.141635
62
29
0
LINE
8
0
10
-0.254205
20
-0.0192474
30
-0.141635
11
-0.292062
21
0.0748962
31
-0.277646
62
29
0
LINE
8
0
10
-0.292062
20
0.0748962
30
-0.277646
11
-0.197809
21
-0.00310669
31
-0.158289
62
29
0
LINE
8
0
10
-0.197809
20
-0.00310669
30
-0.158289
11
-0.270859
21
-0.0723022
31
-0.245886
62
29
0
LINE
8
0
10
-0.270859
20
-0.0723022
30
-0.245886
11
-0.352048
21
0.0315369
31
-0.133441
62
29
0
LINE
8
0
10
-0.352048
20
0.0315369
30
-0.133441
11
-0.235748
21
0.134964
31
-0.100665
62
29
0
LINE
8
0
10
-0.235748
20
0.134964
30
-0.100665
11
-0.37348
21
0.0370209
31
-0.195541
62
29
0
LINE
8
0
10
-0.37348
20
0.0370209
30
-0.195541
11
-0.416711
21
0.0217957
31
-0.290024
62
29
0
LINE
8
0
10
-0.416711
20
0.0217957
30
-0.290024
11
-0.29838
21
0.0587006
31
-0.276126
62
29
0
LINE
8
0
10
-0.29838
20
0.0587006
30
-0.276126
11
-0.174884
21
0.0654755
31
-0.20694
62
29
0
LINE
8
0
10
-0.174884
20
0.0654755
30
-0.20694
11
-0.0250946
21
0.206265
31
-0.0967194
62
29
0
LINE
8
0
10
-0.0250946
20
0.206265
30
-0.0967194
11
0.0769592
21
0.100266
31
-0.134402
62
29
0
LINE
8
0
10
0.0769592
20
0.100266
30
-0.134402
11
0.0122681
21
0.00155334
31
0.00771484
62
29
0
LINE
8
0
10
0.0122681
20
0.00155334
30
0.00771484
11
0.0848053
21
0.0665283
31
-0.13302
62
29
0
LINE
8
0
10
0.0848053
20
0.0665283
30
-0.13302
11
0.128311
21
0.160333
31
-0.0622498
62
29
0
LINE
8
0
10
0.128311
20
0.160333
30
-0.0622498
11
0.223755
21
0.0477234
31
0.00341187
62
29
0
LINE
8
0
10
0.223755
20
0.0477234
30
0.00341187
11
0.186273
21
0.0926666
31
0.128033
62
29
0
LINE
8
0
10
0.186273
20
0.0926666
30
0.128033
11
0.303168
21
-0.0476837
31
0.210074
62
29
0
LINE
8
0
10
0.303168
20
-0.0476837
30
0.210074
11
0.287823
21
-0.195413
31
0.128656
62
29
0
LINE
8
0
10
0.287823
20
-0.195413
30
0.128656
11
0.263361
21
-0.298438
31
0.254358
62
29
0
LINE
8
0
10
0.263361
20
-0.298438
30
0.254358
11
0.263864
21
-0.37558
31
0.330695
62
29
0
LINE
8
0
10
0.263864
20
-0.37558
30
0.330695
11
0.385812
21
-0.461539
31
0.190326
62
29
0
LINE
8
0
10
0.306366
20
0.35199
30
-0.168396
11
0.318039
21
0.499518
31
-0.0575989
62
30
0
LINE
8
0
10
0.318039
20
0.499518
30
-0.0575989
11
0.362094
21
0.417834
31
0.0362335
62
30
0
LINE
8
0
10
0.362094
20
0.417834
30
0.0362335
11
0.323404
21
0.377899
31
-0.103275
62
30
0
LINE
8
0
10
0.323404
20
0.377899
30
-0.103275
11
0.341788
21
0.347256
31
-0.21734
62
30
0
LINE
8
0
10
0.341788
20
0.347256
30
-0.21734
11
0.289264
21
0.466953
31
-0.306897
62
30
0
LINE
8
0
10
0.289264
20
0.466953
30
-0.306897
11
0.42131
21
0.354471
31
-0.202106
62
30
0
LINE
8
0
10
0.134735
20
0.0600586
30
0.124023
11
0.111829
21
-0.0849976
31
0.233255
62
31
0
LINE
8
0
10
0.111829
20
-0.0849976
30
0.233255
11
0.00371399
21
-0.154779
31
0.170844
62
31
0
LINE
8
0
10
0.00371399
20
-0.154779
30
0.170844
11
0.0582062
21
-0.136349
31
0.308484
62
31
0
LINE
8
0
10
0.0582062
20
-0.136349
30
0.308484
11
0.0903687
21
-0.0498871
31
0.285294
62
31
0
LINE
8
0
10
0.0903687
20
-0.0498871
30
0.285294
11
0.185876
21
0.0219452
31
0.176025
62
31
0
LINE
8
0
10
0.185876
20
0.0219452
30
0.176025
11
0.190829
21
-0.122031
31
0.0281219
62
31
0
LINE
8
0
10
0.190829
20
-0.122031
30
0.0281219
11
0.265317
21
-0.171872
31
0.148752
62
31
0
LINE
8
0
10
0.265317
20
-0.171872
30
0.148752
11
0.253992
21
-0.091507
31
0.0139038
62
31
0
LINE
8
0
10
0.253992
20
-0.091507
30
0.0139038
11
0.293277
21
-0.234256
31
0.0686249
62
31
0
LINE
8
0
10
0.293277
20
-0.234256
30
0.0686249
11
0.433994
21
-0.234128
31
0.130533
62
31
0
LINE
8
0
10
0.433994
20
-0.234128
30
0.130533
11
0.363773
21
-0.13743
31
0.174515
62
31
0
LINE
8
0
10
0.363773
20
-0.13743
30
0.174515
11
0.392932
21
-0.208347
31
0.277777
62
31
0
LINE
8
0
10
0.392932
20
-0.208347
30
0.277777
11
0.380948
21
-0.133905
31
0.233255
62
31
0
LINE
8
0
10
0.380948
20
-0.133905
30
0.233255
11
0.235297
21
-0.140945
31
0.271194
62
31
0
LINE
8
0
10
0.235297
20
-0.140945
30
0.271194
11
0.206458
21
-0.175864
31
0.12948
62
31
0
LINE
8
0
10
0.206458
20
-0.175864
30
0.12948
11
0.143103
21
-0.146814
31
0.244635
62
31
0
LINE
8
0
10
0.143103
20
-0.146814
30
0.244635
11
0.122751
21
-0.0173584
31
0.209525
62
31
0
LINE
8
0
10
0.122751
20
-0.0173584
30
0.209525
11
0.132684
21
-0.164337
31
0.351788
62
31
0
LINE
8
0
10
0.132684
20
-0.164337
30
0.351788
11
0.242236
21
-0.183115
31
0.411673
62
31
0
LINE
8
0
10
0.242236
20
-0.183115
30
0.411673
11
0.19212
21
-0.152417
31
0.411234
62
31
0
LINE
8
0
10
0.19212
20
-0.152417
30
0.411234
11
0.210001
21
-0.290717
31
0.374695
62
31
0
LINE
8
0
10
0.210001
20
-0.290717
30
0.374695
11
0.12991
21
-0.159521
31
0.482544
62
31
0
LINE
8
0
10
-0.423553
20
-0.0929871
30
-0.194702
11
-0.423984
21
-0.218973
31
-0.0822754
62
32
0
LINE
8
0
10
-0.423984
20
-0.218973
30
-0.0822754
11
-0.482706
21
-0.134525
31
0.047583
62
32
0
LINE
8
0
10
-0.482706
20
-0.134525
30
0.047583
11
-0.456183
21
-0.219659
31
-0.0186279
62
32
0
LINE
8
0
10
-0.456183
20
-0.219659
30
-0.0186279
11
-0.437973
21
-0.107343
31
-0.0936096
62
32
0
LINE
8
0
10
-0.437973
20
-0.107343
30
-0.0936096
11
-0.497556
21
-0.039209
31
0.0163635
62
32
0
LINE
8
0
10
-0.243073
20
-0.33017
30
-0.383881
11
-0.32363
21
-0.331708
31
-0.245947
62
34
0
LINE
8
0
10
-0.32363
20
-0.331708
30
-0.245947
11
-0.458844
21
-0.457822
31
-0.294653
62
34
0
LINE
8
0
10
-0.087738
20
0.424683
30
0.101044
11
-0.150095
21
0.417404
31
0.0715363
62
35
0
LINE
8
0
10
-0.150095
20
0.417404
30
0.0715363
11
-0.0147064
21
0.431906
31
0.172006
62
35
0
LINE
8
0
10
-0.372375
20
0.274872
30
-0.0271301
11
-0.469604
21
0.132874
31
-0.164642
62
37
0
LINE
8
0
10
-0.469604
20
0.132874
30
-0.164642
11
-0.483173
21
0.241556
31
-0.27381
62
37
0
LINE
8
0
10
0.29718
20
0.279633
30
0.158478
11
0.236801
21
0.364053
31
0.284921
62
38
0
LINE
8
0
10
0.236801
20
0.364053
30
0.284921
11
0.339432
21
0.286838
31
0.284546
62
38
0
LINE
8
0
10
0.339432
20
0.286838
30
0.284546
11
0.196335
21
0.159552
31
0.143811
62
38
0
LINE
8
0
10
0.196335
20
0.159552
30
0.143811
11
0.153195
21
0.224142
31
0.116748
62
38
0
LINE
8
0
10
0.153195
20
0.224142
30
0.116748
11
0.0573212
21
0.163516
31
0.0213776
62
38
0
LINE
8
0
10
0.0573212
20
0.163516
30
0.0213776
11
0.130783
21
0.0539368
31
-0.111154
62
38
0
LINE
8
0
10
0.130783
20
0.0539368
30
-0.111154
11
0.138464
21
0.0115936
31
-0.0191437
62
38
0
LINE
8
0
10
0.138464
20
0.0115936
30
-0.0191437
11
0.0361084
21
0.131546
31
-0.129602
62
38
0
LINE
8
0
10
0.0361084
20
0.131546
30
-0.129602
11
-0.105121
21
0.0359741
31
-0.0341858
62
38
0
LINE
8
0
10
-0.105121
20
0.0359741
30
-0.0341858
11
-0.180359
21
0.0571777
31
-0.0801178
62
38
0
LINE
8
0
10
-0.180359
20
0.0571777
30
-0.0801178
11
-0.168384
21
0.106644
31
0.0311005
62
38
0
LINE
8
0
10
-0.168384
20
0.106644
30
0.0311005
11
-0.0386353
21
0.240219
31
-0.0873413
62
38
0
LINE
8
0
10
-0.0386353
20
0.240219
30
-0.0873413
11
-0.142667
21
0.257605
31
0.00272827
62
38
0
LINE
8
0
10
-0.142667
20
0.257605
30
0.00272827
11
-0.0241333
21
0.129358
31
0.114413
62
38
0
LINE
8
0
10
-0.0241333
20
0.129358
30
0.114413
11
0.072583
21
0.0958405
31
0.129044
62
38
0
LINE
8
0
10
0.072583
20
0.0958405
30
0.129044
11
0.124164
21
0.0811188
31
0.0634552
62
38
0
LINE
8
0
10
0.124164
20
0.0811188
30
0.0634552
11
0.258994
21
0.225754
31
0.131863
62
38
0
LINE
8
0
10
0.258994
20
0.225754
30
0.131863
11
0.28743
21
0.157465
31
0.0214508
62
38
0
LINE
8
0
10
0.28743
20
0.157465
30
0.0214508
11
0.196811
21
0.187613
31
0.0176514
62
38
0
LINE
8
0
10
0.196811
20
0.187613
30
0.0176514
11
0.153406
21
0.106589
31
0.0111786
62
38
0
LINE
8
0
10
0.153406
20
0.106589
30
0.0111786
11
0.210937
21
0.241025
31
0.0625122
62
38
0
LINE
8
0
10
0.210937
20
0.241025
30
0.0625122
11
0.355701
21
0.16228
31
0.0665771
62
38
0
LINE
8
0
10
0.355701
20
0.16228
30
0.0665771
11
0.276443
21
0.281683
31
0.0618805
62
38
0
LINE
8
0
10
0.276443
20
0.281683
30
0.0618805
11
0.224377
21
0.292926
31
0.0831116
62
38
0
LINE
8
0
10
0.224377
20
0.292926
30
0.0831116
11
0.175333
21
0.247369
31
-0.0161224
62
38
0
LINE
8
0
10
0.175333
20
0.247369
30
-0.0161224
11
0.112381
21
0.16315
31
0.110715
62
38
0
LINE
8
0
10
0.112381
20
0.16315
30
0.110715
11
0.184277
21
0.255243
31
0.155841
62
38
0
LINE
8
0
10
0.184277
20
0.255243
30
0.155841
11
0.24028
21
0.186267
31
0.235895
62
38
0
LINE
8
0
10
0.24028
20
0.186267
30
0.235895
11
0.109607
21
0.252789
31
0.343607
62
38
0
LINE
8
0
10
0.109607
20
0.252789
30
0.343607
11
0.0620728
21
0.116101
31
0.338892
62
38
0
LINE
8
0
10
0.0620728
20
0.116101
30
0.338892
11
-0.0816925
21
0.217551
31
0.374442
62
38
0
LINE
8
0
10
-0.0816925
20
0.217551
30
0.374442
11
-0.0695251
21
0.248761
31
0.395041
62
38
0
LINE
8
0
10
-0.0695251
20
0.248761
30
0.395041
11
0.013678
21
0.290765
31
0.454056
62
38
0
LINE
8
0
10
0.013678
20
0.290765
30
0.454056
11
0.0916534
21
0.40116
31
0.351453
62
38
0
LINE
8
0
10
0.0916534
20
0.40116
30
0.351453
11
0.0687012
21
0.487091
31
0.20788
62
38
0
LINE
8
0
10
0.0687012
20
0.487091
30
0.20788
11
0.0502075
21
0.349734
31
0.209766
62
38
0
LINE
8
0
10
0.0502075
20
0.349734
30
0.209766
11
-0.0190155
21
0.220215
31
0.133218
62
38
0
LINE
8
0
10
-0.0190155
20
0.220215
30
0.133218
11
0.125592
21
0.222147
31
0.167871
62
38
0
LINE
8
0
10
0.125592
20
0.222147
30
0.167871
11
-0.00310364
21
0.182394
31
0.304523
62
38
0
LINE
8
0
10
-0.00310364
20
0.182394
30
0.304523
11
0.10491
21
0.133633
31
0.227087
62
38
0
LINE
8
0
10
0.10491
20
0.133633
30
0.227087
11
0.0417664
21
-0.00107727
31
0.37489
62
38
0
LINE
8
0
10
0.0417664
20
-0.00107727
30
0.37489
11
-0.0564972
21
-0.130405
31
0.290927
62
38
0
LINE
8
0
10
-0.0564972
20
-0.130405
30
0.290927
11
-0.116226
21
-0.0443542
31
0.335806
62
38
0
LINE
8
0
10
-0.116226
20
-0.0443542
30
0.335806
11
-0.241122
21
-0.115527
31
0.226749
62
38
0
LINE
8
0
10
-0.241122
20
-0.115527
30
0.226749
11
-0.325864
21
-0.096759
31
0.130225
62
38
0
LINE
8
0
10
-0.325864
20
-0.096759
30
0.130225
11
-0.286185
21
-0.214688
31
0.116336
62
38
0
LINE
8
0
10
-0.286185
20
-0.214688
30
0.116336
11
-0.208539
21
-0.264548
31
-0.0164429
62
38
0
LINE
8
0
10
-0.208539
20
-0.264548
30
-0.0164429
11
-0.273788
21
-0.206265
31
0.0955261
62
38
0
LINE
8
0
10
-0.273788
20
-0.206265
30
0.0955261
11
-0.253519
21
-0.0957245
31
-0.0301117
62
38
0
LINE
8
0
10
-0.253519
20
-0.0957245
30
-0.0301117
11
-0.164905
21
0.0541656
31
0.0103821
62
38
0
LINE
8
0
10
-0.164905
20
0.0541656
30
0.0103821
11
-0.129254
21
0.0825928
31
0.0383148
62
38
0
LINE
8
0
10
-0.129254
20
0.0825928
30
0.0383148
11
-0.220981
21
0.226248
31
-0.0422333
62
38
0
LINE
8
0
10
-0.220981
20
0.226248
30
-0.0422333
11
-0.358292
21
0.147961
31
-0.115695
62
38
0
LINE
8
0
10
-0.358292
20
0.147961
30
-0.115695
11
-0.386252
21
0.236438
31
-0.183957
62
38
0
LINE
8
0
10
-0.386252
20
0.236438
30
-0.183957
11
-0.266245
21
0.200266
31
-0.115695
62
38
0
LINE
8
0
10
-0.266245
20
0.200266
30
-0.115695
11
-0.3543
21
0.0661499
31
-0.0843292
62
38
0
LINE
8
0
10
-0.3543
20
0.0661499
30
-0.0843292
11
-0.398108
21
0.0245209
31
-0.033902
62
38
0
LINE
8
0
10
-0.398108
20
0.0245209
30
-0.033902
11
-0.255304
21
-0.0583893
31
0.0848236
62
38
0
LINE
8
0
10
-0.255304
20
-0.0583893
30
0.0848236
11
-0.301218
21
0.0776581
31
0.134354
62
38
0
LINE
8
0
10
-0.301218
20
0.0776581
30
0.134354
11
-0.39072
21
0.0123627
31
0.0909851
62
38
0
LINE
8
0
10
-0.39072
20
0.0123627
30
0.0909851
11
-0.381125
21
-0.0503418
31
0.00697632
62
38
0
LINE
8
0
10
0.343781
20
0.171844
30
0.319122
11
0.195511
21
0.169244
31
0.350507
62
39
0
LINE
8
0
10
0.195511
20
0.169244
30
0.350507
11
0.326102
21
0.10643
31
0.382248
62
39
0
LINE
8
0
10
0.330078
20
0.105896
30
-0.195129
11
0.415341
21
0.000930786
31
-0.182349
62
40
0
LINE
8
0
10
0.415341
20
0.000930786
30
-0.182349
11
0.472049
21
-0.0306824
31
-0.0343994
62
40
0
LINE
8
0
10
0.472049
20
-0.0306824
30
-0.0343994
11
0.352628
21
-0.0572052
31
-0.176169
62
40
0
LINE
8
0
10
0.352628
20
-0.0572052
30
-0.176169
11
0.40885
21
-0.129541
31
-0.275467
62
40
0
LINE
8
0
10
0.40885
20
-0.129541
30
-0.275467
11
0.327441
21
-0.222842
31
-0.166812
62
40
0
LINE
8
0
10
0.327441
20
-0.222842
30
-0.166812
11
0.406424
21
-0.35856
31
-0.171848
62
40
0
LINE
8
0
10
0.406424
20
-0.35856
30
-0.171848
11
0.27327
21
-0.220197
31
-0.29635
62
40
0
LINE
8
0
10
0.27327
20
-0.220197
30
-0.29635
11
0.292908
21
-0.0814392
31
-0.274185
62
40
0
LINE
8
0
10
0.292908
20
-0.0814392
30
-0.274185
11
0.406497
21
-0.108832
31
-0.303244
62
40
0
LINE
8
0
10
0.406497
20
-0.108832
30
-0.303244
11
0.380542
21
-0.0612793
31
-0.206244
62
40
0
LINE
8
0
10
0.116241
20
-0.450562
30
0.156036
11
0.0928223
21
-0.314221
31
0.187219
62
41
0
LINE
8
0
10
0.0928223
20
-0.314221
30
0.187219
11
0.00308228
21
-0.339911
31
0.139383
62
41
0
LINE
8
0
10
0.00308228
20
-0.339911
30
0.139383
11
0.0400146
21
-0.247397
31
-0.00916138
62
41
0
LINE
8
0
10
0.0400146
20
-0.247397
30
-0.00916138
11
-0.0784088
21
-0.279074
31
-0.0761047
62
41
0
LINE
8
0
10
-0.0784088
20
-0.279074
30
-0.0761047
11
-0.133377
21
-0.181808
31
0.0299408
62
41
0
LINE
8
0
10
-0.133377
20
-0.181808
30
0.0299408
11
-0.18992
21
-0.27251
31
0.0493408
62
41
0
LINE
8
0
10
-0.18992
20
-0.27251
30
0.0493408
11
-0.199203
21
-0.123984
31
0.0293091
62
41
0
LINE
8
0
10
-0.199203
20
-0.123984
30
0.0293091
11
-0.238663
21
-0.148355
31
-0.00523376
62
41
0
LINE
8
0
10
-0.238663
20
-0.148355
30
-0.00523376
11
-0.214539
21
-0.0350403
31
-0.0540131
62
41
0
LINE
8
0
10
-0.214539
20
-0.0350403
30
-0.0540131
11
-0.246527
21
0.100266
31
-0.0512756
62
41
0
LINE
8
0
10
-0.246527
20
0.100266
30
-0.0512756
11
-0.270953
21
0.132748
31
0.0317444
62
41
0
LINE
8
0
10
-0.270953
20
0.132748
30
0.0317444
11
-0.395859
21
0.0281036
31
-0.0558807
62
41
0
LINE
8
0
10
0.12912
20
-0.167236
30
-0.420685
11
0.16347
21
-0.27439
31
-0.486475
62
42
0
LINE
8
0
10
0.16347
20
-0.27439
30
-0.486475
11
0.260956
21
-0.292673
31
-0.338159
62
42
0
LINE
8
0
10
0.260956
20
-0.292673
30
-0.338159
11
0.17724
21
-0.410474
31
-0.332465
62
42
0
LINE
8
0
10
0.270538
20
-0.392487
30
0.469177
11
0.231363
21
-0.271298
31
0.475687
62
43
0
LINE
8
0
10
0.231363
20
-0.271298
30
0.475687
11
0.14816
21
-0.330515
31
0.469223
62
43
0
LINE
8
0
10
0.341583
20
-0.110901
30
-0.0725403
11
0.408829
21
-0.0404327
31
-0.19512
62
44
0
LINE
8
0
10
0.408829
20
-0.0404327
30
-0.19512
11
0.283347
21
0.0354828
31
-0.0910339
62
44
0
LINE
8
0
10
0.283347
20
0.0354828
30
-0.0910339
11
0.324683
21
-0.00663147
31
-0.0985321
62
44
0
LINE
8
0
10
0.324683
20
-0.00663147
30
-0.0985321
11
0.203
21
-0.0320465
31
-0.192026
62
44
0
LINE
8
0
10
0.203
20
-0.0320465
30
-0.192026
11
0.155933
21
0.0919617
31
-0.273233
62
44
0
LINE
8
0
10
0.155933
20
0.0919617
30
-0.273233
11
0.0990234
21
-0.0117584
31
-0.320776
62
44
0
LINE
8
0
10
0.0990234
20
-0.0117584
30
-0.320776
11
0.00370789
21
-0.0800751
31
-0.408997
62
44
0
LINE
8
0
10
-0.0180969
20
-0.0279236
30
0.199219
11
-0.0935181
21
0.103079
31
0.132449
62
46
0
LINE
8
0
10
-0.0935181
20
0.103079
30
0.132449
11
-0.153659
21
0.199805
31
0.228333
62
46
0
LINE
8
0
10
-0.153659
20
0.199805
30
0.228333
11
-0.114694
21
0.288318
31
0.0804932
62
46
0
LINE
8
0
10
-0.114694
20
0.288318
30
0.0804932
11
-0.186407
21
0.225174
31
0.216376
62
46
0
LINE
8
0
10
-0.186407
20
0.225174
30
0.216376
11
-0.0785767
21
0.230402
31
0.278622
62
46
0
LINE
8
0
10
-0.0785767
20
0.230402
30
0.278622
11
-0.151727
21
0.356708
31
0.275995
62
46
0
LINE
8
0
10
-0.151727
20
0.356708
30
0.275995
11
-0.273666
21
0.454495
31
0.149002
62
46
0
LINE
8
0
10
-0.273666
20
0.454495
30
0.149002
11
-0.338879
21
0.41965
31
0.191977
62
46
0
LINE
8
0
10
-0.338879
20
0.41965
30
0.191977
11
-0.334357
21
0.399106
31
0.0841919
62
46
0
LINE
8
0
10
-0.334357
20
0.399106
30
0.0841919
11
-0.191873
21
0.27149
31
-0.0642517
62
46
0
LINE
8
0
10
-0.191873
20
0.27149
30
-0.0642517
11
-0.0674438
21
0.244986
31
0.0123413
62
46
0
LINE
8
0
10
-0.0674438
20
0.244986
30
0.0123413
11
-0.161148
21
0.1255
31
-0.0107208
62
46
0
LINE
8
0
10
-0.161148
20
0.1255
30
-0.0107208
11
-0.107773
21
0.133722
31
0.0865356
62
46
0
LINE
8
0
10
-0.107773
20
0.133722
30
0.0865356
11
-0.00662537
21
0.0651672
31
0.08638
62
46
0
LINE
8
0
10
-0.00662537
20
0.0651672
30
0.08638
11
0.104501
21
-0.0401367
31
0.227609
62
46
0
LINE
8
0
10
0.104501
20
-0.0401367
30
0.227609
11
0.11601
21
-0.123935
31
0.0976318
62
46
0
LINE
8
0
10
0.11601
20
-0.123935
30
0.0976318
11
0.0273956
21
-0.214618
31
0.00550232
62
46
0
LINE
8
0
10
0.0273956
20
-0.214618
30
0.00550232
11
-0.0627472
21
-0.0775909
31
0.0335449
62
46
0
LINE
8
0
10
-0.0627472
20
-0.0775909
30
0.0335449
11
0.00888367
21
-0.139279
31
0.0874878
62
46
0
LINE
8
0
10
0.00888367
20
-0.139279
30
0.0874878
11
0.0947144
21
-0.0128906
31
0.21601
62
46
0
LINE
8
0
10
0.0947144
20
-0.0128906
30
0.21601
11
0.198004
21
-0.085199
31
0.097641
62
46
0
LINE
8
0
10
0.198004
20
-0.085199
30
0.097641
11
0.066571
21
0.0359253
31
-0.00786438
62
46
0
LINE
8
0
10
0.066571
20
0.0359253
30
-0.00786438
11
0.18439
21
-0.00625305
31
0.129135
62
46
0
LINE
8
0
10
0.18439
20
-0.00625305
30
0.129135
11
0.148859
21
-0.0568176
31
0.184497
62
46
0
LINE
8
0
10
0.148859
20
-0.0568176
30
0.184497
11
0.265112
21
-0.0927887
31
0.164474
62
46
0
LINE
8
0
10
0.265112
20
-0.0927887
30
0.164474
11
0.317499
21
-0.162662
31
0.15932
62
46
0
LINE
8
0
10
0.317499
20
-0.162662
30
0.15932
11
0.325848
21
-0.072052
31
0.247549
62
46
0
LINE
8
0
10
0.325848
20
-0.072052
30
0.247549
11
0.399741
21
-0.0760529
31
0.345877
62
46
0
LINE
8
0
10
0.399741
20
-0.0760529
30
0.345877
11
0.417447
21
-0.142419
31
0.300027
62
46
0
LINE
8
0
10
0.417447
20
-0.142419
30
0.300027
11
0.283688
21
-0.0190521
31
0.378891
62
46
0
LINE
8
0
10
0.283688
20
-0.0190521
30
0.378891
11
0.244229
21
-0.0843384
31
0.292264
62
46
0
LINE
8
0
10
0.244229
20
-0.0843384
30
0.292264
11
0.191595
21
-0.219296
31
0.406741
62
46
0
LINE
8
0
10
0.191595
20
-0.219296
30
0.406741
11
0.116238
21
-0.248154
31
0.300201
62
46
0
LINE
8
0
10
0.116238
20
-0.248154
30
0.300201
11
0.228812
21
-0.215726
31
0.385291
62
46
0
LINE
8
0
10
0.228812
20
-0.215726
30
0.385291
11
0.137863
21
-0.230219
31
0.463815
62
46
0
LINE
8
0
10
0.0689392
20
0.0329895
30
-0.281128
11
-0.0579071
21
-0.0256317
31
-0.411792
62
49
0
LINE
8
0
10
-0.0579071
20
-0.0256317
30
-0.411792
11
-0.0845306
21
-0.135522
31
-0.486288
62
49
0
LINE
8
0
10
0.487915
20
0.416504
30
-0.378265
11
0.423242
21
0.478586
31
-0.38699
62
50
0
LINE
8
0
10
0.423242
20
0.478586
30
-0.38699
11
0.361664
21
0.431976
31
-0.379465
62
50
0
LINE
8
0
10
0.329193
20
0.0543823
30
-0.396362
11
0.332059
21
0.188379
31
-0.329437
62
51
0
LINE
8
0
10
0.332059
20
0.188379
30
-0.329437
11
0.324231
21
0.173767
31
-0.203781
62
51
0
LINE
8
0
10
0.324231
20
0.173767
30
-0.203781
11
0.338879
21
0.133347
31
-0.0884796
62
51
0
LINE
8
0
10
0.338879
20
0.133347
30
-0.0884796
11
0.386789
21
0.020105
31
-0.086264
62
51
0
LINE
8
0
10
0.386789
20
0.020105
30
-0.086264
11
0.270517
21
-0.0459595
31
-0.0723297
62
51
0
LINE
8
0
10
0.270517
20
-0.0459595
30
-0.0723297
11
0.357895
21
-0.0852081
31
0.0350983
62
51
0
LINE
8
0
10
0.357895
20
-0.0852081
30
0.0350983
11
0.431192
21
-0.0960571
31
-0.00700684
62
51
0
LINE
8
0
10
0.431192
20
-0.0960571
30
-0.00700684
11
0.413815
21
-0.070285
31
-0.0432983
62
51
0
LINE
8
0
10
0.413815
20
-0.070285
30
-0.0432983
11
0.453421
21
-0.053009
31
-0.048526
62
51
0
LINE
8
0
10
-0.390747
20
-0.459381
30
-0.278229
11
-0.463962
21
-0.486298
31
-0.215955
62
52
0
LINE
8
0
10
0.35675
20
0.30661
30
-0.281738
11
0.48389
21
0.250616
31
-0.388773
62
53
0
LINE
8
0
10
0.0372314
20
-0.113129
30
-0.48761
11
-0.0416504
21
0.00257568
31
-0.459879
62
54
0
LINE
8
0
10
-0.0416504
20
0.00257568
30
-0.459879
11
-0.145874
21
-0.142462
31
-0.449323
62
54
0
LINE
8
0
10
-0.0944519
20
0.46579
30
-0.402924
11
-0.124582
21
0.467621
31
-0.452335
62
55
0
LINE
8
0
10
-0.210052
20
0.0335083
30
0.398651
11
-0.216635
21
-0.018045
31
0.451019
62
56
0
LINE
8
0
10
-0.216635
20
-0.018045
30
0.451019
11
-0.228537
21
0.0067749
31
0.424844
62
56
0
LINE
8
0
10
-0.228537
20
0.0067749
30
0.424844
11
-0.101855
21
-0.106934
31
0.474255
62
56
0
LINE
8
0
10
-0.101855
20
-0.106934
30
0.474255
11
-0.207251
21
-0.182721
31
0.357727
62
56
0
LINE
8
0
10
-0.207251
20
-0.182721
30
0.357727
11
-0.326645
21
-0.125876
31
0.455652
62
56
0
LINE
8
0
10
-0.0815125
20
0.139893
30
-0.400787
11
0.0176575
21
0.100479
31
-0.287408
62
57
0
LINE
8
0
10
0.0176575
20
0.100479
30
-0.287408
11
0.0236633
21
0.239154
31
-0.319003
62
57
0
LINE
8
0
10
0.0236633
20
0.239154
30
-0.319003
11
0.0913666
21
0.278329
31
-0.356769
62
57
0
LINE
8
0
10
0.0913666
20
0.278329
30
-0.356769
11
0.185382
21
0.384091
31
-0.487589
62
57
0
LINE
8
0
10
0.318939
20
0.283691
30
-0.226074
11
0.3379
21
0.186105
31
-0.338803
62
58
0
LINE
8
0
10
0.3379
20
0.186105
30
-0.338803
11
0.415024
21
0.160242
31
-0.404977
62
58
0
LINE
8
0
10
0.415024
20
0.160242
30
-0.404977
11
0.316312
21
0.173499
31
-0.482605
62
58
0
LINE
8
0
10
0.316312
20
0.173499
30
-0.482605
11
0.261893
21
0.0910187
31
-0.435199
62
58
0
LINE
8
0
10
0.261893
20
0.0910187
30
-0.435199
11
0.321411
21
0.142087
31
-0.392206
62
58
0
LINE
8
0
10
0.321411
20
0.142087
30
-0.392206
11
0.18822
21
0.0909363
31
-0.256543
62
58
0
LINE
8
0
10
0.18822
20
0.0909363
30
-0.256543
11
0.134424
21
0.0332214
31
-0.357654
62
58
0
LINE
8
0
10
0.134424
20
0.0332214
30
-0.357654
11
0.0949829
21
-0.0338501
31
-0.219327
62
58
0
LINE
8
0
10
0.0949829
20
-0.0338501
30
-0.219327
11
0.0158447
21
-0.105609
31
-0.181882
62
58
0
LINE
8
0
10
0.0158447
20
-0.105609
30
-0.181882
11
0.0926483
21
-0.0807709
31
-0.250583
62
58
0
LINE
8
0
10
0.0926483
20
-0.0807709
30
-0.250583
11
0.156287
21
-0.129404
31
-0.186349
62
58
0
LINE
8
0
10
0.156287
20
-0.129404
30
-0.186349
11
0.0127594
21
-0.0692444
31
-0.147147
62
58
0
LINE
8
0
10
0.0127594
20
-0.0692444
30
-0.147147
11
-0.0993286
21
-0.00328979
31
-0.18288
62
58
0
LINE
8
0
10
-0.0993286
20
-0.00328979
30
-0.18288
11
-0.0921509
21
0.105942
31
-0.155304
62
58
0
LINE
8
0
10
-0.0921509
20
0.105942
30
-0.155304
11
-0.0936066
21
-0.0348206
31
-0.103778
62
58
0
LINE
8
0
10
-0.0936066
20
-0.0348206
30
-0.103778
11
-0.0775665
21
-0.0799469
31
-0.0820068
62
58
0
LINE
8
0
10
-0.0775665
20
-0.0799469
30
-0.0820068
11
0.00170898
21
-0.223154
31
-0.231815
62
58
0
LINE
8
0
10
0.00170898
20
-0.223154
30
-0.231815
11
0.0157898
21
-0.14874
31
-0.297147
62
58
0
LINE
8
0
10
0.0157898
20
-0.14874
30
-0.297147
11
0.103992
21
-0.0481781
31
-0.230011
62
58
0
LINE
8
0
10
0.103992
20
-0.0481781
30
-0.230011
11
0.042926
21
-0.0365875
31
-0.258337
62
58
0
LINE
8
0
10
0.042926
20
-0.0365875
30
-0.258337
11
-0.0765411
21
-0.0697754
31
-0.379324
62
58
0
LINE
8
0
10
-0.0765411
20
-0.0697754
30
-0.379324
11
-0.0260864
21
-0.171225
31
-0.322049
62
58
0
LINE
8
0
10
-0.0260864
20
-0.171225
30
-0.322049
11
0.0251373
21
-0.0996765
31
-0.205585
62
58
0
LINE
8
0
10
0.0251373
20
-0.0996765
30
-0.205585
11
0.102106
21
-0.07883
31
-0.276108
62
58
0
LINE
8
0
10
0.102106
20
-0.07883
30
-0.276108
11
-0.0144592
21
-0.148694
31
-0.206079
62
58
0
LINE
8
0
10
-0.0144592
20
-0.148694
30
-0.206079
11
0.128775
21
-0.152328
31
-0.291608
62
58
0
LINE
8
0
10
0.128775
20
-0.152328
30
-0.291608
11
0.219128
21
-0.118463
31
-0.337054
62
58
0
LINE
8
0
10
0.219128
20
-0.118463
30
-0.337054
11
0.21391
21
0.0310791
31
-0.374957
62
58
0
LINE
8
0
10
0.21391
20
0.0310791
30
-0.374957
11
0.3483
21
-0.0527374
31
-0.335883
62
58
0
LINE
8
0
10
0.3483
20
-0.0527374
30
-0.335883
11
0.371005
21
-0.159076
31
-0.206921
62
58
0
LINE
8
0
10
0.371005
20
-0.159076
30
-0.206921
11
0.35838
21
-0.116385
31
-0.342328
62
58
0
LINE
8
0
10
0.35838
20
-0.116385
30
-0.342328
11
0.405099
21
-0.0436737
31
-0.462335
62
58
0
LINE
8
0
10
0.368835
20
0.115936
30
0.219879
11
0.43815
21
0.0115112
31
0.296738
62
60
0
LINE
8
0
10
0.43815
20
0.0115112
30
0.296738
11
0.333981
21
-0.0170715
31
0.331079
62
60
0
LINE
8
0
10
0.333981
20
-0.0170715
30
0.331079
11
0.399011
21
0.0819153
31
0.446884
62
60
0
LINE
8
0
10
0.399011
20
0.0819153
30
0.446884
11
0.268127
21
0.0503387
31
0.477966
62
60
0
ENDSEC
0
EOF
