0
SECTION
2
ENTITIES
0
LINE
8
0
10
-0.000655671
20
-10000
30
0
11
94.2437
21
-9999.41
31
0
62
0
0
LINE
8
0
10
94.2437
20
-9999.41
30
0
11
188.469
21
-9997.63
31
0
62
0
0
LINE
8
0
10
188.469
20
-9997.63
30
0
11
282.66
21
-9994.67
31
0
62
0
0
LINE
8
0
10
282.66
20
-9994.67
30
0
11
376.793
21
-9990.53
31
0
62
0
0
LINE
8
0
10
376.793
20
-9990.53
30
0
11
470.851
21
-9985.2
31
0
62
0
0
LINE
8
0
10
470.851
20
-9985.2
30
0
11
564.817
21
-9978.7
31
0
62
0
0
LINE
8
0
10
564.817
20
-9978.7
30
0
11
658.671
21
-9971.02
31
0
62
0
0
LINE
8
0
10
658.671
20
-9971.02
30
0
11
752.395
21
-9962.16
31
0
62
0
0
LINE
8
0
10
752.395
20
-9962.16
30
0
11
845.973
21
-9952.12
31
0
62
0
0
LINE
8
0
10
845.973
20
-9952.12
30
0
11
939.382
21
-9940.92
31
0
62
0
0
LINE
8
0
10
939.382
20
-9940.92
30
0
11
1032.61
21
-9928.55
31
0
62
0
0
LINE
8
0
10
1032.61
20
-9928.55
30
0
11
1125.63
21
-9915.01
31
0
62
0
0
LINE
8
0
10
1125.63
20
-9915.01
30
0
11
1218.43
21
-9900.31
31
0
62
0
0
LINE
8
0
10
1218.43
20
-9900.31
30
0
11
1310.99
21
-9884.46
31
0
62
0
0
LINE
8
0
10
1310.99
20
-9884.46
30
0
11
1403.29
21
-9867.45
31
0
62
0
0
LINE
8
0
10
1403.29
20
-9867.45
30
0
11
1495.32
21
-9849.29
31
0
62
0
0
LINE
8
0
10
1495.32
20
-9849.29
30
0
11
1587.05
21
-9830
31
0
62
0
0
LINE
8
0
10
1587.05
20
-9830
30
0
11
1678.47
21
-9809.56
31
0
62
0
0
LINE
8
0
10
1678.47
20
-9809.56
30
0
11
1769.56
21
-9788
31
0
62
0
0
LINE
8
0
10
1769.56
20
-9788
30
0
11
1860.31
21
-9765.3
31
0
62
0
0
LINE
8
0
10
1860.31
20
-9765.3
30
0
11
1950.69
21
-9741.49
31
0
62
0
0
LINE
8
0
10
1950.69
20
-9741.49
30
0
11
2040.69
21
-9716.56
31
0
62
0
0
LINE
8
0
10
2040.69
20
-9716.56
30
0
11
2130.29
21
-9690.53
31
0
62
0
0
LINE
8
0
10
2130.29
20
-9690.53
30
0
11
2219.48
21
-9663.4
31
0
62
0
0
LINE
8
0
10
2219.48
20
-9663.4
30
0
11
2308.23
21
-9635.18
31
0
62
0
0
LINE
8
0
10
2308.23
20
-9635.18
30
0
11
2396.54
21
-9605.87
31
0
62
0
0
LINE
8
0
10
2396.54
20
-9605.87
30
0
11
2484.38
21
-9575.49
31
0
62
0
0
LINE
8
0
10
2484.38
20
-9575.49
30
0
11
2571.73
21
-9544.04
31
0
62
0
0
LINE
8
0
10
2571.73
20
-9544.04
30
0
11
2658.59
21
-9511.53
31
0
62
0
0
LINE
8
0
10
2658.59
20
-9511.53
30
0
11
2744.93
21
-9477.98
31
0
62
0
0
LINE
8
0
10
2744.93
20
-9477.98
30
0
11
2830.74
21
-9443.37
31
0
62
0
0
LINE
8
0
10
2830.74
20
-9443.37
30
0
11
2916
21
-9407.74
31
0
62
0
0
LINE
8
0
10
2916
20
-9407.74
30
0
11
3000.7
21
-9371.09
31
0
62
0
0
LINE
8
0
10
3000.7
20
-9371.09
30
0
11
3084.82
21
-9333.43
31
0
62
0
0
LINE
8
0
10
3084.82
20
-9333.43
30
0
11
3168.34
21
-9294.76
31
0
62
0
0
LINE
8
0
10
3168.34
20
-9294.76
30
0
11
3251.26
21
-9255.11
31
0
62
0
0
LINE
8
0
10
3251.26
20
-9255.11
30
0
11
3333.55
21
-9214.47
31
0
62
0
0
LINE
8
0
10
3333.55
20
-9214.47
30
0
11
3415.21
21
-9172.87
31
0
62
0
0
LINE
8
0
10
3415.21
20
-9172.87
30
0
11
3496.21
21
-9130.3
31
0
62
0
0
LINE
8
0
10
3496.21
20
-9130.3
30
0
11
3576.54
21
-9086.8
31
0
62
0
0
LINE
8
0
10
3576.54
20
-9086.8
30
0
11
3656.19
21
-9042.35
31
0
62
0
0
LINE
8
0
10
3656.19
20
-9042.35
30
0
11
3735.15
21
-8996.99
31
0
62
0
0
LINE
8
0
10
3735.15
20
-8996.99
30
0
11
3813.4
21
-8950.71
31
0
62
0
0
LINE
8
0
10
3813.4
20
-8950.71
30
0
11
3890.92
21
-8903.54
31
0
62
0
0
LINE
8
0
10
3890.92
20
-8903.54
30
0
11
3967.71
21
-8855.48
31
0
62
0
0
LINE
8
0
10
3967.71
20
-8855.48
30
0
11
4043.75
21
-8806.55
31
0
62
0
0
LINE
8
0
10
4043.75
20
-8806.55
30
0
11
4119.03
21
-8756.77
31
0
62
0
0
LINE
8
0
10
4119.03
20
-8756.77
30
0
11
4193.53
21
-8706.13
31
0
62
0
0
LINE
8
0
10
4193.53
20
-8706.13
30
0
11
4267.25
21
-8654.67
31
0
62
0
0
LINE
8
0
10
4267.25
20
-8654.67
30
0
11
4340.17
21
-8602.39
31
0
62
0
0
LINE
8
0
10
4340.17
20
-8602.39
30
0
11
4412.28
21
-8549.3
31
0
62
0
0
LINE
8
0
10
4412.28
20
-8549.3
30
0
11
4483.57
21
-8495.43
31
0
62
0
0
LINE
8
0
10
4483.57
20
-8495.43
30
0
11
4554.02
21
-8440.78
31
0
62
0
0
LINE
8
0
10
4554.02
20
-8440.78
30
0
11
4623.63
21
-8385.37
31
0
62
0
0
LINE
8
0
10
4623.63
20
-8385.37
30
0
11
4692.39
21
-8329.21
31
0
62
0
0
LINE
8
0
10
4692.39
20
-8329.21
30
0
11
4760.28
21
-8272.32
31
0
62
0
0
LINE
8
0
10
4760.28
20
-8272.32
30
0
11
4827.3
21
-8214.72
31
0
62
0
0
LINE
8
0
10
4827.3
20
-8214.72
30
0
11
4893.43
21
-8156.42
31
0
62
0
0
LINE
8
0
10
4893.43
20
-8156.42
30
0
11
4958.67
21
-8097.43
31
0
62
0
0
LINE
8
0
10
4958.67
20
-8097.43
30
0
11
5023
21
-8037.77
31
0
62
0
0
LINE
8
0
10
5023
20
-8037.77
30
0
11
5086.42
21
-7977.46
31
0
62
0
0
LINE
8
0
10
5086.42
20
-7977.46
30
0
11
5148.92
21
-7916.51
31
0
62
0
0
LINE
8
0
10
5148.92
20
-7916.51
30
0
11
5210.49
21
-7854.94
31
0
62
0
0
LINE
8
0
10
5210.49
20
-7854.94
30
0
11
5271.13
21
-7792.77
31
0
62
0
0
LINE
8
0
10
5271.13
20
-7792.77
30
0
11
5330.81
21
-7730.01
31
0
62
0
0
LINE
8
0
10
5330.81
20
-7730.01
30
0
11
5389.54
21
-7666.67
31
0
62
0
0
LINE
8
0
10
5389.54
20
-7666.67
30
0
11
5447.32
21
-7602.78
31
0
62
0
0
LINE
8
0
10
5447.32
20
-7602.78
30
0
11
5504.12
21
-7538.34
31
0
62
0
0
LINE
8
0
10
5504.12
20
-7538.34
30
0
11
5559.95
21
-7473.39
31
0
62
0
0
LINE
8
0
10
5559.95
20
-7473.39
30
0
11
5614.8
21
-7407.93
31
0
62
0
0
LINE
8
0
10
5614.8
20
-7407.93
30
0
11
5668.67
21
-7341.98
31
0
62
0
0
LINE
8
0
10
5668.67
20
-7341.98
30
0
11
5721.54
21
-7275.56
31
0
62
0
0
LINE
8
0
10
5721.54
20
-7275.56
30
0
11
5773.41
21
-7208.68
31
0
62
0
0
LINE
8
0
10
5773.41
20
-7208.68
30
0
11
5824.28
21
-7141.37
31
0
62
0
0
LINE
8
0
10
5824.28
20
-7141.37
30
0
11
5874.15
21
-7073.64
31
0
62
0
0
LINE
8
0
10
5874.15
20
-7073.64
30
0
11
5923
21
-7005.5
31
0
62
0
0
LINE
8
0
10
5923
20
-7005.5
30
0
11
5970.84
21
-6936.98
31
0
62
0
0
LINE
8
0
10
5970.84
20
-6936.98
30
0
11
6017.66
21
-6868.09
31
0
62
0
0
LINE
8
0
10
6017.66
20
-6868.09
30
0
11
6063.45
21
-6798.85
31
0
62
0
0
LINE
8
0
10
6063.45
20
-6798.85
30
0
11
6108.22
21
-6729.28
31
0
62
0
0
LINE
8
0
10
6108.22
20
-6729.28
30
0
11
6151.96
21
-6659.39
31
0
62
0
0
LINE
8
0
10
6151.96
20
-6659.39
30
0
11
6194.67
21
-6589.2
31
0
62
0
0
LINE
8
0
10
6194.67
20
-6589.2
30
0
11
6236.34
21
-6518.74
31
0
62
0
0
LINE
8
0
10
6236.34
20
-6518.74
30
0
11
6276.98
21
-6448.01
31
0
62
0
0
LINE
8
0
10
6276.98
20
-6448.01
30
0
11
6316.58
21
-6377.04
31
0
62
0
0
LINE
8
0
10
6316.58
20
-6377.04
30
0
11
6355.14
21
-6305.84
31
0
62
0
0
LINE
8
0
10
6355.14
20
-6305.84
30
0
11
6392.66
21
-6234.43
31
0
62
0
0
LINE
8
0
10
6392.66
20
-6234.43
30
0
11
6429.14
21
-6162.83
31
0
62
0
0
LINE
8
0
10
6429.14
20
-6162.83
30
0
11
6464.59
21
-6091.06
31
0
62
0
0
LINE
8
0
10
6464.59
20
-6091.06
30
0
11
6498.99
21
-6019.13
31
0
62
0
0
LINE
8
0
10
6498.99
20
-6019.13
30
0
11
6532.35
21
-5947.06
31
0
62
0
0
LINE
8
0
10
6532.35
20
-5947.06
30
0
11
6564.67
21
-5874.87
31
0
62
0
0
LINE
8
0
10
6564.67
20
-5874.87
30
0
11
6595.96
21
-5802.58
31
0
62
0
0
LINE
8
0
10
6595.96
20
-5802.58
30
0
11
6626.2
21
-5730.19
31
0
62
0
0
LINE
8
0
10
6626.2
20
-5730.19
30
0
11
6655.42
21
-5657.75
31
0
62
0
0
LINE
8
0
10
6655.42
20
-5657.75
30
0
11
6683.6
21
-5585.25
31
0
62
0
0
LINE
8
0
10
6683.6
20
-5585.25
30
0
11
6710.74
21
-5512.71
31
0
62
0
0
LINE
8
0
10
6710.74
20
-5512.71
30
0
11
6736.86
21
-5440.16
31
0
62
0
0
LINE
8
0
10
6736.86
20
-5440.16
30
0
11
6761.96
21
-5367.62
31
0
62
0
0
LINE
8
0
10
6761.96
20
-5367.62
30
0
11
6786.03
21
-5295.08
31
0
62
0
0
LINE
8
0
10
6786.03
20
-5295.08
30
0
11
6809.08
21
-5222.59
31
0
62
0
0
LINE
8
0
10
6809.08
20
-5222.59
30
0
11
6831.12
21
-5150.15
31
0
62
0
0
LINE
8
0
10
6831.12
20
-5150.15
30
0
11
6852.15
21
-5077.77
31
0
62
0
0
LINE
8
0
10
6852.15
20
-5077.77
30
0
11
6872.17
21
-5005.48
31
0
62
0
0
LINE
8
0
10
6872.17
20
-5005.48
30
0
11
6891.19
21
-4933.29
31
0
62
0
0
LINE
8
0
10
6891.19
20
-4933.29
30
0
11
6909.21
21
-4861.22
31
0
62
0
0
LINE
8
0
10
6909.21
20
-4861.22
30
0
11
6926.24
21
-4789.29
31
0
62
0
0
LINE
8
0
10
6926.24
20
-4789.29
30
0
11
6942.29
21
-4717.51
31
0
62
0
0
LINE
8
0
10
6942.29
20
-4717.51
30
0
11
6957.35
21
-4645.9
31
0
62
0
0
LINE
8
0
10
6957.35
20
-4645.9
30
0
11
6971.45
21
-4574.46
31
0
62
0
0
LINE
8
0
10
6971.45
20
-4574.46
30
0
11
6984.57
21
-4503.24
31
0
62
0
0
LINE
8
0
10
6984.57
20
-4503.24
30
0
11
6996.74
21
-4432.22
31
0
62
0
0
LINE
8
0
10
6996.74
20
-4432.22
30
0
11
7007.95
21
-4361.44
31
0
62
0
0
LINE
8
0
10
7007.95
20
-4361.44
30
0
11
7018.21
21
-4290.9
31
0
62
0
0
LINE
8
0
10
7018.21
20
-4290.9
30
0
11
7027.54
21
-4220.63
31
0
62
0
0
LINE
8
0
10
7027.54
20
-4220.63
30
0
11
7035.94
21
-4150.63
31
0
62
0
0
LINE
8
0
10
7035.94
20
-4150.63
30
0
11
7043.41
21
-4080.92
31
0
62
0
0
LINE
8
0
10
7043.41
20
-4080.92
30
0
11
7049.97
21
-4011.52
31
0
62
0
0
LINE
8
0
10
7049.97
20
-4011.52
30
0
11
7055.63
21
-3942.45
31
0
62
0
0
LINE
8
0
10
7055.63
20
-3942.45
30
0
11
7060.39
21
-3873.71
31
0
62
0
0
LINE
8
0
10
7060.39
20
-3873.71
30
0
11
7064.26
21
-3805.31
31
0
62
0
0
LINE
8
0
10
7064.26
20
-3805.31
30
0
11
7067.25
21
-3737.29
31
0
62
0
0
LINE
8
0
10
7067.25
20
-3737.29
30
0
11
7069.38
21
-3669.64
31
0
62
0
0
LINE
8
0
10
7069.38
20
-3669.64
30
0
11
7070.65
21
-3602.38
31
0
62
0
0
LINE
8
0
10
7070.65
20
-3602.38
30
0
11
7071.07
21
-3535.53
31
0
62
0
0
LINE
8
0
10
7071.07
20
-3535.53
30
0
11
7070.65
21
-3469.1
31
0
62
0
0
LINE
8
0
10
7070.65
20
-3469.1
30
0
11
7069.41
21
-3403.1
31
0
62
0
0
LINE
8
0
10
7069.41
20
-3403.1
30
0
11
7067.35
21
-3337.55
31
0
62
0
0
LINE
8
0
10
7067.35
20
-3337.55
30
0
11
7064.48
21
-3272.45
31
0
62
0
0
LINE
8
0
10
7064.48
20
-3272.45
30
0
11
7060.82
21
-3207.82
31
0
62
0
0
LINE
8
0
10
7060.82
20
-3207.82
30
0
11
7056.38
21
-3143.67
31
0
62
0
0
LINE
8
0
10
7056.38
20
-3143.67
30
0
11
7051.17
21
-3080.02
31
0
62
0
0
LINE
8
0
10
7051.17
20
-3080.02
30
0
11
7045.21
21
-3016.87
31
0
62
0
0
LINE
8
0
10
7045.21
20
-3016.87
30
0
11
7038.49
21
-2954.24
31
0
62
0
0
LINE
8
0
10
7038.49
20
-2954.24
30
0
11
7031.04
21
-2892.14
31
0
62
0
0
LINE
8
0
10
7031.04
20
-2892.14
30
0
11
7022.87
21
-2830.57
31
0
62
0
0
LINE
8
0
10
7022.87
20
-2830.57
30
0
11
7013.99
21
-2769.56
31
0
62
0
0
LINE
8
0
10
7013.99
20
-2769.56
30
0
11
7004.42
21
-2709.1
31
0
62
0
0
LINE
8
0
10
7004.42
20
-2709.1
30
0
11
6994.16
21
-2649.22
31
0
62
0
0
LINE
8
0
10
6994.16
20
-2649.22
30
0
11
6983.23
21
-2589.91
31
0
62
0
0
LINE
8
0
10
6983.23
20
-2589.91
30
0
11
6971.65
21
-2531.2
31
0
62
0
0
LINE
8
0
10
6971.65
20
-2531.2
30
0
11
6959.43
21
-2473.08
31
0
62
0
0
LINE
8
0
10
6959.43
20
-2473.08
30
0
11
6946.57
21
-2415.57
31
0
62
0
0
LINE
8
0
10
6946.57
20
-2415.57
30
0
11
6933.1
21
-2358.68
31
0
62
0
0
LINE
8
0
10
6933.1
20
-2358.68
30
0
11
6919.03
21
-2302.42
31
0
62
0
0
LINE
8
0
10
6919.03
20
-2302.42
30
0
11
6904.38
21
-2246.78
31
0
62
0
0
LINE
8
0
10
6904.38
20
-2246.78
30
0
11
6889.15
21
-2191.79
31
0
62
0
0
LINE
8
0
10
6889.15
20
-2191.79
30
0
11
6873.36
21
-2137.45
31
0
62
0
0
LINE
8
0
10
6873.36
20
-2137.45
30
0
11
6857.03
21
-2083.77
31
0
62
0
0
LINE
8
0
10
6857.03
20
-2083.77
30
0
11
6840.17
21
-2030.75
31
0
62
0
0
LINE
8
0
10
6840.17
20
-2030.75
30
0
11
6822.8
21
-1978.4
31
0
62
0
0
LINE
8
0
10
6822.8
20
-1978.4
30
0
11
6804.92
21
-1926.73
31
0
62
0
0
LINE
8
0
10
6804.92
20
-1926.73
30
0
11
6786.57
21
-1875.74
31
0
62
0
0
LINE
8
0
10
6786.57
20
-1875.74
30
0
11
6767.74
21
-1825.44
31
0
62
0
0
LINE
8
0
10
6767.74
20
-1825.44
30
0
11
6748.46
21
-1775.83
31
0
62
0
0
LINE
8
0
10
6748.46
20
-1775.83
30
0
11
6728.74
21
-1726.93
31
0
62
0
0
LINE
8
0
10
6728.74
20
-1726.93
30
0
11
6708.6
21
-1678.73
31
0
62
0
0
LINE
8
0
10
6708.6
20
-1678.73
30
0
11
6688.05
21
-1631.24
31
0
62
0
0
LINE
8
0
10
6688.05
20
-1631.24
30
0
11
6667.11
21
-1584.47
31
0
62
0
0
LINE
8
0
10
6667.11
20
-1584.47
30
0
11
6645.79
21
-1538.41
31
0
62
0
0
LINE
8
0
10
6645.79
20
-1538.41
30
0
11
6624.11
21
-1493.08
31
0
62
0
0
LINE
8
0
10
6624.11
20
-1493.08
30
0
11
6602.09
21
-1448.48
31
0
62
0
0
LINE
8
0
10
6602.09
20
-1448.48
30
0
11
6579.73
21
-1404.6
31
0
62
0
0
LINE
8
0
10
6579.73
20
-1404.6
30
0
11
6557.06
21
-1361.45
31
0
62
0
0
LINE
8
0
10
6557.06
20
-1361.45
30
0
11
6534.09
21
-1319.04
31
0
62
0
0
LINE
8
0
10
6534.09
20
-1319.04
30
0
11
6510.84
21
-1277.37
31
0
62
0
0
LINE
8
0
10
6510.84
20
-1277.37
30
0
11
6487.32
21
-1236.44
31
0
62
0
0
LINE
8
0
10
6487.32
20
-1236.44
30
0
11
6463.55
21
-1196.24
31
0
62
0
0
LINE
8
0
10
6463.55
20
-1196.24
30
0
11
6439.55
21
-1156.79
31
0
62
0
0
LINE
8
0
10
6439.55
20
-1156.79
30
0
11
6415.32
21
-1118.09
31
0
62
0
0
LINE
8
0
10
6415.32
20
-1118.09
30
0
11
6390.9
21
-1080.12
31
0
62
0
0
LINE
8
0
10
6390.9
20
-1080.12
30
0
11
6366.28
21
-1042.9
31
0
62
0
0
LINE
8
0
10
6366.28
20
-1042.9
30
0
11
6341.49
21
-1006.43
31
0
62
0
0
LINE
8
0
10
6341.49
20
-1006.43
30
0
11
6316.55
21
-970.696
31
0
62
0
0
LINE
8
0
10
6316.55
20
-970.696
30
0
11
6291.46
21
-935.708
31
0
62
0
0
LINE
8
0
10
6291.46
20
-935.708
30
0
11
6266.25
21
-901.463
31
0
62
0
0
LINE
8
0
10
6266.25
20
-901.463
30
0
11
6240.93
21
-867.961
31
0
62
0
0
LINE
8
0
10
6240.93
20
-867.961
30
0
11
6215.52
21
-835.198
31
0
62
0
0
LINE
8
0
10
6215.52
20
-835.198
30
0
11
6190.03
21
-803.174
31
0
62
0
0
LINE
8
0
10
6190.03
20
-803.174
30
0
11
6164.48
21
-771.887
31
0
62
0
0
LINE
8
0
10
6164.48
20
-771.887
30
0
11
6138.88
21
-741.334
31
0
62
0
0
LINE
8
0
10
6138.88
20
-741.334
30
0
11
6113.25
21
-711.512
31
0
62
0
0
LINE
8
0
10
6113.25
20
-711.512
30
0
11
6087.6
21
-682.42
31
0
62
0
0
LINE
8
0
10
6087.6
20
-682.42
30
0
11
6061.95
21
-654.053
31
0
62
0
0
LINE
8
0
10
6061.95
20
-654.053
30
0
11
6036.32
21
-626.407
31
0
62
0
0
LINE
8
0
10
6036.32
20
-626.407
30
0
11
6010.71
21
-599.48
31
0
62
0
0
LINE
8
0
10
6010.71
20
-599.48
30
0
11
5985.15
21
-573.267
31
0
62
0
0
LINE
8
0
10
5985.15
20
-573.267
30
0
11
5959.65
21
-547.764
31
0
62
0
0
LINE
8
0
10
5959.65
20
-547.764
30
0
11
5934.22
21
-522.965
31
0
62
0
0
LINE
8
0
10
5934.22
20
-522.965
30
0
11
5908.88
21
-498.866
31
0
62
0
0
LINE
8
0
10
5908.88
20
-498.866
30
0
11
5883.64
21
-475.463
31
0
62
0
0
LINE
8
0
10
5883.64
20
-475.463
30
0
11
5858.52
21
-452.748
31
0
62
0
0
LINE
8
0
10
5858.52
20
-452.748
30
0
11
5833.53
21
-430.717
31
0
62
0
0
LINE
8
0
10
5833.53
20
-430.717
30
0
11
5808.69
21
-409.363
31
0
62
0
0
LINE
8
0
10
5808.69
20
-409.363
30
0
11
5784
21
-388.679
31
0
62
0
0
LINE
8
0
10
5784
20
-388.679
30
0
11
5759.49
21
-368.66
31
0
62
0
0
LINE
8
0
10
5759.49
20
-368.66
30
0
11
5735.17
21
-349.299
31
0
62
0
0
LINE
8
0
10
5735.17
20
-349.299
30
0
11
5711.05
21
-330.587
31
0
62
0
0
LINE
8
0
10
5711.05
20
-330.587
30
0
11
5687.14
21
-312.519
31
0
62
0
0
LINE
8
0
10
5687.14
20
-312.519
30
0
11
5663.46
21
-295.085
31
0
62
0
0
LINE
8
0
10
5663.46
20
-295.085
30
0
11
5640.02
21
-278.278
31
0
62
0
0
LINE
8
0
10
5640.02
20
-278.278
30
0
11
5616.83
21
-262.091
31
0
62
0
0
LINE
8
0
10
5616.83
20
-262.091
30
0
11
5593.91
21
-246.514
31
0
62
0
0
LINE
8
0
10
5593.91
20
-246.514
30
0
11
5571.27
21
-231.538
31
0
62
0
0
LINE
8
0
10
5571.27
20
-231.538
30
0
11
5548.92
21
-217.156
31
0
62
0
0
LINE
8
0
10
5548.92
20
-217.156
30
0
11
5526.88
21
-203.357
31
0
62
0
0
LINE
8
0
10
5526.88
20
-203.357
30
0
11
5505.14
21
-190.132
31
0
62
0
0
LINE
8
0
10
5505.14
20
-190.132
30
0
11
5483.74
21
-177.472
31
0
62
0
0
LINE
8
0
10
5483.74
20
-177.472
30
0
11
5462.67
21
-165.367
31
0
62
0
0
LINE
8
0
10
5462.67
20
-165.367
30
0
11
5441.95
21
-153.806
31
0
62
0
0
LINE
8
0
10
5441.95
20
-153.806
30
0
11
5421.6
21
-142.78
31
0
62
0
0
LINE
8
0
10
5421.6
20
-142.78
30
0
11
5401.61
21
-132.278
31
0
62
0
0
LINE
8
0
10
5401.61
20
-132.278
30
0
11
5382.01
21
-122.289
31
0
62
0
0
LINE
8
0
10
5382.01
20
-122.289
30
0
11
5362.8
21
-112.802
31
0
62
0
0
LINE
8
0
10
5362.8
20
-112.802
30
0
11
5343.99
21
-103.807
31
0
62
0
0
LINE
8
0
10
5343.99
20
-103.807
30
0
11
5325.59
21
-95.2909
31
0
62
0
0
LINE
8
0
10
5325.59
20
-95.2909
30
0
11
5307.62
21
-87.2434
31
0
62
0
0
LINE
8
0
10
5307.62
20
-87.2434
30
0
11
5290.08
21
-79.6525
31
0
62
0
0
LINE
8
0
10
5290.08
20
-79.6525
30
0
11
5272.98
21
-72.5064
31
0
62
0
0
LINE
8
0
10
5272.98
20
-72.5064
30
0
11
5256.33
21
-65.7929
31
0
62
0
0
LINE
8
0
10
5256.33
20
-65.7929
30
0
11
5240.15
21
-59.4999
31
0
62
0
0
LINE
8
0
10
5240.15
20
-59.4999
30
0
11
5224.42
21
-53.6149
31
0
62
0
0
LINE
8
0
10
5224.42
20
-53.6149
30
0
11
5209.18
21
-48.1255
31
0
62
0
0
LINE
8
0
10
5209.18
20
-48.1255
30
0
11
5194.42
21
-43.0189
31
0
62
0
0
LINE
8
0
10
5194.42
20
-43.0189
30
0
11
5180.15
21
-38.2822
31
0
62
0
0
LINE
8
0
10
5180.15
20
-38.2822
30
0
11
5166.38
21
-33.9025
31
0
62
0
0
LINE
8
0
10
5166.38
20
-33.9025
30
0
11
5153.11
21
-29.8665
31
0
62
0
0
LINE
8
0
10
5153.11
20
-29.8665
30
0
11
5140.36
21
-26.1611
31
0
62
0
0
LINE
8
0
10
5140.36
20
-26.1611
30
0
11
5128.13
21
-22.7727
31
0
62
0
0
LINE
8
0
10
5128.13
20
-22.7727
30
0
11
5116.42
21
-19.6879
31
0
62
0
0
LINE
8
0
10
5116.42
20
-19.6879
30
0
11
5105.24
21
-16.8929
31
0
62
0
0
LINE
8
0
10
5105.24
20
-16.8929
30
0
11
5094.61
21
-14.374
31
0
62
0
0
LINE
8
0
10
5094.61
20
-14.374
30
0
11
5084.52
21
-12.1174
31
0
62
0
0
LINE
8
0
10
5084.52
20
-12.1174
30
0
11
5074.97
21
-10.1089
31
0
62
0
0
LINE
8
0
10
5074.97
20
-10.1089
30
0
11
5065.98
21
-8.33458
31
0
62
0
0
LINE
8
0
10
5065.98
20
-8.33458
30
0
11
5057.55
21
-6.78021
31
0
62
0
0
LINE
8
0
10
5057.55
20
-6.78021
30
0
11
5049.68
21
-5.43151
31
0
62
0
0
LINE
8
0
10
5049.68
20
-5.43151
30
0
11
5042.38
21
-4.27414
31
0
62
0
0
LINE
8
0
10
5042.38
20
-4.27414
30
0
11
5035.64
21
-3.29367
31
0
62
0
0
LINE
8
0
10
5035.64
20
-3.29367
30
0
11
5029.48
21
-2.47561
31
0
62
0
0
LINE
8
0
10
5029.48
20
-2.47561
30
0
11
5023.9
21
-1.8054
31
0
62
0
0
LINE
8
0
10
5023.9
20
-1.8054
30
0
11
5018.9
21
-1.26841
31
0
62
0
0
LINE
8
0
10
5018.9
20
-1.26841
30
0
11
5014.48
21
-0.84999
31
0
62
0
0
LINE
8
0
10
5014.48
20
-0.84999
30
0
11
5010.64
21
-0.535408
31
0
62
0
0
LINE
8
0
10
5010.64
20
-0.535408
30
0
11
5007.39
21
-0.30991
31
0
62
0
0
LINE
8
0
10
5007.39
20
-0.30991
30
0
11
5004.73
21
-0.158702
31
0
62
0
0
LINE
8
0
10
5004.73
20
-0.158702
30
0
11
5002.66
21
-0.0669617
31
0
62
0
0
LINE
8
0
10
5002.66
20
-0.0669617
30
0
11
5001.18
21
-0.0198425
31
0
62
0
0
LINE
8
0
10
5001.18
20
-0.0198425
30
0
11
5000.3
21
-0.00248045
31
0
62
0
0
LINE
8
0
10
5000.3
20
-0.00248045
30
0
11
5000
21
0
31
0
62
0
0
LINE
8
0
10
5000
20
0
30
0
11
5000.3
21
0.00248045
31
0
62
0
0
LINE
8
0
10
5000.3
20
0.00248045
30
0
11
5001.18
21
0.0198425
31
0
62
0
0
LINE
8
0
10
5001.18
20
0.0198425
30
0
11
5002.66
21
0.0669617
31
0
62
0
0
LINE
8
0
10
5002.66
20
0.0669617
30
0
11
5004.73
21
0.158702
31
0
62
0
0
LINE
8
0
10
5004.73
20
0.158702
30
0
11
5007.39
21
0.30991
31
0
62
0
0
LINE
8
0
10
5007.39
20
0.30991
30
0
11
5010.64
21
0.535408
31
0
62
0
0
LINE
8
0
10
5010.64
20
0.535408
30
0
11
5014.48
21
0.84999
31
0
62
0
0
LINE
8
0
10
5014.48
20
0.84999
30
0
11
5018.9
21
1.26841
31
0
62
0
0
LINE
8
0
10
5018.9
20
1.26841
30
0
11
5023.9
21
1.8054
31
0
62
0
0
LINE
8
0
10
5023.9
20
1.8054
30
0
11
5029.48
21
2.47561
31
0
62
0
0
LINE
8
0
10
5029.48
20
2.47561
30
0
11
5035.64
21
3.29367
31
0
62
0
0
LINE
8
0
10
5035.64
20
3.29367
30
0
11
5042.38
21
4.27414
31
0
62
0
0
LINE
8
0
10
5042.38
20
4.27414
30
0
11
5049.68
21
5.43151
31
0
62
0
0
LINE
8
0
10
5049.68
20
5.43151
30
0
11
5057.55
21
6.78021
31
0
62
0
0
LINE
8
0
10
5057.55
20
6.78021
30
0
11
5065.98
21
8.33458
31
0
62
0
0
LINE
8
0
10
5065.98
20
8.33458
30
0
11
5074.97
21
10.1089
31
0
62
0
0
LINE
8
0
10
5074.97
20
10.1089
30
0
11
5084.52
21
12.1174
31
0
62
0
0
LINE
8
0
10
5084.52
20
12.1174
30
0
11
5094.61
21
14.374
31
0
62
0
0
LINE
8
0
10
5094.61
20
14.374
30
0
11
5105.24
21
16.8929
31
0
62
0
0
LINE
8
0
10
5105.24
20
16.8929
30
0
11
5116.42
21
19.6879
31
0
62
0
0
LINE
8
0
10
5116.42
20
19.6879
30
0
11
5128.13
21
22.7727
31
0
62
0
0
LINE
8
0
10
5128.13
20
22.7727
30
0
11
5140.36
21
26.1611
31
0
62
0
0
LINE
8
0
10
5140.36
20
26.1611
30
0
11
5153.11
21
29.8665
31
0
62
0
0
LINE
8
0
10
5153.11
20
29.8665
30
0
11
5166.38
21
33.9025
31
0
62
0
0
LINE
8
0
10
5166.38
20
33.9025
30
0
11
5180.15
21
38.2822
31
0
62
0
0
LINE
8
0
10
5180.15
20
38.2822
30
0
11
5194.42
21
43.0189
31
0
62
0
0
LINE
8
0
10
5194.42
20
43.0189
30
0
11
5209.18
21
48.1255
31
0
62
0
0
LINE
8
0
10
5209.18
20
48.1255
30
0
11
5224.42
21
53.6149
31
0
62
0
0
LINE
8
0
10
5224.42
20
53.6149
30
0
11
5240.15
21
59.4999
31
0
62
0
0
LINE
8
0
10
5240.15
20
59.4999
30
0
11
5256.33
21
65.7929
31
0
62
0
0
LINE
8
0
10
5256.33
20
65.7929
30
0
11
5272.98
21
72.5064
31
0
62
0
0
LINE
8
0
10
5272.98
20
72.5064
30
0
11
5290.08
21
79.6525
31
0
62
0
0
LINE
8
0
10
5290.08
20
79.6525
30
0
11
5307.62
21
87.2434
31
0
62
0
0
LINE
8
0
10
5307.62
20
87.2434
30
0
11
5325.59
21
95.2909
31
0
62
0
0
LINE
8
0
10
5325.59
20
95.2909
30
0
11
5343.99
21
103.807
31
0
62
0
0
LINE
8
0
10
5343.99
20
103.807
30
0
11
5362.8
21
112.802
31
0
62
0
0
LINE
8
0
10
5362.8
20
112.802
30
0
11
5382.01
21
122.289
31
0
62
0
0
LINE
8
0
10
5382.01
20
122.289
30
0
11
5401.61
21
132.278
31
0
62
0
0
LINE
8
0
10
5401.61
20
132.278
30
0
11
5421.6
21
142.78
31
0
62
0
0
LINE
8
0
10
5421.6
20
142.78
30
0
11
5441.95
21
153.806
31
0
62
0
0
LINE
8
0
10
5441.95
20
153.806
30
0
11
5462.67
21
165.367
31
0
62
0
0
LINE
8
0
10
5462.67
20
165.367
30
0
11
5483.74
21
177.472
31
0
62
0
0
LINE
8
0
10
5483.74
20
177.472
30
0
11
5505.14
21
190.132
31
0
62
0
0
LINE
8
0
10
5505.14
20
190.132
30
0
11
5526.88
21
203.357
31
0
62
0
0
LINE
8
0
10
5526.88
20
203.357
30
0
11
5548.92
21
217.156
31
0
62
0
0
LINE
8
0
10
5548.92
20
217.156
30
0
11
5571.27
21
231.538
31
0
62
0
0
LINE
8
0
10
5571.27
20
231.538
30
0
11
5593.91
21
246.514
31
0
62
0
0
LINE
8
0
10
5593.91
20
246.514
30
0
11
5616.83
21
262.091
31
0
62
0
0
LINE
8
0
10
5616.83
20
262.091
30
0
11
5640.02
21
278.278
31
0
62
0
0
LINE
8
0
10
5640.02
20
278.278
30
0
11
5663.46
21
295.085
31
0
62
0
0
LINE
8
0
10
5663.46
20
295.085
30
0
11
5687.14
21
312.519
31
0
62
0
0
LINE
8
0
10
5687.14
20
312.519
30
0
11
5711.05
21
330.587
31
0
62
0
0
LINE
8
0
10
5711.05
20
330.587
30
0
11
5735.17
21
349.299
31
0
62
0
0
LINE
8
0
10
5735.17
20
349.299
30
0
11
5759.49
21
368.66
31
0
62
0
0
LINE
8
0
10
5759.49
20
368.66
30
0
11
5784
21
388.679
31
0
62
0
0
LINE
8
0
10
5784
20
388.679
30
0
11
5808.69
21
409.363
31
0
62
0
0
LINE
8
0
10
5808.69
20
409.363
30
0
11
5833.53
21
430.717
31
0
62
0
0
LINE
8
0
10
5833.53
20
430.717
30
0
11
5858.52
21
452.748
31
0
62
0
0
LINE
8
0
10
5858.52
20
452.748
30
0
11
5883.64
21
475.463
31
0
62
0
0
LINE
8
0
10
5883.64
20
475.463
30
0
11
5908.88
21
498.866
31
0
62
0
0
LINE
8
0
10
5908.88
20
498.866
30
0
11
5934.22
21
522.965
31
0
62
0
0
LINE
8
0
10
5934.22
20
522.965
30
0
11
5959.65
21
547.764
31
0
62
0
0
LINE
8
0
10
5959.65
20
547.764
30
0
11
5985.15
21
573.267
31
0
62
0
0
LINE
8
0
10
5985.15
20
573.267
30
0
11
6010.71
21
599.48
31
0
62
0
0
LINE
8
0
10
6010.71
20
599.48
30
0
11
6036.32
21
626.407
31
0
62
0
0
LINE
8
0
10
6036.32
20
626.407
30
0
11
6061.95
21
654.053
31
0
62
0
0
LINE
8
0
10
6061.95
20
654.053
30
0
11
6087.6
21
682.42
31
0
62
0
0
LINE
8
0
10
6087.6
20
682.42
30
0
11
6113.25
21
711.512
31
0
62
0
0
LINE
8
0
10
6113.25
20
711.512
30
0
11
6138.88
21
741.334
31
0
62
0
0
LINE
8
0
10
6138.88
20
741.334
30
0
11
6164.48
21
771.887
31
0
62
0
0
LINE
8
0
10
6164.48
20
771.887
30
0
11
6190.03
21
803.174
31
0
62
0
0
LINE
8
0
10
6190.03
20
803.174
30
0
11
6215.52
21
835.198
31
0
62
0
0
LINE
8
0
10
6215.52
20
835.198
30
0
11
6240.93
21
867.961
31
0
62
0
0
LINE
8
0
10
6240.93
20
867.961
30
0
11
6266.25
21
901.463
31
0
62
0
0
LINE
8
0
10
6266.25
20
901.463
30
0
11
6291.46
21
935.708
31
0
62
0
0
LINE
8
0
10
6291.46
20
935.708
30
0
11
6316.55
21
970.696
31
0
62
0
0
LINE
8
0
10
6316.55
20
970.696
30
0
11
6341.49
21
1006.43
31
0
62
0
0
LINE
8
0
10
6341.49
20
1006.43
30
0
11
6366.28
21
1042.9
31
0
62
0
0
LINE
8
0
10
6366.28
20
1042.9
30
0
11
6390.9
21
1080.12
31
0
62
0
0
LINE
8
0
10
6390.9
20
1080.12
30
0
11
6415.32
21
1118.09
31
0
62
0
0
LINE
8
0
10
6415.32
20
1118.09
30
0
11
6439.55
21
1156.79
31
0
62
0
0
LINE
8
0
10
6439.55
20
1156.79
30
0
11
6463.55
21
1196.24
31
0
62
0
0
LINE
8
0
10
6463.55
20
1196.24
30
0
11
6487.32
21
1236.44
31
0
62
0
0
LINE
8
0
10
6487.32
20
1236.44
30
0
11
6510.84
21
1277.37
31
0
62
0
0
LINE
8
0
10
6510.84
20
1277.37
30
0
11
6534.09
21
1319.04
31
0
62
0
0
LINE
8
0
10
6534.09
20
1319.04
30
0
11
6557.06
21
1361.45
31
0
62
0
0
LINE
8
0
10
6557.06
20
1361.45
30
0
11
6579.73
21
1404.6
31
0
62
0
0
LINE
8
0
10
6579.73
20
1404.6
30
0
11
6602.09
21
1448.48
31
0
62
0
0
LINE
8
0
10
6602.09
20
1448.48
30
0
11
6624.11
21
1493.08
31
0
62
0
0
LINE
8
0
10
6624.11
20
1493.08
30
0
11
6645.79
21
1538.41
31
0
62
0
0
LINE
8
0
10
6645.79
20
1538.41
30
0
11
6667.11
21
1584.47
31
0
62
0
0
LINE
8
0
10
6667.11
20
1584.47
30
0
11
6688.05
21
1631.24
31
0
62
0
0
LINE
8
0
10
6688.05
20
1631.24
30
0
11
6708.6
21
1678.73
31
0
62
0
0
LINE
8
0
10
6708.6
20
1678.73
30
0
11
6728.74
21
1726.93
31
0
62
0
0
LINE
8
0
10
6728.74
20
1726.93
30
0
11
6748.46
21
1775.83
31
0
62
0
0
LINE
8
0
10
6748.46
20
1775.83
30
0
11
6767.74
21
1825.44
31
0
62
0
0
LINE
8
0
10
6767.74
20
1825.44
30
0
11
6786.57
21
1875.74
31
0
62
0
0
LINE
8
0
10
6786.57
20
1875.74
30
0
11
6804.92
21
1926.73
31
0
62
0
0
LINE
8
0
10
6804.92
20
1926.73
30
0
11
6822.8
21
1978.4
31
0
62
0
0
LINE
8
0
10
6822.8
20
1978.4
30
0
11
6840.17
21
2030.75
31
0
62
0
0
LINE
8
0
10
6840.17
20
2030.75
30
0
11
6857.03
21
2083.77
31
0
62
0
0
LINE
8
0
10
6857.03
20
2083.77
30
0
11
6873.36
21
2137.45
31
0
62
0
0
LINE
8
0
10
6873.36
20
2137.45
30
0
11
6889.15
21
2191.79
31
0
62
0
0
LINE
8
0
10
6889.15
20
2191.79
30
0
11
6904.38
21
2246.78
31
0
62
0
0
LINE
8
0
10
6904.38
20
2246.78
30
0
11
6919.03
21
2302.42
31
0
62
0
0
LINE
8
0
10
6919.03
20
2302.42
30
0
11
6933.1
21
2358.68
31
0
62
0
0
LINE
8
0
10
6933.1
20
2358.68
30
0
11
6946.57
21
2415.57
31
0
62
0
0
LINE
8
0
10
6946.57
20
2415.57
30
0
11
6959.43
21
2473.08
31
0
62
0
0
LINE
8
0
10
6959.43
20
2473.08
30
0
11
6971.65
21
2531.2
31
0
62
0
0
LINE
8
0
10
6971.65
20
2531.2
30
0
11
6983.23
21
2589.91
31
0
62
0
0
LINE
8
0
10
6983.23
20
2589.91
30
0
11
6994.16
21
2649.22
31
0
62
0
0
LINE
8
0
10
6994.16
20
2649.22
30
0
11
7004.42
21
2709.1
31
0
62
0
0
LINE
8
0
10
7004.42
20
2709.1
30
0
11
7013.99
21
2769.56
31
0
62
0
0
LINE
8
0
10
7013.99
20
2769.56
30
0
11
7022.87
21
2830.57
31
0
62
0
0
LINE
8
0
10
7022.87
20
2830.57
30
0
11
7031.04
21
2892.14
31
0
62
0
0
LINE
8
0
10
7031.04
20
2892.14
30
0
11
7038.49
21
2954.24
31
0
62
0
0
LINE
8
0
10
7038.49
20
2954.24
30
0
11
7045.21
21
3016.87
31
0
62
0
0
LINE
8
0
10
7045.21
20
3016.87
30
0
11
7051.17
21
3080.02
31
0
62
0
0
LINE
8
0
10
7051.17
20
3080.02
30
0
11
7056.38
21
3143.67
31
0
62
0
0
LINE
8
0
10
7056.38
20
3143.67
30
0
11
7060.82
21
3207.82
31
0
62
0
0
LINE
8
0
10
7060.82
20
3207.82
30
0
11
7064.48
21
3272.45
31
0
62
0
0
LINE
8
0
10
7064.48
20
3272.45
30
0
11
7067.35
21
3337.55
31
0
62
0
0
LINE
8
0
10
7067.35
20
3337.55
30
0
11
7069.41
21
3403.1
31
0
62
0
0
LINE
8
0
10
7069.41
20
3403.1
30
0
11
7070.65
21
3469.1
31
0
62
0
0
LINE
8
0
10
7070.65
20
3469.1
30
0
11
7071.07
21
3535.53
31
0
62
0
0
LINE
8
0
10
7071.07
20
3535.53
30
0
11
7070.65
21
3602.38
31
0
62
0
0
LINE
8
0
10
7070.65
20
3602.38
30
0
11
7069.38
21
3669.64
31
0
62
0
0
LINE
8
0
10
7069.38
20
3669.64
30
0
11
7067.25
21
3737.29
31
0
62
0
0
LINE
8
0
10
7067.25
20
3737.29
30
0
11
7064.26
21
3805.31
31
0
62
0
0
LINE
8
0
10
7064.26
20
3805.31
30
0
11
7060.39
21
3873.71
31
0
62
0
0
LINE
8
0
10
7060.39
20
3873.71
30
0
11
7055.63
21
3942.45
31
0
62
0
0
LINE
8
0
10
7055.63
20
3942.45
30
0
11
7049.97
21
4011.52
31
0
62
0
0
LINE
8
0
10
7049.97
20
4011.52
30
0
11
7043.41
21
4080.92
31
0
62
0
0
LINE
8
0
10
7043.41
20
4080.92
30
0
11
7035.94
21
4150.63
31
0
62
0
0
LINE
8
0
10
7035.94
20
4150.63
30
0
11
7027.54
21
4220.63
31
0
62
0
0
LINE
8
0
10
7027.54
20
4220.63
30
0
11
7018.21
21
4290.9
31
0
62
0
0
LINE
8
0
10
7018.21
20
4290.9
30
0
11
7007.95
21
4361.44
31
0
62
0
0
LINE
8
0
10
7007.95
20
4361.44
30
0
11
6996.74
21
4432.22
31
0
62
0
0
LINE
8
0
10
6996.74
20
4432.22
30
0
11
6984.57
21
4503.24
31
0
62
0
0
LINE
8
0
10
6984.57
20
4503.24
30
0
11
6971.45
21
4574.46
31
0
62
0
0
LINE
8
0
10
6971.45
20
4574.46
30
0
11
6957.35
21
4645.9
31
0
62
0
0
LINE
8
0
10
6957.35
20
4645.9
30
0
11
6942.29
21
4717.51
31
0
62
0
0
LINE
8
0
10
6942.29
20
4717.51
30
0
11
6926.24
21
4789.29
31
0
62
0
0
LINE
8
0
10
6926.24
20
4789.29
30
0
11
6909.21
21
4861.22
31
0
62
0
0
LINE
8
0
10
6909.21
20
4861.22
30
0
11
6891.19
21
4933.29
31
0
62
0
0
LINE
8
0
10
6891.19
20
4933.29
30
0
11
6872.17
21
5005.48
31
0
62
0
0
LINE
8
0
10
6872.17
20
5005.48
30
0
11
6852.15
21
5077.77
31
0
62
0
0
LINE
8
0
10
6852.15
20
5077.77
30
0
11
6831.12
21
5150.15
31
0
62
0
0
LINE
8
0
10
6831.12
20
5150.15
30
0
11
6809.08
21
5222.59
31
0
62
0
0
LINE
8
0
10
6809.08
20
5222.59
30
0
11
6786.03
21
5295.08
31
0
62
0
0
LINE
8
0
10
6786.03
20
5295.08
30
0
11
6761.96
21
5367.62
31
0
62
0
0
LINE
8
0
10
6761.96
20
5367.62
30
0
11
6736.86
21
5440.16
31
0
62
0
0
LINE
8
0
10
6736.86
20
5440.16
30
0
11
6710.74
21
5512.71
31
0
62
0
0
LINE
8
0
10
6710.74
20
5512.71
30
0
11
6683.6
21
5585.25
31
0
62
0
0
LINE
8
0
10
6683.6
20
5585.25
30
0
11
6655.42
21
5657.75
31
0
62
0
0
LINE
8
0
10
6655.42
20
5657.75
30
0
11
6626.2
21
5730.19
31
0
62
0
0
LINE
8
0
10
6626.2
20
5730.19
30
0
11
6595.96
21
5802.58
31
0
62
0
0
LINE
8
0
10
6595.96
20
5802.58
30
0
11
6564.67
21
5874.87
31
0
62
0
0
LINE
8
0
10
6564.67
20
5874.87
30
0
11
6532.35
21
5947.06
31
0
62
0
0
LINE
8
0
10
6532.35
20
5947.06
30
0
11
6498.99
21
6019.13
31
0
62
0
0
LINE
8
0
10
6498.99
20
6019.13
30
0
11
6464.59
21
6091.06
31
0
62
0
0
LINE
8
0
10
6464.59
20
6091.06
30
0
11
6429.14
21
6162.83
31
0
62
0
0
LINE
8
0
10
6429.14
20
6162.83
30
0
11
6392.66
21
6234.43
31
0
62
0
0
LINE
8
0
10
6392.66
20
6234.43
30
0
11
6355.14
21
6305.84
31
0
62
0
0
LINE
8
0
10
6355.14
20
6305.84
30
0
11
6316.58
21
6377.04
31
0
62
0
0
LINE
8
0
10
6316.58
20
6377.04
30
0
11
6276.98
21
6448.01
31
0
62
0
0
LINE
8
0
10
6276.98
20
6448.01
30
0
11
6236.34
21
6518.74
31
0
62
0
0
LINE
8
0
10
6236.34
20
6518.74
30
0
11
6194.67
21
6589.2
31
0
62
0
0
LINE
8
0
10
6194.67
20
6589.2
30
0
11
6151.96
21
6659.39
31
0
62
0
0
LINE
8
0
10
6151.96
20
6659.39
30
0
11
6108.22
21
6729.28
31
0
62
0
0
LINE
8
0
10
6108.22
20
6729.28
30
0
11
6063.45
21
6798.85
31
0
62
0
0
LINE
8
0
10
6063.45
20
6798.85
30
0
11
6017.66
21
6868.09
31
0
62
0
0
LINE
8
0
10
6017.66
20
6868.09
30
0
11
5970.84
21
6936.98
31
0
62
0
0
LINE
8
0
10
5970.84
20
6936.98
30
0
11
5923
21
7005.5
31
0
62
0
0
LINE
8
0
10
5923
20
7005.5
30
0
11
5874.15
21
7073.64
31
0
62
0
0
LINE
8
0
10
5874.15
20
7073.64
30
0
11
5824.28
21
7141.37
31
0
62
0
0
LINE
8
0
10
5824.28
20
7141.37
30
0
11
5773.41
21
7208.68
31
0
62
0
0
LINE
8
0
10
5773.41
20
7208.68
30
0
11
5721.54
21
7275.56
31
0
62
0
0
LINE
8
0
10
5721.54
20
7275.56
30
0
11
5668.67
21
7341.98
31
0
62
0
0
LINE
8
0
10
5668.67
20
7341.98
30
0
11
5614.8
21
7407.93
31
0
62
0
0
LINE
8
0
10
5614.8
20
7407.93
30
0
11
5559.95
21
7473.39
31
0
62
0
0
LINE
8
0
10
5559.95
20
7473.39
30
0
11
5504.12
21
7538.34
31
0
62
0
0
LINE
8
0
10
5504.12
20
7538.34
30
0
11
5447.32
21
7602.78
31
0
62
0
0
LINE
8
0
10
5447.32
20
7602.78
30
0
11
5389.54
21
7666.67
31
0
62
0
0
LINE
8
0
10
5389.54
20
7666.67
30
0
11
5330.81
21
7730.01
31
0
62
0
0
LINE
8
0
10
5330.81
20
7730.01
30
0
11
5271.13
21
7792.77
31
0
62
0
0
LINE
8
0
10
5271.13
20
7792.77
30
0
11
5210.49
21
7854.94
31
0
62
0
0
LINE
8
0
10
5210.49
20
7854.94
30
0
11
5148.92
21
7916.51
31
0
62
0
0
LINE
8
0
10
5148.92
20
7916.51
30
0
11
5086.42
21
7977.46
31
0
62
0
0
LINE
8
0
10
5086.42
20
7977.46
30
0
11
5023
21
8037.77
31
0
62
0
0
LINE
8
0
10
5023
20
8037.77
30
0
11
4958.67
21
8097.43
31
0
62
0
0
LINE
8
0
10
4958.67
20
8097.43
30
0
11
4893.43
21
8156.42
31
0
62
0
0
LINE
8
0
10
4893.43
20
8156.42
30
0
11
4827.3
21
8214.72
31
0
62
0
0
LINE
8
0
10
4827.3
20
8214.72
30
0
11
4760.28
21
8272.32
31
0
62
0
0
LINE
8
0
10
4760.28
20
8272.32
30
0
11
4692.39
21
8329.21
31
0
62
0
0
LINE
8
0
10
4692.39
20
8329.21
30
0
11
4623.63
21
8385.37
31
0
62
0
0
LINE
8
0
10
4623.63
20
8385.37
30
0
11
4554.02
21
8440.78
31
0
62
0
0
LINE
8
0
10
4554.02
20
8440.78
30
0
11
4483.57
21
8495.43
31
0
62
0
0
LINE
8
0
10
4483.57
20
8495.43
30
0
11
4412.28
21
8549.3
31
0
62
0
0
LINE
8
0
10
4412.28
20
8549.3
30
0
11
4340.17
21
8602.39
31
0
62
0
0
LINE
8
0
10
4340.17
20
8602.39
30
0
11
4267.25
21
8654.67
31
0
62
0
0
LINE
8
0
10
4267.25
20
8654.67
30
0
11
4193.53
21
8706.13
31
0
62
0
0
LINE
8
0
10
4193.53
20
8706.13
30
0
11
4119.03
21
8756.77
31
0
62
0
0
LINE
8
0
10
4119.03
20
8756.77
30
0
11
4043.75
21
8806.55
31
0
62
0
0
LINE
8
0
10
4043.75
20
8806.55
30
0
11
3967.71
21
8855.48
31
0
62
0
0
LINE
8
0
10
3967.71
20
8855.48
30
0
11
3890.92
21
8903.54
31
0
62
0
0
LINE
8
0
10
3890.92
20
8903.54
30
0
11
3813.4
21
8950.71
31
0
62
0
0
LINE
8
0
10
3813.4
20
8950.71
30
0
11
3735.15
21
8996.99
31
0
62
0
0
LINE
8
0
10
3735.15
20
8996.99
30
0
11
3656.19
21
9042.35
31
0
62
0
0
LINE
8
0
10
3656.19
20
9042.35
30
0
11
3576.54
21
9086.8
31
0
62
0
0
LINE
8
0
10
3576.54
20
9086.8
30
0
11
3496.21
21
9130.3
31
0
62
0
0
LINE
8
0
10
3496.21
20
9130.3
30
0
11
3415.21
21
9172.87
31
0
62
0
0
LINE
8
0
10
3415.21
20
9172.87
30
0
11
3333.55
21
9214.47
31
0
62
0
0
LINE
8
0
10
3333.55
20
9214.47
30
0
11
3251.26
21
9255.11
31
0
62
0
0
LINE
8
0
10
3251.26
20
9255.11
30
0
11
3168.34
21
9294.76
31
0
62
0
0
LINE
8
0
10
3168.34
20
9294.76
30
0
11
3084.82
21
9333.43
31
0
62
0
0
LINE
8
0
10
3084.82
20
9333.43
30
0
11
3000.7
21
9371.09
31
0
62
0
0
LINE
8
0
10
3000.7
20
9371.09
30
0
11
2916
21
9407.74
31
0
62
0
0
LINE
8
0
10
2916
20
9407.74
30
0
11
2830.74
21
9443.37
31
0
62
0
0
LINE
8
0
10
2830.74
20
9443.37
30
0
11
2744.93
21
9477.98
31
0
62
0
0
LINE
8
0
10
2744.93
20
9477.98
30
0
11
2658.59
21
9511.53
31
0
62
0
0
LINE
8
0
10
2658.59
20
9511.53
30
0
11
2571.73
21
9544.04
31
0
62
0
0
LINE
8
0
10
2571.73
20
9544.04
30
0
11
2484.38
21
9575.49
31
0
62
0
0
LINE
8
0
10
2484.38
20
9575.49
30
0
11
2396.54
21
9605.87
31
0
62
0
0
LINE
8
0
10
2396.54
20
9605.87
30
0
11
2308.23
21
9635.18
31
0
62
0
0
LINE
8
0
10
2308.23
20
9635.18
30
0
11
2219.48
21
9663.4
31
0
62
0
0
LINE
8
0
10
2219.48
20
9663.4
30
0
11
2130.29
21
9690.53
31
0
62
0
0
LINE
8
0
10
2130.29
20
9690.53
30
0
11
2040.69
21
9716.56
31
0
62
0
0
LINE
8
0
10
2040.69
20
9716.56
30
0
11
1950.69
21
9741.49
31
0
62
0
0
LINE
8
0
10
1950.69
20
9741.49
30
0
11
1860.31
21
9765.3
31
0
62
0
0
LINE
8
0
10
1860.31
20
9765.3
30
0
11
1769.56
21
9788
31
0
62
0
0
LINE
8
0
10
1769.56
20
9788
30
0
11
1678.47
21
9809.56
31
0
62
0
0
LINE
8
0
10
1678.47
20
9809.56
30
0
11
1587.05
21
9830
31
0
62
0
0
LINE
8
0
10
1587.05
20
9830
30
0
11
1495.32
21
9849.29
31
0
62
0
0
LINE
8
0
10
1495.32
20
9849.29
30
0
11
1403.29
21
9867.45
31
0
62
0
0
LINE
8
0
10
1403.29
20
9867.45
30
0
11
1310.99
21
9884.46
31
0
62
0
0
LINE
8
0
10
1310.99
20
9884.46
30
0
11
1218.43
21
9900.31
31
0
62
0
0
LINE
8
0
10
1218.43
20
9900.31
30
0
11
1125.63
21
9915.01
31
0
62
0
0
LINE
8
0
10
1125.63
20
9915.01
30
0
11
1032.61
21
9928.55
31
0
62
0
0
LINE
8
0
10
1032.61
20
9928.55
30
0
11
939.382
21
9940.92
31
0
62
0
0
LINE
8
0
10
939.382
20
9940.92
30
0
11
845.973
21
9952.12
31
0
62
0
0
LINE
8
0
10
845.973
20
9952.12
30
0
11
752.395
21
9962.16
31
0
62
0
0
LINE
8
0
10
752.395
20
9962.16
30
0
11
658.671
21
9971.02
31
0
62
0
0
LINE
8
0
10
658.671
20
9971.02
30
0
11
564.817
21
9978.7
31
0
62
0
0
LINE
8
0
10
564.817
20
9978.7
30
0
11
470.851
21
9985.2
31
0
62
0
0
LINE
8
0
10
470.851
20
9985.2
30
0
11
376.793
21
9990.53
31
0
62
0
0
LINE
8
0
10
376.793
20
9990.53
30
0
11
282.66
21
9994.67
31
0
62
0
0
LINE
8
0
10
282.66
20
9994.67
30
0
11
188.469
21
9997.63
31
0
62
0
0
LINE
8
0
10
188.469
20
9997.63
30
0
11
94.2437
21
9999.41
31
0
62
0
0
LINE
8
0
10
94.2437
20
9999.41
30
0
11
-0.000655671
21
10000
31
0
62
0
0
LINE
8
0
10
-0.000437114
20
-10000
30
0
11
62.8308
21
-9999.8
31
0
62
0
0
LINE
8
0
10
62.8308
20
-9999.8
30
0
11
125.66
21
-9999.21
31
0
62
0
0
LINE
8
0
10
125.66
20
-9999.21
30
0
11
188.485
21
-9998.22
31
0
62
0
0
LINE
8
0
10
188.485
20
-9998.22
30
0
11
251.301
21
-9996.84
31
0
62
0
0
LINE
8
0
10
251.301
20
-9996.84
30
0
11
314.107
21
-9995.07
31
0
62
0
0
LINE
8
0
10
314.107
20
-9995.07
30
0
11
376.901
21
-9992.89
31
0
62
0
0
LINE
8
0
10
376.901
20
-9992.89
30
0
11
439.68
21
-9990.33
31
0
62
0
0
LINE
8
0
10
439.68
20
-9990.33
30
0
11
502.442
21
-9987.37
31
0
62
0
0
LINE
8
0
10
502.442
20
-9987.37
30
0
11
565.185
21
-9984.02
31
0
62
0
0
LINE
8
0
10
565.185
20
-9984.02
30
0
11
627.905
21
-9980.27
31
0
62
0
0
LINE
8
0
10
627.905
20
-9980.27
30
0
11
690.6
21
-9976.13
31
0
62
0
0
LINE
8
0
10
690.6
20
-9976.13
30
0
11
753.267
21
-9971.59
31
0
62
0
0
LINE
8
0
10
753.267
20
-9971.59
30
0
11
815.905
21
-9966.66
31
0
62
0
0
LINE
8
0
10
815.905
20
-9966.66
30
0
11
878.512
21
-9961.34
31
0
62
0
0
LINE
8
0
10
878.512
20
-9961.34
30
0
11
941.083
21
-9955.62
31
0
62
0
0
LINE
8
0
10
941.083
20
-9955.62
30
0
11
1003.62
21
-9949.51
31
0
62
0
0
LINE
8
0
10
1003.62
20
-9949.51
30
0
11
1066.11
21
-9943.01
31
0
62
0
0
LINE
8
0
10
1066.11
20
-9943.01
30
0
11
1128.56
21
-9936.11
31
0
62
0
0
LINE
8
0
10
1128.56
20
-9936.11
30
0
11
1190.97
21
-9928.83
31
0
62
0
0
LINE
8
0
10
1190.97
20
-9928.83
30
0
11
1253.33
21
-9921.15
31
0
62
0
0
LINE
8
0
10
1253.33
20
-9921.15
30
0
11
1315.64
21
-9913.08
31
0
62
0
0
LINE
8
0
10
1315.64
20
-9913.08
30
0
11
1377.9
21
-9904.61
31
0
62
0
0
LINE
8
0
10
1377.9
20
-9904.61
30
0
11
1440.11
21
-9895.76
31
0
62
0
0
LINE
8
0
10
1440.11
20
-9895.76
30
0
11
1502.26
21
-9886.52
31
0
62
0
0
LINE
8
0
10
1502.26
20
-9886.52
30
0
11
1564.34
21
-9876.88
31
0
62
0
0
LINE
8
0
10
1564.34
20
-9876.88
30
0
11
1626.37
21
-9866.86
31
0
62
0
0
LINE
8
0
10
1626.37
20
-9866.86
30
0
11
1688.33
21
-9856.45
31
0
62
0
0
LINE
8
0
10
1688.33
20
-9856.45
30
0
11
1750.23
21
-9845.64
31
0
62
0
0
LINE
8
0
10
1750.23
20
-9845.64
30
0
11
1812.06
21
-9834.45
31
0
62
0
0
LINE
8
0
10
1812.06
20
-9834.45
30
0
11
1873.81
21
-9822.87
31
0
62
0
0
LINE
8
0
10
1873.81
20
-9822.87
30
0
11
1935.49
21
-9810.91
31
0
62
0
0
LINE
8
0
10
1935.49
20
-9810.91
30
0
11
1997.1
21
-9798.55
31
0
62
0
0
LINE
8
0
10
1997.1
20
-9798.55
30
0
11
2058.63
21
-9785.81
31
0
62
0
0
LINE
8
0
10
2058.63
20
-9785.81
30
0
11
2120.07
21
-9772.68
31
0
62
0
0
LINE
8
0
10
2120.07
20
-9772.68
30
0
11
2181.43
21
-9759.17
31
0
62
0
0
LINE
8
0
10
2181.43
20
-9759.17
30
0
11
2242.71
21
-9745.27
31
0
62
0
0
LINE
8
0
10
2242.71
20
-9745.27
30
0
11
2303.89
21
-9730.99
31
0
62
0
0
LINE
8
0
10
2303.89
20
-9730.99
30
0
11
2364.99
21
-9716.32
31
0
62
0
0
LINE
8
0
10
2364.99
20
-9716.32
30
0
11
2425.99
21
-9701.27
31
0
62
0
0
LINE
8
0
10
2425.99
20
-9701.27
30
0
11
2486.9
21
-9685.83
31
0
62
0
0
LINE
8
0
10
2486.9
20
-9685.83
30
0
11
2547.71
21
-9670.01
31
0
62
0
0
LINE
8
0
10
2547.71
20
-9670.01
30
0
11
2608.42
21
-9653.82
31
0
62
0
0
LINE
8
0
10
2608.42
20
-9653.82
30
0
11
2669.02
21
-9637.24
31
0
62
0
0
LINE
8
0
10
2669.02
20
-9637.24
30
0
11
2729.52
21
-9620.28
31
0
62
0
0
LINE
8
0
10
2729.52
20
-9620.28
30
0
11
2789.91
21
-9602.94
31
0
62
0
0
LINE
8
0
10
2789.91
20
-9602.94
30
0
11
2850.19
21
-9585.22
31
0
62
0
0
LINE
8
0
10
2850.19
20
-9585.22
30
0
11
2910.36
21
-9567.12
31
0
62
0
0
LINE
8
0
10
2910.36
20
-9567.12
30
0
11
2970.42
21
-9548.65
31
0
62
0
0
LINE
8
0
10
2970.42
20
-9548.65
30
0
11
3030.35
21
-9529.79
31
0
62
0
0
LINE
8
0
10
3030.35
20
-9529.79
30
0
11
3090.17
21
-9510.57
31
0
62
0
0
LINE
8
0
10
3090.17
20
-9510.57
30
0
11
3149.86
21
-9490.96
31
0
62
0
0
LINE
8
0
10
3149.86
20
-9490.96
30
0
11
3209.44
21
-9470.98
31
0
62
0
0
LINE
8
0
10
3209.44
20
-9470.98
30
0
11
3268.88
21
-9450.63
31
0
62
0
0
LINE
8
0
10
3268.88
20
-9450.63
30
0
11
3328.2
21
-9429.91
31
0
62
0
0
LINE
8
0
10
3328.2
20
-9429.91
30
0
11
3387.38
21
-9408.81
31
0
62
0
0
LINE
8
0
10
3387.38
20
-9408.81
30
0
11
3446.43
21
-9387.34
31
0
62
0
0
LINE
8
0
10
3446.43
20
-9387.34
30
0
11
3505.34
21
-9365.5
31
0
62
0
0
LINE
8
0
10
3505.34
20
-9365.5
30
0
11
3564.12
21
-9343.29
31
0
62
0
0
LINE
8
0
10
3564.12
20
-9343.29
30
0
11
3622.75
21
-9320.71
31
0
62
0
0
LINE
8
0
10
3622.75
20
-9320.71
30
0
11
3681.25
21
-9297.76
31
0
62
0
0
LINE
8
0
10
3681.25
20
-9297.76
30
0
11
3739.59
21
-9274.45
31
0
62
0
0
LINE
8
0
10
3739.59
20
-9274.45
30
0
11
3797.79
21
-9250.77
31
0
62
0
0
LINE
8
0
10
3797.79
20
-9250.77
30
0
11
3855.84
21
-9226.73
31
0
62
0
0
LINE
8
0
10
3855.84
20
-9226.73
30
0
11
3913.74
21
-9202.32
31
0
62
0
0
LINE
8
0
10
3913.74
20
-9202.32
30
0
11
3971.48
21
-9177.55
31
0
62
0
0
LINE
8
0
10
3971.48
20
-9177.55
30
0
11
4029.06
21
-9152.41
31
0
62
0
0
LINE
8
0
10
4029.06
20
-9152.41
30
0
11
4086.49
21
-9126.92
31
0
62
0
0
LINE
8
0
10
4086.49
20
-9126.92
30
0
11
4143.76
21
-9101.06
31
0
62
0
0
LINE
8
0
10
4143.76
20
-9101.06
30
0
11
4200.86
21
-9074.84
31
0
62
0
0
LINE
8
0
10
4200.86
20
-9074.84
30
0
11
4257.79
21
-9048.27
31
0
62
0
0
LINE
8
0
10
4257.79
20
-9048.27
30
0
11
4314.56
21
-9021.34
31
0
62
0
0
LINE
8
0
10
4314.56
20
-9021.34
30
0
11
4371.16
21
-8994.05
31
0
62
0
0
LINE
8
0
10
4371.16
20
-8994.05
30
0
11
4427.58
21
-8966.41
31
0
62
0
0
LINE
8
0
10
4427.58
20
-8966.41
30
0
11
4483.83
21
-8938.41
31
0
62
0
0
LINE
8
0
10
4483.83
20
-8938.41
30
0
11
4539.91
21
-8910.07
31
0
62
0
0
LINE
8
0
10
4539.91
20
-8910.07
30
0
11
4595.8
21
-8881.36
31
0
62
0
0
LINE
8
0
10
4595.8
20
-8881.36
30
0
11
4651.51
21
-8852.31
31
0
62
0
0
LINE
8
0
10
4651.51
20
-8852.31
30
0
11
4707.04
21
-8822.91
31
0
62
0
0
LINE
8
0
10
4707.04
20
-8822.91
30
0
11
4762.38
21
-8793.16
31
0
62
0
0
LINE
8
0
10
4762.38
20
-8793.16
30
0
11
4817.54
21
-8763.07
31
0
62
0
0
LINE
8
0
10
4817.54
20
-8763.07
30
0
11
4872.5
21
-8732.63
31
0
62
0
0
LINE
8
0
10
4872.5
20
-8732.63
30
0
11
4927.27
21
-8701.84
31
0
62
0
0
LINE
8
0
10
4927.27
20
-8701.84
30
0
11
4981.85
21
-8670.71
31
0
62
0
0
LINE
8
0
10
4981.85
20
-8670.71
30
0
11
5036.23
21
-8639.23
31
0
62
0
0
LINE
8
0
10
5036.23
20
-8639.23
30
0
11
5090.41
21
-8607.42
31
0
62
0
0
LINE
8
0
10
5090.41
20
-8607.42
30
0
11
5144.39
21
-8575.27
31
0
62
0
0
LINE
8
0
10
5144.39
20
-8575.27
30
0
11
5198.17
21
-8542.77
31
0
62
0
0
LINE
8
0
10
5198.17
20
-8542.77
30
0
11
5251.75
21
-8509.94
31
0
62
0
0
LINE
8
0
10
5251.75
20
-8509.94
30
0
11
5305.11
21
-8476.78
31
0
62
0
0
LINE
8
0
10
5305.11
20
-8476.78
30
0
11
5358.27
21
-8443.28
31
0
62
0
0
LINE
8
0
10
5358.27
20
-8443.28
30
0
11
5411.21
21
-8409.45
31
0
62
0
0
LINE
8
0
10
5411.21
20
-8409.45
30
0
11
5463.94
21
-8375.28
31
0
62
0
0
LINE
8
0
10
5463.94
20
-8375.28
30
0
11
5516.46
21
-8340.79
31
0
62
0
0
LINE
8
0
10
5516.46
20
-8340.79
30
0
11
5568.76
21
-8305.96
31
0
62
0
0
LINE
8
0
10
5568.76
20
-8305.96
30
0
11
5620.83
21
-8270.81
31
0
62
0
0
LINE
8
0
10
5620.83
20
-8270.81
30
0
11
5672.69
21
-8235.33
31
0
62
0
0
LINE
8
0
10
5672.69
20
-8235.33
30
0
11
5724.32
21
-8199.52
31
0
62
0
0
LINE
8
0
10
5724.32
20
-8199.52
30
0
11
5775.73
21
-8163.39
31
0
62
0
0
LINE
8
0
10
5775.73
20
-8163.39
30
0
11
5826.9
21
-8126.94
31
0
62
0
0
LINE
8
0
10
5826.9
20
-8126.94
30
0
11
5877.85
21
-8090.17
31
0
62
0
0
LINE
8
0
10
5877.85
20
-8090.17
30
0
11
5928.57
21
-8053.08
31
0
62
0
0
LINE
8
0
10
5928.57
20
-8053.08
30
0
11
5979.05
21
-8015.67
31
0
62
0
0
LINE
8
0
10
5979.05
20
-8015.67
30
0
11
6029.3
21
-7977.94
31
0
62
0
0
LINE
8
0
10
6029.3
20
-7977.94
30
0
11
6079.3
21
-7939.9
31
0
62
0
0
LINE
8
0
10
6079.3
20
-7939.9
30
0
11
6129.07
21
-7901.55
31
0
62
0
0
LINE
8
0
10
6129.07
20
-7901.55
30
0
11
6178.6
21
-7862.88
31
0
62
0
0
LINE
8
0
10
6178.6
20
-7862.88
30
0
11
6227.88
21
-7823.91
31
0
62
0
0
LINE
8
0
10
6227.88
20
-7823.91
30
0
11
6276.91
21
-7784.62
31
0
62
0
0
LINE
8
0
10
6276.91
20
-7784.62
30
0
11
6325.7
21
-7745.03
31
0
62
0
0
LINE
8
0
10
6325.7
20
-7745.03
30
0
11
6374.24
21
-7705.13
31
0
62
0
0
LINE
8
0
10
6374.24
20
-7705.13
30
0
11
6422.53
21
-7664.93
31
0
62
0
0
LINE
8
0
10
6422.53
20
-7664.93
30
0
11
6470.56
21
-7624.43
31
0
62
0
0
LINE
8
0
10
6470.56
20
-7624.43
30
0
11
6518.34
21
-7583.62
31
0
62
0
0
LINE
8
0
10
6518.34
20
-7583.62
30
0
11
6565.86
21
-7542.51
31
0
62
0
0
LINE
8
0
10
6565.86
20
-7542.51
30
0
11
6613.12
21
-7501.11
31
0
62
0
0
LINE
8
0
10
6613.12
20
-7501.11
30
0
11
6660.12
21
-7459.41
31
0
62
0
0
LINE
8
0
10
6660.12
20
-7459.41
30
0
11
6706.86
21
-7417.42
31
0
62
0
0
LINE
8
0
10
6706.86
20
-7417.42
30
0
11
6753.33
21
-7375.13
31
0
62
0
0
LINE
8
0
10
6753.33
20
-7375.13
30
0
11
6799.53
21
-7332.55
31
0
62
0
0
LINE
8
0
10
6799.53
20
-7332.55
30
0
11
6845.47
21
-7289.69
31
0
62
0
0
LINE
8
0
10
6845.47
20
-7289.69
30
0
11
6891.14
21
-7246.53
31
0
62
0
0
LINE
8
0
10
6891.14
20
-7246.53
30
0
11
6936.53
21
-7203.09
31
0
62
0
0
LINE
8
0
10
6936.53
20
-7203.09
30
0
11
6981.65
21
-7159.36
31
0
62
0
0
LINE
8
0
10
6981.65
20
-7159.36
30
0
11
7026.5
21
-7115.36
31
0
62
0
0
LINE
8
0
10
7026.5
20
-7115.36
30
0
11
7071.07
21
-7071.07
31
0
62
0
0
LINE
8
0
10
7071.07
20
-7071.07
30
0
11
7115.36
21
-7026.5
31
0
62
0
0
LINE
8
0
10
7115.36
20
-7026.5
30
0
11
7159.36
21
-6981.65
31
0
62
0
0
LINE
8
0
10
7159.36
20
-6981.65
30
0
11
7203.09
21
-6936.53
31
0
62
0
0
LINE
8
0
10
7203.09
20
-6936.53
30
0
11
7246.53
21
-6891.14
31
0
62
0
0
LINE
8
0
10
7246.53
20
-6891.14
30
0
11
7289.69
21
-6845.47
31
0
62
0
0
LINE
8
0
10
7289.69
20
-6845.47
30
0
11
7332.55
21
-6799.53
31
0
62
0
0
LINE
8
0
10
7332.55
20
-6799.53
30
0
11
7375.13
21
-6753.33
31
0
62
0
0
LINE
8
0
10
7375.13
20
-6753.33
30
0
11
7417.42
21
-6706.86
31
0
62
0
0
LINE
8
0
10
7417.42
20
-6706.86
30
0
11
7459.41
21
-6660.12
31
0
62
0
0
LINE
8
0
10
7459.41
20
-6660.12
30
0
11
7501.11
21
-6613.12
31
0
62
0
0
LINE
8
0
10
7501.11
20
-6613.12
30
0
11
7542.51
21
-6565.86
31
0
62
0
0
LINE
8
0
10
7542.51
20
-6565.86
30
0
11
7583.62
21
-6518.34
31
0
62
0
0
LINE
8
0
10
7583.62
20
-6518.34
30
0
11
7624.43
21
-6470.56
31
0
62
0
0
LINE
8
0
10
7624.43
20
-6470.56
30
0
11
7664.93
21
-6422.53
31
0
62
0
0
LINE
8
0
10
7664.93
20
-6422.53
30
0
11
7705.13
21
-6374.24
31
0
62
0
0
LINE
8
0
10
7705.13
20
-6374.24
30
0
11
7745.03
21
-6325.7
31
0
62
0
0
LINE
8
0
10
7745.03
20
-6325.7
30
0
11
7784.62
21
-6276.91
31
0
62
0
0
LINE
8
0
10
7784.62
20
-6276.91
30
0
11
7823.91
21
-6227.88
31
0
62
0
0
LINE
8
0
10
7823.91
20
-6227.88
30
0
11
7862.88
21
-6178.6
31
0
62
0
0
LINE
8
0
10
7862.88
20
-6178.6
30
0
11
7901.55
21
-6129.07
31
0
62
0
0
LINE
8
0
10
7901.55
20
-6129.07
30
0
11
7939.9
21
-6079.3
31
0
62
0
0
LINE
8
0
10
7939.9
20
-6079.3
30
0
11
7977.94
21
-6029.3
31
0
62
0
0
LINE
8
0
10
7977.94
20
-6029.3
30
0
11
8015.67
21
-5979.05
31
0
62
0
0
LINE
8
0
10
8015.67
20
-5979.05
30
0
11
8053.08
21
-5928.57
31
0
62
0
0
LINE
8
0
10
8053.08
20
-5928.57
30
0
11
8090.17
21
-5877.85
31
0
62
0
0
LINE
8
0
10
8090.17
20
-5877.85
30
0
11
8126.94
21
-5826.91
31
0
62
0
0
LINE
8
0
10
8126.94
20
-5826.91
30
0
11
8163.39
21
-5775.73
31
0
62
0
0
LINE
8
0
10
8163.39
20
-5775.73
30
0
11
8199.52
21
-5724.32
31
0
62
0
0
LINE
8
0
10
8199.52
20
-5724.32
30
0
11
8235.33
21
-5672.69
31
0
62
0
0
LINE
8
0
10
8235.33
20
-5672.69
30
0
11
8270.81
21
-5620.83
31
0
62
0
0
LINE
8
0
10
8270.81
20
-5620.83
30
0
11
8305.96
21
-5568.76
31
0
62
0
0
LINE
8
0
10
8305.96
20
-5568.76
30
0
11
8340.78
21
-5516.46
31
0
62
0
0
LINE
8
0
10
8340.78
20
-5516.46
30
0
11
8375.28
21
-5463.94
31
0
62
0
0
LINE
8
0
10
8375.28
20
-5463.94
30
0
11
8409.45
21
-5411.21
31
0
62
0
0
LINE
8
0
10
8409.45
20
-5411.21
30
0
11
8443.28
21
-5358.27
31
0
62
0
0
LINE
8
0
10
8443.28
20
-5358.27
30
0
11
8476.78
21
-5305.11
31
0
62
0
0
LINE
8
0
10
8476.78
20
-5305.11
30
0
11
8509.94
21
-5251.75
31
0
62
0
0
LINE
8
0
10
8509.94
20
-5251.75
30
0
11
8542.77
21
-5198.17
31
0
62
0
0
LINE
8
0
10
8542.77
20
-5198.17
30
0
11
8575.27
21
-5144.4
31
0
62
0
0
LINE
8
0
10
8575.27
20
-5144.4
30
0
11
8607.42
21
-5090.41
31
0
62
0
0
LINE
8
0
10
8607.42
20
-5090.41
30
0
11
8639.23
21
-5036.23
31
0
62
0
0
LINE
8
0
10
8639.23
20
-5036.23
30
0
11
8670.71
21
-4981.85
31
0
62
0
0
LINE
8
0
10
8670.71
20
-4981.85
30
0
11
8701.84
21
-4927.27
31
0
62
0
0
LINE
8
0
10
8701.84
20
-4927.27
30
0
11
8732.63
21
-4872.5
31
0
62
0
0
LINE
8
0
10
8732.63
20
-4872.5
30
0
11
8763.07
21
-4817.54
31
0
62
0
0
LINE
8
0
10
8763.07
20
-4817.54
30
0
11
8793.16
21
-4762.38
31
0
62
0
0
LINE
8
0
10
8793.16
20
-4762.38
30
0
11
8822.91
21
-4707.04
31
0
62
0
0
LINE
8
0
10
8822.91
20
-4707.04
30
0
11
8852.31
21
-4651.51
31
0
62
0
0
LINE
8
0
10
8852.31
20
-4651.51
30
0
11
8881.36
21
-4595.8
31
0
62
0
0
LINE
8
0
10
8881.36
20
-4595.8
30
0
11
8910.07
21
-4539.91
31
0
62
0
0
LINE
8
0
10
8910.07
20
-4539.91
30
0
11
8938.41
21
-4483.83
31
0
62
0
0
LINE
8
0
10
8938.41
20
-4483.83
30
0
11
8966.41
21
-4427.58
31
0
62
0
0
LINE
8
0
10
8966.41
20
-4427.58
30
0
11
8994.05
21
-4371.16
31
0
62
0
0
LINE
8
0
10
8994.05
20
-4371.16
30
0
11
9021.34
21
-4314.56
31
0
62
0
0
LINE
8
0
10
9021.34
20
-4314.56
30
0
11
9048.27
21
-4257.79
31
0
62
0
0
LINE
8
0
10
9048.27
20
-4257.79
30
0
11
9074.84
21
-4200.86
31
0
62
0
0
LINE
8
0
10
9074.84
20
-4200.86
30
0
11
9101.06
21
-4143.76
31
0
62
0
0
LINE
8
0
10
9101.06
20
-4143.76
30
0
11
9126.92
21
-4086.49
31
0
62
0
0
LINE
8
0
10
9126.92
20
-4086.49
30
0
11
9152.41
21
-4029.06
31
0
62
0
0
LINE
8
0
10
9152.41
20
-4029.06
30
0
11
9177.55
21
-3971.48
31
0
62
0
0
LINE
8
0
10
9177.55
20
-3971.48
30
0
11
9202.32
21
-3913.74
31
0
62
0
0
LINE
8
0
10
9202.32
20
-3913.74
30
0
11
9226.73
21
-3855.84
31
0
62
0
0
LINE
8
0
10
9226.73
20
-3855.84
30
0
11
9250.77
21
-3797.79
31
0
62
0
0
LINE
8
0
10
9250.77
20
-3797.79
30
0
11
9274.45
21
-3739.59
31
0
62
0
0
LINE
8
0
10
9274.45
20
-3739.59
30
0
11
9297.76
21
-3681.25
31
0
62
0
0
LINE
8
0
10
9297.76
20
-3681.25
30
0
11
9320.71
21
-3622.75
31
0
62
0
0
LINE
8
0
10
9320.71
20
-3622.75
30
0
11
9343.29
21
-3564.12
31
0
62
0
0
LINE
8
0
10
9343.29
20
-3564.12
30
0
11
9365.5
21
-3505.34
31
0
62
0
0
LINE
8
0
10
9365.5
20
-3505.34
30
0
11
9387.34
21
-3446.43
31
0
62
0
0
LINE
8
0
10
9387.34
20
-3446.43
30
0
11
9408.81
21
-3387.38
31
0
62
0
0
LINE
8
0
10
9408.81
20
-3387.38
30
0
11
9429.91
21
-3328.2
31
0
62
0
0
LINE
8
0
10
9429.91
20
-3328.2
30
0
11
9450.63
21
-3268.88
31
0
62
0
0
LINE
8
0
10
9450.63
20
-3268.88
30
0
11
9470.98
21
-3209.44
31
0
62
0
0
LINE
8
0
10
9470.98
20
-3209.44
30
0
11
9490.96
21
-3149.87
31
0
62
0
0
LINE
8
0
10
9490.96
20
-3149.87
30
0
11
9510.57
21
-3090.17
31
0
62
0
0
LINE
8
0
10
9510.57
20
-3090.17
30
0
11
9529.79
21
-3030.35
31
0
62
0
0
LINE
8
0
10
9529.79
20
-3030.35
30
0
11
9548.65
21
-2970.42
31
0
62
0
0
LINE
8
0
10
9548.65
20
-2970.42
30
0
11
9567.12
21
-2910.36
31
0
62
0
0
LINE
8
0
10
9567.12
20
-2910.36
30
0
11
9585.22
21
-2850.19
31
0
62
0
0
LINE
8
0
10
9585.22
20
-2850.19
30
0
11
9602.94
21
-2789.91
31
0
62
0
0
LINE
8
0
10
9602.94
20
-2789.91
30
0
11
9620.28
21
-2729.52
31
0
62
0
0
LINE
8
0
10
9620.28
20
-2729.52
30
0
11
9637.24
21
-2669.02
31
0
62
0
0
LINE
8
0
10
9637.24
20
-2669.02
30
0
11
9653.82
21
-2608.42
31
0
62
0
0
LINE
8
0
10
9653.82
20
-2608.42
30
0
11
9670.01
21
-2547.71
31
0
62
0
0
LINE
8
0
10
9670.01
20
-2547.71
30
0
11
9685.83
21
-2486.9
31
0
62
0
0
LINE
8
0
10
9685.83
20
-2486.9
30
0
11
9701.27
21
-2425.99
31
0
62
0
0
LINE
8
0
10
9701.27
20
-2425.99
30
0
11
9716.32
21
-2364.99
31
0
62
0
0
LINE
8
0
10
9716.32
20
-2364.99
30
0
11
9730.99
21
-2303.89
31
0
62
0
0
LINE
8
0
10
9730.99
20
-2303.89
30
0
11
9745.27
21
-2242.71
31
0
62
0
0
LINE
8
0
10
9745.27
20
-2242.71
30
0
11
9759.17
21
-2181.43
31
0
62
0
0
LINE
8
0
10
9759.17
20
-2181.43
30
0
11
9772.68
21
-2120.07
31
0
62
0
0
LINE
8
0
10
9772.68
20
-2120.07
30
0
11
9785.81
21
-2058.63
31
0
62
0
0
LINE
8
0
10
9785.81
20
-2058.63
30
0
11
9798.55
21
-1997.1
31
0
62
0
0
LINE
8
0
10
9798.55
20
-1997.1
30
0
11
9810.91
21
-1935.49
31
0
62
0
0
LINE
8
0
10
9810.91
20
-1935.49
30
0
11
9822.87
21
-1873.81
31
0
62
0
0
LINE
8
0
10
9822.87
20
-1873.81
30
0
11
9834.45
21
-1812.06
31
0
62
0
0
LINE
8
0
10
9834.45
20
-1812.06
30
0
11
9845.64
21
-1750.23
31
0
62
0
0
LINE
8
0
10
9845.64
20
-1750.23
30
0
11
9856.45
21
-1688.33
31
0
62
0
0
LINE
8
0
10
9856.45
20
-1688.33
30
0
11
9866.86
21
-1626.37
31
0
62
0
0
LINE
8
0
10
9866.86
20
-1626.37
30
0
11
9876.88
21
-1564.34
31
0
62
0
0
LINE
8
0
10
9876.88
20
-1564.34
30
0
11
9886.52
21
-1502.26
31
0
62
0
0
LINE
8
0
10
9886.52
20
-1502.26
30
0
11
9895.76
21
-1440.11
31
0
62
0
0
LINE
8
0
10
9895.76
20
-1440.11
30
0
11
9904.61
21
-1377.9
31
0
62
0
0
LINE
8
0
10
9904.61
20
-1377.9
30
0
11
9913.08
21
-1315.64
31
0
62
0
0
LINE
8
0
10
9913.08
20
-1315.64
30
0
11
9921.15
21
-1253.33
31
0
62
0
0
LINE
8
0
10
9921.15
20
-1253.33
30
0
11
9928.83
21
-1190.97
31
0
62
0
0
LINE
8
0
10
9928.83
20
-1190.97
30
0
11
9936.11
21
-1128.56
31
0
62
0
0
LINE
8
0
10
9936.11
20
-1128.56
30
0
11
9943.01
21
-1066.11
31
0
62
0
0
LINE
8
0
10
9943.01
20
-1066.11
30
0
11
9949.51
21
-1003.62
31
0
62
0
0
LINE
8
0
10
9949.51
20
-1003.62
30
0
11
9955.62
21
-941.083
31
0
62
0
0
LINE
8
0
10
9955.62
20
-941.083
30
0
11
9961.34
21
-878.512
31
0
62
0
0
LINE
8
0
10
9961.34
20
-878.512
30
0
11
9966.66
21
-815.906
31
0
62
0
0
LINE
8
0
10
9966.66
20
-815.906
30
0
11
9971.59
21
-753.268
31
0
62
0
0
LINE
8
0
10
9971.59
20
-753.268
30
0
11
9976.13
21
-690.6
31
0
62
0
0
LINE
8
0
10
9976.13
20
-690.6
30
0
11
9980.27
21
-627.905
31
0
62
0
0
LINE
8
0
10
9980.27
20
-627.905
30
0
11
9984.02
21
-565.185
31
0
62
0
0
LINE
8
0
10
9984.02
20
-565.185
30
0
11
9987.37
21
-502.443
31
0
62
0
0
LINE
8
0
10
9987.37
20
-502.443
30
0
11
9990.33
21
-439.681
31
0
62
0
0
LINE
8
0
10
9990.33
20
-439.681
30
0
11
9992.89
21
-376.902
31
0
62
0
0
LINE
8
0
10
9992.89
20
-376.902
30
0
11
9995.07
21
-314.108
31
0
62
0
0
LINE
8
0
10
9995.07
20
-314.108
30
0
11
9996.84
21
-251.301
31
0
62
0
0
LINE
8
0
10
9996.84
20
-251.301
30
0
11
9998.22
21
-188.484
31
0
62
0
0
LINE
8
0
10
9998.22
20
-188.484
30
0
11
9999.21
21
-125.66
31
0
62
0
0
LINE
8
0
10
9999.21
20
-125.66
30
0
11
9999.8
21
-62.8314
31
0
62
0
0
LINE
8
0
10
9999.8
20
-62.8314
30
0
11
10000
21
0
31
0
62
0
0
LINE
8
0
10
10000
20
0
30
0
11
9999.8
21
62.8314
31
0
62
0
0
LINE
8
0
10
9999.8
20
62.8314
30
0
11
9999.21
21
125.66
31
0
62
0
0
LINE
8
0
10
9999.21
20
125.66
30
0
11
9998.22
21
188.484
31
0
62
0
0
LINE
8
0
10
9998.22
20
188.484
30
0
11
9996.84
21
251.301
31
0
62
0
0
LINE
8
0
10
9996.84
20
251.301
30
0
11
9995.07
21
314.108
31
0
62
0
0
LINE
8
0
10
9995.07
20
314.108
30
0
11
9992.89
21
376.902
31
0
62
0
0
LINE
8
0
10
9992.89
20
376.902
30
0
11
9990.33
21
439.681
31
0
62
0
0
LINE
8
0
10
9990.33
20
439.681
30
0
11
9987.37
21
502.443
31
0
62
0
0
LINE
8
0
10
9987.37
20
502.443
30
0
11
9984.02
21
565.185
31
0
62
0
0
LINE
8
0
10
9984.02
20
565.185
30
0
11
9980.27
21
627.905
31
0
62
0
0
LINE
8
0
10
9980.27
20
627.905
30
0
11
9976.13
21
690.6
31
0
62
0
0
LINE
8
0
10
9976.13
20
690.6
30
0
11
9971.59
21
753.268
31
0
62
0
0
LINE
8
0
10
9971.59
20
753.268
30
0
11
9966.66
21
815.906
31
0
62
0
0
LINE
8
0
10
9966.66
20
815.906
30
0
11
9961.34
21
878.512
31
0
62
0
0
LINE
8
0
10
9961.34
20
878.512
30
0
11
9955.62
21
941.083
31
0
62
0
0
LINE
8
0
10
9955.62
20
941.083
30
0
11
9949.51
21
1003.62
31
0
62
0
0
LINE
8
0
10
9949.51
20
1003.62
30
0
11
9943.01
21
1066.11
31
0
62
0
0
LINE
8
0
10
9943.01
20
1066.11
30
0
11
9936.11
21
1128.56
31
0
62
0
0
LINE
8
0
10
9936.11
20
1128.56
30
0
11
9928.83
21
1190.97
31
0
62
0
0
LINE
8
0
10
9928.83
20
1190.97
30
0
11
9921.15
21
1253.33
31
0
62
0
0
LINE
8
0
10
9921.15
20
1253.33
30
0
11
9913.08
21
1315.64
31
0
62
0
0
LINE
8
0
10
9913.08
20
1315.64
30
0
11
9904.61
21
1377.9
31
0
62
0
0
LINE
8
0
10
9904.61
20
1377.9
30
0
11
9895.76
21
1440.11
31
0
62
0
0
LINE
8
0
10
9895.76
20
1440.11
30
0
11
9886.52
21
1502.26
31
0
62
0
0
LINE
8
0
10
9886.52
20
1502.26
30
0
11
9876.88
21
1564.34
31
0
62
0
0
LINE
8
0
10
9876.88
20
1564.34
30
0
11
9866.86
21
1626.37
31
0
62
0
0
LINE
8
0
10
9866.86
20
1626.37
30
0
11
9856.45
21
1688.33
31
0
62
0
0
LINE
8
0
10
9856.45
20
1688.33
30
0
11
9845.64
21
1750.23
31
0
62
0
0
LINE
8
0
10
9845.64
20
1750.23
30
0
11
9834.45
21
1812.06
31
0
62
0
0
LINE
8
0
10
9834.45
20
1812.06
30
0
11
9822.87
21
1873.81
31
0
62
0
0
LINE
8
0
10
9822.87
20
1873.81
30
0
11
9810.91
21
1935.49
31
0
62
0
0
LINE
8
0
10
9810.91
20
1935.49
30
0
11
9798.55
21
1997.1
31
0
62
0
0
LINE
8
0
10
9798.55
20
1997.1
30
0
11
9785.81
21
2058.63
31
0
62
0
0
LINE
8
0
10
9785.81
20
2058.63
30
0
11
9772.68
21
2120.07
31
0
62
0
0
LINE
8
0
10
9772.68
20
2120.07
30
0
11
9759.17
21
2181.43
31
0
62
0
0
LINE
8
0
10
9759.17
20
2181.43
30
0
11
9745.27
21
2242.71
31
0
62
0
0
LINE
8
0
10
9745.27
20
2242.71
30
0
11
9730.99
21
2303.89
31
0
62
0
0
LINE
8
0
10
9730.99
20
2303.89
30
0
11
9716.32
21
2364.99
31
0
62
0
0
LINE
8
0
10
9716.32
20
2364.99
30
0
11
9701.27
21
2425.99
31
0
62
0
0
LINE
8
0
10
9701.27
20
2425.99
30
0
11
9685.83
21
2486.9
31
0
62
0
0
LINE
8
0
10
9685.83
20
2486.9
30
0
11
9670.01
21
2547.71
31
0
62
0
0
LINE
8
0
10
9670.01
20
2547.71
30
0
11
9653.82
21
2608.42
31
0
62
0
0
LINE
8
0
10
9653.82
20
2608.42
30
0
11
9637.24
21
2669.02
31
0
62
0
0
LINE
8
0
10
9637.24
20
2669.02
30
0
11
9620.28
21
2729.52
31
0
62
0
0
LINE
8
0
10
9620.28
20
2729.52
30
0
11
9602.94
21
2789.91
31
0
62
0
0
LINE
8
0
10
9602.94
20
2789.91
30
0
11
9585.22
21
2850.19
31
0
62
0
0
LINE
8
0
10
9585.22
20
2850.19
30
0
11
9567.12
21
2910.36
31
0
62
0
0
LINE
8
0
10
9567.12
20
2910.36
30
0
11
9548.65
21
2970.42
31
0
62
0
0
LINE
8
0
10
9548.65
20
2970.42
30
0
11
9529.79
21
3030.35
31
0
62
0
0
LINE
8
0
10
9529.79
20
3030.35
30
0
11
9510.57
21
3090.17
31
0
62
0
0
LINE
8
0
10
9510.57
20
3090.17
30
0
11
9490.96
21
3149.87
31
0
62
0
0
LINE
8
0
10
9490.96
20
3149.87
30
0
11
9470.98
21
3209.44
31
0
62
0
0
LINE
8
0
10
9470.98
20
3209.44
30
0
11
9450.63
21
3268.88
31
0
62
0
0
LINE
8
0
10
9450.63
20
3268.88
30
0
11
9429.91
21
3328.2
31
0
62
0
0
LINE
8
0
10
9429.91
20
3328.2
30
0
11
9408.81
21
3387.38
31
0
62
0
0
LINE
8
0
10
9408.81
20
3387.38
30
0
11
9387.34
21
3446.43
31
0
62
0
0
LINE
8
0
10
9387.34
20
3446.43
30
0
11
9365.5
21
3505.34
31
0
62
0
0
LINE
8
0
10
9365.5
20
3505.34
30
0
11
9343.29
21
3564.12
31
0
62
0
0
LINE
8
0
10
9343.29
20
3564.12
30
0
11
9320.71
21
3622.75
31
0
62
0
0
LINE
8
0
10
9320.71
20
3622.75
30
0
11
9297.76
21
3681.25
31
0
62
0
0
LINE
8
0
10
9297.76
20
3681.25
30
0
11
9274.45
21
3739.59
31
0
62
0
0
LINE
8
0
10
9274.45
20
3739.59
30
0
11
9250.77
21
3797.79
31
0
62
0
0
LINE
8
0
10
9250.77
20
3797.79
30
0
11
9226.73
21
3855.84
31
0
62
0
0
LINE
8
0
10
9226.73
20
3855.84
30
0
11
9202.32
21
3913.74
31
0
62
0
0
LINE
8
0
10
9202.32
20
3913.74
30
0
11
9177.55
21
3971.48
31
0
62
0
0
LINE
8
0
10
9177.55
20
3971.48
30
0
11
9152.41
21
4029.06
31
0
62
0
0
LINE
8
0
10
9152.41
20
4029.06
30
0
11
9126.92
21
4086.49
31
0
62
0
0
LINE
8
0
10
9126.92
20
4086.49
30
0
11
9101.06
21
4143.76
31
0
62
0
0
LINE
8
0
10
9101.06
20
4143.76
30
0
11
9074.84
21
4200.86
31
0
62
0
0
LINE
8
0
10
9074.84
20
4200.86
30
0
11
9048.27
21
4257.79
31
0
62
0
0
LINE
8
0
10
9048.27
20
4257.79
30
0
11
9021.34
21
4314.56
31
0
62
0
0
LINE
8
0
10
9021.34
20
4314.56
30
0
11
8994.05
21
4371.16
31
0
62
0
0
LINE
8
0
10
8994.05
20
4371.16
30
0
11
8966.41
21
4427.58
31
0
62
0
0
LINE
8
0
10
8966.41
20
4427.58
30
0
11
8938.41
21
4483.83
31
0
62
0
0
LINE
8
0
10
8938.41
20
4483.83
30
0
11
8910.07
21
4539.91
31
0
62
0
0
LINE
8
0
10
8910.07
20
4539.91
30
0
11
8881.36
21
4595.8
31
0
62
0
0
LINE
8
0
10
8881.36
20
4595.8
30
0
11
8852.31
21
4651.51
31
0
62
0
0
LINE
8
0
10
8852.31
20
4651.51
30
0
11
8822.91
21
4707.04
31
0
62
0
0
LINE
8
0
10
8822.91
20
4707.04
30
0
11
8793.16
21
4762.38
31
0
62
0
0
LINE
8
0
10
8793.16
20
4762.38
30
0
11
8763.07
21
4817.54
31
0
62
0
0
LINE
8
0
10
8763.07
20
4817.54
30
0
11
8732.63
21
4872.5
31
0
62
0
0
LINE
8
0
10
8732.63
20
4872.5
30
0
11
8701.84
21
4927.27
31
0
62
0
0
LINE
8
0
10
8701.84
20
4927.27
30
0
11
8670.71
21
4981.85
31
0
62
0
0
LINE
8
0
10
8670.71
20
4981.85
30
0
11
8639.23
21
5036.23
31
0
62
0
0
LINE
8
0
10
8639.23
20
5036.23
30
0
11
8607.42
21
5090.41
31
0
62
0
0
LINE
8
0
10
8607.42
20
5090.41
30
0
11
8575.27
21
5144.4
31
0
62
0
0
LINE
8
0
10
8575.27
20
5144.4
30
0
11
8542.77
21
5198.17
31
0
62
0
0
LINE
8
0
10
8542.77
20
5198.17
30
0
11
8509.94
21
5251.75
31
0
62
0
0
LINE
8
0
10
8509.94
20
5251.75
30
0
11
8476.78
21
5305.11
31
0
62
0
0
LINE
8
0
10
8476.78
20
5305.11
30
0
11
8443.28
21
5358.27
31
0
62
0
0
LINE
8
0
10
8443.28
20
5358.27
30
0
11
8409.45
21
5411.21
31
0
62
0
0
LINE
8
0
10
8409.45
20
5411.21
30
0
11
8375.28
21
5463.94
31
0
62
0
0
LINE
8
0
10
8375.28
20
5463.94
30
0
11
8340.78
21
5516.46
31
0
62
0
0
LINE
8
0
10
8340.78
20
5516.46
30
0
11
8305.96
21
5568.76
31
0
62
0
0
LINE
8
0
10
8305.96
20
5568.76
30
0
11
8270.81
21
5620.83
31
0
62
0
0
LINE
8
0
10
8270.81
20
5620.83
30
0
11
8235.33
21
5672.69
31
0
62
0
0
LINE
8
0
10
8235.33
20
5672.69
30
0
11
8199.52
21
5724.32
31
0
62
0
0
LINE
8
0
10
8199.52
20
5724.32
30
0
11
8163.39
21
5775.73
31
0
62
0
0
LINE
8
0
10
8163.39
20
5775.73
30
0
11
8126.94
21
5826.91
31
0
62
0
0
LINE
8
0
10
8126.94
20
5826.91
30
0
11
8090.17
21
5877.85
31
0
62
0
0
LINE
8
0
10
8090.17
20
5877.85
30
0
11
8053.08
21
5928.57
31
0
62
0
0
LINE
8
0
10
8053.08
20
5928.57
30
0
11
8015.67
21
5979.05
31
0
62
0
0
LINE
8
0
10
8015.67
20
5979.05
30
0
11
7977.94
21
6029.3
31
0
62
0
0
LINE
8
0
10
7977.94
20
6029.3
30
0
11
7939.9
21
6079.3
31
0
62
0
0
LINE
8
0
10
7939.9
20
6079.3
30
0
11
7901.55
21
6129.07
31
0
62
0
0
LINE
8
0
10
7901.55
20
6129.07
30
0
11
7862.88
21
6178.6
31
0
62
0
0
LINE
8
0
10
7862.88
20
6178.6
30
0
11
7823.91
21
6227.88
31
0
62
0
0
LINE
8
0
10
7823.91
20
6227.88
30
0
11
7784.62
21
6276.91
31
0
62
0
0
LINE
8
0
10
7784.62
20
6276.91
30
0
11
7745.03
21
6325.7
31
0
62
0
0
LINE
8
0
10
7745.03
20
6325.7
30
0
11
7705.13
21
6374.24
31
0
62
0
0
LINE
8
0
10
7705.13
20
6374.24
30
0
11
7664.93
21
6422.53
31
0
62
0
0
LINE
8
0
10
7664.93
20
6422.53
30
0
11
7624.43
21
6470.56
31
0
62
0
0
LINE
8
0
10
7624.43
20
6470.56
30
0
11
7583.62
21
6518.34
31
0
62
0
0
LINE
8
0
10
7583.62
20
6518.34
30
0
11
7542.51
21
6565.86
31
0
62
0
0
LINE
8
0
10
7542.51
20
6565.86
30
0
11
7501.11
21
6613.12
31
0
62
0
0
LINE
8
0
10
7501.11
20
6613.12
30
0
11
7459.41
21
6660.12
31
0
62
0
0
LINE
8
0
10
7459.41
20
6660.12
30
0
11
7417.42
21
6706.86
31
0
62
0
0
LINE
8
0
10
7417.42
20
6706.86
30
0
11
7375.13
21
6753.33
31
0
62
0
0
LINE
8
0
10
7375.13
20
6753.33
30
0
11
7332.55
21
6799.53
31
0
62
0
0
LINE
8
0
10
7332.55
20
6799.53
30
0
11
7289.69
21
6845.47
31
0
62
0
0
LINE
8
0
10
7289.69
20
6845.47
30
0
11
7246.53
21
6891.14
31
0
62
0
0
LINE
8
0
10
7246.53
20
6891.14
30
0
11
7203.09
21
6936.53
31
0
62
0
0
LINE
8
0
10
7203.09
20
6936.53
30
0
11
7159.36
21
6981.65
31
0
62
0
0
LINE
8
0
10
7159.36
20
6981.65
30
0
11
7115.36
21
7026.5
31
0
62
0
0
LINE
8
0
10
7115.36
20
7026.5
30
0
11
7071.07
21
7071.07
31
0
62
0
0
LINE
8
0
10
7071.07
20
7071.07
30
0
11
7026.5
21
7115.36
31
0
62
0
0
LINE
8
0
10
7026.5
20
7115.36
30
0
11
6981.65
21
7159.36
31
0
62
0
0
LINE
8
0
10
6981.65
20
7159.36
30
0
11
6936.53
21
7203.09
31
0
62
0
0
LINE
8
0
10
6936.53
20
7203.09
30
0
11
6891.14
21
7246.53
31
0
62
0
0
LINE
8
0
10
6891.14
20
7246.53
30
0
11
6845.47
21
7289.69
31
0
62
0
0
LINE
8
0
10
6845.47
20
7289.69
30
0
11
6799.53
21
7332.55
31
0
62
0
0
LINE
8
0
10
6799.53
20
7332.55
30
0
11
6753.33
21
7375.13
31
0
62
0
0
LINE
8
0
10
6753.33
20
7375.13
30
0
11
6706.86
21
7417.42
31
0
62
0
0
LINE
8
0
10
6706.86
20
7417.42
30
0
11
6660.12
21
7459.41
31
0
62
0
0
LINE
8
0
10
6660.12
20
7459.41
30
0
11
6613.12
21
7501.11
31
0
62
0
0
LINE
8
0
10
6613.12
20
7501.11
30
0
11
6565.86
21
7542.51
31
0
62
0
0
LINE
8
0
10
6565.86
20
7542.51
30
0
11
6518.34
21
7583.62
31
0
62
0
0
LINE
8
0
10
6518.34
20
7583.62
30
0
11
6470.56
21
7624.43
31
0
62
0
0
LINE
8
0
10
6470.56
20
7624.43
30
0
11
6422.53
21
7664.93
31
0
62
0
0
LINE
8
0
10
6422.53
20
7664.93
30
0
11
6374.24
21
7705.13
31
0
62
0
0
LINE
8
0
10
6374.24
20
7705.13
30
0
11
6325.7
21
7745.03
31
0
62
0
0
LINE
8
0
10
6325.7
20
7745.03
30
0
11
6276.91
21
7784.62
31
0
62
0
0
LINE
8
0
10
6276.91
20
7784.62
30
0
11
6227.88
21
7823.91
31
0
62
0
0
LINE
8
0
10
6227.88
20
7823.91
30
0
11
6178.6
21
7862.88
31
0
62
0
0
LINE
8
0
10
6178.6
20
7862.88
30
0
11
6129.07
21
7901.55
31
0
62
0
0
LINE
8
0
10
6129.07
20
7901.55
30
0
11
6079.3
21
7939.9
31
0
62
0
0
LINE
8
0
10
6079.3
20
7939.9
30
0
11
6029.3
21
7977.94
31
0
62
0
0
LINE
8
0
10
6029.3
20
7977.94
30
0
11
5979.05
21
8015.67
31
0
62
0
0
LINE
8
0
10
5979.05
20
8015.67
30
0
11
5928.57
21
8053.08
31
0
62
0
0
LINE
8
0
10
5928.57
20
8053.08
30
0
11
5877.85
21
8090.17
31
0
62
0
0
LINE
8
0
10
5877.85
20
8090.17
30
0
11
5826.9
21
8126.94
31
0
62
0
0
LINE
8
0
10
5826.9
20
8126.94
30
0
11
5775.73
21
8163.39
31
0
62
0
0
LINE
8
0
10
5775.73
20
8163.39
30
0
11
5724.32
21
8199.52
31
0
62
0
0
LINE
8
0
10
5724.32
20
8199.52
30
0
11
5672.69
21
8235.33
31
0
62
0
0
LINE
8
0
10
5672.69
20
8235.33
30
0
11
5620.83
21
8270.81
31
0
62
0
0
LINE
8
0
10
5620.83
20
8270.81
30
0
11
5568.76
21
8305.96
31
0
62
0
0
LINE
8
0
10
5568.76
20
8305.96
30
0
11
5516.46
21
8340.79
31
0
62
0
0
LINE
8
0
10
5516.46
20
8340.79
30
0
11
5463.94
21
8375.28
31
0
62
0
0
LINE
8
0
10
5463.94
20
8375.28
30
0
11
5411.21
21
8409.45
31
0
62
0
0
LINE
8
0
10
5411.21
20
8409.45
30
0
11
5358.27
21
8443.28
31
0
62
0
0
LINE
8
0
10
5358.27
20
8443.28
30
0
11
5305.11
21
8476.78
31
0
62
0
0
LINE
8
0
10
5305.11
20
8476.78
30
0
11
5251.75
21
8509.94
31
0
62
0
0
LINE
8
0
10
5251.75
20
8509.94
30
0
11
5198.17
21
8542.77
31
0
62
0
0
LINE
8
0
10
5198.17
20
8542.77
30
0
11
5144.39
21
8575.27
31
0
62
0
0
LINE
8
0
10
5144.39
20
8575.27
30
0
11
5090.41
21
8607.42
31
0
62
0
0
LINE
8
0
10
5090.41
20
8607.42
30
0
11
5036.23
21
8639.23
31
0
62
0
0
LINE
8
0
10
5036.23
20
8639.23
30
0
11
4981.85
21
8670.71
31
0
62
0
0
LINE
8
0
10
4981.85
20
8670.71
30
0
11
4927.27
21
8701.84
31
0
62
0
0
LINE
8
0
10
4927.27
20
8701.84
30
0
11
4872.5
21
8732.63
31
0
62
0
0
LINE
8
0
10
4872.5
20
8732.63
30
0
11
4817.54
21
8763.07
31
0
62
0
0
LINE
8
0
10
4817.54
20
8763.07
30
0
11
4762.38
21
8793.16
31
0
62
0
0
LINE
8
0
10
4762.38
20
8793.16
30
0
11
4707.04
21
8822.91
31
0
62
0
0
LINE
8
0
10
4707.04
20
8822.91
30
0
11
4651.51
21
8852.31
31
0
62
0
0
LINE
8
0
10
4651.51
20
8852.31
30
0
11
4595.8
21
8881.36
31
0
62
0
0
LINE
8
0
10
4595.8
20
8881.36
30
0
11
4539.91
21
8910.07
31
0
62
0
0
LINE
8
0
10
4539.91
20
8910.07
30
0
11
4483.83
21
8938.41
31
0
62
0
0
LINE
8
0
10
4483.83
20
8938.41
30
0
11
4427.58
21
8966.41
31
0
62
0
0
LINE
8
0
10
4427.58
20
8966.41
30
0
11
4371.16
21
8994.05
31
0
62
0
0
LINE
8
0
10
4371.16
20
8994.05
30
0
11
4314.56
21
9021.34
31
0
62
0
0
LINE
8
0
10
4314.56
20
9021.34
30
0
11
4257.79
21
9048.27
31
0
62
0
0
LINE
8
0
10
4257.79
20
9048.27
30
0
11
4200.86
21
9074.84
31
0
62
0
0
LINE
8
0
10
4200.86
20
9074.84
30
0
11
4143.76
21
9101.06
31
0
62
0
0
LINE
8
0
10
4143.76
20
9101.06
30
0
11
4086.49
21
9126.92
31
0
62
0
0
LINE
8
0
10
4086.49
20
9126.92
30
0
11
4029.06
21
9152.41
31
0
62
0
0
LINE
8
0
10
4029.06
20
9152.41
30
0
11
3971.48
21
9177.55
31
0
62
0
0
LINE
8
0
10
3971.48
20
9177.55
30
0
11
3913.74
21
9202.32
31
0
62
0
0
LINE
8
0
10
3913.74
20
9202.32
30
0
11
3855.84
21
9226.73
31
0
62
0
0
LINE
8
0
10
3855.84
20
9226.73
30
0
11
3797.79
21
9250.77
31
0
62
0
0
LINE
8
0
10
3797.79
20
9250.77
30
0
11
3739.59
21
9274.45
31
0
62
0
0
LINE
8
0
10
3739.59
20
9274.45
30
0
11
3681.25
21
9297.76
31
0
62
0
0
LINE
8
0
10
3681.25
20
9297.76
30
0
11
3622.75
21
9320.71
31
0
62
0
0
LINE
8
0
10
3622.75
20
9320.71
30
0
11
3564.12
21
9343.29
31
0
62
0
0
LINE
8
0
10
3564.12
20
9343.29
30
0
11
3505.34
21
9365.5
31
0
62
0
0
LINE
8
0
10
3505.34
20
9365.5
30
0
11
3446.43
21
9387.34
31
0
62
0
0
LINE
8
0
10
3446.43
20
9387.34
30
0
11
3387.38
21
9408.81
31
0
62
0
0
LINE
8
0
10
3387.38
20
9408.81
30
0
11
3328.2
21
9429.91
31
0
62
0
0
LINE
8
0
10
3328.2
20
9429.91
30
0
11
3268.88
21
9450.63
31
0
62
0
0
LINE
8
0
10
3268.88
20
9450.63
30
0
11
3209.44
21
9470.98
31
0
62
0
0
LINE
8
0
10
3209.44
20
9470.98
30
0
11
3149.86
21
9490.96
31
0
62
0
0
LINE
8
0
10
3149.86
20
9490.96
30
0
11
3090.17
21
9510.57
31
0
62
0
0
LINE
8
0
10
3090.17
20
9510.57
30
0
11
3030.35
21
9529.79
31
0
62
0
0
LINE
8
0
10
3030.35
20
9529.79
30
0
11
2970.42
21
9548.65
31
0
62
0
0
LINE
8
0
10
2970.42
20
9548.65
30
0
11
2910.36
21
9567.12
31
0
62
0
0
LINE
8
0
10
2910.36
20
9567.12
30
0
11
2850.19
21
9585.22
31
0
62
0
0
LINE
8
0
10
2850.19
20
9585.22
30
0
11
2789.91
21
9602.94
31
0
62
0
0
LINE
8
0
10
2789.91
20
9602.94
30
0
11
2729.52
21
9620.28
31
0
62
0
0
LINE
8
0
10
2729.52
20
9620.28
30
0
11
2669.02
21
9637.24
31
0
62
0
0
LINE
8
0
10
2669.02
20
9637.24
30
0
11
2608.42
21
9653.82
31
0
62
0
0
LINE
8
0
10
2608.42
20
9653.82
30
0
11
2547.71
21
9670.01
31
0
62
0
0
LINE
8
0
10
2547.71
20
9670.01
30
0
11
2486.9
21
9685.83
31
0
62
0
0
LINE
8
0
10
2486.9
20
9685.83
30
0
11
2425.99
21
9701.27
31
0
62
0
0
LINE
8
0
10
2425.99
20
9701.27
30
0
11
2364.99
21
9716.32
31
0
62
0
0
LINE
8
0
10
2364.99
20
9716.32
30
0
11
2303.89
21
9730.99
31
0
62
0
0
LINE
8
0
10
2303.89
20
9730.99
30
0
11
2242.71
21
9745.27
31
0
62
0
0
LINE
8
0
10
2242.71
20
9745.27
30
0
11
2181.43
21
9759.17
31
0
62
0
0
LINE
8
0
10
2181.43
20
9759.17
30
0
11
2120.07
21
9772.68
31
0
62
0
0
LINE
8
0
10
2120.07
20
9772.68
30
0
11
2058.63
21
9785.81
31
0
62
0
0
LINE
8
0
10
2058.63
20
9785.81
30
0
11
1997.1
21
9798.55
31
0
62
0
0
LINE
8
0
10
1997.1
20
9798.55
30
0
11
1935.49
21
9810.91
31
0
62
0
0
LINE
8
0
10
1935.49
20
9810.91
30
0
11
1873.81
21
9822.87
31
0
62
0
0
LINE
8
0
10
1873.81
20
9822.87
30
0
11
1812.06
21
9834.45
31
0
62
0
0
LINE
8
0
10
1812.06
20
9834.45
30
0
11
1750.23
21
9845.64
31
0
62
0
0
LINE
8
0
10
1750.23
20
9845.64
30
0
11
1688.33
21
9856.45
31
0
62
0
0
LINE
8
0
10
1688.33
20
9856.45
30
0
11
1626.37
21
9866.86
31
0
62
0
0
LINE
8
0
10
1626.37
20
9866.86
30
0
11
1564.34
21
9876.88
31
0
62
0
0
LINE
8
0
10
1564.34
20
9876.88
30
0
11
1502.26
21
9886.52
31
0
62
0
0
LINE
8
0
10
1502.26
20
9886.52
30
0
11
1440.11
21
9895.76
31
0
62
0
0
LINE
8
0
10
1440.11
20
9895.76
30
0
11
1377.9
21
9904.61
31
0
62
0
0
LINE
8
0
10
1377.9
20
9904.61
30
0
11
1315.64
21
9913.08
31
0
62
0
0
LINE
8
0
10
1315.64
20
9913.08
30
0
11
1253.33
21
9921.15
31
0
62
0
0
LINE
8
0
10
1253.33
20
9921.15
30
0
11
1190.97
21
9928.83
31
0
62
0
0
LINE
8
0
10
1190.97
20
9928.83
30
0
11
1128.56
21
9936.11
31
0
62
0
0
LINE
8
0
10
1128.56
20
9936.11
30
0
11
1066.11
21
9943.01
31
0
62
0
0
LINE
8
0
10
1066.11
20
9943.01
30
0
11
1003.62
21
9949.51
31
0
62
0
0
LINE
8
0
10
1003.62
20
9949.51
30
0
11
941.083
21
9955.62
31
0
62
0
0
LINE
8
0
10
941.083
20
9955.62
30
0
11
878.512
21
9961.34
31
0
62
0
0
LINE
8
0
10
878.512
20
9961.34
30
0
11
815.905
21
9966.66
31
0
62
0
0
LINE
8
0
10
815.905
20
9966.66
30
0
11
753.267
21
9971.59
31
0
62
0
0
LINE
8
0
10
753.267
20
9971.59
30
0
11
690.6
21
9976.13
31
0
62
0
0
LINE
8
0
10
690.6
20
9976.13
30
0
11
627.905
21
9980.27
31
0
62
0
0
LINE
8
0
10
627.905
20
9980.27
30
0
11
565.185
21
9984.02
31
0
62
0
0
LINE
8
0
10
565.185
20
9984.02
30
0
11
502.442
21
9987.37
31
0
62
0
0
LINE
8
0
10
502.442
20
9987.37
30
0
11
439.68
21
9990.33
31
0
62
0
0
LINE
8
0
10
439.68
20
9990.33
30
0
11
376.901
21
9992.89
31
0
62
0
0
LINE
8
0
10
376.901
20
9992.89
30
0
11
314.107
21
9995.07
31
0
62
0
0
LINE
8
0
10
314.107
20
9995.07
30
0
11
251.301
21
9996.84
31
0
62
0
0
LINE
8
0
10
251.301
20
9996.84
30
0
11
188.485
21
9998.22
31
0
62
0
0
LINE
8
0
10
188.485
20
9998.22
30
0
11
125.66
21
9999.21
31
0
62
0
0
LINE
8
0
10
125.66
20
9999.21
30
0
11
62.8308
21
9999.8
31
0
62
0
0
LINE
8
0
10
62.8308
20
9999.8
30
0
11
-0.000437114
21
10000
31
0
62
0
0
LINE
8
0
10
3122.5
20
-9500
30
0
11
4379.3
21
-8573.75
31
0
62
0
0
LINE
8
0
10
3122.5
20
-9500
30
0
11
-10000
21
-9500
31
0
62
0
0
LINE
8
0
10
3122.5
20
-9500
30
0
11
0
21
0
31
0
62
0
0
LINE
8
0
10
5267.83
20
-8500
30
0
11
6439.92
21
-6141.25
31
0
62
0
0
LINE
8
0
10
5267.83
20
-8500
30
0
11
-10000
21
-8500
31
0
62
0
0
LINE
8
0
10
5267.83
20
-8500
30
0
11
0
21
0
31
0
62
0
0
LINE
8
0
10
6614.38
20
-7500
30
0
11
7027.78
21
-4218.75
31
0
62
0
0
LINE
8
0
10
6614.38
20
-7500
30
0
11
-10000
21
-7500
31
0
62
0
0
LINE
8
0
10
6614.38
20
-7500
30
0
11
0
21
0
31
0
62
0
0
LINE
8
0
10
7599.34
20
-6500
30
0
11
7010.39
21
-2746.25
31
0
62
0
0
LINE
8
0
10
7599.34
20
-6500
30
0
11
-10000
21
-6500
31
0
62
0
0
LINE
8
0
10
7599.34
20
-6500
30
0
11
0
21
0
31
0
62
0
0
LINE
8
0
10
8351.65
20
-5500
30
0
11
6702.2
21
-1663.75
31
0
62
0
0
LINE
8
0
10
8351.65
20
-5500
30
0
11
-10000
21
-5500
31
0
62
0
0
LINE
8
0
10
8351.65
20
-5500
30
0
11
0
21
0
31
0
62
0
0
LINE
8
0
10
8930.29
20
-4500
30
0
11
6273.53
21
-911.25
31
0
62
0
0
LINE
8
0
10
8930.29
20
-4500
30
0
11
-10000
21
-4500
31
0
62
0
0
LINE
8
0
10
8930.29
20
-4500
30
0
11
0
21
0
31
0
62
0
0
LINE
8
0
10
9367.5
20
-3500
30
0
11
5831.27
21
-428.75
31
0
62
0
0
LINE
8
0
10
9367.5
20
-3500
30
0
11
-10000
21
-3500
31
0
62
0
0
LINE
8
0
10
9367.5
20
-3500
30
0
11
0
21
0
31
0
62
0
0
LINE
8
0
10
9682.46
20
-2500
30
0
11
5446.38
21
-156.25
31
0
62
0
0
LINE
8
0
10
9682.46
20
-2500
30
0
11
-10000
21
-2500
31
0
62
0
0
LINE
8
0
10
9682.46
20
-2500
30
0
11
0
21
0
31
0
62
0
0
LINE
8
0
10
9886.86
20
-1500
30
0
11
5165.88
21
-33.75
31
0
62
0
0
LINE
8
0
10
9886.86
20
-1500
30
0
11
-10000
21
-1500
31
0
62
0
0
LINE
8
0
10
9886.86
20
-1500
30
0
11
0
21
0
31
0
62
0
0
LINE
8
0
10
9987.49
20
-500
30
0
11
5018.71
21
-1.24999
31
0
62
0
0
LINE
8
0
10
9987.49
20
-500
30
0
11
-10000
21
-500
31
0
62
0
0
LINE
8
0
10
9987.49
20
-500
30
0
11
0
21
0
31
0
62
0
0
LINE
8
0
10
9987.49
20
500
30
0
11
5018.71
21
1.24999
31
0
62
0
0
LINE
8
0
10
9987.49
20
500
30
0
11
-10000
21
500
31
0
62
0
0
LINE
8
0
10
9987.49
20
500
30
0
11
0
21
0
31
0
62
0
0
LINE
8
0
10
9886.86
20
1500
30
0
11
5165.88
21
33.75
31
0
62
0
0
LINE
8
0
10
9886.86
20
1500
30
0
11
-10000
21
1500
31
0
62
0
0
LINE
8
0
10
9886.86
20
1500
30
0
11
0
21
0
31
0
62
0
0
LINE
8
0
10
9682.46
20
2500
30
0
11
5446.38
21
156.25
31
0
62
0
0
LINE
8
0
10
9682.46
20
2500
30
0
11
-10000
21
2500
31
0
62
0
0
LINE
8
0
10
9682.46
20
2500
30
0
11
0
21
0
31
0
62
0
0
LINE
8
0
10
9367.5
20
3500
30
0
11
5831.27
21
428.75
31
0
62
0
0
LINE
8
0
10
9367.5
20
3500
30
0
11
-10000
21
3500
31
0
62
0
0
LINE
8
0
10
9367.5
20
3500
30
0
11
0
21
0
31
0
62
0
0
LINE
8
0
10
8930.29
20
4500
30
0
11
6273.53
21
911.25
31
0
62
0
0
LINE
8
0
10
8930.29
20
4500
30
0
11
-10000
21
4500
31
0
62
0
0
LINE
8
0
10
8930.29
20
4500
30
0
11
0
21
0
31
0
62
0
0
LINE
8
0
10
8351.65
20
5500
30
0
11
6702.2
21
1663.75
31
0
62
0
0
LINE
8
0
10
8351.65
20
5500
30
0
11
-10000
21
5500
31
0
62
0
0
LINE
8
0
10
8351.65
20
5500
30
0
11
0
21
0
31
0
62
0
0
LINE
8
0
10
7599.34
20
6500
30
0
11
7010.39
21
2746.25
31
0
62
0
0
LINE
8
0
10
7599.34
20
6500
30
0
11
-10000
21
6500
31
0
62
0
0
LINE
8
0
10
7599.34
20
6500
30
0
11
0
21
0
31
0
62
0
0
LINE
8
0
10
6614.38
20
7500
30
0
11
7027.78
21
4218.75
31
0
62
0
0
LINE
8
0
10
6614.38
20
7500
30
0
11
-10000
21
7500
31
0
62
0
0
LINE
8
0
10
6614.38
20
7500
30
0
11
0
21
0
31
0
62
0
0
LINE
8
0
10
5267.83
20
8500
30
0
11
6439.92
21
6141.25
31
0
62
0
0
LINE
8
0
10
5267.83
20
8500
30
0
11
-10000
21
8500
31
0
62
0
0
LINE
8
0
10
5267.83
20
8500
30
0
11
0
21
0
31
0
62
0
0
LINE
8
0
10
3122.5
20
9500
30
0
11
4379.3
21
8573.75
31
0
62
0
0
LINE
8
0
10
3122.5
20
9500
30
0
11
-10000
21
9500
31
0
62
0
0
LINE
8
0
10
3122.5
20
9500
30
0
11
0
21
0
31
0
62
0
0
ENDSEC
0
EOF
