0
SECTION
2
ENTITIES
0
CIRCLE
8
4
39
1.02304
10
0.807176
20
0.192086
30
-0.424625
40
0.0035
210
-0.455536
220
-0.789059
230
0.412157
62
4
0
CIRCLE
8
4
39
1.02296
10
0.8072
20
0.192083
30
-0.59838
40
0.0035
210
-0.911099
220
-2.33984e-05
230
-0.412187
62
4
0
CIRCLE
8
4
39
1.02304
10
0.807176
20
0.192086
30
-0.424625
40
0.0035
210
-0.455577
220
0.789035
230
0.412157
62
4
0
CIRCLE
8
4
39
1.02296
10
0.8072
20
0.192083
30
-0.59838
40
0.0035
210
0.455529
220
0.789047
230
-0.412187
62
4
0
CIRCLE
8
4
39
1.02304
10
0.807176
20
0.192086
30
-0.424625
40
0.0035
210
0.911113
220
2.33988e-05
230
0.412157
62
4
0
CIRCLE
8
4
39
1.02296
10
0.8072
20
0.192083
30
-0.59838
40
0.0035
210
0.45557
220
-0.789023
230
-0.412187
62
4
0
CIRCLE
8
0
39
2.23244
10
0.293625
20
0.559186
30
-0.685442
40
0.0263104
210
-0.735393
220
-0.24414
230
0.632133
62
0
0
CIRCLE
8
0
39
2.23244
10
0.293625
20
0.559186
30
-0.685442
40
0.0263104
210
0.156265
220
0.758939
230
0.632133
62
0
0
CIRCLE
8
0
39
2.23244
10
0.293625
20
0.559186
30
-0.685442
40
0.0263104
210
0.579128
220
-0.514799
230
0.632133
62
0
0
CIRCLE
8
2
39
1.4559
10
0.89084
20
0.265702
30
-0.0673988
40
0.0035
210
-0.0722996
220
-0.235006
230
0.969301
62
2
0
CIRCLE
8
2
39
1.4559
10
0.89084
20
0.265702
30
-0.0673988
40
0.0035
210
-0.167371
220
0.180116
230
0.969301
62
2
0
CIRCLE
8
2
39
1.4559
10
0.89084
20
0.265702
30
-0.0673988
40
0.0035
210
0.239671
220
0.0548897
230
0.969301
62
2
0
CIRCLE
8
3
39
0.696188
10
0.857707
20
0.529212
30
0.175499
40
0.0035
210
-0.508096
220
-0.0620192
230
0.859065
62
3
0
CIRCLE
8
3
39
0.696188
10
0.857707
20
0.529212
30
0.175499
40
0.0035
210
0.200338
220
0.471033
230
0.859065
62
3
0
CIRCLE
8
3
39
0.696188
10
0.857707
20
0.529212
30
0.175499
40
0.0035
210
0.307758
220
-0.409014
230
0.859065
62
3
0
CIRCLE
8
1
39
0.960262
10
0.758023
20
1.09478
30
-1.00944
40
0.00326667
210
-0.744067
220
-0.529302
230
-0.407681
62
1
0
CIRCLE
8
1
39
0.960282
10
0.758017
20
1.09479
30
0.0491597
40
0.00326667
210
-0.855961
220
0.318015
230
0.407673
62
1
0
CIRCLE
8
1
39
0.960262
10
0.758023
20
1.09478
30
-1.00944
40
0.00326667
210
-0.0863554
220
0.909032
230
-0.407681
62
1
0
CIRCLE
8
1
39
0.960282
10
0.758017
20
1.09479
30
0.0491597
40
0.00326667
210
0.703389
220
0.582277
230
0.407673
62
1
0
CIRCLE
8
1
39
0.960262
10
0.758023
20
1.09478
30
-1.00944
40
0.00326667
210
0.830422
220
-0.37973
230
-0.407681
62
1
0
CIRCLE
8
1
39
0.960282
10
0.758017
20
1.09479
30
0.0491597
40
0.00326667
210
0.152572
220
-0.900291
230
0.407673
62
1
0
CIRCLE
8
0
39
2.14315
10
-0.27478
20
1.30242
30
0.0612868
40
0.0236793
210
0.145548
220
0.737699
230
0.659254
62
0
0
CIRCLE
8
0
39
2.14315
10
-0.27478
20
1.30242
30
0.0612868
40
0.0236793
210
0.566092
220
-0.494898
230
0.659254
62
0
0
CIRCLE
8
0
39
2.14315
10
-0.27478
20
1.30242
30
0.0612868
40
0.0236793
210
-0.71164
220
-0.242802
230
0.659254
62
0
0
CIRCLE
8
2
39
1.45091
10
-0.834524
20
0.424989
30
0.947902
40
0.00326667
210
0.212509
220
0.0810905
230
0.973789
62
2
0
CIRCLE
8
2
39
1.45091
10
-0.834524
20
0.424989
30
0.947902
40
0.00326667
210
-0.0360281
220
-0.224583
230
0.973789
62
2
0
CIRCLE
8
2
39
1.45091
10
-0.834524
20
0.424989
30
0.947902
40
0.00326667
210
-0.176481
220
0.143493
230
0.973789
62
2
0
CIRCLE
8
3
39
0.717711
10
-0.825996
20
0.971604
30
1.07974
40
0.00326667
210
0.410884
220
-0.235942
230
0.880628
62
3
0
CIRCLE
8
3
39
0.717711
10
-0.825996
20
0.971604
30
1.07974
40
0.00326667
210
-0.409774
220
-0.237865
230
0.880628
62
3
0
CIRCLE
8
3
39
0.717711
10
-0.825996
20
0.971604
30
1.07974
40
0.00326667
210
-0.00111008
220
0.473807
230
0.880628
62
3
0
CIRCLE
8
1
39
0.92185
10
0.723279
20
2.02054
30
0.501392
40
0.00303333
210
-0.439738
220
-0.792613
230
0.422368
62
1
0
CIRCLE
8
1
39
0.921863
10
0.723275
20
2.02055
30
-1.42323
40
0.00303333
210
-0.906207
220
0.0199493
230
-0.422362
62
1
0
CIRCLE
8
1
39
0.92185
10
0.723279
20
2.02054
30
0.501392
40
0.00303333
210
-0.466554
220
0.777131
230
0.422368
62
1
0
CIRCLE
8
1
39
0.921863
10
0.723275
20
2.02055
30
-1.42323
40
0.00303333
210
0.47038
220
0.774824
230
-0.422362
62
1
0
CIRCLE
8
1
39
0.92185
10
0.723279
20
2.02054
30
0.501392
40
0.00303333
210
0.906292
220
0.0154828
230
0.422368
62
1
0
CIRCLE
8
1
39
0.921863
10
0.723275
20
2.02055
30
-1.42323
40
0.00303333
210
0.435827
220
-0.794773
230
-0.422362
62
1
0
CIRCLE
8
0
39
2.05742
10
0.264729
20
2.05555
30
0.749504
40
0.021395
210
-0.715637
220
-0.24016
230
0.655886
62
0
0
CIRCLE
8
0
39
2.05742
10
0.264729
20
2.05555
30
0.749504
40
0.021395
210
0.149833
220
0.73984
230
0.655886
62
0
0
CIRCLE
8
0
39
2.05742
10
0.264729
20
2.05555
30
0.749504
40
0.021395
210
0.565803
220
-0.499679
230
0.655886
62
0
0
CIRCLE
8
2
39
1.38643
10
0.804349
20
0.65179
30
1.94558
40
0.00303333
210
-0.0527569
220
-0.223343
230
0.973311
62
2
0
CIRCLE
8
2
39
1.38643
10
0.804349
20
0.65179
30
1.94558
40
0.00303333
210
-0.167042
220
0.15736
230
0.973311
62
2
0
CIRCLE
8
2
39
1.38643
10
0.804349
20
0.65179
30
1.94558
40
0.00303333
210
0.219799
220
0.0659826
230
0.973311
62
2
0
CIRCLE
8
3
39
0.668077
10
0.788153
20
1.43681
30
1.98638
40
0.00303333
210
-0.475375
220
-0.0731388
230
0.876738
62
3
0
CIRCLE
8
3
39
0.668077
10
0.788153
20
1.43681
30
1.98638
40
0.00303333
210
0.174347
220
0.448256
230
0.876738
62
3
0
CIRCLE
8
3
39
0.668077
10
0.788153
20
1.43681
30
1.98638
40
0.00303333
210
0.301027
220
-0.375117
230
0.876738
62
3
0
CIRCLE
8
1
39
0.884976
10
0.69372
20
2.8934
30
-1.82241
40
0.0028
210
-0.734274
220
-0.530955
230
-0.422999
62
1
0
CIRCLE
8
1
39
0.88499
10
0.693715
20
2.89341
30
0.937402
40
0.0028
210
-0.846795
220
0.322515
230
0.422992
62
1
0
CIRCLE
8
1
39
0.884976
10
0.69372
20
2.8934
30
-1.82241
40
0.0028
210
-0.0926836
220
0.901378
230
-0.422999
62
1
0
CIRCLE
8
1
39
0.88499
10
0.693715
20
2.89341
30
0.937402
40
0.0028
210
0.702704
220
0.572089
230
0.422992
62
1
0
CIRCLE
8
1
39
0.884976
10
0.69372
20
2.8934
30
-1.82241
40
0.0028
210
0.826958
220
-0.370423
230
-0.422999
62
1
0
CIRCLE
8
1
39
0.88499
10
0.693715
20
2.89341
30
0.937402
40
0.0028
210
0.144091
220
-0.894604
230
0.422992
62
1
0
CIRCLE
8
0
39
1.97512
10
-0.253815
20
2.76212
30
1.42761
40
0.0193981
210
0.14701
220
0.73766
230
0.658973
62
0
0
CIRCLE
8
0
39
1.97512
10
-0.253815
20
2.76212
30
1.42761
40
0.0193981
210
0.565327
220
-0.496145
230
0.658973
62
0
0
CIRCLE
8
0
39
1.97512
10
-0.253815
20
2.76212
30
1.42761
40
0.0193981
210
-0.712338
220
-0.241515
230
0.658973
62
0
0
CIRCLE
8
2
39
1.33641
10
-0.770005
20
0.84951
30
2.90124
40
0.0028
210
0.213379
220
0.0772023
230
0.973914
62
2
0
CIRCLE
8
2
39
1.33641
10
-0.770005
20
0.84951
30
2.90124
40
0.0028
210
-0.0398303
220
-0.223393
230
0.973914
62
2
0
CIRCLE
8
2
39
1.33641
10
-0.770005
20
0.84951
30
2.90124
40
0.0028
210
-0.173548
220
0.14619
230
0.973914
62
2
0
CIRCLE
8
3
39
0.645895
10
-0.756921
20
1.887
30
2.83557
40
0.0028
210
0.410841
220
-0.24451
230
0.878308
62
3
0
CIRCLE
8
3
39
0.645895
10
-0.756921
20
1.887
30
2.83557
40
0.0028
210
-0.417173
220
-0.233544
230
0.878308
62
3
0
CIRCLE
8
3
39
0.645895
10
-0.756921
20
1.887
30
2.83557
40
0.0028
210
0.00633155
220
0.478054
230
0.878308
62
3
0
CIRCLE
8
1
39
0.849578
10
0.665796
20
3.73963
30
1.35137
40
0.00256667
210
-0.43403
220
-0.795079
230
0.423636
62
1
0
CIRCLE
8
1
39
0.849592
10
0.665792
20
3.73964
30
-2.20092
40
0.00256667
210
-0.905383
220
0.0286261
230
-0.423629
62
1
0
CIRCLE
8
1
39
0.849578
10
0.665796
20
3.73963
30
1.35137
40
0.00256667
210
-0.471543
220
0.773421
230
0.423636
62
1
0
CIRCLE
8
1
39
0.849592
10
0.665792
20
3.73964
30
-2.20092
40
0.00256667
210
0.477483
220
0.769772
230
-0.423629
62
1
0
CIRCLE
8
1
39
0.849578
10
0.665796
20
3.73963
30
1.35137
40
0.00256667
210
0.905573
220
0.0216581
230
0.423636
62
1
0
CIRCLE
8
1
39
0.849592
10
0.665792
20
3.73964
30
-2.20092
40
0.00256667
210
0.427901
220
-0.798398
230
-0.423629
62
1
0
CIRCLE
8
0
39
1.89611
10
0.243794
20
3.45509
30
2.0633
40
0.0176421
210
-0.714316
220
-0.239942
230
0.657404
62
0
0
CIRCLE
8
0
39
1.89611
10
0.243794
20
3.45509
30
2.0633
40
0.0176421
210
0.149362
220
0.738587
230
0.657404
62
0
0
CIRCLE
8
0
39
1.89611
10
0.243794
20
3.45509
30
2.0633
40
0.0176421
210
0.564954
220
-0.498645
230
0.657404
62
0
0
CIRCLE
8
2
39
1.28029
10
0.740504
20
1.05646
30
3.81967
40
0.00256667
210
-0.048175
220
-0.223054
230
0.973615
62
2
0
CIRCLE
8
2
39
1.28029
10
0.740504
20
1.05646
30
3.81967
40
0.00256667
210
-0.169083
220
0.153248
230
0.973615
62
2
0
CIRCLE
8
2
39
1.28029
10
0.740504
20
1.05646
30
3.81967
40
0.00256667
210
0.217258
220
0.0698062
230
0.973615
62
2
0
CIRCLE
8
3
39
0.61765
10
0.724598
20
2.33268
30
3.64772
40
0.00256667
210
-0.476092
220
-0.0648694
230
0.877
62
3
0
CIRCLE
8
3
39
0.61765
10
0.724598
20
2.33268
30
3.64772
40
0.00256667
210
0.181868
220
0.444743
230
0.877
62
3
0
CIRCLE
8
3
39
0.61765
10
0.724598
20
2.33268
30
3.64772
40
0.00256667
210
0.294225
220
-0.379873
230
0.877
62
3
0
CIRCLE
8
1
39
0.815596
10
0.639136
20
4.54979
30
-2.56221
40
0.00233333
210
-0.737035
220
-0.527189
230
-0.422909
62
1
0
CIRCLE
8
1
39
0.815612
10
0.639131
20
4.54981
30
1.74657
40
0.00233333
210
-0.847982
220
0.319502
230
0.422901
62
1
0
CIRCLE
8
1
39
0.815596
10
0.639136
20
4.54979
30
-2.56221
40
0.00233333
210
-0.0880413
220
0.901885
230
-0.422909
62
1
0
CIRCLE
8
1
39
0.815612
10
0.639131
20
4.54981
30
1.74657
40
0.00233333
210
0.700688
220
0.574623
230
0.422901
62
1
0
CIRCLE
8
1
39
0.815596
10
0.639136
20
4.54979
30
-2.56221
40
0.00233333
210
0.825076
220
-0.374697
230
-0.422909
62
1
0
CIRCLE
8
1
39
0.815612
10
0.639131
20
4.54981
30
1.74657
40
0.00233333
210
0.147294
220
-0.894125
230
0.422901
62
1
0
CIRCLE
8
0
39
1.82027
10
-0.233902
20
4.11207
30
2.68253
40
0.0160896
210
0.148409
220
0.738238
230
0.658012
62
0
0
CIRCLE
8
0
39
1.82027
10
-0.233902
20
4.11207
30
2.68253
40
0.0160896
210
0.565129
220
-0.497645
230
0.658012
62
0
0
CIRCLE
8
0
39
1.82027
10
-0.233902
20
4.11207
30
2.68253
40
0.0160896
210
-0.713537
220
-0.240593
230
0.658012
62
0
0
CIRCLE
8
2
39
1.2301
10
-0.710468
20
1.24614
30
4.70129
40
0.00233333
210
0.215638
220
0.0734213
230
0.973709
62
2
0
CIRCLE
8
2
39
1.2301
10
-0.710468
20
1.24614
30
4.70129
40
0.00233333
210
-0.0442345
220
-0.223459
230
0.973709
62
2
0
CIRCLE
8
2
39
1.2301
10
-0.710468
20
1.24614
30
4.70129
40
0.00233333
210
-0.171404
220
0.150038
230
0.973709
62
2
0
CIRCLE
8
3
39
0.595287
10
-0.694915
20
2.75324
30
4.42841
40
0.00233333
210
0.416038
220
-0.239519
230
0.877236
62
3
0
CIRCLE
8
3
39
0.595287
10
-0.694915
20
2.75324
30
4.42841
40
0.00233333
210
-0.415448
220
-0.24054
230
0.877236
62
3
0
CIRCLE
8
3
39
0.595287
10
-0.694915
20
2.75324
30
4.42841
40
0.00233333
210
-0.00058985
220
0.480059
230
0.877236
62
3
0
CIRCLE
8
1
39
0.782974
10
0.613654
20
5.33058
30
2.12346
40
0.0021
210
-0.428513
220
-0.798787
230
0.422274
62
1
0
CIRCLE
8
1
39
0.78299
10
0.613649
20
5.33061
30
-2.90639
40
0.0021
210
-0.905782
220
0.0353665
230
-0.422265
62
1
0
CIRCLE
8
1
39
0.782974
10
0.613654
20
5.33058
30
2.12346
40
0.0021
210
-0.477514
220
0.770497
230
0.422274
62
1
0
CIRCLE
8
1
39
0.78299
10
0.613649
20
5.33061
30
-2.90639
40
0.0021
210
0.483519
220
0.766747
230
-0.422265
62
1
0
CIRCLE
8
1
39
0.782974
10
0.613654
20
5.33058
30
2.12346
40
0.0021
210
0.906027
220
0.0282903
230
0.422274
62
1
0
CIRCLE
8
1
39
0.78299
10
0.613649
20
5.33061
30
-2.90639
40
0.0021
210
0.422263
220
-0.802114
230
-0.422265
62
1
0
CIRCLE
8
0
39
1.74746
10
0.224598
20
4.75428
30
3.26299
40
0.0147105
210
-0.71503
220
-0.241082
230
0.65621
62
0
0
CIRCLE
8
0
39
1.74746
10
0.224598
20
4.75428
30
3.26299
40
0.0147105
210
0.148732
220
0.739775
230
0.65621
62
0
0
CIRCLE
8
0
39
1.74746
10
0.224598
20
4.75428
30
3.26299
40
0.0147105
210
0.566298
220
-0.498693
230
0.65621
62
0
0
CIRCLE
8
2
39
1.17813
10
0.683219
20
1.43795
30
5.54673
40
0.0021
210
-0.0428144
220
-0.2254
230
0.973325
62
2
0
CIRCLE
8
2
39
1.17813
10
0.683219
20
1.43795
30
5.54673
40
0.0021
210
-0.173795
220
0.149778
230
0.973325
62
2
0
CIRCLE
8
2
39
1.17813
10
0.683219
20
1.43795
30
5.54673
40
0.0021
210
0.216609
220
0.0756217
230
0.973325
62
2
0
CIRCLE
8
3
39
0.570289
10
0.663833
20
3.18002
30
5.16584
40
0.0021
210
-0.480244
220
-0.0530839
230
0.875527
62
3
0
CIRCLE
8
3
39
0.570289
10
0.663833
20
3.18002
30
5.16584
40
0.0021
210
0.19415
220
0.442446
230
0.875527
62
3
0
CIRCLE
8
3
39
0.570289
10
0.663833
20
3.18002
30
5.16584
40
0.0021
210
0.286094
220
-0.389362
230
0.875527
62
3
0
CIRCLE
8
1
39
0.751658
10
0.588858
20
6.07703
30
-3.23747
40
0.00186667
210
-0.743626
220
-0.519057
230
-0.421426
62
1
0
CIRCLE
8
1
39
0.751675
10
0.588852
20
6.07706
30
2.48574
40
0.00186667
210
-0.851556
220
0.311867
230
0.421416
62
1
0
CIRCLE
8
1
39
0.751658
10
0.588858
20
6.07703
30
-3.23747
40
0.00186667
210
-0.0777035
220
0.903528
230
-0.421426
62
1
0
CIRCLE
8
1
39
0.751675
10
0.588852
20
6.07706
30
2.48574
40
0.00186667
210
0.695863
220
0.581535
230
0.421416
62
1
0
CIRCLE
8
1
39
0.751658
10
0.588858
20
6.07703
30
-3.23747
40
0.00186667
210
0.82133
220
-0.384471
230
-0.421426
62
1
0
CIRCLE
8
1
39
0.751675
10
0.588852
20
6.07706
30
2.48574
40
0.00186667
210
0.155693
220
-0.893402
230
0.421416
62
1
0
CIRCLE
8
0
39
1.67756
10
-0.215305
20
5.34941
30
3.84627
40
0.0134801
210
0.150305
220
0.737406
230
0.658514
62
0
0
CIRCLE
8
0
39
1.67756
10
-0.215305
20
5.34941
30
3.84627
40
0.0134801
210
0.56346
220
-0.498871
230
0.658514
62
0
0
CIRCLE
8
0
39
1.67756
10
-0.215305
20
5.34941
30
3.84627
40
0.0134801
210
-0.713765
220
-0.238535
230
0.658514
62
0
0
CIRCLE
8
2
39
1.13451
10
-0.654142
20
1.60443
30
6.36036
40
0.00186667
210
0.217485
220
0.0675867
230
0.973721
62
2
0
CIRCLE
8
2
39
1.13451
10
-0.654142
20
1.60443
30
6.36036
40
0.00186667
210
-0.0502109
220
-0.222141
230
0.973721
62
2
0
CIRCLE
8
2
39
1.13451
10
-0.654142
20
1.60443
30
6.36036
40
0.00186667
210
-0.167275
220
0.154555
230
0.973721
62
2
0
CIRCLE
8
3
39
0.553089
10
-0.638911
20
3.54514
30
5.89763
40
0.00186667
210
0.420235
220
-0.231401
230
0.877415
62
3
0
CIRCLE
8
3
39
0.553089
10
-0.638911
20
3.54514
30
5.89763
40
0.00186667
210
-0.410516
220
-0.248233
230
0.877415
62
3
0
CIRCLE
8
3
39
0.553089
10
-0.638911
20
3.54514
30
5.89763
40
0.00186667
210
-0.00971842
220
0.479634
230
0.877415
62
3
0
CIRCLE
8
1
39
0.721595
10
0.566055
20
6.80646
30
2.81776
40
0.00163333
210
-0.425221
220
-0.802051
230
0.419407
62
1
0
CIRCLE
8
1
39
0.721613
10
0.56605
20
6.80649
30
-3.53928
40
0.00163333
210
-0.906866
220
0.0412405
230
-0.419397
62
1
0
CIRCLE
8
1
39
0.721595
10
0.566055
20
6.80646
30
2.81776
40
0.00163333
210
-0.481986
220
0.769277
230
0.419407
62
1
0
CIRCLE
8
1
39
0.721613
10
0.56605
20
6.80649
30
-3.53928
40
0.00163333
210
0.489148
220
0.764749
230
-0.419397
62
1
0
CIRCLE
8
1
39
0.721595
10
0.566055
20
6.80646
30
2.81776
40
0.00163333
210
0.907206
220
0.0327733
230
0.419407
62
1
0
CIRCLE
8
1
39
0.721613
10
0.56605
20
6.80649
30
-3.53928
40
0.00163333
210
0.417718
220
-0.805989
230
-0.419397
62
1
0
CIRCLE
8
0
39
1.61046
10
0.207098
20
5.99313
30
4.31596
40
0.0123783
210
-0.720999
220
-0.243198
230
0.648856
62
0
0
CIRCLE
8
0
39
1.61046
10
0.207098
20
5.99313
30
4.31596
40
0.0123783
210
0.149884
220
0.746003
230
0.648856
62
0
0
CIRCLE
8
0
39
1.61046
10
0.207098
20
5.99313
30
4.31596
40
0.0123783
210
0.571115
220
-0.502805
230
0.648856
62
0
0
CIRCLE
8
2
39
1.07548
10
0.632987
20
1.82682
30
7.13092
40
0.00163333
210
-0.0337584
220
-0.234115
230
0.971623
62
2
0
CIRCLE
8
2
39
1.07548
10
0.632987
20
1.82682
30
7.13092
40
0.00163333
210
-0.185871
220
0.146293
230
0.971623
62
2
0
CIRCLE
8
2
39
1.07548
10
0.632987
20
1.82682
30
7.13092
40
0.00163333
210
0.219629
220
0.087822
230
0.971623
62
2
0
CIRCLE
8
3
39
0.522073
10
0.600449
20
4.05199
30
6.51123
40
0.00163333
210
-0.49419
220
-0.0293981
230
0.868857
62
3
0
CIRCLE
8
3
39
0.522073
10
0.600449
20
4.05199
30
6.51123
40
0.00163333
210
0.221635
220
0.44268
230
0.868857
62
3
0
CIRCLE
8
3
39
0.522073
10
0.600449
20
4.05199
30
6.51123
40
0.00163333
210
0.272554
220
-0.413282
230
0.868857
62
3
0
CIRCLE
8
1
39
0.692736
10
0.541531
20
7.48769
30
-3.83722
40
0.0014
210
-0.762966
220
-0.494153
230
-0.416769
62
1
0
CIRCLE
8
1
39
0.692758
10
0.541524
20
7.48774
30
3.14436
40
0.0014
210
-0.860766
220
0.292227
230
0.416755
62
1
0
CIRCLE
8
1
39
0.692736
10
0.541531
20
7.48769
30
-3.83722
40
0.0014
210
-0.0464663
220
0.907824
230
-0.416769
62
1
0
CIRCLE
8
1
39
0.692758
10
0.541524
20
7.48774
30
3.14436
40
0.0014
210
0.683459
220
0.599332
230
0.416755
62
1
0
CIRCLE
8
1
39
0.692736
10
0.541531
20
7.48769
30
-3.83722
40
0.0014
210
0.809432
220
-0.413671
230
-0.416769
62
1
0
CIRCLE
8
1
39
0.692758
10
0.541524
20
7.48774
30
3.14436
40
0.0014
210
0.177307
220
-0.891559
230
0.416755
62
1
0
CIRCLE
8
0
39
1.54605
10
-0.196935
20
6.41418
30
5.00659
40
0.011388
210
0.15475
220
0.727086
230
0.668879
62
0
0
CIRCLE
8
0
39
1.54605
10
-0.196935
20
6.41418
30
5.00659
40
0.011388
210
0.5523
220
-0.497561
230
0.668879
62
0
0
CIRCLE
8
0
39
1.54605
10
-0.196935
20
6.41418
30
5.00659
40
0.011388
210
-0.70705
220
-0.229525
230
0.668879
62
0
0
CIRCLE
8
2
39
1.06021
10
-0.595379
20
1.87462
30
7.89796
40
0.0014
210
0.212589
220
0.0585474
230
0.975386
62
2
0
CIRCLE
8
2
39
1.06021
10
-0.595379
20
1.87462
30
7.89796
40
0.0014
210
-0.0555912
220
-0.213382
230
0.975386
62
2
0
CIRCLE
8
2
39
1.06021
10
-0.595379
20
1.87462
30
7.89796
40
0.0014
210
-0.156998
220
0.154834
230
0.975386
62
2
0
CIRCLE
8
3
39
0.542847
10
-0.60929
20
4.03574
30
7.3773
40
0.0014
210
0.387767
220
-0.237691
230
0.890584
62
3
0
CIRCLE
8
3
39
0.542847
10
-0.60929
20
4.03574
30
7.3773
40
0.0014
210
-0.39973
220
-0.21697
230
0.890584
62
3
0
CIRCLE
8
3
39
0.542847
10
-0.60929
20
4.03574
30
7.3773
40
0.0014
210
0.0119635
220
0.454661
230
0.890584
62
3
0
CIRCLE
8
1
39
0.665046
10
0.529375
20
8.28932
30
3.22398
40
0.00116667
210
-0.465589
220
-0.792512
230
0.393893
62
1
0
CIRCLE
8
1
39
0.665064
10
0.529369
20
8.28936
30
-3.88894
40
0.00116667
210
-0.919003
220
0.017051
230
-0.393883
62
1
0
CIRCLE
8
1
39
0.665046
10
0.529375
20
8.28932
30
3.22398
40
0.00116667
210
-0.453541
220
0.799468
230
0.393893
62
1
0
CIRCLE
8
1
39
0.665064
10
0.529369
20
8.28936
30
-3.88894
40
0.00116667
210
0.474268
220
0.787354
230
-0.393883
62
1
0
CIRCLE
8
1
39
0.665046
10
0.529375
20
8.28932
30
3.22398
40
0.00116667
210
0.91913
220
-0.00695565
230
0.393893
62
1
0
CIRCLE
8
1
39
0.665064
10
0.529369
20
8.28936
30
-3.88894
40
0.00116667
210
0.444735
220
-0.804405
230
-0.393883
62
1
0
CIRCLE
8
0
39
1.48421
10
0.188825
20
7.65038
30
4.56325
40
0.0104952
210
-0.786414
220
-0.244991
230
0.567038
62
0
0
CIRCLE
8
0
39
1.48421
10
0.188825
20
7.65038
30
4.56325
40
0.0104952
210
0.181038
220
0.80355
230
0.567038
62
0
0
CIRCLE
8
0
39
1.48421
10
0.188825
20
7.65038
30
4.56325
40
0.0104952
210
0.605376
220
-0.558559
230
0.567038
62
0
0
CIRCLE
8
2
39
0.890013
10
0.609261
20
2.90123
30
8.40231
40
0.00116667
210
-0.0095929
220
-0.325175
230
0.945605
62
2
0
CIRCLE
8
2
39
0.890013
10
0.609261
20
2.90123
30
8.40231
40
0.00116667
210
-0.276814
220
0.170895
230
0.945605
62
2
0
CIRCLE
8
2
39
0.890013
10
0.609261
20
2.90123
30
8.40231
40
0.00116667
210
0.286406
220
0.15428
230
0.945605
62
2
0
CIRCLE
8
3
39
0.492753
10
0.543865
20
5.15932
30
7.56328
40
0.00116667
210
-0.537448
220
-0.0163145
230
0.843139
62
3
0
CIRCLE
8
3
39
0.492753
10
0.543865
20
5.15932
30
7.56328
40
0.00116667
210
0.254595
220
0.473601
230
0.843139
62
3
0
CIRCLE
8
3
39
0.492753
10
0.543865
20
5.15932
30
7.56328
40
0.00116667
210
0.282853
220
-0.457286
230
0.843139
62
3
0
CIRCLE
8
1
39
0.63843
10
0.51201
20
9.29215
30
-2.92053
40
0.000933333
210
-0.886438
220
-0.384827
230
-0.25717
62
1
0
CIRCLE
8
1
39
0.63851
10
0.511989
20
9.29224
30
2.28174
40
0.000933333
210
-0.928308
220
0.26856
230
0.257138
62
1
0
CIRCLE
8
1
39
0.63843
10
0.51201
20
9.29215
30
-2.92053
40
0.000933333
210
0.109949
220
0.960091
230
-0.25717
62
1
0
CIRCLE
8
1
39
0.63851
10
0.511989
20
9.29224
30
2.28174
40
0.000933333
210
0.696734
220
0.669659
230
0.257138
62
1
0
CIRCLE
8
1
39
0.63843
10
0.51201
20
9.29215
30
-2.92053
40
0.000933333
210
0.776489
220
-0.575264
230
-0.25717
62
1
0
CIRCLE
8
1
39
0.63851
10
0.511989
20
9.29224
30
2.28174
40
0.000933333
210
0.231575
220
-0.938218
230
0.257138
62
1
0
CIRCLE
8
0
39
1.42485
10
-0.124507
20
7.71745
30
5.67799
40
0.00968788
210
0.128092
220
0.760776
230
0.636249
62
0
0
CIRCLE
8
0
39
1.42485
10
-0.124507
20
7.71745
30
5.67799
40
0.00968788
210
0.594805
220
-0.491319
230
0.636249
62
0
0
CIRCLE
8
0
39
1.42485
10
-0.124507
20
7.71745
30
5.67799
40
0.00968788
210
-0.722897
220
-0.269457
230
0.636249
62
0
0
CIRCLE
8
2
39
0.966731
10
-0.534382
20
3.41879
30
8.93535
40
0.000933333
210
0.336151
220
0.0872782
230
0.937755
62
2
0
CIRCLE
8
2
39
0.966731
10
-0.534382
20
3.41879
30
8.93535
40
0.000933333
210
-0.0924905
220
-0.334755
230
0.937755
62
2
0
CIRCLE
8
2
39
0.966731
10
-0.534382
20
3.41879
30
8.93535
40
0.000933333
210
-0.243661
220
0.247476
230
0.937755
62
2
0
CIRCLE
8
5
39
1.00972
10
0.29148
20
10.4731
30
-0.504858
40
0.0007
210
0.141086
220
-0.989997
230
0
62
5
0
CIRCLE
8
5
39
1.00972
10
0.29148
20
10.4731
30
-0.504858
40
0.0007
210
-0.927906
220
0.372815
230
0
62
5
0
CIRCLE
8
5
39
1.00972
10
0.29148
20
10.4731
30
-0.504858
40
0.0007
210
0.78682
220
0.617182
230
0
62
5
0
CIRCLE
8
3
39
0.796995
10
-0.581311
20
3.85123
30
-9.73935
40
0.000933333
210
0.0241143
220
-0.363031
230
-0.931465
62
3
0
CIRCLE
8
3
39
0.796995
10
-0.581311
20
3.85123
30
-9.73935
40
0.000933333
210
0.302337
220
0.202399
230
-0.931465
62
3
0
CIRCLE
8
3
39
0.796995
10
-0.581311
20
3.85123
30
-9.73935
40
0.000933333
210
-0.326451
220
0.160632
230
-0.931465
62
3
0
CIRCLE
8
6
39
0.5
10
0.93206
20
4.78735e-05
30
-0.5
40
0.0035
210
0
220
0
230
1
62
6
0
CIRCLE
8
6
39
0.5
10
-0.465989
20
-0.807212
30
-0.5
40
0.0035
210
0
220
0
230
1
62
6
0
CIRCLE
8
6
39
0.5
10
-0.466072
20
0.807164
30
-0.5
40
0.0035
210
0
220
0
230
1
62
6
0
3DFACE
8
Supports
10
0.46603
20
-0.807188
30
0.371651
11
0.46603
21
-0.807188
31
0.371651
12
0.4821
22
-0.801339
32
0.374666
13
0.483131
23
-0.807188
33
0.374666
62
1
0
3DFACE
8
Supports
10
0.483131
20
-0.807188
30
0.374666
11
0.4821
21
-0.801339
31
0.374666
12
0.496231
22
-0.796196
32
0.383349
13
0.49817
23
-0.807188
33
0.383349
62
1
0
3DFACE
8
Supports
10
0.49817
20
-0.807188
30
0.383349
11
0.496231
21
-0.796196
31
0.383349
12
0.50672
22
-0.792378
32
0.396651
13
0.509331
23
-0.807188
33
0.396651
62
1
0
3DFACE
8
Supports
10
0.509331
20
-0.807188
30
0.396651
11
0.50672
21
-0.792378
31
0.396651
12
0.512301
22
-0.790347
32
0.412969
13
0.515271
23
-0.807188
33
0.412969
62
1
0
3DFACE
8
Supports
10
0.515271
20
-0.807188
30
0.412969
11
0.512301
21
-0.790347
31
0.412969
12
0.512301
22
-0.790347
32
0.430333
13
0.515271
23
-0.807188
33
0.430333
62
1
0
3DFACE
8
Supports
10
0.515271
20
-0.807188
30
0.430333
11
0.512301
21
-0.790347
31
0.430333
12
0.50672
22
-0.792378
32
0.446651
13
0.509331
23
-0.807188
33
0.446651
62
1
0
3DFACE
8
Supports
10
0.509331
20
-0.807188
30
0.446651
11
0.50672
21
-0.792378
31
0.446651
12
0.496231
22
-0.796196
32
0.459953
13
0.49817
23
-0.807188
33
0.459953
62
1
0
3DFACE
8
Supports
10
0.49817
20
-0.807188
30
0.459953
11
0.496231
21
-0.796196
31
0.459953
12
0.4821
22
-0.801339
32
0.468636
13
0.483131
23
-0.807188
33
0.468636
62
1
0
3DFACE
8
Supports
10
0.483131
20
-0.807188
30
0.468636
11
0.4821
21
-0.801339
31
0.468636
12
0.46603
22
-0.807188
32
0.471651
13
0.46603
23
-0.807188
33
0.471651
62
1
0
3DFACE
8
Supports
10
0.46603
20
-0.807188
30
0.371651
11
0.46603
21
-0.807188
31
0.371651
12
0.47913
22
-0.796196
32
0.374666
13
0.4821
23
-0.801339
33
0.374666
62
1
0
3DFACE
8
Supports
10
0.4821
20
-0.801339
30
0.374666
11
0.47913
21
-0.796196
31
0.374666
12
0.49065
22
-0.786529
32
0.383349
13
0.496231
23
-0.796196
33
0.383349
62
1
0
3DFACE
8
Supports
10
0.496231
20
-0.796196
30
0.383349
11
0.49065
21
-0.786529
31
0.383349
12
0.499201
22
-0.779354
32
0.396651
13
0.50672
23
-0.792378
33
0.396651
62
1
0
3DFACE
8
Supports
10
0.50672
20
-0.792378
30
0.396651
11
0.499201
21
-0.779354
31
0.396651
12
0.50375
22
-0.775537
32
0.412969
13
0.512301
23
-0.790347
33
0.412969
62
1
0
3DFACE
8
Supports
10
0.512301
20
-0.790347
30
0.412969
11
0.50375
21
-0.775537
31
0.412969
12
0.50375
22
-0.775537
32
0.430333
13
0.512301
23
-0.790347
33
0.430333
62
1
0
3DFACE
8
Supports
10
0.512301
20
-0.790347
30
0.430333
11
0.50375
21
-0.775537
31
0.430333
12
0.499201
22
-0.779354
32
0.446651
13
0.50672
23
-0.792378
33
0.446651
62
1
0
3DFACE
8
Supports
10
0.50672
20
-0.792378
30
0.446651
11
0.499201
21
-0.779354
31
0.446651
12
0.49065
22
-0.786529
32
0.459953
13
0.496231
23
-0.796196
33
0.459953
62
1
0
3DFACE
8
Supports
10
0.496231
20
-0.796196
30
0.459953
11
0.49065
21
-0.786529
31
0.459953
12
0.47913
22
-0.796196
32
0.468636
13
0.4821
23
-0.801339
33
0.468636
62
1
0
3DFACE
8
Supports
10
0.4821
20
-0.801339
30
0.468636
11
0.47913
21
-0.796196
31
0.468636
12
0.46603
22
-0.807188
32
0.471651
13
0.46603
23
-0.807188
33
0.471651
62
1
0
3DFACE
8
Supports
10
0.46603
20
-0.807188
30
0.371651
11
0.46603
21
-0.807188
31
0.371651
12
0.474581
22
-0.792378
32
0.374666
13
0.47913
23
-0.796196
33
0.374666
62
1
0
3DFACE
8
Supports
10
0.47913
20
-0.796196
30
0.374666
11
0.474581
21
-0.792378
31
0.374666
12
0.4821
22
-0.779354
32
0.383349
13
0.49065
23
-0.786529
33
0.383349
62
1
0
3DFACE
8
Supports
10
0.49065
20
-0.786529
30
0.383349
11
0.4821
21
-0.779354
31
0.383349
12
0.487681
22
-0.769688
32
0.396651
13
0.499201
23
-0.779354
33
0.396651
62
1
0
3DFACE
8
Supports
10
0.499201
20
-0.779354
30
0.396651
11
0.487681
21
-0.769688
31
0.396651
12
0.49065
22
-0.764544
32
0.412969
13
0.50375
23
-0.775537
33
0.412969
62
1
0
3DFACE
8
Supports
10
0.50375
20
-0.775537
30
0.412969
11
0.49065
21
-0.764544
31
0.412969
12
0.49065
22
-0.764544
32
0.430333
13
0.50375
23
-0.775537
33
0.430333
62
1
0
3DFACE
8
Supports
10
0.50375
20
-0.775537
30
0.430333
11
0.49065
21
-0.764544
31
0.430333
12
0.487681
22
-0.769688
32
0.446651
13
0.499201
23
-0.779354
33
0.446651
62
1
0
3DFACE
8
Supports
10
0.499201
20
-0.779354
30
0.446651
11
0.487681
21
-0.769688
31
0.446651
12
0.4821
22
-0.779354
32
0.459953
13
0.49065
23
-0.786529
33
0.459953
62
1
0
3DFACE
8
Supports
10
0.49065
20
-0.786529
30
0.459953
11
0.4821
21
-0.779354
31
0.459953
12
0.474581
22
-0.792378
32
0.468636
13
0.47913
23
-0.796196
33
0.468636
62
1
0
3DFACE
8
Supports
10
0.47913
20
-0.796196
30
0.468636
11
0.474581
21
-0.792378
31
0.468636
12
0.46603
22
-0.807188
32
0.471651
13
0.46603
23
-0.807188
33
0.471651
62
1
0
3DFACE
8
Supports
10
0.46603
20
-0.807188
30
0.371651
11
0.46603
21
-0.807188
31
0.371651
12
0.469
22
-0.790347
32
0.374666
13
0.474581
23
-0.792378
33
0.374666
62
1
0
3DFACE
8
Supports
10
0.474581
20
-0.792378
30
0.374666
11
0.469
21
-0.790347
31
0.374666
12
0.471611
22
-0.775537
32
0.383349
13
0.4821
23
-0.779354
33
0.383349
62
1
0
3DFACE
8
Supports
10
0.4821
20
-0.779354
30
0.383349
11
0.471611
21
-0.775537
31
0.383349
12
0.473549
22
-0.764544
32
0.396651
13
0.487681
23
-0.769688
33
0.396651
62
1
0
3DFACE
8
Supports
10
0.487681
20
-0.769688
30
0.396651
11
0.473549
21
-0.764544
31
0.396651
12
0.474581
22
-0.758696
32
0.412969
13
0.49065
23
-0.764544
33
0.412969
62
1
0
3DFACE
8
Supports
10
0.49065
20
-0.764544
30
0.412969
11
0.474581
21
-0.758696
31
0.412969
12
0.474581
22
-0.758696
32
0.430333
13
0.49065
23
-0.764544
33
0.430333
62
1
0
3DFACE
8
Supports
10
0.49065
20
-0.764544
30
0.430333
11
0.474581
21
-0.758696
31
0.430333
12
0.473549
22
-0.764544
32
0.446651
13
0.487681
23
-0.769688
33
0.446651
62
1
0
3DFACE
8
Supports
10
0.487681
20
-0.769688
30
0.446651
11
0.473549
21
-0.764544
31
0.446651
12
0.471611
22
-0.775537
32
0.459953
13
0.4821
23
-0.779354
33
0.459953
62
1
0
3DFACE
8
Supports
10
0.4821
20
-0.779354
30
0.459953
11
0.471611
21
-0.775537
31
0.459953
12
0.469
22
-0.790347
32
0.468636
13
0.474581
23
-0.792378
33
0.468636
62
1
0
3DFACE
8
Supports
10
0.474581
20
-0.792378
30
0.468636
11
0.469
21
-0.790347
31
0.468636
12
0.46603
22
-0.807188
32
0.471651
13
0.46603
23
-0.807188
33
0.471651
62
1
0
3DFACE
8
Supports
10
0.46603
20
-0.807188
30
0.371651
11
0.46603
21
-0.807188
31
0.371651
12
0.463061
22
-0.790347
32
0.374666
13
0.469
23
-0.790347
33
0.374666
62
1
0
3DFACE
8
Supports
10
0.469
20
-0.790347
30
0.374666
11
0.463061
21
-0.790347
31
0.374666
12
0.460449
22
-0.775537
32
0.383349
13
0.471611
23
-0.775537
33
0.383349
62
1
0
3DFACE
8
Supports
10
0.471611
20
-0.775537
30
0.383349
11
0.460449
21
-0.775537
31
0.383349
12
0.458511
22
-0.764544
32
0.396651
13
0.473549
23
-0.764544
33
0.396651
62
1
0
3DFACE
8
Supports
10
0.473549
20
-0.764544
30
0.396651
11
0.458511
21
-0.764544
31
0.396651
12
0.45748
22
-0.758696
32
0.412969
13
0.474581
23
-0.758696
33
0.412969
62
1
0
3DFACE
8
Supports
10
0.474581
20
-0.758696
30
0.412969
11
0.45748
21
-0.758696
31
0.412969
12
0.45748
22
-0.758696
32
0.430333
13
0.474581
23
-0.758696
33
0.430333
62
1
0
3DFACE
8
Supports
10
0.474581
20
-0.758696
30
0.430333
11
0.45748
21
-0.758696
31
0.430333
12
0.458511
22
-0.764544
32
0.446651
13
0.473549
23
-0.764544
33
0.446651
62
1
0
3DFACE
8
Supports
10
0.473549
20
-0.764544
30
0.446651
11
0.458511
21
-0.764544
31
0.446651
12
0.460449
22
-0.775537
32
0.459953
13
0.471611
23
-0.775537
33
0.459953
62
1
0
3DFACE
8
Supports
10
0.471611
20
-0.775537
30
0.459953
11
0.460449
21
-0.775537
31
0.459953
12
0.463061
22
-0.790347
32
0.468636
13
0.469
23
-0.790347
33
0.468636
62
1
0
3DFACE
8
Supports
10
0.469
20
-0.790347
30
0.468636
11
0.463061
21
-0.790347
31
0.468636
12
0.46603
22
-0.807188
32
0.471651
13
0.46603
23
-0.807188
33
0.471651
62
1
0
3DFACE
8
Supports
10
0.46603
20
-0.807188
30
0.371651
11
0.46603
21
-0.807188
31
0.371651
12
0.45748
22
-0.792378
32
0.374666
13
0.463061
23
-0.790347
33
0.374666
62
1
0
3DFACE
8
Supports
10
0.463061
20
-0.790347
30
0.374666
11
0.45748
21
-0.792378
31
0.374666
12
0.44996
22
-0.779354
32
0.383349
13
0.460449
23
-0.775537
33
0.383349
62
1
0
3DFACE
8
Supports
10
0.460449
20
-0.775537
30
0.383349
11
0.44996
21
-0.779354
31
0.383349
12
0.444379
22
-0.769688
32
0.396651
13
0.458511
23
-0.764544
33
0.396651
62
1
0
3DFACE
8
Supports
10
0.458511
20
-0.764544
30
0.396651
11
0.444379
21
-0.769688
31
0.396651
12
0.44141
22
-0.764544
32
0.412969
13
0.45748
23
-0.758696
33
0.412969
62
1
0
3DFACE
8
Supports
10
0.45748
20
-0.758696
30
0.412969
11
0.44141
21
-0.764544
31
0.412969
12
0.44141
22
-0.764544
32
0.430333
13
0.45748
23
-0.758696
33
0.430333
62
1
0
3DFACE
8
Supports
10
0.45748
20
-0.758696
30
0.430333
11
0.44141
21
-0.764544
31
0.430333
12
0.444379
22
-0.769688
32
0.446651
13
0.458511
23
-0.764544
33
0.446651
62
1
0
3DFACE
8
Supports
10
0.458511
20
-0.764544
30
0.446651
11
0.444379
21
-0.769688
31
0.446651
12
0.44996
22
-0.779354
32
0.459953
13
0.460449
23
-0.775537
33
0.459953
62
1
0
3DFACE
8
Supports
10
0.460449
20
-0.775537
30
0.459953
11
0.44996
21
-0.779354
31
0.459953
12
0.45748
22
-0.792378
32
0.468636
13
0.463061
23
-0.790347
33
0.468636
62
1
0
3DFACE
8
Supports
10
0.463061
20
-0.790347
30
0.468636
11
0.45748
21
-0.792378
31
0.468636
12
0.46603
22
-0.807188
32
0.471651
13
0.46603
23
-0.807188
33
0.471651
62
1
0
3DFACE
8
Supports
10
0.46603
20
-0.807188
30
0.371651
11
0.46603
21
-0.807188
31
0.371651
12
0.45293
22
-0.796196
32
0.374666
13
0.45748
23
-0.792378
33
0.374666
62
1
0
3DFACE
8
Supports
10
0.45748
20
-0.792378
30
0.374666
11
0.45293
21
-0.796196
31
0.374666
12
0.44141
22
-0.786529
32
0.383349
13
0.44996
23
-0.779354
33
0.383349
62
1
0
3DFACE
8
Supports
10
0.44996
20
-0.779354
30
0.383349
11
0.44141
21
-0.786529
31
0.383349
12
0.432859
22
-0.779354
32
0.396651
13
0.444379
23
-0.769688
33
0.396651
62
1
0
3DFACE
8
Supports
10
0.444379
20
-0.769688
30
0.396651
11
0.432859
21
-0.779354
31
0.396651
12
0.42831
22
-0.775537
32
0.412969
13
0.44141
23
-0.764544
33
0.412969
62
1
0
3DFACE
8
Supports
10
0.44141
20
-0.764544
30
0.412969
11
0.42831
21
-0.775537
31
0.412969
12
0.42831
22
-0.775537
32
0.430333
13
0.44141
23
-0.764544
33
0.430333
62
1
0
3DFACE
8
Supports
10
0.44141
20
-0.764544
30
0.430333
11
0.42831
21
-0.775537
31
0.430333
12
0.432859
22
-0.779354
32
0.446651
13
0.444379
23
-0.769688
33
0.446651
62
1
0
3DFACE
8
Supports
10
0.444379
20
-0.769688
30
0.446651
11
0.432859
21
-0.779354
31
0.446651
12
0.44141
22
-0.786529
32
0.459953
13
0.44996
23
-0.779354
33
0.459953
62
1
0
3DFACE
8
Supports
10
0.44996
20
-0.779354
30
0.459953
11
0.44141
21
-0.786529
31
0.459953
12
0.45293
22
-0.796196
32
0.468636
13
0.45748
23
-0.792378
33
0.468636
62
1
0
3DFACE
8
Supports
10
0.45748
20
-0.792378
30
0.468636
11
0.45293
21
-0.796196
31
0.468636
12
0.46603
22
-0.807188
32
0.471651
13
0.46603
23
-0.807188
33
0.471651
62
1
0
3DFACE
8
Supports
10
0.46603
20
-0.807188
30
0.371651
11
0.46603
21
-0.807188
31
0.371651
12
0.44996
22
-0.801339
32
0.374666
13
0.45293
23
-0.796196
33
0.374666
62
1
0
3DFACE
8
Supports
10
0.45293
20
-0.796196
30
0.374666
11
0.44996
21
-0.801339
31
0.374666
12
0.435829
22
-0.796196
32
0.383349
13
0.44141
23
-0.786529
33
0.383349
62
1
0
3DFACE
8
Supports
10
0.44141
20
-0.786529
30
0.383349
11
0.435829
21
-0.796196
31
0.383349
12
0.42534
22
-0.792378
32
0.396651
13
0.432859
23
-0.779354
33
0.396651
62
1
0
3DFACE
8
Supports
10
0.432859
20
-0.779354
30
0.396651
11
0.42534
21
-0.792378
31
0.396651
12
0.419759
22
-0.790347
32
0.412969
13
0.42831
23
-0.775537
33
0.412969
62
1
0
3DFACE
8
Supports
10
0.42831
20
-0.775537
30
0.412969
11
0.419759
21
-0.790347
31
0.412969
12
0.419759
22
-0.790347
32
0.430333
13
0.42831
23
-0.775537
33
0.430333
62
1
0
3DFACE
8
Supports
10
0.42831
20
-0.775537
30
0.430333
11
0.419759
21
-0.790347
31
0.430333
12
0.42534
22
-0.792378
32
0.446651
13
0.432859
23
-0.779354
33
0.446651
62
1
0
3DFACE
8
Supports
10
0.432859
20
-0.779354
30
0.446651
11
0.42534
21
-0.792378
31
0.446651
12
0.435829
22
-0.796196
32
0.459953
13
0.44141
23
-0.786529
33
0.459953
62
1
0
3DFACE
8
Supports
10
0.44141
20
-0.786529
30
0.459953
11
0.435829
21
-0.796196
31
0.459953
12
0.44996
22
-0.801339
32
0.468636
13
0.45293
23
-0.796196
33
0.468636
62
1
0
3DFACE
8
Supports
10
0.45293
20
-0.796196
30
0.468636
11
0.44996
21
-0.801339
31
0.468636
12
0.46603
22
-0.807188
32
0.471651
13
0.46603
23
-0.807188
33
0.471651
62
1
0
3DFACE
8
Supports
10
0.46603
20
-0.807188
30
0.371651
11
0.46603
21
-0.807188
31
0.371651
12
0.448929
22
-0.807188
32
0.374666
13
0.44996
23
-0.801339
33
0.374666
62
1
0
3DFACE
8
Supports
10
0.44996
20
-0.801339
30
0.374666
11
0.448929
21
-0.807188
31
0.374666
12
0.433891
22
-0.807188
32
0.383349
13
0.435829
23
-0.796196
33
0.383349
62
1
0
3DFACE
8
Supports
10
0.435829
20
-0.796196
30
0.383349
11
0.433891
21
-0.807188
31
0.383349
12
0.422729
22
-0.807188
32
0.396651
13
0.42534
23
-0.792378
33
0.396651
62
1
0
3DFACE
8
Supports
10
0.42534
20
-0.792378
30
0.396651
11
0.422729
21
-0.807188
31
0.396651
12
0.41679
22
-0.807188
32
0.412969
13
0.419759
23
-0.790347
33
0.412969
62
1
0
3DFACE
8
Supports
10
0.419759
20
-0.790347
30
0.412969
11
0.41679
21
-0.807188
31
0.412969
12
0.41679
22
-0.807188
32
0.430333
13
0.419759
23
-0.790347
33
0.430333
62
1
0
3DFACE
8
Supports
10
0.419759
20
-0.790347
30
0.430333
11
0.41679
21
-0.807188
31
0.430333
12
0.422729
22
-0.807188
32
0.446651
13
0.42534
23
-0.792378
33
0.446651
62
1
0
3DFACE
8
Supports
10
0.42534
20
-0.792378
30
0.446651
11
0.422729
21
-0.807188
31
0.446651
12
0.433891
22
-0.807188
32
0.459953
13
0.435829
23
-0.796196
33
0.459953
62
1
0
3DFACE
8
Supports
10
0.435829
20
-0.796196
30
0.459953
11
0.433891
21
-0.807188
31
0.459953
12
0.448929
22
-0.807188
32
0.468636
13
0.44996
23
-0.801339
33
0.468636
62
1
0
3DFACE
8
Supports
10
0.44996
20
-0.801339
30
0.468636
11
0.448929
21
-0.807188
31
0.468636
12
0.46603
22
-0.807188
32
0.471651
13
0.46603
23
-0.807188
33
0.471651
62
1
0
3DFACE
8
Supports
10
0.46603
20
-0.807188
30
0.371651
11
0.46603
21
-0.807188
31
0.371651
12
0.44996
22
-0.813037
32
0.374666
13
0.448929
23
-0.807188
33
0.374666
62
1
0
3DFACE
8
Supports
10
0.448929
20
-0.807188
30
0.374666
11
0.44996
21
-0.813037
31
0.374666
12
0.435829
22
-0.81818
32
0.383349
13
0.433891
23
-0.807188
33
0.383349
62
1
0
3DFACE
8
Supports
10
0.433891
20
-0.807188
30
0.383349
11
0.435829
21
-0.81818
31
0.383349
12
0.42534
22
-0.821998
32
0.396651
13
0.422729
23
-0.807188
33
0.396651
62
1
0
3DFACE
8
Supports
10
0.422729
20
-0.807188
30
0.396651
11
0.42534
21
-0.821998
31
0.396651
12
0.419759
22
-0.824029
32
0.412969
13
0.41679
23
-0.807188
33
0.412969
62
1
0
3DFACE
8
Supports
10
0.41679
20
-0.807188
30
0.412969
11
0.419759
21
-0.824029
31
0.412969
12
0.419759
22
-0.824029
32
0.430333
13
0.41679
23
-0.807188
33
0.430333
62
1
0
3DFACE
8
Supports
10
0.41679
20
-0.807188
30
0.430333
11
0.419759
21
-0.824029
31
0.430333
12
0.42534
22
-0.821998
32
0.446651
13
0.422729
23
-0.807188
33
0.446651
62
1
0
3DFACE
8
Supports
10
0.422729
20
-0.807188
30
0.446651
11
0.42534
21
-0.821998
31
0.446651
12
0.435829
22
-0.81818
32
0.459953
13
0.433891
23
-0.807188
33
0.459953
62
1
0
3DFACE
8
Supports
10
0.433891
20
-0.807188
30
0.459953
11
0.435829
21
-0.81818
31
0.459953
12
0.44996
22
-0.813037
32
0.468636
13
0.448929
23
-0.807188
33
0.468636
62
1
0
3DFACE
8
Supports
10
0.448929
20
-0.807188
30
0.468636
11
0.44996
21
-0.813037
31
0.468636
12
0.46603
22
-0.807188
32
0.471651
13
0.46603
23
-0.807188
33
0.471651
62
1
0
3DFACE
8
Supports
10
0.46603
20
-0.807188
30
0.371651
11
0.46603
21
-0.807188
31
0.371651
12
0.45293
22
-0.81818
32
0.374666
13
0.44996
23
-0.813037
33
0.374666
62
1
0
3DFACE
8
Supports
10
0.44996
20
-0.813037
30
0.374666
11
0.45293
21
-0.81818
31
0.374666
12
0.44141
22
-0.827847
32
0.383349
13
0.435829
23
-0.81818
33
0.383349
62
1
0
3DFACE
8
Supports
10
0.435829
20
-0.81818
30
0.383349
11
0.44141
21
-0.827847
31
0.383349
12
0.432859
22
-0.835021
32
0.396651
13
0.42534
23
-0.821998
33
0.396651
62
1
0
3DFACE
8
Supports
10
0.42534
20
-0.821998
30
0.396651
11
0.432859
21
-0.835021
31
0.396651
12
0.42831
22
-0.838839
32
0.412969
13
0.419759
23
-0.824029
33
0.412969
62
1
0
3DFACE
8
Supports
10
0.419759
20
-0.824029
30
0.412969
11
0.42831
21
-0.838839
31
0.412969
12
0.42831
22
-0.838839
32
0.430333
13
0.419759
23
-0.824029
33
0.430333
62
1
0
3DFACE
8
Supports
10
0.419759
20
-0.824029
30
0.430333
11
0.42831
21
-0.838839
31
0.430333
12
0.432859
22
-0.835021
32
0.446651
13
0.42534
23
-0.821998
33
0.446651
62
1
0
3DFACE
8
Supports
10
0.42534
20
-0.821998
30
0.446651
11
0.432859
21
-0.835021
31
0.446651
12
0.44141
22
-0.827847
32
0.459953
13
0.435829
23
-0.81818
33
0.459953
62
1
0
3DFACE
8
Supports
10
0.435829
20
-0.81818
30
0.459953
11
0.44141
21
-0.827847
31
0.459953
12
0.45293
22
-0.81818
32
0.468636
13
0.44996
23
-0.813037
33
0.468636
62
1
0
3DFACE
8
Supports
10
0.44996
20
-0.813037
30
0.468636
11
0.45293
21
-0.81818
31
0.468636
12
0.46603
22
-0.807188
32
0.471651
13
0.46603
23
-0.807188
33
0.471651
62
1
0
3DFACE
8
Supports
10
0.46603
20
-0.807188
30
0.371651
11
0.46603
21
-0.807188
31
0.371651
12
0.45748
22
-0.821998
32
0.374666
13
0.45293
23
-0.81818
33
0.374666
62
1
0
3DFACE
8
Supports
10
0.45293
20
-0.81818
30
0.374666
11
0.45748
21
-0.821998
31
0.374666
12
0.44996
22
-0.835021
32
0.383349
13
0.44141
23
-0.827847
33
0.383349
62
1
0
3DFACE
8
Supports
10
0.44141
20
-0.827847
30
0.383349
11
0.44996
21
-0.835021
31
0.383349
12
0.444379
22
-0.844688
32
0.396651
13
0.432859
23
-0.835021
33
0.396651
62
1
0
3DFACE
8
Supports
10
0.432859
20
-0.835021
30
0.396651
11
0.444379
21
-0.844688
31
0.396651
12
0.44141
22
-0.849831
32
0.412969
13
0.42831
23
-0.838839
33
0.412969
62
1
0
3DFACE
8
Supports
10
0.42831
20
-0.838839
30
0.412969
11
0.44141
21
-0.849831
31
0.412969
12
0.44141
22
-0.849831
32
0.430333
13
0.42831
23
-0.838839
33
0.430333
62
1
0
3DFACE
8
Supports
10
0.42831
20
-0.838839
30
0.430333
11
0.44141
21
-0.849831
31
0.430333
12
0.444379
22
-0.844688
32
0.446651
13
0.432859
23
-0.835021
33
0.446651
62
1
0
3DFACE
8
Supports
10
0.432859
20
-0.835021
30
0.446651
11
0.444379
21
-0.844688
31
0.446651
12
0.44996
22
-0.835021
32
0.459953
13
0.44141
23
-0.827847
33
0.459953
62
1
0
3DFACE
8
Supports
10
0.44141
20
-0.827847
30
0.459953
11
0.44996
21
-0.835021
31
0.459953
12
0.45748
22
-0.821998
32
0.468636
13
0.45293
23
-0.81818
33
0.468636
62
1
0
3DFACE
8
Supports
10
0.45293
20
-0.81818
30
0.468636
11
0.45748
21
-0.821998
31
0.468636
12
0.46603
22
-0.807188
32
0.471651
13
0.46603
23
-0.807188
33
0.471651
62
1
0
3DFACE
8
Supports
10
0.46603
20
-0.807188
30
0.371651
11
0.46603
21
-0.807188
31
0.371651
12
0.463061
22
-0.824029
32
0.374666
13
0.45748
23
-0.821998
33
0.374666
62
1
0
3DFACE
8
Supports
10
0.45748
20
-0.821998
30
0.374666
11
0.463061
21
-0.824029
31
0.374666
12
0.460449
22
-0.838839
32
0.383349
13
0.44996
23
-0.835021
33
0.383349
62
1
0
3DFACE
8
Supports
10
0.44996
20
-0.835021
30
0.383349
11
0.460449
21
-0.838839
31
0.383349
12
0.458511
22
-0.849831
32
0.396651
13
0.444379
23
-0.844688
33
0.396651
62
1
0
3DFACE
8
Supports
10
0.444379
20
-0.844688
30
0.396651
11
0.458511
21
-0.849831
31
0.396651
12
0.45748
22
-0.85568
32
0.412969
13
0.44141
23
-0.849831
33
0.412969
62
1
0
3DFACE
8
Supports
10
0.44141
20
-0.849831
30
0.412969
11
0.45748
21
-0.85568
31
0.412969
12
0.45748
22
-0.85568
32
0.430333
13
0.44141
23
-0.849831
33
0.430333
62
1
0
3DFACE
8
Supports
10
0.44141
20
-0.849831
30
0.430333
11
0.45748
21
-0.85568
31
0.430333
12
0.458511
22
-0.849831
32
0.446651
13
0.444379
23
-0.844688
33
0.446651
62
1
0
3DFACE
8
Supports
10
0.444379
20
-0.844688
30
0.446651
11
0.458511
21
-0.849831
31
0.446651
12
0.460449
22
-0.838839
32
0.459953
13
0.44996
23
-0.835021
33
0.459953
62
1
0
3DFACE
8
Supports
10
0.44996
20
-0.835021
30
0.459953
11
0.460449
21
-0.838839
31
0.459953
12
0.463061
22
-0.824029
32
0.468636
13
0.45748
23
-0.821998
33
0.468636
62
1
0
3DFACE
8
Supports
10
0.45748
20
-0.821998
30
0.468636
11
0.463061
21
-0.824029
31
0.468636
12
0.46603
22
-0.807188
32
0.471651
13
0.46603
23
-0.807188
33
0.471651
62
1
0
3DFACE
8
Supports
10
0.46603
20
-0.807188
30
0.371651
11
0.46603
21
-0.807188
31
0.371651
12
0.469
22
-0.824029
32
0.374666
13
0.463061
23
-0.824029
33
0.374666
62
1
0
3DFACE
8
Supports
10
0.463061
20
-0.824029
30
0.374666
11
0.469
21
-0.824029
31
0.374666
12
0.471611
22
-0.838839
32
0.383349
13
0.460449
23
-0.838839
33
0.383349
62
1
0
3DFACE
8
Supports
10
0.460449
20
-0.838839
30
0.383349
11
0.471611
21
-0.838839
31
0.383349
12
0.473549
22
-0.849831
32
0.396651
13
0.458511
23
-0.849831
33
0.396651
62
1
0
3DFACE
8
Supports
10
0.458511
20
-0.849831
30
0.396651
11
0.473549
21
-0.849831
31
0.396651
12
0.474581
22
-0.85568
32
0.412969
13
0.45748
23
-0.85568
33
0.412969
62
1
0
3DFACE
8
Supports
10
0.45748
20
-0.85568
30
0.412969
11
0.474581
21
-0.85568
31
0.412969
12
0.474581
22
-0.85568
32
0.430333
13
0.45748
23
-0.85568
33
0.430333
62
1
0
3DFACE
8
Supports
10
0.45748
20
-0.85568
30
0.430333
11
0.474581
21
-0.85568
31
0.430333
12
0.473549
22
-0.849831
32
0.446651
13
0.458511
23
-0.849831
33
0.446651
62
1
0
3DFACE
8
Supports
10
0.458511
20
-0.849831
30
0.446651
11
0.473549
21
-0.849831
31
0.446651
12
0.471611
22
-0.838839
32
0.459953
13
0.460449
23
-0.838839
33
0.459953
62
1
0
3DFACE
8
Supports
10
0.460449
20
-0.838839
30
0.459953
11
0.471611
21
-0.838839
31
0.459953
12
0.469
22
-0.824029
32
0.468636
13
0.463061
23
-0.824029
33
0.468636
62
1
0
3DFACE
8
Supports
10
0.463061
20
-0.824029
30
0.468636
11
0.469
21
-0.824029
31
0.468636
12
0.46603
22
-0.807188
32
0.471651
13
0.46603
23
-0.807188
33
0.471651
62
1
0
3DFACE
8
Supports
10
0.46603
20
-0.807188
30
0.371651
11
0.46603
21
-0.807188
31
0.371651
12
0.474581
22
-0.821998
32
0.374666
13
0.469
23
-0.824029
33
0.374666
62
1
0
3DFACE
8
Supports
10
0.469
20
-0.824029
30
0.374666
11
0.474581
21
-0.821998
31
0.374666
12
0.4821
22
-0.835021
32
0.383349
13
0.471611
23
-0.838839
33
0.383349
62
1
0
3DFACE
8
Supports
10
0.471611
20
-0.838839
30
0.383349
11
0.4821
21
-0.835021
31
0.383349
12
0.487681
22
-0.844688
32
0.396651
13
0.473549
23
-0.849831
33
0.396651
62
1
0
3DFACE
8
Supports
10
0.473549
20
-0.849831
30
0.396651
11
0.487681
21
-0.844688
31
0.396651
12
0.49065
22
-0.849831
32
0.412969
13
0.474581
23
-0.85568
33
0.412969
62
1
0
3DFACE
8
Supports
10
0.474581
20
-0.85568
30
0.412969
11
0.49065
21
-0.849831
31
0.412969
12
0.49065
22
-0.849831
32
0.430333
13
0.474581
23
-0.85568
33
0.430333
62
1
0
3DFACE
8
Supports
10
0.474581
20
-0.85568
30
0.430333
11
0.49065
21
-0.849831
31
0.430333
12
0.487681
22
-0.844688
32
0.446651
13
0.473549
23
-0.849831
33
0.446651
62
1
0
3DFACE
8
Supports
10
0.473549
20
-0.849831
30
0.446651
11
0.487681
21
-0.844688
31
0.446651
12
0.4821
22
-0.835021
32
0.459953
13
0.471611
23
-0.838839
33
0.459953
62
1
0
3DFACE
8
Supports
10
0.471611
20
-0.838839
30
0.459953
11
0.4821
21
-0.835021
31
0.459953
12
0.474581
22
-0.821998
32
0.468636
13
0.469
23
-0.824029
33
0.468636
62
1
0
3DFACE
8
Supports
10
0.469
20
-0.824029
30
0.468636
11
0.474581
21
-0.821998
31
0.468636
12
0.46603
22
-0.807188
32
0.471651
13
0.46603
23
-0.807188
33
0.471651
62
1
0
3DFACE
8
Supports
10
0.46603
20
-0.807188
30
0.371651
11
0.46603
21
-0.807188
31
0.371651
12
0.47913
22
-0.81818
32
0.374666
13
0.474581
23
-0.821998
33
0.374666
62
1
0
3DFACE
8
Supports
10
0.474581
20
-0.821998
30
0.374666
11
0.47913
21
-0.81818
31
0.374666
12
0.49065
22
-0.827847
32
0.383349
13
0.4821
23
-0.835021
33
0.383349
62
1
0
3DFACE
8
Supports
10
0.4821
20
-0.835021
30
0.383349
11
0.49065
21
-0.827847
31
0.383349
12
0.499201
22
-0.835021
32
0.396651
13
0.487681
23
-0.844688
33
0.396651
62
1
0
3DFACE
8
Supports
10
0.487681
20
-0.844688
30
0.396651
11
0.499201
21
-0.835021
31
0.396651
12
0.50375
22
-0.838839
32
0.412969
13
0.49065
23
-0.849831
33
0.412969
62
1
0
3DFACE
8
Supports
10
0.49065
20
-0.849831
30
0.412969
11
0.50375
21
-0.838839
31
0.412969
12
0.50375
22
-0.838839
32
0.430333
13
0.49065
23
-0.849831
33
0.430333
62
1
0
3DFACE
8
Supports
10
0.49065
20
-0.849831
30
0.430333
11
0.50375
21
-0.838839
31
0.430333
12
0.499201
22
-0.835021
32
0.446651
13
0.487681
23
-0.844688
33
0.446651
62
1
0
3DFACE
8
Supports
10
0.487681
20
-0.844688
30
0.446651
11
0.499201
21
-0.835021
31
0.446651
12
0.49065
22
-0.827847
32
0.459953
13
0.4821
23
-0.835021
33
0.459953
62
1
0
3DFACE
8
Supports
10
0.4821
20
-0.835021
30
0.459953
11
0.49065
21
-0.827847
31
0.459953
12
0.47913
22
-0.81818
32
0.468636
13
0.474581
23
-0.821998
33
0.468636
62
1
0
3DFACE
8
Supports
10
0.474581
20
-0.821998
30
0.468636
11
0.47913
21
-0.81818
31
0.468636
12
0.46603
22
-0.807188
32
0.471651
13
0.46603
23
-0.807188
33
0.471651
62
1
0
3DFACE
8
Supports
10
0.46603
20
-0.807188
30
0.371651
11
0.46603
21
-0.807188
31
0.371651
12
0.4821
22
-0.813037
32
0.374666
13
0.47913
23
-0.81818
33
0.374666
62
1
0
3DFACE
8
Supports
10
0.47913
20
-0.81818
30
0.374666
11
0.4821
21
-0.813037
31
0.374666
12
0.496231
22
-0.81818
32
0.383349
13
0.49065
23
-0.827847
33
0.383349
62
1
0
3DFACE
8
Supports
10
0.49065
20
-0.827847
30
0.383349
11
0.496231
21
-0.81818
31
0.383349
12
0.50672
22
-0.821998
32
0.396651
13
0.499201
23
-0.835021
33
0.396651
62
1
0
3DFACE
8
Supports
10
0.499201
20
-0.835021
30
0.396651
11
0.50672
21
-0.821998
31
0.396651
12
0.512301
22
-0.824029
32
0.412969
13
0.50375
23
-0.838839
33
0.412969
62
1
0
3DFACE
8
Supports
10
0.50375
20
-0.838839
30
0.412969
11
0.512301
21
-0.824029
31
0.412969
12
0.512301
22
-0.824029
32
0.430333
13
0.50375
23
-0.838839
33
0.430333
62
1
0
3DFACE
8
Supports
10
0.50375
20
-0.838839
30
0.430333
11
0.512301
21
-0.824029
31
0.430333
12
0.50672
22
-0.821998
32
0.446651
13
0.499201
23
-0.835021
33
0.446651
62
1
0
3DFACE
8
Supports
10
0.499201
20
-0.835021
30
0.446651
11
0.50672
21
-0.821998
31
0.446651
12
0.496231
22
-0.81818
32
0.459953
13
0.49065
23
-0.827847
33
0.459953
62
1
0
3DFACE
8
Supports
10
0.49065
20
-0.827847
30
0.459953
11
0.496231
21
-0.81818
31
0.459953
12
0.4821
22
-0.813037
32
0.468636
13
0.47913
23
-0.81818
33
0.468636
62
1
0
3DFACE
8
Supports
10
0.47913
20
-0.81818
30
0.468636
11
0.4821
21
-0.813037
31
0.468636
12
0.46603
22
-0.807188
32
0.471651
13
0.46603
23
-0.807188
33
0.471651
62
1
0
3DFACE
8
Supports
10
0.46603
20
-0.807188
30
0.371651
11
0.46603
21
-0.807188
31
0.371651
12
0.483131
22
-0.807188
32
0.374666
13
0.4821
23
-0.813037
33
0.374666
62
1
0
3DFACE
8
Supports
10
0.4821
20
-0.813037
30
0.374666
11
0.483131
21
-0.807188
31
0.374666
12
0.49817
22
-0.807188
32
0.383349
13
0.496231
23
-0.81818
33
0.383349
62
1
0
3DFACE
8
Supports
10
0.496231
20
-0.81818
30
0.383349
11
0.49817
21
-0.807188
31
0.383349
12
0.509331
22
-0.807188
32
0.396651
13
0.50672
23
-0.821998
33
0.396651
62
1
0
3DFACE
8
Supports
10
0.50672
20
-0.821998
30
0.396651
11
0.509331
21
-0.807188
31
0.396651
12
0.515271
22
-0.807188
32
0.412969
13
0.512301
23
-0.824029
33
0.412969
62
1
0
3DFACE
8
Supports
10
0.512301
20
-0.824029
30
0.412969
11
0.515271
21
-0.807188
31
0.412969
12
0.515271
22
-0.807188
32
0.430333
13
0.512301
23
-0.824029
33
0.430333
62
1
0
3DFACE
8
Supports
10
0.512301
20
-0.824029
30
0.430333
11
0.515271
21
-0.807188
31
0.430333
12
0.509331
22
-0.807188
32
0.446651
13
0.50672
23
-0.821998
33
0.446651
62
1
0
3DFACE
8
Supports
10
0.50672
20
-0.821998
30
0.446651
11
0.509331
21
-0.807188
31
0.446651
12
0.49817
22
-0.807188
32
0.459953
13
0.496231
23
-0.81818
33
0.459953
62
1
0
3DFACE
8
Supports
10
0.496231
20
-0.81818
30
0.459953
11
0.49817
21
-0.807188
31
0.459953
12
0.483131
22
-0.807188
32
0.468636
13
0.4821
23
-0.813037
33
0.468636
62
1
0
3DFACE
8
Supports
10
0.4821
20
-0.813037
30
0.468636
11
0.483131
21
-0.807188
31
0.468636
12
0.46603
22
-0.807188
32
0.471651
13
0.46603
23
-0.807188
33
0.471651
62
1
0
3DFACE
8
Supports
10
-0.93206
20
-4.996e-15
30
0.371651
11
-0.93206
21
-4.99496e-15
31
0.371651
12
-0.915991
22
0.00584889
32
0.374666
13
-0.914959
23
-4.996e-15
33
0.374666
62
1
0
3DFACE
8
Supports
10
-0.914959
20
-4.996e-15
30
0.374666
11
-0.915991
21
0.00584889
31
0.374666
12
-0.901859
22
0.0109923
32
0.383349
13
-0.899921
23
-4.996e-15
33
0.383349
62
1
0
3DFACE
8
Supports
10
-0.899921
20
-4.996e-15
30
0.383349
11
-0.901859
21
0.0109923
31
0.383349
12
-0.89137
22
0.0148099
32
0.396651
13
-0.888759
23
-4.996e-15
33
0.396651
62
1
0
3DFACE
8
Supports
10
-0.888759
20
-4.996e-15
30
0.396651
11
-0.89137
21
0.0148099
31
0.396651
12
-0.885789
22
0.0168412
32
0.412969
13
-0.88282
23
-4.996e-15
33
0.412969
62
1
0
3DFACE
8
Supports
10
-0.88282
20
-4.996e-15
30
0.412969
11
-0.885789
21
0.0168412
31
0.412969
12
-0.885789
22
0.0168412
32
0.430333
13
-0.88282
23
-4.996e-15
33
0.430333
62
1
0
3DFACE
8
Supports
10
-0.88282
20
-4.996e-15
30
0.430333
11
-0.885789
21
0.0168412
31
0.430333
12
-0.89137
22
0.0148099
32
0.446651
13
-0.888759
23
-4.996e-15
33
0.446651
62
1
0
3DFACE
8
Supports
10
-0.888759
20
-4.996e-15
30
0.446651
11
-0.89137
21
0.0148099
31
0.446651
12
-0.901859
22
0.0109923
32
0.459953
13
-0.899921
23
-4.996e-15
33
0.459953
62
1
0
3DFACE
8
Supports
10
-0.899921
20
-4.996e-15
30
0.459953
11
-0.901859
21
0.0109923
31
0.459953
12
-0.915991
22
0.00584889
32
0.468636
13
-0.914959
23
-4.996e-15
33
0.468636
62
1
0
3DFACE
8
Supports
10
-0.914959
20
-4.996e-15
30
0.468636
11
-0.915991
21
0.00584889
31
0.468636
12
-0.93206
22
-4.99496e-15
32
0.471651
13
-0.93206
23
-4.996e-15
33
0.471651
62
1
0
3DFACE
8
Supports
10
-0.93206
20
-4.99496e-15
30
0.371651
11
-0.93206
21
-4.99404e-15
31
0.371651
12
-0.91896
22
0.0109923
32
0.374666
13
-0.915991
23
0.00584889
33
0.374666
62
1
0
3DFACE
8
Supports
10
-0.915991
20
0.00584889
30
0.374666
11
-0.91896
21
0.0109923
31
0.374666
12
-0.90744
22
0.0206588
32
0.383349
13
-0.901859
23
0.0109923
33
0.383349
62
1
0
3DFACE
8
Supports
10
-0.901859
20
0.0109923
30
0.383349
11
-0.90744
21
0.0206588
31
0.383349
12
-0.89889
22
0.0278335
32
0.396651
13
-0.89137
23
0.0148099
33
0.396651
62
1
0
3DFACE
8
Supports
10
-0.89137
20
0.0148099
30
0.396651
11
-0.89889
21
0.0278335
31
0.396651
12
-0.89434
22
0.0316511
32
0.412969
13
-0.885789
23
0.0168412
33
0.412969
62
1
0
3DFACE
8
Supports
10
-0.885789
20
0.0168412
30
0.412969
11
-0.89434
21
0.0316511
31
0.412969
12
-0.89434
22
0.0316511
32
0.430333
13
-0.885789
23
0.0168412
33
0.430333
62
1
0
3DFACE
8
Supports
10
-0.885789
20
0.0168412
30
0.430333
11
-0.89434
21
0.0316511
31
0.430333
12
-0.89889
22
0.0278335
32
0.446651
13
-0.89137
23
0.0148099
33
0.446651
62
1
0
3DFACE
8
Supports
10
-0.89137
20
0.0148099
30
0.446651
11
-0.89889
21
0.0278335
31
0.446651
12
-0.90744
22
0.0206588
32
0.459953
13
-0.901859
23
0.0109923
33
0.459953
62
1
0
3DFACE
8
Supports
10
-0.901859
20
0.0109923
30
0.459953
11
-0.90744
21
0.0206588
31
0.459953
12
-0.91896
22
0.0109923
32
0.468636
13
-0.915991
23
0.00584889
33
0.468636
62
1
0
3DFACE
8
Supports
10
-0.915991
20
0.00584889
30
0.468636
11
-0.91896
21
0.0109923
31
0.468636
12
-0.93206
22
-4.99404e-15
32
0.471651
13
-0.93206
23
-4.99496e-15
33
0.471651
62
1
0
3DFACE
8
Supports
10
-0.93206
20
-4.99404e-15
30
0.371651
11
-0.93206
21
-4.99335e-15
31
0.371651
12
-0.92351
22
0.0148099
32
0.374666
13
-0.91896
23
0.0109923
33
0.374666
62
1
0
3DFACE
8
Supports
10
-0.91896
20
0.0109923
30
0.374666
11
-0.92351
21
0.0148099
31
0.374666
12
-0.915991
22
0.0278335
32
0.383349
13
-0.90744
23
0.0206588
33
0.383349
62
1
0
3DFACE
8
Supports
10
-0.90744
20
0.0206588
30
0.383349
11
-0.915991
21
0.0278335
31
0.383349
12
-0.91041
22
0.0375
32
0.396651
13
-0.89889
23
0.0278335
33
0.396651
62
1
0
3DFACE
8
Supports
10
-0.89889
20
0.0278335
30
0.396651
11
-0.91041
21
0.0375
31
0.396651
12
-0.90744
22
0.0426434
32
0.412969
13
-0.89434
23
0.0316511
33
0.412969
62
1
0
3DFACE
8
Supports
10
-0.89434
20
0.0316511
30
0.412969
11
-0.90744
21
0.0426434
31
0.412969
12
-0.90744
22
0.0426434
32
0.430333
13
-0.89434
23
0.0316511
33
0.430333
62
1
0
3DFACE
8
Supports
10
-0.89434
20
0.0316511
30
0.430333
11
-0.90744
21
0.0426434
31
0.430333
12
-0.91041
22
0.0375
32
0.446651
13
-0.89889
23
0.0278335
33
0.446651
62
1
0
3DFACE
8
Supports
10
-0.89889
20
0.0278335
30
0.446651
11
-0.91041
21
0.0375
31
0.446651
12
-0.915991
22
0.0278335
32
0.459953
13
-0.90744
23
0.0206588
33
0.459953
62
1
0
3DFACE
8
Supports
10
-0.90744
20
0.0206588
30
0.459953
11
-0.915991
21
0.0278335
31
0.459953
12
-0.92351
22
0.0148099
32
0.468636
13
-0.91896
23
0.0109923
33
0.468636
62
1
0
3DFACE
8
Supports
10
-0.91896
20
0.0109923
30
0.468636
11
-0.92351
21
0.0148099
31
0.468636
12
-0.93206
22
-4.99335e-15
32
0.471651
13
-0.93206
23
-4.99404e-15
33
0.471651
62
1
0
3DFACE
8
Supports
10
-0.93206
20
-4.99335e-15
30
0.371651
11
-0.93206
21
-4.99299e-15
31
0.371651
12
-0.929091
22
0.0168412
32
0.374666
13
-0.92351
23
0.0148099
33
0.374666
62
1
0
3DFACE
8
Supports
10
-0.92351
20
0.0148099
30
0.374666
11
-0.929091
21
0.0168412
31
0.374666
12
-0.926479
22
0.0316511
32
0.383349
13
-0.915991
23
0.0278335
33
0.383349
62
1
0
3DFACE
8
Supports
10
-0.915991
20
0.0278335
30
0.383349
11
-0.926479
21
0.0316511
31
0.383349
12
-0.924541
22
0.0426434
32
0.396651
13
-0.91041
23
0.0375
33
0.396651
62
1
0
3DFACE
8
Supports
10
-0.91041
20
0.0375
30
0.396651
11
-0.924541
21
0.0426434
31
0.396651
12
-0.92351
22
0.0484923
32
0.412969
13
-0.90744
23
0.0426434
33
0.412969
62
1
0
3DFACE
8
Supports
10
-0.90744
20
0.0426434
30
0.412969
11
-0.92351
21
0.0484923
31
0.412969
12
-0.92351
22
0.0484923
32
0.430333
13
-0.90744
23
0.0426434
33
0.430333
62
1
0
3DFACE
8
Supports
10
-0.90744
20
0.0426434
30
0.430333
11
-0.92351
21
0.0484923
31
0.430333
12
-0.924541
22
0.0426434
32
0.446651
13
-0.91041
23
0.0375
33
0.446651
62
1
0
3DFACE
8
Supports
10
-0.91041
20
0.0375
30
0.446651
11
-0.924541
21
0.0426434
31
0.446651
12
-0.926479
22
0.0316511
32
0.459953
13
-0.915991
23
0.0278335
33
0.459953
62
1
0
3DFACE
8
Supports
10
-0.915991
20
0.0278335
30
0.459953
11
-0.926479
21
0.0316511
31
0.459953
12
-0.929091
22
0.0168412
32
0.468636
13
-0.92351
23
0.0148099
33
0.468636
62
1
0
3DFACE
8
Supports
10
-0.92351
20
0.0148099
30
0.468636
11
-0.929091
21
0.0168412
31
0.468636
12
-0.93206
22
-4.99299e-15
32
0.471651
13
-0.93206
23
-4.99335e-15
33
0.471651
62
1
0
3DFACE
8
Supports
10
-0.93206
20
-4.99299e-15
30
0.371651
11
-0.93206
21
-4.99299e-15
31
0.371651
12
-0.93503
22
0.0168412
32
0.374666
13
-0.929091
23
0.0168412
33
0.374666
62
1
0
3DFACE
8
Supports
10
-0.929091
20
0.0168412
30
0.374666
11
-0.93503
21
0.0168412
31
0.374666
12
-0.937641
22
0.0316511
32
0.383349
13
-0.926479
23
0.0316511
33
0.383349
62
1
0
3DFACE
8
Supports
10
-0.926479
20
0.0316511
30
0.383349
11
-0.937641
21
0.0316511
31
0.383349
12
-0.939579
22
0.0426434
32
0.396651
13
-0.924541
23
0.0426434
33
0.396651
62
1
0
3DFACE
8
Supports
10
-0.924541
20
0.0426434
30
0.396651
11
-0.939579
21
0.0426434
31
0.396651
12
-0.940611
22
0.0484923
32
0.412969
13
-0.92351
23
0.0484923
33
0.412969
62
1
0
3DFACE
8
Supports
10
-0.92351
20
0.0484923
30
0.412969
11
-0.940611
21
0.0484923
31
0.412969
12
-0.940611
22
0.0484923
32
0.430333
13
-0.92351
23
0.0484923
33
0.430333
62
1
0
3DFACE
8
Supports
10
-0.92351
20
0.0484923
30
0.430333
11
-0.940611
21
0.0484923
31
0.430333
12
-0.939579
22
0.0426434
32
0.446651
13
-0.924541
23
0.0426434
33
0.446651
62
1
0
3DFACE
8
Supports
10
-0.924541
20
0.0426434
30
0.446651
11
-0.939579
21
0.0426434
31
0.446651
12
-0.937641
22
0.0316511
32
0.459953
13
-0.926479
23
0.0316511
33
0.459953
62
1
0
3DFACE
8
Supports
10
-0.926479
20
0.0316511
30
0.459953
11
-0.937641
21
0.0316511
31
0.459953
12
-0.93503
22
0.0168412
32
0.468636
13
-0.929091
23
0.0168412
33
0.468636
62
1
0
3DFACE
8
Supports
10
-0.929091
20
0.0168412
30
0.468636
11
-0.93503
21
0.0168412
31
0.468636
12
-0.93206
22
-4.99299e-15
32
0.471651
13
-0.93206
23
-4.99299e-15
33
0.471651
62
1
0
3DFACE
8
Supports
10
-0.93206
20
-4.99299e-15
30
0.371651
11
-0.93206
21
-4.99335e-15
31
0.371651
12
-0.940611
22
0.0148099
32
0.374666
13
-0.93503
23
0.0168412
33
0.374666
62
1
0
3DFACE
8
Supports
10
-0.93503
20
0.0168412
30
0.374666
11
-0.940611
21
0.0148099
31
0.374666
12
-0.94813
22
0.0278335
32
0.383349
13
-0.937641
23
0.0316511
33
0.383349
62
1
0
3DFACE
8
Supports
10
-0.937641
20
0.0316511
30
0.383349
11
-0.94813
21
0.0278335
31
0.383349
12
-0.953711
22
0.0375
32
0.396651
13
-0.939579
23
0.0426434
33
0.396651
62
1
0
3DFACE
8
Supports
10
-0.939579
20
0.0426434
30
0.396651
11
-0.953711
21
0.0375
31
0.396651
12
-0.95668
22
0.0426434
32
0.412969
13
-0.940611
23
0.0484923
33
0.412969
62
1
0
3DFACE
8
Supports
10
-0.940611
20
0.0484923
30
0.412969
11
-0.95668
21
0.0426434
31
0.412969
12
-0.95668
22
0.0426434
32
0.430333
13
-0.940611
23
0.0484923
33
0.430333
62
1
0
3DFACE
8
Supports
10
-0.940611
20
0.0484923
30
0.430333
11
-0.95668
21
0.0426434
31
0.430333
12
-0.953711
22
0.0375
32
0.446651
13
-0.939579
23
0.0426434
33
0.446651
62
1
0
3DFACE
8
Supports
10
-0.939579
20
0.0426434
30
0.446651
11
-0.953711
21
0.0375
31
0.446651
12
-0.94813
22
0.0278335
32
0.459953
13
-0.937641
23
0.0316511
33
0.459953
62
1
0
3DFACE
8
Supports
10
-0.937641
20
0.0316511
30
0.459953
11
-0.94813
21
0.0278335
31
0.459953
12
-0.940611
22
0.0148099
32
0.468636
13
-0.93503
23
0.0168412
33
0.468636
62
1
0
3DFACE
8
Supports
10
-0.93503
20
0.0168412
30
0.468636
11
-0.940611
21
0.0148099
31
0.468636
12
-0.93206
22
-4.99335e-15
32
0.471651
13
-0.93206
23
-4.99299e-15
33
0.471651
62
1
0
3DFACE
8
Supports
10
-0.93206
20
-4.99335e-15
30
0.371651
11
-0.93206
21
-4.99404e-15
31
0.371651
12
-0.94516
22
0.0109923
32
0.374666
13
-0.940611
23
0.0148099
33
0.374666
62
1
0
3DFACE
8
Supports
10
-0.940611
20
0.0148099
30
0.374666
11
-0.94516
21
0.0109923
31
0.374666
12
-0.95668
22
0.0206588
32
0.383349
13
-0.94813
23
0.0278335
33
0.383349
62
1
0
3DFACE
8
Supports
10
-0.94813
20
0.0278335
30
0.383349
11
-0.95668
21
0.0206588
31
0.383349
12
-0.965231
22
0.0278335
32
0.396651
13
-0.953711
23
0.0375
33
0.396651
62
1
0
3DFACE
8
Supports
10
-0.953711
20
0.0375
30
0.396651
11
-0.965231
21
0.0278335
31
0.396651
12
-0.969781
22
0.0316511
32
0.412969
13
-0.95668
23
0.0426434
33
0.412969
62
1
0
3DFACE
8
Supports
10
-0.95668
20
0.0426434
30
0.412969
11
-0.969781
21
0.0316511
31
0.412969
12
-0.969781
22
0.0316511
32
0.430333
13
-0.95668
23
0.0426434
33
0.430333
62
1
0
3DFACE
8
Supports
10
-0.95668
20
0.0426434
30
0.430333
11
-0.969781
21
0.0316511
31
0.430333
12
-0.965231
22
0.0278335
32
0.446651
13
-0.953711
23
0.0375
33
0.446651
62
1
0
3DFACE
8
Supports
10
-0.953711
20
0.0375
30
0.446651
11
-0.965231
21
0.0278335
31
0.446651
12
-0.95668
22
0.0206588
32
0.459953
13
-0.94813
23
0.0278335
33
0.459953
62
1
0
3DFACE
8
Supports
10
-0.94813
20
0.0278335
30
0.459953
11
-0.95668
21
0.0206588
31
0.459953
12
-0.94516
22
0.0109923
32
0.468636
13
-0.940611
23
0.0148099
33
0.468636
62
1
0
3DFACE
8
Supports
10
-0.940611
20
0.0148099
30
0.468636
11
-0.94516
21
0.0109923
31
0.468636
12
-0.93206
22
-4.99404e-15
32
0.471651
13
-0.93206
23
-4.99335e-15
33
0.471651
62
1
0
3DFACE
8
Supports
10
-0.93206
20
-4.99404e-15
30
0.371651
11
-0.93206
21
-4.99496e-15
31
0.371651
12
-0.94813
22
0.00584889
32
0.374666
13
-0.94516
23
0.0109923
33
0.374666
62
1
0
3DFACE
8
Supports
10
-0.94516
20
0.0109923
30
0.374666
11
-0.94813
21
0.00584889
31
0.374666
12
-0.962261
22
0.0109923
32
0.383349
13
-0.95668
23
0.0206588
33
0.383349
62
1
0
3DFACE
8
Supports
10
-0.95668
20
0.0206588
30
0.383349
11
-0.962261
21
0.0109923
31
0.383349
12
-0.97275
22
0.0148099
32
0.396651
13
-0.965231
23
0.0278335
33
0.396651
62
1
0
3DFACE
8
Supports
10
-0.965231
20
0.0278335
30
0.396651
11
-0.97275
21
0.0148099
31
0.396651
12
-0.978331
22
0.0168412
32
0.412969
13
-0.969781
23
0.0316511
33
0.412969
62
1
0
3DFACE
8
Supports
10
-0.969781
20
0.0316511
30
0.412969
11
-0.978331
21
0.0168412
31
0.412969
12
-0.978331
22
0.0168412
32
0.430333
13
-0.969781
23
0.0316511
33
0.430333
62
1
0
3DFACE
8
Supports
10
-0.969781
20
0.0316511
30
0.430333
11
-0.978331
21
0.0168412
31
0.430333
12
-0.97275
22
0.0148099
32
0.446651
13
-0.965231
23
0.0278335
33
0.446651
62
1
0
3DFACE
8
Supports
10
-0.965231
20
0.0278335
30
0.446651
11
-0.97275
21
0.0148099
31
0.446651
12
-0.962261
22
0.0109923
32
0.459953
13
-0.95668
23
0.0206588
33
0.459953
62
1
0
3DFACE
8
Supports
10
-0.95668
20
0.0206588
30
0.459953
11
-0.962261
21
0.0109923
31
0.459953
12
-0.94813
22
0.00584889
32
0.468636
13
-0.94516
23
0.0109923
33
0.468636
62
1
0
3DFACE
8
Supports
10
-0.94516
20
0.0109923
30
0.468636
11
-0.94813
21
0.00584889
31
0.468636
12
-0.93206
22
-4.99496e-15
32
0.471651
13
-0.93206
23
-4.99404e-15
33
0.471651
62
1
0
3DFACE
8
Supports
10
-0.93206
20
-4.99496e-15
30
0.371651
11
-0.93206
21
-4.996e-15
31
0.371651
12
-0.949161
22
-4.99391e-15
32
0.374666
13
-0.94813
23
0.00584889
33
0.374666
62
1
0
3DFACE
8
Supports
10
-0.94813
20
0.00584889
30
0.374666
11
-0.949161
21
-4.99391e-15
31
0.374666
12
-0.9642
22
-4.99207e-15
32
0.383349
13
-0.962261
23
0.0109923
33
0.383349
62
1
0
3DFACE
8
Supports
10
-0.962261
20
0.0109923
30
0.383349
11
-0.9642
21
-4.99207e-15
31
0.383349
12
-0.975362
22
-4.9907e-15
32
0.396651
13
-0.97275
23
0.0148099
33
0.396651
62
1
0
3DFACE
8
Supports
10
-0.97275
20
0.0148099
30
0.396651
11
-0.975362
21
-4.9907e-15
31
0.396651
12
-0.981301
22
-4.98997e-15
32
0.412969
13
-0.978331
23
0.0168412
33
0.412969
62
1
0
3DFACE
8
Supports
10
-0.978331
20
0.0168412
30
0.412969
11
-0.981301
21
-4.98997e-15
31
0.412969
12
-0.981301
22
-4.98997e-15
32
0.430333
13
-0.978331
23
0.0168412
33
0.430333
62
1
0
3DFACE
8
Supports
10
-0.978331
20
0.0168412
30
0.430333
11
-0.981301
21
-4.98997e-15
31
0.430333
12
-0.975362
22
-4.9907e-15
32
0.446651
13
-0.97275
23
0.0148099
33
0.446651
62
1
0
3DFACE
8
Supports
10
-0.97275
20
0.0148099
30
0.446651
11
-0.975362
21
-4.9907e-15
31
0.446651
12
-0.9642
22
-4.99207e-15
32
0.459953
13
-0.962261
23
0.0109923
33
0.459953
62
1
0
3DFACE
8
Supports
10
-0.962261
20
0.0109923
30
0.459953
11
-0.9642
21
-4.99207e-15
31
0.459953
12
-0.949161
22
-4.99391e-15
32
0.468636
13
-0.94813
23
0.00584889
33
0.468636
62
1
0
3DFACE
8
Supports
10
-0.94813
20
0.00584889
30
0.468636
11
-0.949161
21
-4.99391e-15
31
0.468636
12
-0.93206
22
-4.996e-15
32
0.471651
13
-0.93206
23
-4.99496e-15
33
0.471651
62
1
0
3DFACE
8
Supports
10
-0.93206
20
-4.996e-15
30
0.371651
11
-0.93206
21
-4.99705e-15
31
0.371651
12
-0.94813
22
-0.00584889
32
0.374666
13
-0.949161
23
-4.99391e-15
33
0.374666
62
1
0
3DFACE
8
Supports
10
-0.949161
20
-4.99391e-15
30
0.374666
11
-0.94813
21
-0.00584889
31
0.374666
12
-0.962261
22
-0.0109923
32
0.383349
13
-0.9642
23
-4.99207e-15
33
0.383349
62
1
0
3DFACE
8
Supports
10
-0.9642
20
-4.99207e-15
30
0.383349
11
-0.962261
21
-0.0109923
31
0.383349
12
-0.97275
22
-0.0148099
32
0.396651
13
-0.975362
23
-4.9907e-15
33
0.396651
62
1
0
3DFACE
8
Supports
10
-0.975362
20
-4.9907e-15
30
0.396651
11
-0.97275
21
-0.0148099
31
0.396651
12
-0.978331
22
-0.0168412
32
0.412969
13
-0.981301
23
-4.98997e-15
33
0.412969
62
1
0
3DFACE
8
Supports
10
-0.981301
20
-4.98997e-15
30
0.412969
11
-0.978331
21
-0.0168412
31
0.412969
12
-0.978331
22
-0.0168412
32
0.430333
13
-0.981301
23
-4.98997e-15
33
0.430333
62
1
0
3DFACE
8
Supports
10
-0.981301
20
-4.98997e-15
30
0.430333
11
-0.978331
21
-0.0168412
31
0.430333
12
-0.97275
22
-0.0148099
32
0.446651
13
-0.975362
23
-4.9907e-15
33
0.446651
62
1
0
3DFACE
8
Supports
10
-0.975362
20
-4.9907e-15
30
0.446651
11
-0.97275
21
-0.0148099
31
0.446651
12
-0.962261
22
-0.0109923
32
0.459953
13
-0.9642
23
-4.99207e-15
33
0.459953
62
1
0
3DFACE
8
Supports
10
-0.9642
20
-4.99207e-15
30
0.459953
11
-0.962261
21
-0.0109923
31
0.459953
12
-0.94813
22
-0.00584889
32
0.468636
13
-0.949161
23
-4.99391e-15
33
0.468636
62
1
0
3DFACE
8
Supports
10
-0.949161
20
-4.99391e-15
30
0.468636
11
-0.94813
21
-0.00584889
31
0.468636
12
-0.93206
22
-4.99705e-15
32
0.471651
13
-0.93206
23
-4.996e-15
33
0.471651
62
1
0
3DFACE
8
Supports
10
-0.93206
20
-4.99705e-15
30
0.371651
11
-0.93206
21
-4.99797e-15
31
0.371651
12
-0.94516
22
-0.0109923
32
0.374666
13
-0.94813
23
-0.00584889
33
0.374666
62
1
0
3DFACE
8
Supports
10
-0.94813
20
-0.00584889
30
0.374666
11
-0.94516
21
-0.0109923
31
0.374666
12
-0.95668
22
-0.0206588
32
0.383349
13
-0.962261
23
-0.0109923
33
0.383349
62
1
0
3DFACE
8
Supports
10
-0.962261
20
-0.0109923
30
0.383349
11
-0.95668
21
-0.0206588
31
0.383349
12
-0.965231
22
-0.0278335
32
0.396651
13
-0.97275
23
-0.0148099
33
0.396651
62
1
0
3DFACE
8
Supports
10
-0.97275
20
-0.0148099
30
0.396651
11
-0.965231
21
-0.0278335
31
0.396651
12
-0.969781
22
-0.0316511
32
0.412969
13
-0.978331
23
-0.0168412
33
0.412969
62
1
0
3DFACE
8
Supports
10
-0.978331
20
-0.0168412
30
0.412969
11
-0.969781
21
-0.0316511
31
0.412969
12
-0.969781
22
-0.0316511
32
0.430333
13
-0.978331
23
-0.0168412
33
0.430333
62
1
0
3DFACE
8
Supports
10
-0.978331
20
-0.0168412
30
0.430333
11
-0.969781
21
-0.0316511
31
0.430333
12
-0.965231
22
-0.0278335
32
0.446651
13
-0.97275
23
-0.0148099
33
0.446651
62
1
0
3DFACE
8
Supports
10
-0.97275
20
-0.0148099
30
0.446651
11
-0.965231
21
-0.0278335
31
0.446651
12
-0.95668
22
-0.0206588
32
0.459953
13
-0.962261
23
-0.0109923
33
0.459953
62
1
0
3DFACE
8
Supports
10
-0.962261
20
-0.0109923
30
0.459953
11
-0.95668
21
-0.0206588
31
0.459953
12
-0.94516
22
-0.0109923
32
0.468636
13
-0.94813
23
-0.00584889
33
0.468636
62
1
0
3DFACE
8
Supports
10
-0.94813
20
-0.00584889
30
0.468636
11
-0.94516
21
-0.0109923
31
0.468636
12
-0.93206
22
-4.99797e-15
32
0.471651
13
-0.93206
23
-4.99705e-15
33
0.471651
62
1
0
3DFACE
8
Supports
10
-0.93206
20
-4.99797e-15
30
0.371651
11
-0.93206
21
-4.99866e-15
31
0.371651
12
-0.940611
22
-0.0148099
32
0.374666
13
-0.94516
23
-0.0109923
33
0.374666
62
1
0
3DFACE
8
Supports
10
-0.94516
20
-0.0109923
30
0.374666
11
-0.940611
21
-0.0148099
31
0.374666
12
-0.94813
22
-0.0278335
32
0.383349
13
-0.95668
23
-0.0206588
33
0.383349
62
1
0
3DFACE
8
Supports
10
-0.95668
20
-0.0206588
30
0.383349
11
-0.94813
21
-0.0278335
31
0.383349
12
-0.953711
22
-0.0375
32
0.396651
13
-0.965231
23
-0.0278335
33
0.396651
62
1
0
3DFACE
8
Supports
10
-0.965231
20
-0.0278335
30
0.396651
11
-0.953711
21
-0.0375
31
0.396651
12
-0.95668
22
-0.0426434
32
0.412969
13
-0.969781
23
-0.0316511
33
0.412969
62
1
0
3DFACE
8
Supports
10
-0.969781
20
-0.0316511
30
0.412969
11
-0.95668
21
-0.0426434
31
0.412969
12
-0.95668
22
-0.0426434
32
0.430333
13
-0.969781
23
-0.0316511
33
0.430333
62
1
0
3DFACE
8
Supports
10
-0.969781
20
-0.0316511
30
0.430333
11
-0.95668
21
-0.0426434
31
0.430333
12
-0.953711
22
-0.0375
32
0.446651
13
-0.965231
23
-0.0278335
33
0.446651
62
1
0
3DFACE
8
Supports
10
-0.965231
20
-0.0278335
30
0.446651
11
-0.953711
21
-0.0375
31
0.446651
12
-0.94813
22
-0.0278335
32
0.459953
13
-0.95668
23
-0.0206588
33
0.459953
62
1
0
3DFACE
8
Supports
10
-0.95668
20
-0.0206588
30
0.459953
11
-0.94813
21
-0.0278335
31
0.459953
12
-0.940611
22
-0.0148099
32
0.468636
13
-0.94516
23
-0.0109923
33
0.468636
62
1
0
3DFACE
8
Supports
10
-0.94516
20
-0.0109923
30
0.468636
11
-0.940611
21
-0.0148099
31
0.468636
12
-0.93206
22
-4.99866e-15
32
0.471651
13
-0.93206
23
-4.99797e-15
33
0.471651
62
1
0
3DFACE
8
Supports
10
-0.93206
20
-4.99866e-15
30
0.371651
11
-0.93206
21
-4.99902e-15
31
0.371651
12
-0.93503
22
-0.0168412
32
0.374666
13
-0.940611
23
-0.0148099
33
0.374666
62
1
0
3DFACE
8
Supports
10
-0.940611
20
-0.0148099
30
0.374666
11
-0.93503
21
-0.0168412
31
0.374666
12
-0.937641
22
-0.0316511
32
0.383349
13
-0.94813
23
-0.0278335
33
0.383349
62
1
0
3DFACE
8
Supports
10
-0.94813
20
-0.0278335
30
0.383349
11
-0.937641
21
-0.0316511
31
0.383349
12
-0.939579
22
-0.0426434
32
0.396651
13
-0.953711
23
-0.0375
33
0.396651
62
1
0
3DFACE
8
Supports
10
-0.953711
20
-0.0375
30
0.396651
11
-0.939579
21
-0.0426434
31
0.396651
12
-0.940611
22
-0.0484923
32
0.412969
13
-0.95668
23
-0.0426434
33
0.412969
62
1
0
3DFACE
8
Supports
10
-0.95668
20
-0.0426434
30
0.412969
11
-0.940611
21
-0.0484923
31
0.412969
12
-0.940611
22
-0.0484923
32
0.430333
13
-0.95668
23
-0.0426434
33
0.430333
62
1
0
3DFACE
8
Supports
10
-0.95668
20
-0.0426434
30
0.430333
11
-0.940611
21
-0.0484923
31
0.430333
12
-0.939579
22
-0.0426434
32
0.446651
13
-0.953711
23
-0.0375
33
0.446651
62
1
0
3DFACE
8
Supports
10
-0.953711
20
-0.0375
30
0.446651
11
-0.939579
21
-0.0426434
31
0.446651
12
-0.937641
22
-0.0316511
32
0.459953
13
-0.94813
23
-0.0278335
33
0.459953
62
1
0
3DFACE
8
Supports
10
-0.94813
20
-0.0278335
30
0.459953
11
-0.937641
21
-0.0316511
31
0.459953
12
-0.93503
22
-0.0168412
32
0.468636
13
-0.940611
23
-0.0148099
33
0.468636
62
1
0
3DFACE
8
Supports
10
-0.940611
20
-0.0148099
30
0.468636
11
-0.93503
21
-0.0168412
31
0.468636
12
-0.93206
22
-4.99902e-15
32
0.471651
13
-0.93206
23
-4.99866e-15
33
0.471651
62
1
0
3DFACE
8
Supports
10
-0.93206
20
-4.99902e-15
30
0.371651
11
-0.93206
21
-4.99902e-15
31
0.371651
12
-0.929091
22
-0.0168412
32
0.374666
13
-0.93503
23
-0.0168412
33
0.374666
62
1
0
3DFACE
8
Supports
10
-0.93503
20
-0.0168412
30
0.374666
11
-0.929091
21
-0.0168412
31
0.374666
12
-0.926479
22
-0.0316511
32
0.383349
13
-0.937641
23
-0.0316511
33
0.383349
62
1
0
3DFACE
8
Supports
10
-0.937641
20
-0.0316511
30
0.383349
11
-0.926479
21
-0.0316511
31
0.383349
12
-0.924541
22
-0.0426434
32
0.396651
13
-0.939579
23
-0.0426434
33
0.396651
62
1
0
3DFACE
8
Supports
10
-0.939579
20
-0.0426434
30
0.396651
11
-0.924541
21
-0.0426434
31
0.396651
12
-0.92351
22
-0.0484923
32
0.412969
13
-0.940611
23
-0.0484923
33
0.412969
62
1
0
3DFACE
8
Supports
10
-0.940611
20
-0.0484923
30
0.412969
11
-0.92351
21
-0.0484923
31
0.412969
12
-0.92351
22
-0.0484923
32
0.430333
13
-0.940611
23
-0.0484923
33
0.430333
62
1
0
3DFACE
8
Supports
10
-0.940611
20
-0.0484923
30
0.430333
11
-0.92351
21
-0.0484923
31
0.430333
12
-0.924541
22
-0.0426434
32
0.446651
13
-0.939579
23
-0.0426434
33
0.446651
62
1
0
3DFACE
8
Supports
10
-0.939579
20
-0.0426434
30
0.446651
11
-0.924541
21
-0.0426434
31
0.446651
12
-0.926479
22
-0.0316511
32
0.459953
13
-0.937641
23
-0.0316511
33
0.459953
62
1
0
3DFACE
8
Supports
10
-0.937641
20
-0.0316511
30
0.459953
11
-0.926479
21
-0.0316511
31
0.459953
12
-0.929091
22
-0.0168412
32
0.468636
13
-0.93503
23
-0.0168412
33
0.468636
62
1
0
3DFACE
8
Supports
10
-0.93503
20
-0.0168412
30
0.468636
11
-0.929091
21
-0.0168412
31
0.468636
12
-0.93206
22
-4.99902e-15
32
0.471651
13
-0.93206
23
-4.99902e-15
33
0.471651
62
1
0
3DFACE
8
Supports
10
-0.93206
20
-4.99902e-15
30
0.371651
11
-0.93206
21
-4.99866e-15
31
0.371651
12
-0.92351
22
-0.0148099
32
0.374666
13
-0.929091
23
-0.0168412
33
0.374666
62
1
0
3DFACE
8
Supports
10
-0.929091
20
-0.0168412
30
0.374666
11
-0.92351
21
-0.0148099
31
0.374666
12
-0.915991
22
-0.0278335
32
0.383349
13
-0.926479
23
-0.0316511
33
0.383349
62
1
0
3DFACE
8
Supports
10
-0.926479
20
-0.0316511
30
0.383349
11
-0.915991
21
-0.0278335
31
0.383349
12
-0.91041
22
-0.0375
32
0.396651
13
-0.924541
23
-0.0426434
33
0.396651
62
1
0
3DFACE
8
Supports
10
-0.924541
20
-0.0426434
30
0.396651
11
-0.91041
21
-0.0375
31
0.396651
12
-0.90744
22
-0.0426434
32
0.412969
13
-0.92351
23
-0.0484923
33
0.412969
62
1
0
3DFACE
8
Supports
10
-0.92351
20
-0.0484923
30
0.412969
11
-0.90744
21
-0.0426434
31
0.412969
12
-0.90744
22
-0.0426434
32
0.430333
13
-0.92351
23
-0.0484923
33
0.430333
62
1
0
3DFACE
8
Supports
10
-0.92351
20
-0.0484923
30
0.430333
11
-0.90744
21
-0.0426434
31
0.430333
12
-0.91041
22
-0.0375
32
0.446651
13
-0.924541
23
-0.0426434
33
0.446651
62
1
0
3DFACE
8
Supports
10
-0.924541
20
-0.0426434
30
0.446651
11
-0.91041
21
-0.0375
31
0.446651
12
-0.915991
22
-0.0278335
32
0.459953
13
-0.926479
23
-0.0316511
33
0.459953
62
1
0
3DFACE
8
Supports
10
-0.926479
20
-0.0316511
30
0.459953
11
-0.915991
21
-0.0278335
31
0.459953
12
-0.92351
22
-0.0148099
32
0.468636
13
-0.929091
23
-0.0168412
33
0.468636
62
1
0
3DFACE
8
Supports
10
-0.929091
20
-0.0168412
30
0.468636
11
-0.92351
21
-0.0148099
31
0.468636
12
-0.93206
22
-4.99866e-15
32
0.471651
13
-0.93206
23
-4.99902e-15
33
0.471651
62
1
0
3DFACE
8
Supports
10
-0.93206
20
-4.99866e-15
30
0.371651
11
-0.93206
21
-4.99797e-15
31
0.371651
12
-0.91896
22
-0.0109923
32
0.374666
13
-0.92351
23
-0.0148099
33
0.374666
62
1
0
3DFACE
8
Supports
10
-0.92351
20
-0.0148099
30
0.374666
11
-0.91896
21
-0.0109923
31
0.374666
12
-0.90744
22
-0.0206588
32
0.383349
13
-0.915991
23
-0.0278335
33
0.383349
62
1
0
3DFACE
8
Supports
10
-0.915991
20
-0.0278335
30
0.383349
11
-0.90744
21
-0.0206588
31
0.383349
12
-0.89889
22
-0.0278335
32
0.396651
13
-0.91041
23
-0.0375
33
0.396651
62
1
0
3DFACE
8
Supports
10
-0.91041
20
-0.0375
30
0.396651
11
-0.89889
21
-0.0278335
31
0.396651
12
-0.89434
22
-0.0316511
32
0.412969
13
-0.90744
23
-0.0426434
33
0.412969
62
1
0
3DFACE
8
Supports
10
-0.90744
20
-0.0426434
30
0.412969
11
-0.89434
21
-0.0316511
31
0.412969
12
-0.89434
22
-0.0316511
32
0.430333
13
-0.90744
23
-0.0426434
33
0.430333
62
1
0
3DFACE
8
Supports
10
-0.90744
20
-0.0426434
30
0.430333
11
-0.89434
21
-0.0316511
31
0.430333
12
-0.89889
22
-0.0278335
32
0.446651
13
-0.91041
23
-0.0375
33
0.446651
62
1
0
3DFACE
8
Supports
10
-0.91041
20
-0.0375
30
0.446651
11
-0.89889
21
-0.0278335
31
0.446651
12
-0.90744
22
-0.0206588
32
0.459953
13
-0.915991
23
-0.0278335
33
0.459953
62
1
0
3DFACE
8
Supports
10
-0.915991
20
-0.0278335
30
0.459953
11
-0.90744
21
-0.0206588
31
0.459953
12
-0.91896
22
-0.0109923
32
0.468636
13
-0.92351
23
-0.0148099
33
0.468636
62
1
0
3DFACE
8
Supports
10
-0.92351
20
-0.0148099
30
0.468636
11
-0.91896
21
-0.0109923
31
0.468636
12
-0.93206
22
-4.99797e-15
32
0.471651
13
-0.93206
23
-4.99866e-15
33
0.471651
62
1
0
3DFACE
8
Supports
10
-0.93206
20
-4.99797e-15
30
0.371651
11
-0.93206
21
-4.99705e-15
31
0.371651
12
-0.915991
22
-0.00584889
32
0.374666
13
-0.91896
23
-0.0109923
33
0.374666
62
1
0
3DFACE
8
Supports
10
-0.91896
20
-0.0109923
30
0.374666
11
-0.915991
21
-0.00584889
31
0.374666
12
-0.901859
22
-0.0109923
32
0.383349
13
-0.90744
23
-0.0206588
33
0.383349
62
1
0
3DFACE
8
Supports
10
-0.90744
20
-0.0206588
30
0.383349
11
-0.901859
21
-0.0109923
31
0.383349
12
-0.89137
22
-0.0148099
32
0.396651
13
-0.89889
23
-0.0278335
33
0.396651
62
1
0
3DFACE
8
Supports
10
-0.89889
20
-0.0278335
30
0.396651
11
-0.89137
21
-0.0148099
31
0.396651
12
-0.885789
22
-0.0168412
32
0.412969
13
-0.89434
23
-0.0316511
33
0.412969
62
1
0
3DFACE
8
Supports
10
-0.89434
20
-0.0316511
30
0.412969
11
-0.885789
21
-0.0168412
31
0.412969
12
-0.885789
22
-0.0168412
32
0.430333
13
-0.89434
23
-0.0316511
33
0.430333
62
1
0
3DFACE
8
Supports
10
-0.89434
20
-0.0316511
30
0.430333
11
-0.885789
21
-0.0168412
31
0.430333
12
-0.89137
22
-0.0148099
32
0.446651
13
-0.89889
23
-0.0278335
33
0.446651
62
1
0
3DFACE
8
Supports
10
-0.89889
20
-0.0278335
30
0.446651
11
-0.89137
21
-0.0148099
31
0.446651
12
-0.901859
22
-0.0109923
32
0.459953
13
-0.90744
23
-0.0206588
33
0.459953
62
1
0
3DFACE
8
Supports
10
-0.90744
20
-0.0206588
30
0.459953
11
-0.901859
21
-0.0109923
31
0.459953
12
-0.915991
22
-0.00584889
32
0.468636
13
-0.91896
23
-0.0109923
33
0.468636
62
1
0
3DFACE
8
Supports
10
-0.91896
20
-0.0109923
30
0.468636
11
-0.915991
21
-0.00584889
31
0.468636
12
-0.93206
22
-4.99705e-15
32
0.471651
13
-0.93206
23
-4.99797e-15
33
0.471651
62
1
0
3DFACE
8
Supports
10
-0.93206
20
-4.99705e-15
30
0.371651
11
-0.93206
21
-4.996e-15
31
0.371651
12
-0.914959
22
-5.00019e-15
32
0.374666
13
-0.915991
23
-0.00584889
33
0.374666
62
1
0
3DFACE
8
Supports
10
-0.915991
20
-0.00584889
30
0.374666
11
-0.914959
21
-5.00019e-15
31
0.374666
12
-0.899921
22
-5.00388e-15
32
0.383349
13
-0.901859
23
-0.0109923
33
0.383349
62
1
0
3DFACE
8
Supports
10
-0.901859
20
-0.0109923
30
0.383349
11
-0.899921
21
-5.00388e-15
31
0.383349
12
-0.888759
22
-5.00661e-15
32
0.396651
13
-0.89137
23
-0.0148099
33
0.396651
62
1
0
3DFACE
8
Supports
10
-0.89137
20
-0.0148099
30
0.396651
11
-0.888759
21
-5.00661e-15
31
0.396651
12
-0.88282
22
-5.00806e-15
32
0.412969
13
-0.885789
23
-0.0168412
33
0.412969
62
1
0
3DFACE
8
Supports
10
-0.885789
20
-0.0168412
30
0.412969
11
-0.88282
21
-5.00806e-15
31
0.412969
12
-0.88282
22
-5.00806e-15
32
0.430333
13
-0.885789
23
-0.0168412
33
0.430333
62
1
0
3DFACE
8
Supports
10
-0.885789
20
-0.0168412
30
0.430333
11
-0.88282
21
-5.00806e-15
31
0.430333
12
-0.888759
22
-5.00661e-15
32
0.446651
13
-0.89137
23
-0.0148099
33
0.446651
62
1
0
3DFACE
8
Supports
10
-0.89137
20
-0.0148099
30
0.446651
11
-0.888759
21
-5.00661e-15
31
0.446651
12
-0.899921
22
-5.00388e-15
32
0.459953
13
-0.901859
23
-0.0109923
33
0.459953
62
1
0
3DFACE
8
Supports
10
-0.901859
20
-0.0109923
30
0.459953
11
-0.899921
21
-5.00388e-15
31
0.459953
12
-0.914959
22
-5.00019e-15
32
0.468636
13
-0.915991
23
-0.00584889
33
0.468636
62
1
0
3DFACE
8
Supports
10
-0.915991
20
-0.00584889
30
0.468636
11
-0.914959
21
-5.00019e-15
31
0.468636
12
-0.93206
22
-4.996e-15
32
0.471651
13
-0.93206
23
-4.99705e-15
33
0.471651
62
1
0
3DFACE
8
Supports
10
0.46603
20
0.807188
30
0.371651
11
0.46603
21
0.807188
31
0.371651
12
0.4821
22
0.813037
32
0.374666
13
0.483131
23
0.807188
33
0.374666
62
1
0
3DFACE
8
Supports
10
0.483131
20
0.807188
30
0.374666
11
0.4821
21
0.813037
31
0.374666
12
0.496231
22
0.81818
32
0.383349
13
0.49817
23
0.807188
33
0.383349
62
1
0
3DFACE
8
Supports
10
0.49817
20
0.807188
30
0.383349
11
0.496231
21
0.81818
31
0.383349
12
0.50672
22
0.821998
32
0.396651
13
0.509331
23
0.807188
33
0.396651
62
1
0
3DFACE
8
Supports
10
0.509331
20
0.807188
30
0.396651
11
0.50672
21
0.821998
31
0.396651
12
0.512301
22
0.824029
32
0.412969
13
0.515271
23
0.807188
33
0.412969
62
1
0
3DFACE
8
Supports
10
0.515271
20
0.807188
30
0.412969
11
0.512301
21
0.824029
31
0.412969
12
0.512301
22
0.824029
32
0.430333
13
0.515271
23
0.807188
33
0.430333
62
1
0
3DFACE
8
Supports
10
0.515271
20
0.807188
30
0.430333
11
0.512301
21
0.824029
31
0.430333
12
0.50672
22
0.821998
32
0.446651
13
0.509331
23
0.807188
33
0.446651
62
1
0
3DFACE
8
Supports
10
0.509331
20
0.807188
30
0.446651
11
0.50672
21
0.821998
31
0.446651
12
0.496231
22
0.81818
32
0.459953
13
0.49817
23
0.807188
33
0.459953
62
1
0
3DFACE
8
Supports
10
0.49817
20
0.807188
30
0.459953
11
0.496231
21
0.81818
31
0.459953
12
0.4821
22
0.813037
32
0.468636
13
0.483131
23
0.807188
33
0.468636
62
1
0
3DFACE
8
Supports
10
0.483131
20
0.807188
30
0.468636
11
0.4821
21
0.813037
31
0.468636
12
0.46603
22
0.807188
32
0.471651
13
0.46603
23
0.807188
33
0.471651
62
1
0
3DFACE
8
Supports
10
0.46603
20
0.807188
30
0.371651
11
0.46603
21
0.807188
31
0.371651
12
0.47913
22
0.81818
32
0.374666
13
0.4821
23
0.813037
33
0.374666
62
1
0
3DFACE
8
Supports
10
0.4821
20
0.813037
30
0.374666
11
0.47913
21
0.81818
31
0.374666
12
0.49065
22
0.827847
32
0.383349
13
0.496231
23
0.81818
33
0.383349
62
1
0
3DFACE
8
Supports
10
0.496231
20
0.81818
30
0.383349
11
0.49065
21
0.827847
31
0.383349
12
0.499201
22
0.835021
32
0.396651
13
0.50672
23
0.821998
33
0.396651
62
1
0
3DFACE
8
Supports
10
0.50672
20
0.821998
30
0.396651
11
0.499201
21
0.835021
31
0.396651
12
0.50375
22
0.838839
32
0.412969
13
0.512301
23
0.824029
33
0.412969
62
1
0
3DFACE
8
Supports
10
0.512301
20
0.824029
30
0.412969
11
0.50375
21
0.838839
31
0.412969
12
0.50375
22
0.838839
32
0.430333
13
0.512301
23
0.824029
33
0.430333
62
1
0
3DFACE
8
Supports
10
0.512301
20
0.824029
30
0.430333
11
0.50375
21
0.838839
31
0.430333
12
0.499201
22
0.835021
32
0.446651
13
0.50672
23
0.821998
33
0.446651
62
1
0
3DFACE
8
Supports
10
0.50672
20
0.821998
30
0.446651
11
0.499201
21
0.835021
31
0.446651
12
0.49065
22
0.827847
32
0.459953
13
0.496231
23
0.81818
33
0.459953
62
1
0
3DFACE
8
Supports
10
0.496231
20
0.81818
30
0.459953
11
0.49065
21
0.827847
31
0.459953
12
0.47913
22
0.81818
32
0.468636
13
0.4821
23
0.813037
33
0.468636
62
1
0
3DFACE
8
Supports
10
0.4821
20
0.813037
30
0.468636
11
0.47913
21
0.81818
31
0.468636
12
0.46603
22
0.807188
32
0.471651
13
0.46603
23
0.807188
33
0.471651
62
1
0
3DFACE
8
Supports
10
0.46603
20
0.807188
30
0.371651
11
0.46603
21
0.807188
31
0.371651
12
0.474581
22
0.821998
32
0.374666
13
0.47913
23
0.81818
33
0.374666
62
1
0
3DFACE
8
Supports
10
0.47913
20
0.81818
30
0.374666
11
0.474581
21
0.821998
31
0.374666
12
0.4821
22
0.835021
32
0.383349
13
0.49065
23
0.827847
33
0.383349
62
1
0
3DFACE
8
Supports
10
0.49065
20
0.827847
30
0.383349
11
0.4821
21
0.835021
31
0.383349
12
0.487681
22
0.844688
32
0.396651
13
0.499201
23
0.835021
33
0.396651
62
1
0
3DFACE
8
Supports
10
0.499201
20
0.835021
30
0.396651
11
0.487681
21
0.844688
31
0.396651
12
0.49065
22
0.849831
32
0.412969
13
0.50375
23
0.838839
33
0.412969
62
1
0
3DFACE
8
Supports
10
0.50375
20
0.838839
30
0.412969
11
0.49065
21
0.849831
31
0.412969
12
0.49065
22
0.849831
32
0.430333
13
0.50375
23
0.838839
33
0.430333
62
1
0
3DFACE
8
Supports
10
0.50375
20
0.838839
30
0.430333
11
0.49065
21
0.849831
31
0.430333
12
0.487681
22
0.844688
32
0.446651
13
0.499201
23
0.835021
33
0.446651
62
1
0
3DFACE
8
Supports
10
0.499201
20
0.835021
30
0.446651
11
0.487681
21
0.844688
31
0.446651
12
0.4821
22
0.835021
32
0.459953
13
0.49065
23
0.827847
33
0.459953
62
1
0
3DFACE
8
Supports
10
0.49065
20
0.827847
30
0.459953
11
0.4821
21
0.835021
31
0.459953
12
0.474581
22
0.821998
32
0.468636
13
0.47913
23
0.81818
33
0.468636
62
1
0
3DFACE
8
Supports
10
0.47913
20
0.81818
30
0.468636
11
0.474581
21
0.821998
31
0.468636
12
0.46603
22
0.807188
32
0.471651
13
0.46603
23
0.807188
33
0.471651
62
1
0
3DFACE
8
Supports
10
0.46603
20
0.807188
30
0.371651
11
0.46603
21
0.807188
31
0.371651
12
0.469
22
0.824029
32
0.374666
13
0.474581
23
0.821998
33
0.374666
62
1
0
3DFACE
8
Supports
10
0.474581
20
0.821998
30
0.374666
11
0.469
21
0.824029
31
0.374666
12
0.471611
22
0.838839
32
0.383349
13
0.4821
23
0.835021
33
0.383349
62
1
0
3DFACE
8
Supports
10
0.4821
20
0.835021
30
0.383349
11
0.471611
21
0.838839
31
0.383349
12
0.473549
22
0.849831
32
0.396651
13
0.487681
23
0.844688
33
0.396651
62
1
0
3DFACE
8
Supports
10
0.487681
20
0.844688
30
0.396651
11
0.473549
21
0.849831
31
0.396651
12
0.474581
22
0.85568
32
0.412969
13
0.49065
23
0.849831
33
0.412969
62
1
0
3DFACE
8
Supports
10
0.49065
20
0.849831
30
0.412969
11
0.474581
21
0.85568
31
0.412969
12
0.474581
22
0.85568
32
0.430333
13
0.49065
23
0.849831
33
0.430333
62
1
0
3DFACE
8
Supports
10
0.49065
20
0.849831
30
0.430333
11
0.474581
21
0.85568
31
0.430333
12
0.473549
22
0.849831
32
0.446651
13
0.487681
23
0.844688
33
0.446651
62
1
0
3DFACE
8
Supports
10
0.487681
20
0.844688
30
0.446651
11
0.473549
21
0.849831
31
0.446651
12
0.471611
22
0.838839
32
0.459953
13
0.4821
23
0.835021
33
0.459953
62
1
0
3DFACE
8
Supports
10
0.4821
20
0.835021
30
0.459953
11
0.471611
21
0.838839
31
0.459953
12
0.469
22
0.824029
32
0.468636
13
0.474581
23
0.821998
33
0.468636
62
1
0
3DFACE
8
Supports
10
0.474581
20
0.821998
30
0.468636
11
0.469
21
0.824029
31
0.468636
12
0.46603
22
0.807188
32
0.471651
13
0.46603
23
0.807188
33
0.471651
62
1
0
3DFACE
8
Supports
10
0.46603
20
0.807188
30
0.371651
11
0.46603
21
0.807188
31
0.371651
12
0.463061
22
0.824029
32
0.374666
13
0.469
23
0.824029
33
0.374666
62
1
0
3DFACE
8
Supports
10
0.469
20
0.824029
30
0.374666
11
0.463061
21
0.824029
31
0.374666
12
0.460449
22
0.838839
32
0.383349
13
0.471611
23
0.838839
33
0.383349
62
1
0
3DFACE
8
Supports
10
0.471611
20
0.838839
30
0.383349
11
0.460449
21
0.838839
31
0.383349
12
0.458511
22
0.849831
32
0.396651
13
0.473549
23
0.849831
33
0.396651
62
1
0
3DFACE
8
Supports
10
0.473549
20
0.849831
30
0.396651
11
0.458511
21
0.849831
31
0.396651
12
0.45748
22
0.85568
32
0.412969
13
0.474581
23
0.85568
33
0.412969
62
1
0
3DFACE
8
Supports
10
0.474581
20
0.85568
30
0.412969
11
0.45748
21
0.85568
31
0.412969
12
0.45748
22
0.85568
32
0.430333
13
0.474581
23
0.85568
33
0.430333
62
1
0
3DFACE
8
Supports
10
0.474581
20
0.85568
30
0.430333
11
0.45748
21
0.85568
31
0.430333
12
0.458511
22
0.849831
32
0.446651
13
0.473549
23
0.849831
33
0.446651
62
1
0
3DFACE
8
Supports
10
0.473549
20
0.849831
30
0.446651
11
0.458511
21
0.849831
31
0.446651
12
0.460449
22
0.838839
32
0.459953
13
0.471611
23
0.838839
33
0.459953
62
1
0
3DFACE
8
Supports
10
0.471611
20
0.838839
30
0.459953
11
0.460449
21
0.838839
31
0.459953
12
0.463061
22
0.824029
32
0.468636
13
0.469
23
0.824029
33
0.468636
62
1
0
3DFACE
8
Supports
10
0.469
20
0.824029
30
0.468636
11
0.463061
21
0.824029
31
0.468636
12
0.46603
22
0.807188
32
0.471651
13
0.46603
23
0.807188
33
0.471651
62
1
0
3DFACE
8
Supports
10
0.46603
20
0.807188
30
0.371651
11
0.46603
21
0.807188
31
0.371651
12
0.45748
22
0.821998
32
0.374666
13
0.463061
23
0.824029
33
0.374666
62
1
0
3DFACE
8
Supports
10
0.463061
20
0.824029
30
0.374666
11
0.45748
21
0.821998
31
0.374666
12
0.44996
22
0.835021
32
0.383349
13
0.460449
23
0.838839
33
0.383349
62
1
0
3DFACE
8
Supports
10
0.460449
20
0.838839
30
0.383349
11
0.44996
21
0.835021
31
0.383349
12
0.444379
22
0.844688
32
0.396651
13
0.458511
23
0.849831
33
0.396651
62
1
0
3DFACE
8
Supports
10
0.458511
20
0.849831
30
0.396651
11
0.444379
21
0.844688
31
0.396651
12
0.44141
22
0.849831
32
0.412969
13
0.45748
23
0.85568
33
0.412969
62
1
0
3DFACE
8
Supports
10
0.45748
20
0.85568
30
0.412969
11
0.44141
21
0.849831
31
0.412969
12
0.44141
22
0.849831
32
0.430333
13
0.45748
23
0.85568
33
0.430333
62
1
0
3DFACE
8
Supports
10
0.45748
20
0.85568
30
0.430333
11
0.44141
21
0.849831
31
0.430333
12
0.444379
22
0.844688
32
0.446651
13
0.458511
23
0.849831
33
0.446651
62
1
0
3DFACE
8
Supports
10
0.458511
20
0.849831
30
0.446651
11
0.444379
21
0.844688
31
0.446651
12
0.44996
22
0.835021
32
0.459953
13
0.460449
23
0.838839
33
0.459953
62
1
0
3DFACE
8
Supports
10
0.460449
20
0.838839
30
0.459953
11
0.44996
21
0.835021
31
0.459953
12
0.45748
22
0.821998
32
0.468636
13
0.463061
23
0.824029
33
0.468636
62
1
0
3DFACE
8
Supports
10
0.463061
20
0.824029
30
0.468636
11
0.45748
21
0.821998
31
0.468636
12
0.46603
22
0.807188
32
0.471651
13
0.46603
23
0.807188
33
0.471651
62
1
0
3DFACE
8
Supports
10
0.46603
20
0.807188
30
0.371651
11
0.46603
21
0.807188
31
0.371651
12
0.45293
22
0.81818
32
0.374666
13
0.45748
23
0.821998
33
0.374666
62
1
0
3DFACE
8
Supports
10
0.45748
20
0.821998
30
0.374666
11
0.45293
21
0.81818
31
0.374666
12
0.44141
22
0.827847
32
0.383349
13
0.44996
23
0.835021
33
0.383349
62
1
0
3DFACE
8
Supports
10
0.44996
20
0.835021
30
0.383349
11
0.44141
21
0.827847
31
0.383349
12
0.432859
22
0.835021
32
0.396651
13
0.444379
23
0.844688
33
0.396651
62
1
0
3DFACE
8
Supports
10
0.444379
20
0.844688
30
0.396651
11
0.432859
21
0.835021
31
0.396651
12
0.42831
22
0.838839
32
0.412969
13
0.44141
23
0.849831
33
0.412969
62
1
0
3DFACE
8
Supports
10
0.44141
20
0.849831
30
0.412969
11
0.42831
21
0.838839
31
0.412969
12
0.42831
22
0.838839
32
0.430333
13
0.44141
23
0.849831
33
0.430333
62
1
0
3DFACE
8
Supports
10
0.44141
20
0.849831
30
0.430333
11
0.42831
21
0.838839
31
0.430333
12
0.432859
22
0.835021
32
0.446651
13
0.444379
23
0.844688
33
0.446651
62
1
0
3DFACE
8
Supports
10
0.444379
20
0.844688
30
0.446651
11
0.432859
21
0.835021
31
0.446651
12
0.44141
22
0.827847
32
0.459953
13
0.44996
23
0.835021
33
0.459953
62
1
0
3DFACE
8
Supports
10
0.44996
20
0.835021
30
0.459953
11
0.44141
21
0.827847
31
0.459953
12
0.45293
22
0.81818
32
0.468636
13
0.45748
23
0.821998
33
0.468636
62
1
0
3DFACE
8
Supports
10
0.45748
20
0.821998
30
0.468636
11
0.45293
21
0.81818
31
0.468636
12
0.46603
22
0.807188
32
0.471651
13
0.46603
23
0.807188
33
0.471651
62
1
0
3DFACE
8
Supports
10
0.46603
20
0.807188
30
0.371651
11
0.46603
21
0.807188
31
0.371651
12
0.44996
22
0.813037
32
0.374666
13
0.45293
23
0.81818
33
0.374666
62
1
0
3DFACE
8
Supports
10
0.45293
20
0.81818
30
0.374666
11
0.44996
21
0.813037
31
0.374666
12
0.435829
22
0.81818
32
0.383349
13
0.44141
23
0.827847
33
0.383349
62
1
0
3DFACE
8
Supports
10
0.44141
20
0.827847
30
0.383349
11
0.435829
21
0.81818
31
0.383349
12
0.42534
22
0.821998
32
0.396651
13
0.432859
23
0.835021
33
0.396651
62
1
0
3DFACE
8
Supports
10
0.432859
20
0.835021
30
0.396651
11
0.42534
21
0.821998
31
0.396651
12
0.419759
22
0.824029
32
0.412969
13
0.42831
23
0.838839
33
0.412969
62
1
0
3DFACE
8
Supports
10
0.42831
20
0.838839
30
0.412969
11
0.419759
21
0.824029
31
0.412969
12
0.419759
22
0.824029
32
0.430333
13
0.42831
23
0.838839
33
0.430333
62
1
0
3DFACE
8
Supports
10
0.42831
20
0.838839
30
0.430333
11
0.419759
21
0.824029
31
0.430333
12
0.42534
22
0.821998
32
0.446651
13
0.432859
23
0.835021
33
0.446651
62
1
0
3DFACE
8
Supports
10
0.432859
20
0.835021
30
0.446651
11
0.42534
21
0.821998
31
0.446651
12
0.435829
22
0.81818
32
0.459953
13
0.44141
23
0.827847
33
0.459953
62
1
0
3DFACE
8
Supports
10
0.44141
20
0.827847
30
0.459953
11
0.435829
21
0.81818
31
0.459953
12
0.44996
22
0.813037
32
0.468636
13
0.45293
23
0.81818
33
0.468636
62
1
0
3DFACE
8
Supports
10
0.45293
20
0.81818
30
0.468636
11
0.44996
21
0.813037
31
0.468636
12
0.46603
22
0.807188
32
0.471651
13
0.46603
23
0.807188
33
0.471651
62
1
0
3DFACE
8
Supports
10
0.46603
20
0.807188
30
0.371651
11
0.46603
21
0.807188
31
0.371651
12
0.448929
22
0.807188
32
0.374666
13
0.44996
23
0.813037
33
0.374666
62
1
0
3DFACE
8
Supports
10
0.44996
20
0.813037
30
0.374666
11
0.448929
21
0.807188
31
0.374666
12
0.433891
22
0.807188
32
0.383349
13
0.435829
23
0.81818
33
0.383349
62
1
0
3DFACE
8
Supports
10
0.435829
20
0.81818
30
0.383349
11
0.433891
21
0.807188
31
0.383349
12
0.422729
22
0.807188
32
0.396651
13
0.42534
23
0.821998
33
0.396651
62
1
0
3DFACE
8
Supports
10
0.42534
20
0.821998
30
0.396651
11
0.422729
21
0.807188
31
0.396651
12
0.41679
22
0.807188
32
0.412969
13
0.419759
23
0.824029
33
0.412969
62
1
0
3DFACE
8
Supports
10
0.419759
20
0.824029
30
0.412969
11
0.41679
21
0.807188
31
0.412969
12
0.41679
22
0.807188
32
0.430333
13
0.419759
23
0.824029
33
0.430333
62
1
0
3DFACE
8
Supports
10
0.419759
20
0.824029
30
0.430333
11
0.41679
21
0.807188
31
0.430333
12
0.422729
22
0.807188
32
0.446651
13
0.42534
23
0.821998
33
0.446651
62
1
0
3DFACE
8
Supports
10
0.42534
20
0.821998
30
0.446651
11
0.422729
21
0.807188
31
0.446651
12
0.433891
22
0.807188
32
0.459953
13
0.435829
23
0.81818
33
0.459953
62
1
0
3DFACE
8
Supports
10
0.435829
20
0.81818
30
0.459953
11
0.433891
21
0.807188
31
0.459953
12
0.448929
22
0.807188
32
0.468636
13
0.44996
23
0.813037
33
0.468636
62
1
0
3DFACE
8
Supports
10
0.44996
20
0.813037
30
0.468636
11
0.448929
21
0.807188
31
0.468636
12
0.46603
22
0.807188
32
0.471651
13
0.46603
23
0.807188
33
0.471651
62
1
0
3DFACE
8
Supports
10
0.46603
20
0.807188
30
0.371651
11
0.46603
21
0.807188
31
0.371651
12
0.44996
22
0.801339
32
0.374666
13
0.448929
23
0.807188
33
0.374666
62
1
0
3DFACE
8
Supports
10
0.448929
20
0.807188
30
0.374666
11
0.44996
21
0.801339
31
0.374666
12
0.435829
22
0.796196
32
0.383349
13
0.433891
23
0.807188
33
0.383349
62
1
0
3DFACE
8
Supports
10
0.433891
20
0.807188
30
0.383349
11
0.435829
21
0.796196
31
0.383349
12
0.42534
22
0.792378
32
0.396651
13
0.422729
23
0.807188
33
0.396651
62
1
0
3DFACE
8
Supports
10
0.422729
20
0.807188
30
0.396651
11
0.42534
21
0.792378
31
0.396651
12
0.419759
22
0.790347
32
0.412969
13
0.41679
23
0.807188
33
0.412969
62
1
0
3DFACE
8
Supports
10
0.41679
20
0.807188
30
0.412969
11
0.419759
21
0.790347
31
0.412969
12
0.419759
22
0.790347
32
0.430333
13
0.41679
23
0.807188
33
0.430333
62
1
0
3DFACE
8
Supports
10
0.41679
20
0.807188
30
0.430333
11
0.419759
21
0.790347
31
0.430333
12
0.42534
22
0.792378
32
0.446651
13
0.422729
23
0.807188
33
0.446651
62
1
0
3DFACE
8
Supports
10
0.422729
20
0.807188
30
0.446651
11
0.42534
21
0.792378
31
0.446651
12
0.435829
22
0.796196
32
0.459953
13
0.433891
23
0.807188
33
0.459953
62
1
0
3DFACE
8
Supports
10
0.433891
20
0.807188
30
0.459953
11
0.435829
21
0.796196
31
0.459953
12
0.44996
22
0.801339
32
0.468636
13
0.448929
23
0.807188
33
0.468636
62
1
0
3DFACE
8
Supports
10
0.448929
20
0.807188
30
0.468636
11
0.44996
21
0.801339
31
0.468636
12
0.46603
22
0.807188
32
0.471651
13
0.46603
23
0.807188
33
0.471651
62
1
0
3DFACE
8
Supports
10
0.46603
20
0.807188
30
0.371651
11
0.46603
21
0.807188
31
0.371651
12
0.45293
22
0.796196
32
0.374666
13
0.44996
23
0.801339
33
0.374666
62
1
0
3DFACE
8
Supports
10
0.44996
20
0.801339
30
0.374666
11
0.45293
21
0.796196
31
0.374666
12
0.44141
22
0.786529
32
0.383349
13
0.435829
23
0.796196
33
0.383349
62
1
0
3DFACE
8
Supports
10
0.435829
20
0.796196
30
0.383349
11
0.44141
21
0.786529
31
0.383349
12
0.432859
22
0.779354
32
0.396651
13
0.42534
23
0.792378
33
0.396651
62
1
0
3DFACE
8
Supports
10
0.42534
20
0.792378
30
0.396651
11
0.432859
21
0.779354
31
0.396651
12
0.42831
22
0.775537
32
0.412969
13
0.419759
23
0.790347
33
0.412969
62
1
0
3DFACE
8
Supports
10
0.419759
20
0.790347
30
0.412969
11
0.42831
21
0.775537
31
0.412969
12
0.42831
22
0.775537
32
0.430333
13
0.419759
23
0.790347
33
0.430333
62
1
0
3DFACE
8
Supports
10
0.419759
20
0.790347
30
0.430333
11
0.42831
21
0.775537
31
0.430333
12
0.432859
22
0.779354
32
0.446651
13
0.42534
23
0.792378
33
0.446651
62
1
0
3DFACE
8
Supports
10
0.42534
20
0.792378
30
0.446651
11
0.432859
21
0.779354
31
0.446651
12
0.44141
22
0.786529
32
0.459953
13
0.435829
23
0.796196
33
0.459953
62
1
0
3DFACE
8
Supports
10
0.435829
20
0.796196
30
0.459953
11
0.44141
21
0.786529
31
0.459953
12
0.45293
22
0.796196
32
0.468636
13
0.44996
23
0.801339
33
0.468636
62
1
0
3DFACE
8
Supports
10
0.44996
20
0.801339
30
0.468636
11
0.45293
21
0.796196
31
0.468636
12
0.46603
22
0.807188
32
0.471651
13
0.46603
23
0.807188
33
0.471651
62
1
0
3DFACE
8
Supports
10
0.46603
20
0.807188
30
0.371651
11
0.46603
21
0.807188
31
0.371651
12
0.45748
22
0.792378
32
0.374666
13
0.45293
23
0.796196
33
0.374666
62
1
0
3DFACE
8
Supports
10
0.45293
20
0.796196
30
0.374666
11
0.45748
21
0.792378
31
0.374666
12
0.44996
22
0.779354
32
0.383349
13
0.44141
23
0.786529
33
0.383349
62
1
0
3DFACE
8
Supports
10
0.44141
20
0.786529
30
0.383349
11
0.44996
21
0.779354
31
0.383349
12
0.444379
22
0.769688
32
0.396651
13
0.432859
23
0.779354
33
0.396651
62
1
0
3DFACE
8
Supports
10
0.432859
20
0.779354
30
0.396651
11
0.444379
21
0.769688
31
0.396651
12
0.44141
22
0.764544
32
0.412969
13
0.42831
23
0.775537
33
0.412969
62
1
0
3DFACE
8
Supports
10
0.42831
20
0.775537
30
0.412969
11
0.44141
21
0.764544
31
0.412969
12
0.44141
22
0.764544
32
0.430333
13
0.42831
23
0.775537
33
0.430333
62
1
0
3DFACE
8
Supports
10
0.42831
20
0.775537
30
0.430333
11
0.44141
21
0.764544
31
0.430333
12
0.444379
22
0.769688
32
0.446651
13
0.432859
23
0.779354
33
0.446651
62
1
0
3DFACE
8
Supports
10
0.432859
20
0.779354
30
0.446651
11
0.444379
21
0.769688
31
0.446651
12
0.44996
22
0.779354
32
0.459953
13
0.44141
23
0.786529
33
0.459953
62
1
0
3DFACE
8
Supports
10
0.44141
20
0.786529
30
0.459953
11
0.44996
21
0.779354
31
0.459953
12
0.45748
22
0.792378
32
0.468636
13
0.45293
23
0.796196
33
0.468636
62
1
0
3DFACE
8
Supports
10
0.45293
20
0.796196
30
0.468636
11
0.45748
21
0.792378
31
0.468636
12
0.46603
22
0.807188
32
0.471651
13
0.46603
23
0.807188
33
0.471651
62
1
0
3DFACE
8
Supports
10
0.46603
20
0.807188
30
0.371651
11
0.46603
21
0.807188
31
0.371651
12
0.463061
22
0.790347
32
0.374666
13
0.45748
23
0.792378
33
0.374666
62
1
0
3DFACE
8
Supports
10
0.45748
20
0.792378
30
0.374666
11
0.463061
21
0.790347
31
0.374666
12
0.460449
22
0.775537
32
0.383349
13
0.44996
23
0.779354
33
0.383349
62
1
0
3DFACE
8
Supports
10
0.44996
20
0.779354
30
0.383349
11
0.460449
21
0.775537
31
0.383349
12
0.458511
22
0.764544
32
0.396651
13
0.444379
23
0.769688
33
0.396651
62
1
0
3DFACE
8
Supports
10
0.444379
20
0.769688
30
0.396651
11
0.458511
21
0.764544
31
0.396651
12
0.45748
22
0.758696
32
0.412969
13
0.44141
23
0.764544
33
0.412969
62
1
0
3DFACE
8
Supports
10
0.44141
20
0.764544
30
0.412969
11
0.45748
21
0.758696
31
0.412969
12
0.45748
22
0.758696
32
0.430333
13
0.44141
23
0.764544
33
0.430333
62
1
0
3DFACE
8
Supports
10
0.44141
20
0.764544
30
0.430333
11
0.45748
21
0.758696
31
0.430333
12
0.458511
22
0.764544
32
0.446651
13
0.444379
23
0.769688
33
0.446651
62
1
0
3DFACE
8
Supports
10
0.444379
20
0.769688
30
0.446651
11
0.458511
21
0.764544
31
0.446651
12
0.460449
22
0.775537
32
0.459953
13
0.44996
23
0.779354
33
0.459953
62
1
0
3DFACE
8
Supports
10
0.44996
20
0.779354
30
0.459953
11
0.460449
21
0.775537
31
0.459953
12
0.463061
22
0.790347
32
0.468636
13
0.45748
23
0.792378
33
0.468636
62
1
0
3DFACE
8
Supports
10
0.45748
20
0.792378
30
0.468636
11
0.463061
21
0.790347
31
0.468636
12
0.46603
22
0.807188
32
0.471651
13
0.46603
23
0.807188
33
0.471651
62
1
0
3DFACE
8
Supports
10
0.46603
20
0.807188
30
0.371651
11
0.46603
21
0.807188
31
0.371651
12
0.469
22
0.790347
32
0.374666
13
0.463061
23
0.790347
33
0.374666
62
1
0
3DFACE
8
Supports
10
0.463061
20
0.790347
30
0.374666
11
0.469
21
0.790347
31
0.374666
12
0.471611
22
0.775537
32
0.383349
13
0.460449
23
0.775537
33
0.383349
62
1
0
3DFACE
8
Supports
10
0.460449
20
0.775537
30
0.383349
11
0.471611
21
0.775537
31
0.383349
12
0.473549
22
0.764544
32
0.396651
13
0.458511
23
0.764544
33
0.396651
62
1
0
3DFACE
8
Supports
10
0.458511
20
0.764544
30
0.396651
11
0.473549
21
0.764544
31
0.396651
12
0.474581
22
0.758696
32
0.412969
13
0.45748
23
0.758696
33
0.412969
62
1
0
3DFACE
8
Supports
10
0.45748
20
0.758696
30
0.412969
11
0.474581
21
0.758696
31
0.412969
12
0.474581
22
0.758696
32
0.430333
13
0.45748
23
0.758696
33
0.430333
62
1
0
3DFACE
8
Supports
10
0.45748
20
0.758696
30
0.430333
11
0.474581
21
0.758696
31
0.430333
12
0.473549
22
0.764544
32
0.446651
13
0.458511
23
0.764544
33
0.446651
62
1
0
3DFACE
8
Supports
10
0.458511
20
0.764544
30
0.446651
11
0.473549
21
0.764544
31
0.446651
12
0.471611
22
0.775537
32
0.459953
13
0.460449
23
0.775537
33
0.459953
62
1
0
3DFACE
8
Supports
10
0.460449
20
0.775537
30
0.459953
11
0.471611
21
0.775537
31
0.459953
12
0.469
22
0.790347
32
0.468636
13
0.463061
23
0.790347
33
0.468636
62
1
0
3DFACE
8
Supports
10
0.463061
20
0.790347
30
0.468636
11
0.469
21
0.790347
31
0.468636
12
0.46603
22
0.807188
32
0.471651
13
0.46603
23
0.807188
33
0.471651
62
1
0
3DFACE
8
Supports
10
0.46603
20
0.807188
30
0.371651
11
0.46603
21
0.807188
31
0.371651
12
0.474581
22
0.792378
32
0.374666
13
0.469
23
0.790347
33
0.374666
62
1
0
3DFACE
8
Supports
10
0.469
20
0.790347
30
0.374666
11
0.474581
21
0.792378
31
0.374666
12
0.4821
22
0.779354
32
0.383349
13
0.471611
23
0.775537
33
0.383349
62
1
0
3DFACE
8
Supports
10
0.471611
20
0.775537
30
0.383349
11
0.4821
21
0.779354
31
0.383349
12
0.487681
22
0.769688
32
0.396651
13
0.473549
23
0.764544
33
0.396651
62
1
0
3DFACE
8
Supports
10
0.473549
20
0.764544
30
0.396651
11
0.487681
21
0.769688
31
0.396651
12
0.49065
22
0.764544
32
0.412969
13
0.474581
23
0.758696
33
0.412969
62
1
0
3DFACE
8
Supports
10
0.474581
20
0.758696
30
0.412969
11
0.49065
21
0.764544
31
0.412969
12
0.49065
22
0.764544
32
0.430333
13
0.474581
23
0.758696
33
0.430333
62
1
0
3DFACE
8
Supports
10
0.474581
20
0.758696
30
0.430333
11
0.49065
21
0.764544
31
0.430333
12
0.487681
22
0.769688
32
0.446651
13
0.473549
23
0.764544
33
0.446651
62
1
0
3DFACE
8
Supports
10
0.473549
20
0.764544
30
0.446651
11
0.487681
21
0.769688
31
0.446651
12
0.4821
22
0.779354
32
0.459953
13
0.471611
23
0.775537
33
0.459953
62
1
0
3DFACE
8
Supports
10
0.471611
20
0.775537
30
0.459953
11
0.4821
21
0.779354
31
0.459953
12
0.474581
22
0.792378
32
0.468636
13
0.469
23
0.790347
33
0.468636
62
1
0
3DFACE
8
Supports
10
0.469
20
0.790347
30
0.468636
11
0.474581
21
0.792378
31
0.468636
12
0.46603
22
0.807188
32
0.471651
13
0.46603
23
0.807188
33
0.471651
62
1
0
3DFACE
8
Supports
10
0.46603
20
0.807188
30
0.371651
11
0.46603
21
0.807188
31
0.371651
12
0.47913
22
0.796196
32
0.374666
13
0.474581
23
0.792378
33
0.374666
62
1
0
3DFACE
8
Supports
10
0.474581
20
0.792378
30
0.374666
11
0.47913
21
0.796196
31
0.374666
12
0.49065
22
0.786529
32
0.383349
13
0.4821
23
0.779354
33
0.383349
62
1
0
3DFACE
8
Supports
10
0.4821
20
0.779354
30
0.383349
11
0.49065
21
0.786529
31
0.383349
12
0.499201
22
0.779354
32
0.396651
13
0.487681
23
0.769688
33
0.396651
62
1
0
3DFACE
8
Supports
10
0.487681
20
0.769688
30
0.396651
11
0.499201
21
0.779354
31
0.396651
12
0.50375
22
0.775537
32
0.412969
13
0.49065
23
0.764544
33
0.412969
62
1
0
3DFACE
8
Supports
10
0.49065
20
0.764544
30
0.412969
11
0.50375
21
0.775537
31
0.412969
12
0.50375
22
0.775537
32
0.430333
13
0.49065
23
0.764544
33
0.430333
62
1
0
3DFACE
8
Supports
10
0.49065
20
0.764544
30
0.430333
11
0.50375
21
0.775537
31
0.430333
12
0.499201
22
0.779354
32
0.446651
13
0.487681
23
0.769688
33
0.446651
62
1
0
3DFACE
8
Supports
10
0.487681
20
0.769688
30
0.446651
11
0.499201
21
0.779354
31
0.446651
12
0.49065
22
0.786529
32
0.459953
13
0.4821
23
0.779354
33
0.459953
62
1
0
3DFACE
8
Supports
10
0.4821
20
0.779354
30
0.459953
11
0.49065
21
0.786529
31
0.459953
12
0.47913
22
0.796196
32
0.468636
13
0.474581
23
0.792378
33
0.468636
62
1
0
3DFACE
8
Supports
10
0.474581
20
0.792378
30
0.468636
11
0.47913
21
0.796196
31
0.468636
12
0.46603
22
0.807188
32
0.471651
13
0.46603
23
0.807188
33
0.471651
62
1
0
3DFACE
8
Supports
10
0.46603
20
0.807188
30
0.371651
11
0.46603
21
0.807188
31
0.371651
12
0.4821
22
0.801339
32
0.374666
13
0.47913
23
0.796196
33
0.374666
62
1
0
3DFACE
8
Supports
10
0.47913
20
0.796196
30
0.374666
11
0.4821
21
0.801339
31
0.374666
12
0.496231
22
0.796196
32
0.383349
13
0.49065
23
0.786529
33
0.383349
62
1
0
3DFACE
8
Supports
10
0.49065
20
0.786529
30
0.383349
11
0.496231
21
0.796196
31
0.383349
12
0.50672
22
0.792378
32
0.396651
13
0.499201
23
0.779354
33
0.396651
62
1
0
3DFACE
8
Supports
10
0.499201
20
0.779354
30
0.396651
11
0.50672
21
0.792378
31
0.396651
12
0.512301
22
0.790347
32
0.412969
13
0.50375
23
0.775537
33
0.412969
62
1
0
3DFACE
8
Supports
10
0.50375
20
0.775537
30
0.412969
11
0.512301
21
0.790347
31
0.412969
12
0.512301
22
0.790347
32
0.430333
13
0.50375
23
0.775537
33
0.430333
62
1
0
3DFACE
8
Supports
10
0.50375
20
0.775537
30
0.430333
11
0.512301
21
0.790347
31
0.430333
12
0.50672
22
0.792378
32
0.446651
13
0.499201
23
0.779354
33
0.446651
62
1
0
3DFACE
8
Supports
10
0.499201
20
0.779354
30
0.446651
11
0.50672
21
0.792378
31
0.446651
12
0.496231
22
0.796196
32
0.459953
13
0.49065
23
0.786529
33
0.459953
62
1
0
3DFACE
8
Supports
10
0.49065
20
0.786529
30
0.459953
11
0.496231
21
0.796196
31
0.459953
12
0.4821
22
0.801339
32
0.468636
13
0.47913
23
0.796196
33
0.468636
62
1
0
3DFACE
8
Supports
10
0.47913
20
0.796196
30
0.468636
11
0.4821
21
0.801339
31
0.468636
12
0.46603
22
0.807188
32
0.471651
13
0.46603
23
0.807188
33
0.471651
62
1
0
3DFACE
8
Supports
10
0.46603
20
0.807188
30
0.371651
11
0.46603
21
0.807188
31
0.371651
12
0.483131
22
0.807188
32
0.374666
13
0.4821
23
0.801339
33
0.374666
62
1
0
3DFACE
8
Supports
10
0.4821
20
0.801339
30
0.374666
11
0.483131
21
0.807188
31
0.374666
12
0.49817
22
0.807188
32
0.383349
13
0.496231
23
0.796196
33
0.383349
62
1
0
3DFACE
8
Supports
10
0.496231
20
0.796196
30
0.383349
11
0.49817
21
0.807188
31
0.383349
12
0.509331
22
0.807188
32
0.396651
13
0.50672
23
0.792378
33
0.396651
62
1
0
3DFACE
8
Supports
10
0.50672
20
0.792378
30
0.396651
11
0.509331
21
0.807188
31
0.396651
12
0.515271
22
0.807188
32
0.412969
13
0.512301
23
0.790347
33
0.412969
62
1
0
3DFACE
8
Supports
10
0.512301
20
0.790347
30
0.412969
11
0.515271
21
0.807188
31
0.412969
12
0.515271
22
0.807188
32
0.430333
13
0.512301
23
0.790347
33
0.430333
62
1
0
3DFACE
8
Supports
10
0.512301
20
0.790347
30
0.430333
11
0.515271
21
0.807188
31
0.430333
12
0.509331
22
0.807188
32
0.446651
13
0.50672
23
0.792378
33
0.446651
62
1
0
3DFACE
8
Supports
10
0.50672
20
0.792378
30
0.446651
11
0.509331
21
0.807188
31
0.446651
12
0.49817
22
0.807188
32
0.459953
13
0.496231
23
0.796196
33
0.459953
62
1
0
3DFACE
8
Supports
10
0.496231
20
0.796196
30
0.459953
11
0.49817
21
0.807188
31
0.459953
12
0.483131
22
0.807188
32
0.468636
13
0.4821
23
0.801339
33
0.468636
62
1
0
3DFACE
8
Supports
10
0.4821
20
0.801339
30
0.468636
11
0.483131
21
0.807188
31
0.468636
12
0.46603
22
0.807188
32
0.471651
13
0.46603
23
0.807188
33
0.471651
62
1
0
3DFACE
8
Supports
10
0.93206
20
4.78735e-05
30
-0.55
11
0.93206
21
4.78735e-05
31
-0.55
12
0.94813
22
0.00589676
32
-0.546985
13
0.949161
23
4.78735e-05
33
-0.546985
62
1
0
3DFACE
8
Supports
10
0.949161
20
4.78735e-05
30
-0.546985
11
0.94813
21
0.00589676
31
-0.546985
12
0.962261
22
0.0110402
32
-0.538302
13
0.9642
23
4.78735e-05
33
-0.538302
62
1
0
3DFACE
8
Supports
10
0.9642
20
4.78735e-05
30
-0.538302
11
0.962261
21
0.0110402
31
-0.538302
12
0.97275
22
0.0148578
32
-0.525
13
0.975362
23
4.78735e-05
33
-0.525
62
1
0
3DFACE
8
Supports
10
0.975362
20
4.78735e-05
30
-0.525
11
0.97275
21
0.0148578
31
-0.525
12
0.978331
22
0.0168891
32
-0.508682
13
0.981301
23
4.78735e-05
33
-0.508682
62
1
0
3DFACE
8
Supports
10
0.981301
20
4.78735e-05
30
-0.508682
11
0.978331
21
0.0168891
31
-0.508682
12
0.978331
22
0.0168891
32
-0.491318
13
0.981301
23
4.78735e-05
33
-0.491318
62
1
0
3DFACE
8
Supports
10
0.981301
20
4.78735e-05
30
-0.491318
11
0.978331
21
0.0168891
31
-0.491318
12
0.97275
22
0.0148578
32
-0.475
13
0.975362
23
4.78735e-05
33
-0.475
62
1
0
3DFACE
8
Supports
10
0.975362
20
4.78735e-05
30
-0.475
11
0.97275
21
0.0148578
31
-0.475
12
0.962261
22
0.0110402
32
-0.461698
13
0.9642
23
4.78735e-05
33
-0.461698
62
1
0
3DFACE
8
Supports
10
0.9642
20
4.78735e-05
30
-0.461698
11
0.962261
21
0.0110402
31
-0.461698
12
0.94813
22
0.00589676
32
-0.453015
13
0.949161
23
4.78735e-05
33
-0.453015
62
1
0
3DFACE
8
Supports
10
0.949161
20
4.78735e-05
30
-0.453015
11
0.94813
21
0.00589676
31
-0.453015
12
0.93206
22
4.78735e-05
32
-0.45
13
0.93206
23
4.78735e-05
33
-0.45
62
1
0
3DFACE
8
Supports
10
0.93206
20
4.78735e-05
30
-0.55
11
0.93206
21
4.78735e-05
31
-0.55
12
0.94516
22
0.0110402
32
-0.546985
13
0.94813
23
0.00589676
33
-0.546985
62
1
0
3DFACE
8
Supports
10
0.94813
20
0.00589676
30
-0.546985
11
0.94516
21
0.0110402
31
-0.546985
12
0.95668
22
0.0207067
32
-0.538302
13
0.962261
23
0.0110402
33
-0.538302
62
1
0
3DFACE
8
Supports
10
0.962261
20
0.0110402
30
-0.538302
11
0.95668
21
0.0207067
31
-0.538302
12
0.965231
22
0.0278814
32
-0.525
13
0.97275
23
0.0148578
33
-0.525
62
1
0
3DFACE
8
Supports
10
0.97275
20
0.0148578
30
-0.525
11
0.965231
21
0.0278814
31
-0.525
12
0.969781
22
0.031699
32
-0.508682
13
0.978331
23
0.0168891
33
-0.508682
62
1
0
3DFACE
8
Supports
10
0.978331
20
0.0168891
30
-0.508682
11
0.969781
21
0.031699
31
-0.508682
12
0.969781
22
0.031699
32
-0.491318
13
0.978331
23
0.0168891
33
-0.491318
62
1
0
3DFACE
8
Supports
10
0.978331
20
0.0168891
30
-0.491318
11
0.969781
21
0.031699
31
-0.491318
12
0.965231
22
0.0278814
32
-0.475
13
0.97275
23
0.0148578
33
-0.475
62
1
0
3DFACE
8
Supports
10
0.97275
20
0.0148578
30
-0.475
11
0.965231
21
0.0278814
31
-0.475
12
0.95668
22
0.0207067
32
-0.461698
13
0.962261
23
0.0110402
33
-0.461698
62
1
0
3DFACE
8
Supports
10
0.962261
20
0.0110402
30
-0.461698
11
0.95668
21
0.0207067
31
-0.461698
12
0.94516
22
0.0110402
32
-0.453015
13
0.94813
23
0.00589676
33
-0.453015
62
1
0
3DFACE
8
Supports
10
0.94813
20
0.00589676
30
-0.453015
11
0.94516
21
0.0110402
31
-0.453015
12
0.93206
22
4.78735e-05
32
-0.45
13
0.93206
23
4.78735e-05
33
-0.45
62
1
0
3DFACE
8
Supports
10
0.93206
20
4.78735e-05
30
-0.55
11
0.93206
21
4.78735e-05
31
-0.55
12
0.940611
22
0.0148578
32
-0.546985
13
0.94516
23
0.0110402
33
-0.546985
62
1
0
3DFACE
8
Supports
10
0.94516
20
0.0110402
30
-0.546985
11
0.940611
21
0.0148578
31
-0.546985
12
0.94813
22
0.0278814
32
-0.538302
13
0.95668
23
0.0207067
33
-0.538302
62
1
0
3DFACE
8
Supports
10
0.95668
20
0.0207067
30
-0.538302
11
0.94813
21
0.0278814
31
-0.538302
12
0.953711
22
0.0375479
32
-0.525
13
0.965231
23
0.0278814
33
-0.525
62
1
0
3DFACE
8
Supports
10
0.965231
20
0.0278814
30
-0.525
11
0.953711
21
0.0375479
31
-0.525
12
0.95668
22
0.0426913
32
-0.508682
13
0.969781
23
0.031699
33
-0.508682
62
1
0
3DFACE
8
Supports
10
0.969781
20
0.031699
30
-0.508682
11
0.95668
21
0.0426913
31
-0.508682
12
0.95668
22
0.0426913
32
-0.491318
13
0.969781
23
0.031699
33
-0.491318
62
1
0
3DFACE
8
Supports
10
0.969781
20
0.031699
30
-0.491318
11
0.95668
21
0.0426913
31
-0.491318
12
0.953711
22
0.0375479
32
-0.475
13
0.965231
23
0.0278814
33
-0.475
62
1
0
3DFACE
8
Supports
10
0.965231
20
0.0278814
30
-0.475
11
0.953711
21
0.0375479
31
-0.475
12
0.94813
22
0.0278814
32
-0.461698
13
0.95668
23
0.0207067
33
-0.461698
62
1
0
3DFACE
8
Supports
10
0.95668
20
0.0207067
30
-0.461698
11
0.94813
21
0.0278814
31
-0.461698
12
0.940611
22
0.0148578
32
-0.453015
13
0.94516
23
0.0110402
33
-0.453015
62
1
0
3DFACE
8
Supports
10
0.94516
20
0.0110402
30
-0.453015
11
0.940611
21
0.0148578
31
-0.453015
12
0.93206
22
4.78735e-05
32
-0.45
13
0.93206
23
4.78735e-05
33
-0.45
62
1
0
3DFACE
8
Supports
10
0.93206
20
4.78735e-05
30
-0.55
11
0.93206
21
4.78735e-05
31
-0.55
12
0.93503
22
0.0168891
32
-0.546985
13
0.940611
23
0.0148578
33
-0.546985
62
1
0
3DFACE
8
Supports
10
0.940611
20
0.0148578
30
-0.546985
11
0.93503
21
0.0168891
31
-0.546985
12
0.937641
22
0.031699
32
-0.538302
13
0.94813
23
0.0278814
33
-0.538302
62
1
0
3DFACE
8
Supports
10
0.94813
20
0.0278814
30
-0.538302
11
0.937641
21
0.031699
31
-0.538302
12
0.939579
22
0.0426913
32
-0.525
13
0.953711
23
0.0375479
33
-0.525
62
1
0
3DFACE
8
Supports
10
0.953711
20
0.0375479
30
-0.525
11
0.939579
21
0.0426913
31
-0.525
12
0.940611
22
0.0485402
32
-0.508682
13
0.95668
23
0.0426913
33
-0.508682
62
1
0
3DFACE
8
Supports
10
0.95668
20
0.0426913
30
-0.508682
11
0.940611
21
0.0485402
31
-0.508682
12
0.940611
22
0.0485402
32
-0.491318
13
0.95668
23
0.0426913
33
-0.491318
62
1
0
3DFACE
8
Supports
10
0.95668
20
0.0426913
30
-0.491318
11
0.940611
21
0.0485402
31
-0.491318
12
0.939579
22
0.0426913
32
-0.475
13
0.953711
23
0.0375479
33
-0.475
62
1
0
3DFACE
8
Supports
10
0.953711
20
0.0375479
30
-0.475
11
0.939579
21
0.0426913
31
-0.475
12
0.937641
22
0.031699
32
-0.461698
13
0.94813
23
0.0278814
33
-0.461698
62
1
0
3DFACE
8
Supports
10
0.94813
20
0.0278814
30
-0.461698
11
0.937641
21
0.031699
31
-0.461698
12
0.93503
22
0.0168891
32
-0.453015
13
0.940611
23
0.0148578
33
-0.453015
62
1
0
3DFACE
8
Supports
10
0.940611
20
0.0148578
30
-0.453015
11
0.93503
21
0.0168891
31
-0.453015
12
0.93206
22
4.78735e-05
32
-0.45
13
0.93206
23
4.78735e-05
33
-0.45
62
1
0
3DFACE
8
Supports
10
0.93206
20
4.78735e-05
30
-0.55
11
0.93206
21
4.78735e-05
31
-0.55
12
0.929091
22
0.0168891
32
-0.546985
13
0.93503
23
0.0168891
33
-0.546985
62
1
0
3DFACE
8
Supports
10
0.93503
20
0.0168891
30
-0.546985
11
0.929091
21
0.0168891
31
-0.546985
12
0.926479
22
0.031699
32
-0.538302
13
0.937641
23
0.031699
33
-0.538302
62
1
0
3DFACE
8
Supports
10
0.937641
20
0.031699
30
-0.538302
11
0.926479
21
0.031699
31
-0.538302
12
0.924541
22
0.0426913
32
-0.525
13
0.939579
23
0.0426913
33
-0.525
62
1
0
3DFACE
8
Supports
10
0.939579
20
0.0426913
30
-0.525
11
0.924541
21
0.0426913
31
-0.525
12
0.92351
22
0.0485402
32
-0.508682
13
0.940611
23
0.0485402
33
-0.508682
62
1
0
3DFACE
8
Supports
10
0.940611
20
0.0485402
30
-0.508682
11
0.92351
21
0.0485402
31
-0.508682
12
0.92351
22
0.0485402
32
-0.491318
13
0.940611
23
0.0485402
33
-0.491318
62
1
0
3DFACE
8
Supports
10
0.940611
20
0.0485402
30
-0.491318
11
0.92351
21
0.0485402
31
-0.491318
12
0.924541
22
0.0426913
32
-0.475
13
0.939579
23
0.0426913
33
-0.475
62
1
0
3DFACE
8
Supports
10
0.939579
20
0.0426913
30
-0.475
11
0.924541
21
0.0426913
31
-0.475
12
0.926479
22
0.031699
32
-0.461698
13
0.937641
23
0.031699
33
-0.461698
62
1
0
3DFACE
8
Supports
10
0.937641
20
0.031699
30
-0.461698
11
0.926479
21
0.031699
31
-0.461698
12
0.929091
22
0.0168891
32
-0.453015
13
0.93503
23
0.0168891
33
-0.453015
62
1
0
3DFACE
8
Supports
10
0.93503
20
0.0168891
30
-0.453015
11
0.929091
21
0.0168891
31
-0.453015
12
0.93206
22
4.78735e-05
32
-0.45
13
0.93206
23
4.78735e-05
33
-0.45
62
1
0
3DFACE
8
Supports
10
0.93206
20
4.78735e-05
30
-0.55
11
0.93206
21
4.78735e-05
31
-0.55
12
0.92351
22
0.0148578
32
-0.546985
13
0.929091
23
0.0168891
33
-0.546985
62
1
0
3DFACE
8
Supports
10
0.929091
20
0.0168891
30
-0.546985
11
0.92351
21
0.0148578
31
-0.546985
12
0.915991
22
0.0278814
32
-0.538302
13
0.926479
23
0.031699
33
-0.538302
62
1
0
3DFACE
8
Supports
10
0.926479
20
0.031699
30
-0.538302
11
0.915991
21
0.0278814
31
-0.538302
12
0.91041
22
0.0375479
32
-0.525
13
0.924541
23
0.0426913
33
-0.525
62
1
0
3DFACE
8
Supports
10
0.924541
20
0.0426913
30
-0.525
11
0.91041
21
0.0375479
31
-0.525
12
0.90744
22
0.0426913
32
-0.508682
13
0.92351
23
0.0485402
33
-0.508682
62
1
0
3DFACE
8
Supports
10
0.92351
20
0.0485402
30
-0.508682
11
0.90744
21
0.0426913
31
-0.508682
12
0.90744
22
0.0426913
32
-0.491318
13
0.92351
23
0.0485402
33
-0.491318
62
1
0
3DFACE
8
Supports
10
0.92351
20
0.0485402
30
-0.491318
11
0.90744
21
0.0426913
31
-0.491318
12
0.91041
22
0.0375479
32
-0.475
13
0.924541
23
0.0426913
33
-0.475
62
1
0
3DFACE
8
Supports
10
0.924541
20
0.0426913
30
-0.475
11
0.91041
21
0.0375479
31
-0.475
12
0.915991
22
0.0278814
32
-0.461698
13
0.926479
23
0.031699
33
-0.461698
62
1
0
3DFACE
8
Supports
10
0.926479
20
0.031699
30
-0.461698
11
0.915991
21
0.0278814
31
-0.461698
12
0.92351
22
0.0148578
32
-0.453015
13
0.929091
23
0.0168891
33
-0.453015
62
1
0
3DFACE
8
Supports
10
0.929091
20
0.0168891
30
-0.453015
11
0.92351
21
0.0148578
31
-0.453015
12
0.93206
22
4.78735e-05
32
-0.45
13
0.93206
23
4.78735e-05
33
-0.45
62
1
0
3DFACE
8
Supports
10
0.93206
20
4.78735e-05
30
-0.55
11
0.93206
21
4.78735e-05
31
-0.55
12
0.91896
22
0.0110402
32
-0.546985
13
0.92351
23
0.0148578
33
-0.546985
62
1
0
3DFACE
8
Supports
10
0.92351
20
0.0148578
30
-0.546985
11
0.91896
21
0.0110402
31
-0.546985
12
0.90744
22
0.0207067
32
-0.538302
13
0.915991
23
0.0278814
33
-0.538302
62
1
0
3DFACE
8
Supports
10
0.915991
20
0.0278814
30
-0.538302
11
0.90744
21
0.0207067
31
-0.538302
12
0.89889
22
0.0278814
32
-0.525
13
0.91041
23
0.0375479
33
-0.525
62
1
0
3DFACE
8
Supports
10
0.91041
20
0.0375479
30
-0.525
11
0.89889
21
0.0278814
31
-0.525
12
0.89434
22
0.031699
32
-0.508682
13
0.90744
23
0.0426913
33
-0.508682
62
1
0
3DFACE
8
Supports
10
0.90744
20
0.0426913
30
-0.508682
11
0.89434
21
0.031699
31
-0.508682
12
0.89434
22
0.031699
32
-0.491318
13
0.90744
23
0.0426913
33
-0.491318
62
1
0
3DFACE
8
Supports
10
0.90744
20
0.0426913
30
-0.491318
11
0.89434
21
0.031699
31
-0.491318
12
0.89889
22
0.0278814
32
-0.475
13
0.91041
23
0.0375479
33
-0.475
62
1
0
3DFACE
8
Supports
10
0.91041
20
0.0375479
30
-0.475
11
0.89889
21
0.0278814
31
-0.475
12
0.90744
22
0.0207067
32
-0.461698
13
0.915991
23
0.0278814
33
-0.461698
62
1
0
3DFACE
8
Supports
10
0.915991
20
0.0278814
30
-0.461698
11
0.90744
21
0.0207067
31
-0.461698
12
0.91896
22
0.0110402
32
-0.453015
13
0.92351
23
0.0148578
33
-0.453015
62
1
0
3DFACE
8
Supports
10
0.92351
20
0.0148578
30
-0.453015
11
0.91896
21
0.0110402
31
-0.453015
12
0.93206
22
4.78735e-05
32
-0.45
13
0.93206
23
4.78735e-05
33
-0.45
62
1
0
3DFACE
8
Supports
10
0.93206
20
4.78735e-05
30
-0.55
11
0.93206
21
4.78735e-05
31
-0.55
12
0.915991
22
0.00589676
32
-0.546985
13
0.91896
23
0.0110402
33
-0.546985
62
1
0
3DFACE
8
Supports
10
0.91896
20
0.0110402
30
-0.546985
11
0.915991
21
0.00589676
31
-0.546985
12
0.901859
22
0.0110402
32
-0.538302
13
0.90744
23
0.0207067
33
-0.538302
62
1
0
3DFACE
8
Supports
10
0.90744
20
0.0207067
30
-0.538302
11
0.901859
21
0.0110402
31
-0.538302
12
0.89137
22
0.0148578
32
-0.525
13
0.89889
23
0.0278814
33
-0.525
62
1
0
3DFACE
8
Supports
10
0.89889
20
0.0278814
30
-0.525
11
0.89137
21
0.0148578
31
-0.525
12
0.885789
22
0.0168891
32
-0.508682
13
0.89434
23
0.031699
33
-0.508682
62
1
0
3DFACE
8
Supports
10
0.89434
20
0.031699
30
-0.508682
11
0.885789
21
0.0168891
31
-0.508682
12
0.885789
22
0.0168891
32
-0.491318
13
0.89434
23
0.031699
33
-0.491318
62
1
0
3DFACE
8
Supports
10
0.89434
20
0.031699
30
-0.491318
11
0.885789
21
0.0168891
31
-0.491318
12
0.89137
22
0.0148578
32
-0.475
13
0.89889
23
0.0278814
33
-0.475
62
1
0
3DFACE
8
Supports
10
0.89889
20
0.0278814
30
-0.475
11
0.89137
21
0.0148578
31
-0.475
12
0.901859
22
0.0110402
32
-0.461698
13
0.90744
23
0.0207067
33
-0.461698
62
1
0
3DFACE
8
Supports
10
0.90744
20
0.0207067
30
-0.461698
11
0.901859
21
0.0110402
31
-0.461698
12
0.915991
22
0.00589676
32
-0.453015
13
0.91896
23
0.0110402
33
-0.453015
62
1
0
3DFACE
8
Supports
10
0.91896
20
0.0110402
30
-0.453015
11
0.915991
21
0.00589676
31
-0.453015
12
0.93206
22
4.78735e-05
32
-0.45
13
0.93206
23
4.78735e-05
33
-0.45
62
1
0
3DFACE
8
Supports
10
0.93206
20
4.78735e-05
30
-0.55
11
0.93206
21
4.78735e-05
31
-0.55
12
0.914959
22
4.78735e-05
32
-0.546985
13
0.915991
23
0.00589676
33
-0.546985
62
1
0
3DFACE
8
Supports
10
0.915991
20
0.00589676
30
-0.546985
11
0.914959
21
4.78735e-05
31
-0.546985
12
0.899921
22
4.78735e-05
32
-0.538302
13
0.901859
23
0.0110402
33
-0.538302
62
1
0
3DFACE
8
Supports
10
0.901859
20
0.0110402
30
-0.538302
11
0.899921
21
4.78735e-05
31
-0.538302
12
0.888759
22
4.78735e-05
32
-0.525
13
0.89137
23
0.0148578
33
-0.525
62
1
0
3DFACE
8
Supports
10
0.89137
20
0.0148578
30
-0.525
11
0.888759
21
4.78735e-05
31
-0.525
12
0.88282
22
4.78735e-05
32
-0.508682
13
0.885789
23
0.0168891
33
-0.508682
62
1
0
3DFACE
8
Supports
10
0.885789
20
0.0168891
30
-0.508682
11
0.88282
21
4.78735e-05
31
-0.508682
12
0.88282
22
4.78735e-05
32
-0.491318
13
0.885789
23
0.0168891
33
-0.491318
62
1
0
3DFACE
8
Supports
10
0.885789
20
0.0168891
30
-0.491318
11
0.88282
21
4.78735e-05
31
-0.491318
12
0.888759
22
4.78735e-05
32
-0.475
13
0.89137
23
0.0148578
33
-0.475
62
1
0
3DFACE
8
Supports
10
0.89137
20
0.0148578
30
-0.475
11
0.888759
21
4.78735e-05
31
-0.475
12
0.899921
22
4.78735e-05
32
-0.461698
13
0.901859
23
0.0110402
33
-0.461698
62
1
0
3DFACE
8
Supports
10
0.901859
20
0.0110402
30
-0.461698
11
0.899921
21
4.78735e-05
31
-0.461698
12
0.914959
22
4.78735e-05
32
-0.453015
13
0.915991
23
0.00589676
33
-0.453015
62
1
0
3DFACE
8
Supports
10
0.915991
20
0.00589676
30
-0.453015
11
0.914959
21
4.78735e-05
31
-0.453015
12
0.93206
22
4.78735e-05
32
-0.45
13
0.93206
23
4.78735e-05
33
-0.45
62
1
0
3DFACE
8
Supports
10
0.93206
20
4.78735e-05
30
-0.55
11
0.93206
21
4.78735e-05
31
-0.55
12
0.915991
22
-0.00580102
32
-0.546985
13
0.914959
23
4.78735e-05
33
-0.546985
62
1
0
3DFACE
8
Supports
10
0.914959
20
4.78735e-05
30
-0.546985
11
0.915991
21
-0.00580102
31
-0.546985
12
0.901859
22
-0.0109444
32
-0.538302
13
0.899921
23
4.78735e-05
33
-0.538302
62
1
0
3DFACE
8
Supports
10
0.899921
20
4.78735e-05
30
-0.538302
11
0.901859
21
-0.0109444
31
-0.538302
12
0.89137
22
-0.014762
32
-0.525
13
0.888759
23
4.78735e-05
33
-0.525
62
1
0
3DFACE
8
Supports
10
0.888759
20
4.78735e-05
30
-0.525
11
0.89137
21
-0.014762
31
-0.525
12
0.885789
22
-0.0167933
32
-0.508682
13
0.88282
23
4.78735e-05
33
-0.508682
62
1
0
3DFACE
8
Supports
10
0.88282
20
4.78735e-05
30
-0.508682
11
0.885789
21
-0.0167933
31
-0.508682
12
0.885789
22
-0.0167933
32
-0.491318
13
0.88282
23
4.78735e-05
33
-0.491318
62
1
0
3DFACE
8
Supports
10
0.88282
20
4.78735e-05
30
-0.491318
11
0.885789
21
-0.0167933
31
-0.491318
12
0.89137
22
-0.014762
32
-0.475
13
0.888759
23
4.78735e-05
33
-0.475
62
1
0
3DFACE
8
Supports
10
0.888759
20
4.78735e-05
30
-0.475
11
0.89137
21
-0.014762
31
-0.475
12
0.901859
22
-0.0109444
32
-0.461698
13
0.899921
23
4.78735e-05
33
-0.461698
62
1
0
3DFACE
8
Supports
10
0.899921
20
4.78735e-05
30
-0.461698
11
0.901859
21
-0.0109444
31
-0.461698
12
0.915991
22
-0.00580102
32
-0.453015
13
0.914959
23
4.78735e-05
33
-0.453015
62
1
0
3DFACE
8
Supports
10
0.914959
20
4.78735e-05
30
-0.453015
11
0.915991
21
-0.00580102
31
-0.453015
12
0.93206
22
4.78735e-05
32
-0.45
13
0.93206
23
4.78735e-05
33
-0.45
62
1
0
3DFACE
8
Supports
10
0.93206
20
4.78735e-05
30
-0.55
11
0.93206
21
4.78735e-05
31
-0.55
12
0.91896
22
-0.0109444
32
-0.546985
13
0.915991
23
-0.00580102
33
-0.546985
62
1
0
3DFACE
8
Supports
10
0.915991
20
-0.00580102
30
-0.546985
11
0.91896
21
-0.0109444
31
-0.546985
12
0.90744
22
-0.0206109
32
-0.538302
13
0.901859
23
-0.0109444
33
-0.538302
62
1
0
3DFACE
8
Supports
10
0.901859
20
-0.0109444
30
-0.538302
11
0.90744
21
-0.0206109
31
-0.538302
12
0.89889
22
-0.0277856
32
-0.525
13
0.89137
23
-0.014762
33
-0.525
62
1
0
3DFACE
8
Supports
10
0.89137
20
-0.014762
30
-0.525
11
0.89889
21
-0.0277856
31
-0.525
12
0.89434
22
-0.0316032
32
-0.508682
13
0.885789
23
-0.0167933
33
-0.508682
62
1
0
3DFACE
8
Supports
10
0.885789
20
-0.0167933
30
-0.508682
11
0.89434
21
-0.0316032
31
-0.508682
12
0.89434
22
-0.0316032
32
-0.491318
13
0.885789
23
-0.0167933
33
-0.491318
62
1
0
3DFACE
8
Supports
10
0.885789
20
-0.0167933
30
-0.491318
11
0.89434
21
-0.0316032
31
-0.491318
12
0.89889
22
-0.0277856
32
-0.475
13
0.89137
23
-0.014762
33
-0.475
62
1
0
3DFACE
8
Supports
10
0.89137
20
-0.014762
30
-0.475
11
0.89889
21
-0.0277856
31
-0.475
12
0.90744
22
-0.0206109
32
-0.461698
13
0.901859
23
-0.0109444
33
-0.461698
62
1
0
3DFACE
8
Supports
10
0.901859
20
-0.0109444
30
-0.461698
11
0.90744
21
-0.0206109
31
-0.461698
12
0.91896
22
-0.0109444
32
-0.453015
13
0.915991
23
-0.00580102
33
-0.453015
62
1
0
3DFACE
8
Supports
10
0.915991
20
-0.00580102
30
-0.453015
11
0.91896
21
-0.0109444
31
-0.453015
12
0.93206
22
4.78735e-05
32
-0.45
13
0.93206
23
4.78735e-05
33
-0.45
62
1
0
3DFACE
8
Supports
10
0.93206
20
4.78735e-05
30
-0.55
11
0.93206
21
4.78735e-05
31
-0.55
12
0.92351
22
-0.014762
32
-0.546985
13
0.91896
23
-0.0109444
33
-0.546985
62
1
0
3DFACE
8
Supports
10
0.91896
20
-0.0109444
30
-0.546985
11
0.92351
21
-0.014762
31
-0.546985
12
0.915991
22
-0.0277856
32
-0.538302
13
0.90744
23
-0.0206109
33
-0.538302
62
1
0
3DFACE
8
Supports
10
0.90744
20
-0.0206109
30
-0.538302
11
0.915991
21
-0.0277856
31
-0.538302
12
0.91041
22
-0.0374521
32
-0.525
13
0.89889
23
-0.0277856
33
-0.525
62
1
0
3DFACE
8
Supports
10
0.89889
20
-0.0277856
30
-0.525
11
0.91041
21
-0.0374521
31
-0.525
12
0.90744
22
-0.0425956
32
-0.508682
13
0.89434
23
-0.0316032
33
-0.508682
62
1
0
3DFACE
8
Supports
10
0.89434
20
-0.0316032
30
-0.508682
11
0.90744
21
-0.0425956
31
-0.508682
12
0.90744
22
-0.0425956
32
-0.491318
13
0.89434
23
-0.0316032
33
-0.491318
62
1
0
3DFACE
8
Supports
10
0.89434
20
-0.0316032
30
-0.491318
11
0.90744
21
-0.0425956
31
-0.491318
12
0.91041
22
-0.0374521
32
-0.475
13
0.89889
23
-0.0277856
33
-0.475
62
1
0
3DFACE
8
Supports
10
0.89889
20
-0.0277856
30
-0.475
11
0.91041
21
-0.0374521
31
-0.475
12
0.915991
22
-0.0277856
32
-0.461698
13
0.90744
23
-0.0206109
33
-0.461698
62
1
0
3DFACE
8
Supports
10
0.90744
20
-0.0206109
30
-0.461698
11
0.915991
21
-0.0277856
31
-0.461698
12
0.92351
22
-0.014762
32
-0.453015
13
0.91896
23
-0.0109444
33
-0.453015
62
1
0
3DFACE
8
Supports
10
0.91896
20
-0.0109444
30
-0.453015
11
0.92351
21
-0.014762
31
-0.453015
12
0.93206
22
4.78735e-05
32
-0.45
13
0.93206
23
4.78735e-05
33
-0.45
62
1
0
3DFACE
8
Supports
10
0.93206
20
4.78735e-05
30
-0.55
11
0.93206
21
4.78735e-05
31
-0.55
12
0.929091
22
-0.0167933
32
-0.546985
13
0.92351
23
-0.014762
33
-0.546985
62
1
0
3DFACE
8
Supports
10
0.92351
20
-0.014762
30
-0.546985
11
0.929091
21
-0.0167933
31
-0.546985
12
0.926479
22
-0.0316032
32
-0.538302
13
0.915991
23
-0.0277856
33
-0.538302
62
1
0
3DFACE
8
Supports
10
0.915991
20
-0.0277856
30
-0.538302
11
0.926479
21
-0.0316032
31
-0.538302
12
0.924541
22
-0.0425956
32
-0.525
13
0.91041
23
-0.0374521
33
-0.525
62
1
0
3DFACE
8
Supports
10
0.91041
20
-0.0374521
30
-0.525
11
0.924541
21
-0.0425956
31
-0.525
12
0.92351
22
-0.0484444
32
-0.508682
13
0.90744
23
-0.0425956
33
-0.508682
62
1
0
3DFACE
8
Supports
10
0.90744
20
-0.0425956
30
-0.508682
11
0.92351
21
-0.0484444
31
-0.508682
12
0.92351
22
-0.0484444
32
-0.491318
13
0.90744
23
-0.0425956
33
-0.491318
62
1
0
3DFACE
8
Supports
10
0.90744
20
-0.0425956
30
-0.491318
11
0.92351
21
-0.0484444
31
-0.491318
12
0.924541
22
-0.0425956
32
-0.475
13
0.91041
23
-0.0374521
33
-0.475
62
1
0
3DFACE
8
Supports
10
0.91041
20
-0.0374521
30
-0.475
11
0.924541
21
-0.0425956
31
-0.475
12
0.926479
22
-0.0316032
32
-0.461698
13
0.915991
23
-0.0277856
33
-0.461698
62
1
0
3DFACE
8
Supports
10
0.915991
20
-0.0277856
30
-0.461698
11
0.926479
21
-0.0316032
31
-0.461698
12
0.929091
22
-0.0167933
32
-0.453015
13
0.92351
23
-0.014762
33
-0.453015
62
1
0
3DFACE
8
Supports
10
0.92351
20
-0.014762
30
-0.453015
11
0.929091
21
-0.0167933
31
-0.453015
12
0.93206
22
4.78735e-05
32
-0.45
13
0.93206
23
4.78735e-05
33
-0.45
62
1
0
3DFACE
8
Supports
10
0.93206
20
4.78735e-05
30
-0.55
11
0.93206
21
4.78735e-05
31
-0.55
12
0.93503
22
-0.0167933
32
-0.546985
13
0.929091
23
-0.0167933
33
-0.546985
62
1
0
3DFACE
8
Supports
10
0.929091
20
-0.0167933
30
-0.546985
11
0.93503
21
-0.0167933
31
-0.546985
12
0.937641
22
-0.0316032
32
-0.538302
13
0.926479
23
-0.0316032
33
-0.538302
62
1
0
3DFACE
8
Supports
10
0.926479
20
-0.0316032
30
-0.538302
11
0.937641
21
-0.0316032
31
-0.538302
12
0.939579
22
-0.0425956
32
-0.525
13
0.924541
23
-0.0425956
33
-0.525
62
1
0
3DFACE
8
Supports
10
0.924541
20
-0.0425956
30
-0.525
11
0.939579
21
-0.0425956
31
-0.525
12
0.940611
22
-0.0484444
32
-0.508682
13
0.92351
23
-0.0484444
33
-0.508682
62
1
0
3DFACE
8
Supports
10
0.92351
20
-0.0484444
30
-0.508682
11
0.940611
21
-0.0484444
31
-0.508682
12
0.940611
22
-0.0484444
32
-0.491318
13
0.92351
23
-0.0484444
33
-0.491318
62
1
0
3DFACE
8
Supports
10
0.92351
20
-0.0484444
30
-0.491318
11
0.940611
21
-0.0484444
31
-0.491318
12
0.939579
22
-0.0425956
32
-0.475
13
0.924541
23
-0.0425956
33
-0.475
62
1
0
3DFACE
8
Supports
10
0.924541
20
-0.0425956
30
-0.475
11
0.939579
21
-0.0425956
31
-0.475
12
0.937641
22
-0.0316032
32
-0.461698
13
0.926479
23
-0.0316032
33
-0.461698
62
1
0
3DFACE
8
Supports
10
0.926479
20
-0.0316032
30
-0.461698
11
0.937641
21
-0.0316032
31
-0.461698
12
0.93503
22
-0.0167933
32
-0.453015
13
0.929091
23
-0.0167933
33
-0.453015
62
1
0
3DFACE
8
Supports
10
0.929091
20
-0.0167933
30
-0.453015
11
0.93503
21
-0.0167933
31
-0.453015
12
0.93206
22
4.78735e-05
32
-0.45
13
0.93206
23
4.78735e-05
33
-0.45
62
1
0
3DFACE
8
Supports
10
0.93206
20
4.78735e-05
30
-0.55
11
0.93206
21
4.78735e-05
31
-0.55
12
0.940611
22
-0.014762
32
-0.546985
13
0.93503
23
-0.0167933
33
-0.546985
62
1
0
3DFACE
8
Supports
10
0.93503
20
-0.0167933
30
-0.546985
11
0.940611
21
-0.014762
31
-0.546985
12
0.94813
22
-0.0277856
32
-0.538302
13
0.937641
23
-0.0316032
33
-0.538302
62
1
0
3DFACE
8
Supports
10
0.937641
20
-0.0316032
30
-0.538302
11
0.94813
21
-0.0277856
31
-0.538302
12
0.953711
22
-0.0374521
32
-0.525
13
0.939579
23
-0.0425956
33
-0.525
62
1
0
3DFACE
8
Supports
10
0.939579
20
-0.0425956
30
-0.525
11
0.953711
21
-0.0374521
31
-0.525
12
0.95668
22
-0.0425956
32
-0.508682
13
0.940611
23
-0.0484444
33
-0.508682
62
1
0
3DFACE
8
Supports
10
0.940611
20
-0.0484444
30
-0.508682
11
0.95668
21
-0.0425956
31
-0.508682
12
0.95668
22
-0.0425956
32
-0.491318
13
0.940611
23
-0.0484444
33
-0.491318
62
1
0
3DFACE
8
Supports
10
0.940611
20
-0.0484444
30
-0.491318
11
0.95668
21
-0.0425956
31
-0.491318
12
0.953711
22
-0.0374521
32
-0.475
13
0.939579
23
-0.0425956
33
-0.475
62
1
0
3DFACE
8
Supports
10
0.939579
20
-0.0425956
30
-0.475
11
0.953711
21
-0.0374521
31
-0.475
12
0.94813
22
-0.0277856
32
-0.461698
13
0.937641
23
-0.0316032
33
-0.461698
62
1
0
3DFACE
8
Supports
10
0.937641
20
-0.0316032
30
-0.461698
11
0.94813
21
-0.0277856
31
-0.461698
12
0.940611
22
-0.014762
32
-0.453015
13
0.93503
23
-0.0167933
33
-0.453015
62
1
0
3DFACE
8
Supports
10
0.93503
20
-0.0167933
30
-0.453015
11
0.940611
21
-0.014762
31
-0.453015
12
0.93206
22
4.78735e-05
32
-0.45
13
0.93206
23
4.78735e-05
33
-0.45
62
1
0
3DFACE
8
Supports
10
0.93206
20
4.78735e-05
30
-0.55
11
0.93206
21
4.78735e-05
31
-0.55
12
0.94516
22
-0.0109444
32
-0.546985
13
0.940611
23
-0.014762
33
-0.546985
62
1
0
3DFACE
8
Supports
10
0.940611
20
-0.014762
30
-0.546985
11
0.94516
21
-0.0109444
31
-0.546985
12
0.95668
22
-0.0206109
32
-0.538302
13
0.94813
23
-0.0277856
33
-0.538302
62
1
0
3DFACE
8
Supports
10
0.94813
20
-0.0277856
30
-0.538302
11
0.95668
21
-0.0206109
31
-0.538302
12
0.965231
22
-0.0277856
32
-0.525
13
0.953711
23
-0.0374521
33
-0.525
62
1
0
3DFACE
8
Supports
10
0.953711
20
-0.0374521
30
-0.525
11
0.965231
21
-0.0277856
31
-0.525
12
0.969781
22
-0.0316032
32
-0.508682
13
0.95668
23
-0.0425956
33
-0.508682
62
1
0
3DFACE
8
Supports
10
0.95668
20
-0.0425956
30
-0.508682
11
0.969781
21
-0.0316032
31
-0.508682
12
0.969781
22
-0.0316032
32
-0.491318
13
0.95668
23
-0.0425956
33
-0.491318
62
1
0
3DFACE
8
Supports
10
0.95668
20
-0.0425956
30
-0.491318
11
0.969781
21
-0.0316032
31
-0.491318
12
0.965231
22
-0.0277856
32
-0.475
13
0.953711
23
-0.0374521
33
-0.475
62
1
0
3DFACE
8
Supports
10
0.953711
20
-0.0374521
30
-0.475
11
0.965231
21
-0.0277856
31
-0.475
12
0.95668
22
-0.0206109
32
-0.461698
13
0.94813
23
-0.0277856
33
-0.461698
62
1
0
3DFACE
8
Supports
10
0.94813
20
-0.0277856
30
-0.461698
11
0.95668
21
-0.0206109
31
-0.461698
12
0.94516
22
-0.0109444
32
-0.453015
13
0.940611
23
-0.014762
33
-0.453015
62
1
0
3DFACE
8
Supports
10
0.940611
20
-0.014762
30
-0.453015
11
0.94516
21
-0.0109444
31
-0.453015
12
0.93206
22
4.78735e-05
32
-0.45
13
0.93206
23
4.78735e-05
33
-0.45
62
1
0
3DFACE
8
Supports
10
0.93206
20
4.78735e-05
30
-0.55
11
0.93206
21
4.78735e-05
31
-0.55
12
0.94813
22
-0.00580102
32
-0.546985
13
0.94516
23
-0.0109444
33
-0.546985
62
1
0
3DFACE
8
Supports
10
0.94516
20
-0.0109444
30
-0.546985
11
0.94813
21
-0.00580102
31
-0.546985
12
0.962261
22
-0.0109444
32
-0.538302
13
0.95668
23
-0.0206109
33
-0.538302
62
1
0
3DFACE
8
Supports
10
0.95668
20
-0.0206109
30
-0.538302
11
0.962261
21
-0.0109444
31
-0.538302
12
0.97275
22
-0.014762
32
-0.525
13
0.965231
23
-0.0277856
33
-0.525
62
1
0
3DFACE
8
Supports
10
0.965231
20
-0.0277856
30
-0.525
11
0.97275
21
-0.014762
31
-0.525
12
0.978331
22
-0.0167933
32
-0.508682
13
0.969781
23
-0.0316032
33
-0.508682
62
1
0
3DFACE
8
Supports
10
0.969781
20
-0.0316032
30
-0.508682
11
0.978331
21
-0.0167933
31
-0.508682
12
0.978331
22
-0.0167933
32
-0.491318
13
0.969781
23
-0.0316032
33
-0.491318
62
1
0
3DFACE
8
Supports
10
0.969781
20
-0.0316032
30
-0.491318
11
0.978331
21
-0.0167933
31
-0.491318
12
0.97275
22
-0.014762
32
-0.475
13
0.965231
23
-0.0277856
33
-0.475
62
1
0
3DFACE
8
Supports
10
0.965231
20
-0.0277856
30
-0.475
11
0.97275
21
-0.014762
31
-0.475
12
0.962261
22
-0.0109444
32
-0.461698
13
0.95668
23
-0.0206109
33
-0.461698
62
1
0
3DFACE
8
Supports
10
0.95668
20
-0.0206109
30
-0.461698
11
0.962261
21
-0.0109444
31
-0.461698
12
0.94813
22
-0.00580102
32
-0.453015
13
0.94516
23
-0.0109444
33
-0.453015
62
1
0
3DFACE
8
Supports
10
0.94516
20
-0.0109444
30
-0.453015
11
0.94813
21
-0.00580102
31
-0.453015
12
0.93206
22
4.78735e-05
32
-0.45
13
0.93206
23
4.78735e-05
33
-0.45
62
1
0
3DFACE
8
Supports
10
0.93206
20
4.78735e-05
30
-0.55
11
0.93206
21
4.78735e-05
31
-0.55
12
0.949161
22
4.78735e-05
32
-0.546985
13
0.94813
23
-0.00580102
33
-0.546985
62
1
0
3DFACE
8
Supports
10
0.94813
20
-0.00580102
30
-0.546985
11
0.949161
21
4.78735e-05
31
-0.546985
12
0.9642
22
4.78735e-05
32
-0.538302
13
0.962261
23
-0.0109444
33
-0.538302
62
1
0
3DFACE
8
Supports
10
0.962261
20
-0.0109444
30
-0.538302
11
0.9642
21
4.78735e-05
31
-0.538302
12
0.975362
22
4.78735e-05
32
-0.525
13
0.97275
23
-0.014762
33
-0.525
62
1
0
3DFACE
8
Supports
10
0.97275
20
-0.014762
30
-0.525
11
0.975362
21
4.78735e-05
31
-0.525
12
0.981301
22
4.78735e-05
32
-0.508682
13
0.978331
23
-0.0167933
33
-0.508682
62
1
0
3DFACE
8
Supports
10
0.978331
20
-0.0167933
30
-0.508682
11
0.981301
21
4.78735e-05
31
-0.508682
12
0.981301
22
4.78735e-05
32
-0.491318
13
0.978331
23
-0.0167933
33
-0.491318
62
1
0
3DFACE
8
Supports
10
0.978331
20
-0.0167933
30
-0.491318
11
0.981301
21
4.78735e-05
31
-0.491318
12
0.975362
22
4.78735e-05
32
-0.475
13
0.97275
23
-0.014762
33
-0.475
62
1
0
3DFACE
8
Supports
10
0.97275
20
-0.014762
30
-0.475
11
0.975362
21
4.78735e-05
31
-0.475
12
0.9642
22
4.78735e-05
32
-0.461698
13
0.962261
23
-0.0109444
33
-0.461698
62
1
0
3DFACE
8
Supports
10
0.962261
20
-0.0109444
30
-0.461698
11
0.9642
21
4.78735e-05
31
-0.461698
12
0.949161
22
4.78735e-05
32
-0.453015
13
0.94813
23
-0.00580102
33
-0.453015
62
1
0
3DFACE
8
Supports
10
0.94813
20
-0.00580102
30
-0.453015
11
0.949161
21
4.78735e-05
31
-0.453015
12
0.93206
22
4.78735e-05
32
-0.45
13
0.93206
23
4.78735e-05
33
-0.45
62
1
0
3DFACE
8
Supports
10
-0.465989
20
-0.807212
30
-0.55
11
-0.465989
21
-0.807212
31
-0.55
12
-0.449919
22
-0.801363
32
-0.546985
13
-0.448888
23
-0.807212
33
-0.546985
62
1
0
3DFACE
8
Supports
10
-0.448888
20
-0.807212
30
-0.546985
11
-0.449919
21
-0.801363
31
-0.546985
12
-0.435788
22
-0.796219
32
-0.538302
13
-0.433849
23
-0.807212
33
-0.538302
62
1
0
3DFACE
8
Supports
10
-0.433849
20
-0.807212
30
-0.538302
11
-0.435788
21
-0.796219
31
-0.538302
12
-0.425299
22
-0.792402
32
-0.525
13
-0.422687
23
-0.807212
33
-0.525
62
1
0
3DFACE
8
Supports
10
-0.422687
20
-0.807212
30
-0.525
11
-0.425299
21
-0.792402
31
-0.525
12
-0.419718
22
-0.790371
32
-0.508682
13
-0.416748
23
-0.807212
33
-0.508682
62
1
0
3DFACE
8
Supports
10
-0.416748
20
-0.807212
30
-0.508682
11
-0.419718
21
-0.790371
31
-0.508682
12
-0.419718
22
-0.790371
32
-0.491318
13
-0.416748
23
-0.807212
33
-0.491318
62
1
0
3DFACE
8
Supports
10
-0.416748
20
-0.807212
30
-0.491318
11
-0.419718
21
-0.790371
31
-0.491318
12
-0.425299
22
-0.792402
32
-0.475
13
-0.422687
23
-0.807212
33
-0.475
62
1
0
3DFACE
8
Supports
10
-0.422687
20
-0.807212
30
-0.475
11
-0.425299
21
-0.792402
31
-0.475
12
-0.435788
22
-0.796219
32
-0.461698
13
-0.433849
23
-0.807212
33
-0.461698
62
1
0
3DFACE
8
Supports
10
-0.433849
20
-0.807212
30
-0.461698
11
-0.435788
21
-0.796219
31
-0.461698
12
-0.449919
22
-0.801363
32
-0.453015
13
-0.448888
23
-0.807212
33
-0.453015
62
1
0
3DFACE
8
Supports
10
-0.448888
20
-0.807212
30
-0.453015
11
-0.449919
21
-0.801363
31
-0.453015
12
-0.465989
22
-0.807212
32
-0.45
13
-0.465989
23
-0.807212
33
-0.45
62
1
0
3DFACE
8
Supports
10
-0.465989
20
-0.807212
30
-0.55
11
-0.465989
21
-0.807212
31
-0.55
12
-0.452889
22
-0.796219
32
-0.546985
13
-0.449919
23
-0.801363
33
-0.546985
62
1
0
3DFACE
8
Supports
10
-0.449919
20
-0.801363
30
-0.546985
11
-0.452889
21
-0.796219
31
-0.546985
12
-0.441368
22
-0.786553
32
-0.538302
13
-0.435788
23
-0.796219
33
-0.538302
62
1
0
3DFACE
8
Supports
10
-0.435788
20
-0.796219
30
-0.538302
11
-0.441368
21
-0.786553
31
-0.538302
12
-0.432818
22
-0.779378
32
-0.525
13
-0.425299
23
-0.792402
33
-0.525
62
1
0
3DFACE
8
Supports
10
-0.425299
20
-0.792402
30
-0.525
11
-0.432818
21
-0.779378
31
-0.525
12
-0.428268
22
-0.775561
32
-0.508682
13
-0.419718
23
-0.790371
33
-0.508682
62
1
0
3DFACE
8
Supports
10
-0.419718
20
-0.790371
30
-0.508682
11
-0.428268
21
-0.775561
31
-0.508682
12
-0.428268
22
-0.775561
32
-0.491318
13
-0.419718
23
-0.790371
33
-0.491318
62
1
0
3DFACE
8
Supports
10
-0.419718
20
-0.790371
30
-0.491318
11
-0.428268
21
-0.775561
31
-0.491318
12
-0.432818
22
-0.779378
32
-0.475
13
-0.425299
23
-0.792402
33
-0.475
62
1
0
3DFACE
8
Supports
10
-0.425299
20
-0.792402
30
-0.475
11
-0.432818
21
-0.779378
31
-0.475
12
-0.441368
22
-0.786553
32
-0.461698
13
-0.435788
23
-0.796219
33
-0.461698
62
1
0
3DFACE
8
Supports
10
-0.435788
20
-0.796219
30
-0.461698
11
-0.441368
21
-0.786553
31
-0.461698
12
-0.452889
22
-0.796219
32
-0.453015
13
-0.449919
23
-0.801363
33
-0.453015
62
1
0
3DFACE
8
Supports
10
-0.449919
20
-0.801363
30
-0.453015
11
-0.452889
21
-0.796219
31
-0.453015
12
-0.465989
22
-0.807212
32
-0.45
13
-0.465989
23
-0.807212
33
-0.45
62
1
0
3DFACE
8
Supports
10
-0.465989
20
-0.807212
30
-0.55
11
-0.465989
21
-0.807212
31
-0.55
12
-0.457438
22
-0.792402
32
-0.546985
13
-0.452889
23
-0.796219
33
-0.546985
62
1
0
3DFACE
8
Supports
10
-0.452889
20
-0.796219
30
-0.546985
11
-0.457438
21
-0.792402
31
-0.546985
12
-0.449919
22
-0.779378
32
-0.538302
13
-0.441368
23
-0.786553
33
-0.538302
62
1
0
3DFACE
8
Supports
10
-0.441368
20
-0.786553
30
-0.538302
11
-0.449919
21
-0.779378
31
-0.538302
12
-0.444338
22
-0.769712
32
-0.525
13
-0.432818
23
-0.779378
33
-0.525
62
1
0
3DFACE
8
Supports
10
-0.432818
20
-0.779378
30
-0.525
11
-0.444338
21
-0.769712
31
-0.525
12
-0.441368
22
-0.764568
32
-0.508682
13
-0.428268
23
-0.775561
33
-0.508682
62
1
0
3DFACE
8
Supports
10
-0.428268
20
-0.775561
30
-0.508682
11
-0.441368
21
-0.764568
31
-0.508682
12
-0.441368
22
-0.764568
32
-0.491318
13
-0.428268
23
-0.775561
33
-0.491318
62
1
0
3DFACE
8
Supports
10
-0.428268
20
-0.775561
30
-0.491318
11
-0.441368
21
-0.764568
31
-0.491318
12
-0.444338
22
-0.769712
32
-0.475
13
-0.432818
23
-0.779378
33
-0.475
62
1
0
3DFACE
8
Supports
10
-0.432818
20
-0.779378
30
-0.475
11
-0.444338
21
-0.769712
31
-0.475
12
-0.449919
22
-0.779378
32
-0.461698
13
-0.441368
23
-0.786553
33
-0.461698
62
1
0
3DFACE
8
Supports
10
-0.441368
20
-0.786553
30
-0.461698
11
-0.449919
21
-0.779378
31
-0.461698
12
-0.457438
22
-0.792402
32
-0.453015
13
-0.452889
23
-0.796219
33
-0.453015
62
1
0
3DFACE
8
Supports
10
-0.452889
20
-0.796219
30
-0.453015
11
-0.457438
21
-0.792402
31
-0.453015
12
-0.465989
22
-0.807212
32
-0.45
13
-0.465989
23
-0.807212
33
-0.45
62
1
0
3DFACE
8
Supports
10
-0.465989
20
-0.807212
30
-0.55
11
-0.465989
21
-0.807212
31
-0.55
12
-0.463019
22
-0.790371
32
-0.546985
13
-0.457438
23
-0.792402
33
-0.546985
62
1
0
3DFACE
8
Supports
10
-0.457438
20
-0.792402
30
-0.546985
11
-0.463019
21
-0.790371
31
-0.546985
12
-0.460408
22
-0.775561
32
-0.538302
13
-0.449919
23
-0.779378
33
-0.538302
62
1
0
3DFACE
8
Supports
10
-0.449919
20
-0.779378
30
-0.538302
11
-0.460408
21
-0.775561
31
-0.538302
12
-0.458469
22
-0.764568
32
-0.525
13
-0.444338
23
-0.769712
33
-0.525
62
1
0
3DFACE
8
Supports
10
-0.444338
20
-0.769712
30
-0.525
11
-0.458469
21
-0.764568
31
-0.525
12
-0.457438
22
-0.758719
32
-0.508682
13
-0.441368
23
-0.764568
33
-0.508682
62
1
0
3DFACE
8
Supports
10
-0.441368
20
-0.764568
30
-0.508682
11
-0.457438
21
-0.758719
31
-0.508682
12
-0.457438
22
-0.758719
32
-0.491318
13
-0.441368
23
-0.764568
33
-0.491318
62
1
0
3DFACE
8
Supports
10
-0.441368
20
-0.764568
30
-0.491318
11
-0.457438
21
-0.758719
31
-0.491318
12
-0.458469
22
-0.764568
32
-0.475
13
-0.444338
23
-0.769712
33
-0.475
62
1
0
3DFACE
8
Supports
10
-0.444338
20
-0.769712
30
-0.475
11
-0.458469
21
-0.764568
31
-0.475
12
-0.460408
22
-0.775561
32
-0.461698
13
-0.449919
23
-0.779378
33
-0.461698
62
1
0
3DFACE
8
Supports
10
-0.449919
20
-0.779378
30
-0.461698
11
-0.460408
21
-0.775561
31
-0.461698
12
-0.463019
22
-0.790371
32
-0.453015
13
-0.457438
23
-0.792402
33
-0.453015
62
1
0
3DFACE
8
Supports
10
-0.457438
20
-0.792402
30
-0.453015
11
-0.463019
21
-0.790371
31
-0.453015
12
-0.465989
22
-0.807212
32
-0.45
13
-0.465989
23
-0.807212
33
-0.45
62
1
0
3DFACE
8
Supports
10
-0.465989
20
-0.807212
30
-0.55
11
-0.465989
21
-0.807212
31
-0.55
12
-0.468958
22
-0.790371
32
-0.546985
13
-0.463019
23
-0.790371
33
-0.546985
62
1
0
3DFACE
8
Supports
10
-0.463019
20
-0.790371
30
-0.546985
11
-0.468958
21
-0.790371
31
-0.546985
12
-0.47157
22
-0.775561
32
-0.538302
13
-0.460408
23
-0.775561
33
-0.538302
62
1
0
3DFACE
8
Supports
10
-0.460408
20
-0.775561
30
-0.538302
11
-0.47157
21
-0.775561
31
-0.538302
12
-0.473508
22
-0.764568
32
-0.525
13
-0.458469
23
-0.764568
33
-0.525
62
1
0
3DFACE
8
Supports
10
-0.458469
20
-0.764568
30
-0.525
11
-0.473508
21
-0.764568
31
-0.525
12
-0.474539
22
-0.758719
32
-0.508682
13
-0.457438
23
-0.758719
33
-0.508682
62
1
0
3DFACE
8
Supports
10
-0.457438
20
-0.758719
30
-0.508682
11
-0.474539
21
-0.758719
31
-0.508682
12
-0.474539
22
-0.758719
32
-0.491318
13
-0.457438
23
-0.758719
33
-0.491318
62
1
0
3DFACE
8
Supports
10
-0.457438
20
-0.758719
30
-0.491318
11
-0.474539
21
-0.758719
31
-0.491318
12
-0.473508
22
-0.764568
32
-0.475
13
-0.458469
23
-0.764568
33
-0.475
62
1
0
3DFACE
8
Supports
10
-0.458469
20
-0.764568
30
-0.475
11
-0.473508
21
-0.764568
31
-0.475
12
-0.47157
22
-0.775561
32
-0.461698
13
-0.460408
23
-0.775561
33
-0.461698
62
1
0
3DFACE
8
Supports
10
-0.460408
20
-0.775561
30
-0.461698
11
-0.47157
21
-0.775561
31
-0.461698
12
-0.468958
22
-0.790371
32
-0.453015
13
-0.463019
23
-0.790371
33
-0.453015
62
1
0
3DFACE
8
Supports
10
-0.463019
20
-0.790371
30
-0.453015
11
-0.468958
21
-0.790371
31
-0.453015
12
-0.465989
22
-0.807212
32
-0.45
13
-0.465989
23
-0.807212
33
-0.45
62
1
0
3DFACE
8
Supports
10
-0.465989
20
-0.807212
30
-0.55
11
-0.465989
21
-0.807212
31
-0.55
12
-0.474539
22
-0.792402
32
-0.546985
13
-0.468958
23
-0.790371
33
-0.546985
62
1
0
3DFACE
8
Supports
10
-0.468958
20
-0.790371
30
-0.546985
11
-0.474539
21
-0.792402
31
-0.546985
12
-0.482058
22
-0.779378
32
-0.538302
13
-0.47157
23
-0.775561
33
-0.538302
62
1
0
3DFACE
8
Supports
10
-0.47157
20
-0.775561
30
-0.538302
11
-0.482058
21
-0.779378
31
-0.538302
12
-0.487639
22
-0.769712
32
-0.525
13
-0.473508
23
-0.764568
33
-0.525
62
1
0
3DFACE
8
Supports
10
-0.473508
20
-0.764568
30
-0.525
11
-0.487639
21
-0.769712
31
-0.525
12
-0.490609
22
-0.764568
32
-0.508682
13
-0.474539
23
-0.758719
33
-0.508682
62
1
0
3DFACE
8
Supports
10
-0.474539
20
-0.758719
30
-0.508682
11
-0.490609
21
-0.764568
31
-0.508682
12
-0.490609
22
-0.764568
32
-0.491318
13
-0.474539
23
-0.758719
33
-0.491318
62
1
0
3DFACE
8
Supports
10
-0.474539
20
-0.758719
30
-0.491318
11
-0.490609
21
-0.764568
31
-0.491318
12
-0.487639
22
-0.769712
32
-0.475
13
-0.473508
23
-0.764568
33
-0.475
62
1
0
3DFACE
8
Supports
10
-0.473508
20
-0.764568
30
-0.475
11
-0.487639
21
-0.769712
31
-0.475
12
-0.482058
22
-0.779378
32
-0.461698
13
-0.47157
23
-0.775561
33
-0.461698
62
1
0
3DFACE
8
Supports
10
-0.47157
20
-0.775561
30
-0.461698
11
-0.482058
21
-0.779378
31
-0.461698
12
-0.474539
22
-0.792402
32
-0.453015
13
-0.468958
23
-0.790371
33
-0.453015
62
1
0
3DFACE
8
Supports
10
-0.468958
20
-0.790371
30
-0.453015
11
-0.474539
21
-0.792402
31
-0.453015
12
-0.465989
22
-0.807212
32
-0.45
13
-0.465989
23
-0.807212
33
-0.45
62
1
0
3DFACE
8
Supports
10
-0.465989
20
-0.807212
30
-0.55
11
-0.465989
21
-0.807212
31
-0.55
12
-0.479089
22
-0.796219
32
-0.546985
13
-0.474539
23
-0.792402
33
-0.546985
62
1
0
3DFACE
8
Supports
10
-0.474539
20
-0.792402
30
-0.546985
11
-0.479089
21
-0.796219
31
-0.546985
12
-0.490609
22
-0.786553
32
-0.538302
13
-0.482058
23
-0.779378
33
-0.538302
62
1
0
3DFACE
8
Supports
10
-0.482058
20
-0.779378
30
-0.538302
11
-0.490609
21
-0.786553
31
-0.538302
12
-0.499159
22
-0.779378
32
-0.525
13
-0.487639
23
-0.769712
33
-0.525
62
1
0
3DFACE
8
Supports
10
-0.487639
20
-0.769712
30
-0.525
11
-0.499159
21
-0.779378
31
-0.525
12
-0.503709
22
-0.775561
32
-0.508682
13
-0.490609
23
-0.764568
33
-0.508682
62
1
0
3DFACE
8
Supports
10
-0.490609
20
-0.764568
30
-0.508682
11
-0.503709
21
-0.775561
31
-0.508682
12
-0.503709
22
-0.775561
32
-0.491318
13
-0.490609
23
-0.764568
33
-0.491318
62
1
0
3DFACE
8
Supports
10
-0.490609
20
-0.764568
30
-0.491318
11
-0.503709
21
-0.775561
31
-0.491318
12
-0.499159
22
-0.779378
32
-0.475
13
-0.487639
23
-0.769712
33
-0.475
62
1
0
3DFACE
8
Supports
10
-0.487639
20
-0.769712
30
-0.475
11
-0.499159
21
-0.779378
31
-0.475
12
-0.490609
22
-0.786553
32
-0.461698
13
-0.482058
23
-0.779378
33
-0.461698
62
1
0
3DFACE
8
Supports
10
-0.482058
20
-0.779378
30
-0.461698
11
-0.490609
21
-0.786553
31
-0.461698
12
-0.479089
22
-0.796219
32
-0.453015
13
-0.474539
23
-0.792402
33
-0.453015
62
1
0
3DFACE
8
Supports
10
-0.474539
20
-0.792402
30
-0.453015
11
-0.479089
21
-0.796219
31
-0.453015
12
-0.465989
22
-0.807212
32
-0.45
13
-0.465989
23
-0.807212
33
-0.45
62
1
0
3DFACE
8
Supports
10
-0.465989
20
-0.807212
30
-0.55
11
-0.465989
21
-0.807212
31
-0.55
12
-0.482058
22
-0.801363
32
-0.546985
13
-0.479089
23
-0.796219
33
-0.546985
62
1
0
3DFACE
8
Supports
10
-0.479089
20
-0.796219
30
-0.546985
11
-0.482058
21
-0.801363
31
-0.546985
12
-0.49619
22
-0.796219
32
-0.538302
13
-0.490609
23
-0.786553
33
-0.538302
62
1
0
3DFACE
8
Supports
10
-0.490609
20
-0.786553
30
-0.538302
11
-0.49619
21
-0.796219
31
-0.538302
12
-0.506679
22
-0.792402
32
-0.525
13
-0.499159
23
-0.779378
33
-0.525
62
1
0
3DFACE
8
Supports
10
-0.499159
20
-0.779378
30
-0.525
11
-0.506679
21
-0.792402
31
-0.525
12
-0.512259
22
-0.790371
32
-0.508682
13
-0.503709
23
-0.775561
33
-0.508682
62
1
0
3DFACE
8
Supports
10
-0.503709
20
-0.775561
30
-0.508682
11
-0.512259
21
-0.790371
31
-0.508682
12
-0.512259
22
-0.790371
32
-0.491318
13
-0.503709
23
-0.775561
33
-0.491318
62
1
0
3DFACE
8
Supports
10
-0.503709
20
-0.775561
30
-0.491318
11
-0.512259
21
-0.790371
31
-0.491318
12
-0.506679
22
-0.792402
32
-0.475
13
-0.499159
23
-0.779378
33
-0.475
62
1
0
3DFACE
8
Supports
10
-0.499159
20
-0.779378
30
-0.475
11
-0.506679
21
-0.792402
31
-0.475
12
-0.49619
22
-0.796219
32
-0.461698
13
-0.490609
23
-0.786553
33
-0.461698
62
1
0
3DFACE
8
Supports
10
-0.490609
20
-0.786553
30
-0.461698
11
-0.49619
21
-0.796219
31
-0.461698
12
-0.482058
22
-0.801363
32
-0.453015
13
-0.479089
23
-0.796219
33
-0.453015
62
1
0
3DFACE
8
Supports
10
-0.479089
20
-0.796219
30
-0.453015
11
-0.482058
21
-0.801363
31
-0.453015
12
-0.465989
22
-0.807212
32
-0.45
13
-0.465989
23
-0.807212
33
-0.45
62
1
0
3DFACE
8
Supports
10
-0.465989
20
-0.807212
30
-0.55
11
-0.465989
21
-0.807212
31
-0.55
12
-0.48309
22
-0.807212
32
-0.546985
13
-0.482058
23
-0.801363
33
-0.546985
62
1
0
3DFACE
8
Supports
10
-0.482058
20
-0.801363
30
-0.546985
11
-0.48309
21
-0.807212
31
-0.546985
12
-0.498128
22
-0.807212
32
-0.538302
13
-0.49619
23
-0.796219
33
-0.538302
62
1
0
3DFACE
8
Supports
10
-0.49619
20
-0.796219
30
-0.538302
11
-0.498128
21
-0.807212
31
-0.538302
12
-0.50929
22
-0.807212
32
-0.525
13
-0.506679
23
-0.792402
33
-0.525
62
1
0
3DFACE
8
Supports
10
-0.506679
20
-0.792402
30
-0.525
11
-0.50929
21
-0.807212
31
-0.525
12
-0.515229
22
-0.807212
32
-0.508682
13
-0.512259
23
-0.790371
33
-0.508682
62
1
0
3DFACE
8
Supports
10
-0.512259
20
-0.790371
30
-0.508682
11
-0.515229
21
-0.807212
31
-0.508682
12
-0.515229
22
-0.807212
32
-0.491318
13
-0.512259
23
-0.790371
33
-0.491318
62
1
0
3DFACE
8
Supports
10
-0.512259
20
-0.790371
30
-0.491318
11
-0.515229
21
-0.807212
31
-0.491318
12
-0.50929
22
-0.807212
32
-0.475
13
-0.506679
23
-0.792402
33
-0.475
62
1
0
3DFACE
8
Supports
10
-0.506679
20
-0.792402
30
-0.475
11
-0.50929
21
-0.807212
31
-0.475
12
-0.498128
22
-0.807212
32
-0.461698
13
-0.49619
23
-0.796219
33
-0.461698
62
1
0
3DFACE
8
Supports
10
-0.49619
20
-0.796219
30
-0.461698
11
-0.498128
21
-0.807212
31
-0.461698
12
-0.48309
22
-0.807212
32
-0.453015
13
-0.482058
23
-0.801363
33
-0.453015
62
1
0
3DFACE
8
Supports
10
-0.482058
20
-0.801363
30
-0.453015
11
-0.48309
21
-0.807212
31
-0.453015
12
-0.465989
22
-0.807212
32
-0.45
13
-0.465989
23
-0.807212
33
-0.45
62
1
0
3DFACE
8
Supports
10
-0.465989
20
-0.807212
30
-0.55
11
-0.465989
21
-0.807212
31
-0.55
12
-0.482058
22
-0.813061
32
-0.546985
13
-0.48309
23
-0.807212
33
-0.546985
62
1
0
3DFACE
8
Supports
10
-0.48309
20
-0.807212
30
-0.546985
11
-0.482058
21
-0.813061
31
-0.546985
12
-0.49619
22
-0.818204
32
-0.538302
13
-0.498128
23
-0.807212
33
-0.538302
62
1
0
3DFACE
8
Supports
10
-0.498128
20
-0.807212
30
-0.538302
11
-0.49619
21
-0.818204
31
-0.538302
12
-0.506679
22
-0.822022
32
-0.525
13
-0.50929
23
-0.807212
33
-0.525
62
1
0
3DFACE
8
Supports
10
-0.50929
20
-0.807212
30
-0.525
11
-0.506679
21
-0.822022
31
-0.525
12
-0.512259
22
-0.824053
32
-0.508682
13
-0.515229
23
-0.807212
33
-0.508682
62
1
0
3DFACE
8
Supports
10
-0.515229
20
-0.807212
30
-0.508682
11
-0.512259
21
-0.824053
31
-0.508682
12
-0.512259
22
-0.824053
32
-0.491318
13
-0.515229
23
-0.807212
33
-0.491318
62
1
0
3DFACE
8
Supports
10
-0.515229
20
-0.807212
30
-0.491318
11
-0.512259
21
-0.824053
31
-0.491318
12
-0.506679
22
-0.822022
32
-0.475
13
-0.50929
23
-0.807212
33
-0.475
62
1
0
3DFACE
8
Supports
10
-0.50929
20
-0.807212
30
-0.475
11
-0.506679
21
-0.822022
31
-0.475
12
-0.49619
22
-0.818204
32
-0.461698
13
-0.498128
23
-0.807212
33
-0.461698
62
1
0
3DFACE
8
Supports
10
-0.498128
20
-0.807212
30
-0.461698
11
-0.49619
21
-0.818204
31
-0.461698
12
-0.482058
22
-0.813061
32
-0.453015
13
-0.48309
23
-0.807212
33
-0.453015
62
1
0
3DFACE
8
Supports
10
-0.48309
20
-0.807212
30
-0.453015
11
-0.482058
21
-0.813061
31
-0.453015
12
-0.465989
22
-0.807212
32
-0.45
13
-0.465989
23
-0.807212
33
-0.45
62
1
0
3DFACE
8
Supports
10
-0.465989
20
-0.807212
30
-0.55
11
-0.465989
21
-0.807212
31
-0.55
12
-0.479089
22
-0.818204
32
-0.546985
13
-0.482058
23
-0.813061
33
-0.546985
62
1
0
3DFACE
8
Supports
10
-0.482058
20
-0.813061
30
-0.546985
11
-0.479089
21
-0.818204
31
-0.546985
12
-0.490609
22
-0.827871
32
-0.538302
13
-0.49619
23
-0.818204
33
-0.538302
62
1
0
3DFACE
8
Supports
10
-0.49619
20
-0.818204
30
-0.538302
11
-0.490609
21
-0.827871
31
-0.538302
12
-0.499159
22
-0.835045
32
-0.525
13
-0.506679
23
-0.822022
33
-0.525
62
1
0
3DFACE
8
Supports
10
-0.506679
20
-0.822022
30
-0.525
11
-0.499159
21
-0.835045
31
-0.525
12
-0.503709
22
-0.838863
32
-0.508682
13
-0.512259
23
-0.824053
33
-0.508682
62
1
0
3DFACE
8
Supports
10
-0.512259
20
-0.824053
30
-0.508682
11
-0.503709
21
-0.838863
31
-0.508682
12
-0.503709
22
-0.838863
32
-0.491318
13
-0.512259
23
-0.824053
33
-0.491318
62
1
0
3DFACE
8
Supports
10
-0.512259
20
-0.824053
30
-0.491318
11
-0.503709
21
-0.838863
31
-0.491318
12
-0.499159
22
-0.835045
32
-0.475
13
-0.506679
23
-0.822022
33
-0.475
62
1
0
3DFACE
8
Supports
10
-0.506679
20
-0.822022
30
-0.475
11
-0.499159
21
-0.835045
31
-0.475
12
-0.490609
22
-0.827871
32
-0.461698
13
-0.49619
23
-0.818204
33
-0.461698
62
1
0
3DFACE
8
Supports
10
-0.49619
20
-0.818204
30
-0.461698
11
-0.490609
21
-0.827871
31
-0.461698
12
-0.479089
22
-0.818204
32
-0.453015
13
-0.482058
23
-0.813061
33
-0.453015
62
1
0
3DFACE
8
Supports
10
-0.482058
20
-0.813061
30
-0.453015
11
-0.479089
21
-0.818204
31
-0.453015
12
-0.465989
22
-0.807212
32
-0.45
13
-0.465989
23
-0.807212
33
-0.45
62
1
0
3DFACE
8
Supports
10
-0.465989
20
-0.807212
30
-0.55
11
-0.465989
21
-0.807212
31
-0.55
12
-0.474539
22
-0.822022
32
-0.546985
13
-0.479089
23
-0.818204
33
-0.546985
62
1
0
3DFACE
8
Supports
10
-0.479089
20
-0.818204
30
-0.546985
11
-0.474539
21
-0.822022
31
-0.546985
12
-0.482058
22
-0.835045
32
-0.538302
13
-0.490609
23
-0.827871
33
-0.538302
62
1
0
3DFACE
8
Supports
10
-0.490609
20
-0.827871
30
-0.538302
11
-0.482058
21
-0.835045
31
-0.538302
12
-0.487639
22
-0.844712
32
-0.525
13
-0.499159
23
-0.835045
33
-0.525
62
1
0
3DFACE
8
Supports
10
-0.499159
20
-0.835045
30
-0.525
11
-0.487639
21
-0.844712
31
-0.525
12
-0.490609
22
-0.849855
32
-0.508682
13
-0.503709
23
-0.838863
33
-0.508682
62
1
0
3DFACE
8
Supports
10
-0.503709
20
-0.838863
30
-0.508682
11
-0.490609
21
-0.849855
31
-0.508682
12
-0.490609
22
-0.849855
32
-0.491318
13
-0.503709
23
-0.838863
33
-0.491318
62
1
0
3DFACE
8
Supports
10
-0.503709
20
-0.838863
30
-0.491318
11
-0.490609
21
-0.849855
31
-0.491318
12
-0.487639
22
-0.844712
32
-0.475
13
-0.499159
23
-0.835045
33
-0.475
62
1
0
3DFACE
8
Supports
10
-0.499159
20
-0.835045
30
-0.475
11
-0.487639
21
-0.844712
31
-0.475
12
-0.482058
22
-0.835045
32
-0.461698
13
-0.490609
23
-0.827871
33
-0.461698
62
1
0
3DFACE
8
Supports
10
-0.490609
20
-0.827871
30
-0.461698
11
-0.482058
21
-0.835045
31
-0.461698
12
-0.474539
22
-0.822022
32
-0.453015
13
-0.479089
23
-0.818204
33
-0.453015
62
1
0
3DFACE
8
Supports
10
-0.479089
20
-0.818204
30
-0.453015
11
-0.474539
21
-0.822022
31
-0.453015
12
-0.465989
22
-0.807212
32
-0.45
13
-0.465989
23
-0.807212
33
-0.45
62
1
0
3DFACE
8
Supports
10
-0.465989
20
-0.807212
30
-0.55
11
-0.465989
21
-0.807212
31
-0.55
12
-0.468958
22
-0.824053
32
-0.546985
13
-0.474539
23
-0.822022
33
-0.546985
62
1
0
3DFACE
8
Supports
10
-0.474539
20
-0.822022
30
-0.546985
11
-0.468958
21
-0.824053
31
-0.546985
12
-0.47157
22
-0.838863
32
-0.538302
13
-0.482058
23
-0.835045
33
-0.538302
62
1
0
3DFACE
8
Supports
10
-0.482058
20
-0.835045
30
-0.538302
11
-0.47157
21
-0.838863
31
-0.538302
12
-0.473508
22
-0.849855
32
-0.525
13
-0.487639
23
-0.844712
33
-0.525
62
1
0
3DFACE
8
Supports
10
-0.487639
20
-0.844712
30
-0.525
11
-0.473508
21
-0.849855
31
-0.525
12
-0.474539
22
-0.855704
32
-0.508682
13
-0.490609
23
-0.849855
33
-0.508682
62
1
0
3DFACE
8
Supports
10
-0.490609
20
-0.849855
30
-0.508682
11
-0.474539
21
-0.855704
31
-0.508682
12
-0.474539
22
-0.855704
32
-0.491318
13
-0.490609
23
-0.849855
33
-0.491318
62
1
0
3DFACE
8
Supports
10
-0.490609
20
-0.849855
30
-0.491318
11
-0.474539
21
-0.855704
31
-0.491318
12
-0.473508
22
-0.849855
32
-0.475
13
-0.487639
23
-0.844712
33
-0.475
62
1
0
3DFACE
8
Supports
10
-0.487639
20
-0.844712
30
-0.475
11
-0.473508
21
-0.849855
31
-0.475
12
-0.47157
22
-0.838863
32
-0.461698
13
-0.482058
23
-0.835045
33
-0.461698
62
1
0
3DFACE
8
Supports
10
-0.482058
20
-0.835045
30
-0.461698
11
-0.47157
21
-0.838863
31
-0.461698
12
-0.468958
22
-0.824053
32
-0.453015
13
-0.474539
23
-0.822022
33
-0.453015
62
1
0
3DFACE
8
Supports
10
-0.474539
20
-0.822022
30
-0.453015
11
-0.468958
21
-0.824053
31
-0.453015
12
-0.465989
22
-0.807212
32
-0.45
13
-0.465989
23
-0.807212
33
-0.45
62
1
0
3DFACE
8
Supports
10
-0.465989
20
-0.807212
30
-0.55
11
-0.465989
21
-0.807212
31
-0.55
12
-0.463019
22
-0.824053
32
-0.546985
13
-0.468958
23
-0.824053
33
-0.546985
62
1
0
3DFACE
8
Supports
10
-0.468958
20
-0.824053
30
-0.546985
11
-0.463019
21
-0.824053
31
-0.546985
12
-0.460408
22
-0.838863
32
-0.538302
13
-0.47157
23
-0.838863
33
-0.538302
62
1
0
3DFACE
8
Supports
10
-0.47157
20
-0.838863
30
-0.538302
11
-0.460408
21
-0.838863
31
-0.538302
12
-0.458469
22
-0.849855
32
-0.525
13
-0.473508
23
-0.849855
33
-0.525
62
1
0
3DFACE
8
Supports
10
-0.473508
20
-0.849855
30
-0.525
11
-0.458469
21
-0.849855
31
-0.525
12
-0.457438
22
-0.855704
32
-0.508682
13
-0.474539
23
-0.855704
33
-0.508682
62
1
0
3DFACE
8
Supports
10
-0.474539
20
-0.855704
30
-0.508682
11
-0.457438
21
-0.855704
31
-0.508682
12
-0.457438
22
-0.855704
32
-0.491318
13
-0.474539
23
-0.855704
33
-0.491318
62
1
0
3DFACE
8
Supports
10
-0.474539
20
-0.855704
30
-0.491318
11
-0.457438
21
-0.855704
31
-0.491318
12
-0.458469
22
-0.849855
32
-0.475
13
-0.473508
23
-0.849855
33
-0.475
62
1
0
3DFACE
8
Supports
10
-0.473508
20
-0.849855
30
-0.475
11
-0.458469
21
-0.849855
31
-0.475
12
-0.460408
22
-0.838863
32
-0.461698
13
-0.47157
23
-0.838863
33
-0.461698
62
1
0
3DFACE
8
Supports
10
-0.47157
20
-0.838863
30
-0.461698
11
-0.460408
21
-0.838863
31
-0.461698
12
-0.463019
22
-0.824053
32
-0.453015
13
-0.468958
23
-0.824053
33
-0.453015
62
1
0
3DFACE
8
Supports
10
-0.468958
20
-0.824053
30
-0.453015
11
-0.463019
21
-0.824053
31
-0.453015
12
-0.465989
22
-0.807212
32
-0.45
13
-0.465989
23
-0.807212
33
-0.45
62
1
0
3DFACE
8
Supports
10
-0.465989
20
-0.807212
30
-0.55
11
-0.465989
21
-0.807212
31
-0.55
12
-0.457438
22
-0.822022
32
-0.546985
13
-0.463019
23
-0.824053
33
-0.546985
62
1
0
3DFACE
8
Supports
10
-0.463019
20
-0.824053
30
-0.546985
11
-0.457438
21
-0.822022
31
-0.546985
12
-0.449919
22
-0.835045
32
-0.538302
13
-0.460408
23
-0.838863
33
-0.538302
62
1
0
3DFACE
8
Supports
10
-0.460408
20
-0.838863
30
-0.538302
11
-0.449919
21
-0.835045
31
-0.538302
12
-0.444338
22
-0.844712
32
-0.525
13
-0.458469
23
-0.849855
33
-0.525
62
1
0
3DFACE
8
Supports
10
-0.458469
20
-0.849855
30
-0.525
11
-0.444338
21
-0.844712
31
-0.525
12
-0.441368
22
-0.849855
32
-0.508682
13
-0.457438
23
-0.855704
33
-0.508682
62
1
0
3DFACE
8
Supports
10
-0.457438
20
-0.855704
30
-0.508682
11
-0.441368
21
-0.849855
31
-0.508682
12
-0.441368
22
-0.849855
32
-0.491318
13
-0.457438
23
-0.855704
33
-0.491318
62
1
0
3DFACE
8
Supports
10
-0.457438
20
-0.855704
30
-0.491318
11
-0.441368
21
-0.849855
31
-0.491318
12
-0.444338
22
-0.844712
32
-0.475
13
-0.458469
23
-0.849855
33
-0.475
62
1
0
3DFACE
8
Supports
10
-0.458469
20
-0.849855
30
-0.475
11
-0.444338
21
-0.844712
31
-0.475
12
-0.449919
22
-0.835045
32
-0.461698
13
-0.460408
23
-0.838863
33
-0.461698
62
1
0
3DFACE
8
Supports
10
-0.460408
20
-0.838863
30
-0.461698
11
-0.449919
21
-0.835045
31
-0.461698
12
-0.457438
22
-0.822022
32
-0.453015
13
-0.463019
23
-0.824053
33
-0.453015
62
1
0
3DFACE
8
Supports
10
-0.463019
20
-0.824053
30
-0.453015
11
-0.457438
21
-0.822022
31
-0.453015
12
-0.465989
22
-0.807212
32
-0.45
13
-0.465989
23
-0.807212
33
-0.45
62
1
0
3DFACE
8
Supports
10
-0.465989
20
-0.807212
30
-0.55
11
-0.465989
21
-0.807212
31
-0.55
12
-0.452889
22
-0.818204
32
-0.546985
13
-0.457438
23
-0.822022
33
-0.546985
62
1
0
3DFACE
8
Supports
10
-0.457438
20
-0.822022
30
-0.546985
11
-0.452889
21
-0.818204
31
-0.546985
12
-0.441368
22
-0.827871
32
-0.538302
13
-0.449919
23
-0.835045
33
-0.538302
62
1
0
3DFACE
8
Supports
10
-0.449919
20
-0.835045
30
-0.538302
11
-0.441368
21
-0.827871
31
-0.538302
12
-0.432818
22
-0.835045
32
-0.525
13
-0.444338
23
-0.844712
33
-0.525
62
1
0
3DFACE
8
Supports
10
-0.444338
20
-0.844712
30
-0.525
11
-0.432818
21
-0.835045
31
-0.525
12
-0.428268
22
-0.838863
32
-0.508682
13
-0.441368
23
-0.849855
33
-0.508682
62
1
0
3DFACE
8
Supports
10
-0.441368
20
-0.849855
30
-0.508682
11
-0.428268
21
-0.838863
31
-0.508682
12
-0.428268
22
-0.838863
32
-0.491318
13
-0.441368
23
-0.849855
33
-0.491318
62
1
0
3DFACE
8
Supports
10
-0.441368
20
-0.849855
30
-0.491318
11
-0.428268
21
-0.838863
31
-0.491318
12
-0.432818
22
-0.835045
32
-0.475
13
-0.444338
23
-0.844712
33
-0.475
62
1
0
3DFACE
8
Supports
10
-0.444338
20
-0.844712
30
-0.475
11
-0.432818
21
-0.835045
31
-0.475
12
-0.441368
22
-0.827871
32
-0.461698
13
-0.449919
23
-0.835045
33
-0.461698
62
1
0
3DFACE
8
Supports
10
-0.449919
20
-0.835045
30
-0.461698
11
-0.441368
21
-0.827871
31
-0.461698
12
-0.452889
22
-0.818204
32
-0.453015
13
-0.457438
23
-0.822022
33
-0.453015
62
1
0
3DFACE
8
Supports
10
-0.457438
20
-0.822022
30
-0.453015
11
-0.452889
21
-0.818204
31
-0.453015
12
-0.465989
22
-0.807212
32
-0.45
13
-0.465989
23
-0.807212
33
-0.45
62
1
0
3DFACE
8
Supports
10
-0.465989
20
-0.807212
30
-0.55
11
-0.465989
21
-0.807212
31
-0.55
12
-0.449919
22
-0.813061
32
-0.546985
13
-0.452889
23
-0.818204
33
-0.546985
62
1
0
3DFACE
8
Supports
10
-0.452889
20
-0.818204
30
-0.546985
11
-0.449919
21
-0.813061
31
-0.546985
12
-0.435788
22
-0.818204
32
-0.538302
13
-0.441368
23
-0.827871
33
-0.538302
62
1
0
3DFACE
8
Supports
10
-0.441368
20
-0.827871
30
-0.538302
11
-0.435788
21
-0.818204
31
-0.538302
12
-0.425299
22
-0.822022
32
-0.525
13
-0.432818
23
-0.835045
33
-0.525
62
1
0
3DFACE
8
Supports
10
-0.432818
20
-0.835045
30
-0.525
11
-0.425299
21
-0.822022
31
-0.525
12
-0.419718
22
-0.824053
32
-0.508682
13
-0.428268
23
-0.838863
33
-0.508682
62
1
0
3DFACE
8
Supports
10
-0.428268
20
-0.838863
30
-0.508682
11
-0.419718
21
-0.824053
31
-0.508682
12
-0.419718
22
-0.824053
32
-0.491318
13
-0.428268
23
-0.838863
33
-0.491318
62
1
0
3DFACE
8
Supports
10
-0.428268
20
-0.838863
30
-0.491318
11
-0.419718
21
-0.824053
31
-0.491318
12
-0.425299
22
-0.822022
32
-0.475
13
-0.432818
23
-0.835045
33
-0.475
62
1
0
3DFACE
8
Supports
10
-0.432818
20
-0.835045
30
-0.475
11
-0.425299
21
-0.822022
31
-0.475
12
-0.435788
22
-0.818204
32
-0.461698
13
-0.441368
23
-0.827871
33
-0.461698
62
1
0
3DFACE
8
Supports
10
-0.441368
20
-0.827871
30
-0.461698
11
-0.435788
21
-0.818204
31
-0.461698
12
-0.449919
22
-0.813061
32
-0.453015
13
-0.452889
23
-0.818204
33
-0.453015
62
1
0
3DFACE
8
Supports
10
-0.452889
20
-0.818204
30
-0.453015
11
-0.449919
21
-0.813061
31
-0.453015
12
-0.465989
22
-0.807212
32
-0.45
13
-0.465989
23
-0.807212
33
-0.45
62
1
0
3DFACE
8
Supports
10
-0.465989
20
-0.807212
30
-0.55
11
-0.465989
21
-0.807212
31
-0.55
12
-0.448888
22
-0.807212
32
-0.546985
13
-0.449919
23
-0.813061
33
-0.546985
62
1
0
3DFACE
8
Supports
10
-0.449919
20
-0.813061
30
-0.546985
11
-0.448888
21
-0.807212
31
-0.546985
12
-0.433849
22
-0.807212
32
-0.538302
13
-0.435788
23
-0.818204
33
-0.538302
62
1
0
3DFACE
8
Supports
10
-0.435788
20
-0.818204
30
-0.538302
11
-0.433849
21
-0.807212
31
-0.538302
12
-0.422687
22
-0.807212
32
-0.525
13
-0.425299
23
-0.822022
33
-0.525
62
1
0
3DFACE
8
Supports
10
-0.425299
20
-0.822022
30
-0.525
11
-0.422687
21
-0.807212
31
-0.525
12
-0.416748
22
-0.807212
32
-0.508682
13
-0.419718
23
-0.824053
33
-0.508682
62
1
0
3DFACE
8
Supports
10
-0.419718
20
-0.824053
30
-0.508682
11
-0.416748
21
-0.807212
31
-0.508682
12
-0.416748
22
-0.807212
32
-0.491318
13
-0.419718
23
-0.824053
33
-0.491318
62
1
0
3DFACE
8
Supports
10
-0.419718
20
-0.824053
30
-0.491318
11
-0.416748
21
-0.807212
31
-0.491318
12
-0.422687
22
-0.807212
32
-0.475
13
-0.425299
23
-0.822022
33
-0.475
62
1
0
3DFACE
8
Supports
10
-0.425299
20
-0.822022
30
-0.475
11
-0.422687
21
-0.807212
31
-0.475
12
-0.433849
22
-0.807212
32
-0.461698
13
-0.435788
23
-0.818204
33
-0.461698
62
1
0
3DFACE
8
Supports
10
-0.435788
20
-0.818204
30
-0.461698
11
-0.433849
21
-0.807212
31
-0.461698
12
-0.448888
22
-0.807212
32
-0.453015
13
-0.449919
23
-0.813061
33
-0.453015
62
1
0
3DFACE
8
Supports
10
-0.449919
20
-0.813061
30
-0.453015
11
-0.448888
21
-0.807212
31
-0.453015
12
-0.465989
22
-0.807212
32
-0.45
13
-0.465989
23
-0.807212
33
-0.45
62
1
0
3DFACE
8
Supports
10
-0.466072
20
0.807164
30
-0.55
11
-0.466072
21
0.807164
31
-0.55
12
-0.450002
22
0.813013
32
-0.546985
13
-0.448971
23
0.807164
33
-0.546985
62
1
0
3DFACE
8
Supports
10
-0.448971
20
0.807164
30
-0.546985
11
-0.450002
21
0.813013
31
-0.546985
12
-0.43587
22
0.818156
32
-0.538302
13
-0.433932
23
0.807164
33
-0.538302
62
1
0
3DFACE
8
Supports
10
-0.433932
20
0.807164
30
-0.538302
11
-0.43587
21
0.818156
31
-0.538302
12
-0.425382
22
0.821974
32
-0.525
13
-0.42277
23
0.807164
33
-0.525
62
1
0
3DFACE
8
Supports
10
-0.42277
20
0.807164
30
-0.525
11
-0.425382
21
0.821974
31
-0.525
12
-0.419801
22
0.824005
32
-0.508682
13
-0.416831
23
0.807164
33
-0.508682
62
1
0
3DFACE
8
Supports
10
-0.416831
20
0.807164
30
-0.508682
11
-0.419801
21
0.824005
31
-0.508682
12
-0.419801
22
0.824005
32
-0.491318
13
-0.416831
23
0.807164
33
-0.491318
62
1
0
3DFACE
8
Supports
10
-0.416831
20
0.807164
30
-0.491318
11
-0.419801
21
0.824005
31
-0.491318
12
-0.425382
22
0.821974
32
-0.475
13
-0.42277
23
0.807164
33
-0.475
62
1
0
3DFACE
8
Supports
10
-0.42277
20
0.807164
30
-0.475
11
-0.425382
21
0.821974
31
-0.475
12
-0.43587
22
0.818156
32
-0.461698
13
-0.433932
23
0.807164
33
-0.461698
62
1
0
3DFACE
8
Supports
10
-0.433932
20
0.807164
30
-0.461698
11
-0.43587
21
0.818156
31
-0.461698
12
-0.450002
22
0.813013
32
-0.453015
13
-0.448971
23
0.807164
33
-0.453015
62
1
0
3DFACE
8
Supports
10
-0.448971
20
0.807164
30
-0.453015
11
-0.450002
21
0.813013
31
-0.453015
12
-0.466072
22
0.807164
32
-0.45
13
-0.466072
23
0.807164
33
-0.45
62
1
0
3DFACE
8
Supports
10
-0.466072
20
0.807164
30
-0.55
11
-0.466072
21
0.807164
31
-0.55
12
-0.452971
22
0.818156
32
-0.546985
13
-0.450002
23
0.813013
33
-0.546985
62
1
0
3DFACE
8
Supports
10
-0.450002
20
0.813013
30
-0.546985
11
-0.452971
21
0.818156
31
-0.546985
12
-0.441451
22
0.827823
32
-0.538302
13
-0.43587
23
0.818156
33
-0.538302
62
1
0
3DFACE
8
Supports
10
-0.43587
20
0.818156
30
-0.538302
11
-0.441451
21
0.827823
31
-0.538302
12
-0.432901
22
0.834997
32
-0.525
13
-0.425382
23
0.821974
33
-0.525
62
1
0
3DFACE
8
Supports
10
-0.425382
20
0.821974
30
-0.525
11
-0.432901
21
0.834997
31
-0.525
12
-0.428351
22
0.838815
32
-0.508682
13
-0.419801
23
0.824005
33
-0.508682
62
1
0
3DFACE
8
Supports
10
-0.419801
20
0.824005
30
-0.508682
11
-0.428351
21
0.838815
31
-0.508682
12
-0.428351
22
0.838815
32
-0.491318
13
-0.419801
23
0.824005
33
-0.491318
62
1
0
3DFACE
8
Supports
10
-0.419801
20
0.824005
30
-0.491318
11
-0.428351
21
0.838815
31
-0.491318
12
-0.432901
22
0.834997
32
-0.475
13
-0.425382
23
0.821974
33
-0.475
62
1
0
3DFACE
8
Supports
10
-0.425382
20
0.821974
30
-0.475
11
-0.432901
21
0.834997
31
-0.475
12
-0.441451
22
0.827823
32
-0.461698
13
-0.43587
23
0.818156
33
-0.461698
62
1
0
3DFACE
8
Supports
10
-0.43587
20
0.818156
30
-0.461698
11
-0.441451
21
0.827823
31
-0.461698
12
-0.452971
22
0.818156
32
-0.453015
13
-0.450002
23
0.813013
33
-0.453015
62
1
0
3DFACE
8
Supports
10
-0.450002
20
0.813013
30
-0.453015
11
-0.452971
21
0.818156
31
-0.453015
12
-0.466072
22
0.807164
32
-0.45
13
-0.466072
23
0.807164
33
-0.45
62
1
0
3DFACE
8
Supports
10
-0.466072
20
0.807164
30
-0.55
11
-0.466072
21
0.807164
31
-0.55
12
-0.457521
22
0.821974
32
-0.546985
13
-0.452971
23
0.818156
33
-0.546985
62
1
0
3DFACE
8
Supports
10
-0.452971
20
0.818156
30
-0.546985
11
-0.457521
21
0.821974
31
-0.546985
12
-0.450002
22
0.834997
32
-0.538302
13
-0.441451
23
0.827823
33
-0.538302
62
1
0
3DFACE
8
Supports
10
-0.441451
20
0.827823
30
-0.538302
11
-0.450002
21
0.834997
31
-0.538302
12
-0.444421
22
0.844664
32
-0.525
13
-0.432901
23
0.834997
33
-0.525
62
1
0
3DFACE
8
Supports
10
-0.432901
20
0.834997
30
-0.525
11
-0.444421
21
0.844664
31
-0.525
12
-0.441451
22
0.849807
32
-0.508682
13
-0.428351
23
0.838815
33
-0.508682
62
1
0
3DFACE
8
Supports
10
-0.428351
20
0.838815
30
-0.508682
11
-0.441451
21
0.849807
31
-0.508682
12
-0.441451
22
0.849807
32
-0.491318
13
-0.428351
23
0.838815
33
-0.491318
62
1
0
3DFACE
8
Supports
10
-0.428351
20
0.838815
30
-0.491318
11
-0.441451
21
0.849807
31
-0.491318
12
-0.444421
22
0.844664
32
-0.475
13
-0.432901
23
0.834997
33
-0.475
62
1
0
3DFACE
8
Supports
10
-0.432901
20
0.834997
30
-0.475
11
-0.444421
21
0.844664
31
-0.475
12
-0.450002
22
0.834997
32
-0.461698
13
-0.441451
23
0.827823
33
-0.461698
62
1
0
3DFACE
8
Supports
10
-0.441451
20
0.827823
30
-0.461698
11
-0.450002
21
0.834997
31
-0.461698
12
-0.457521
22
0.821974
32
-0.453015
13
-0.452971
23
0.818156
33
-0.453015
62
1
0
3DFACE
8
Supports
10
-0.452971
20
0.818156
30
-0.453015
11
-0.457521
21
0.821974
31
-0.453015
12
-0.466072
22
0.807164
32
-0.45
13
-0.466072
23
0.807164
33
-0.45
62
1
0
3DFACE
8
Supports
10
-0.466072
20
0.807164
30
-0.55
11
-0.466072
21
0.807164
31
-0.55
12
-0.463102
22
0.824005
32
-0.546985
13
-0.457521
23
0.821974
33
-0.546985
62
1
0
3DFACE
8
Supports
10
-0.457521
20
0.821974
30
-0.546985
11
-0.463102
21
0.824005
31
-0.546985
12
-0.460491
22
0.838815
32
-0.538302
13
-0.450002
23
0.834997
33
-0.538302
62
1
0
3DFACE
8
Supports
10
-0.450002
20
0.834997
30
-0.538302
11
-0.460491
21
0.838815
31
-0.538302
12
-0.458552
22
0.849807
32
-0.525
13
-0.444421
23
0.844664
33
-0.525
62
1
0
3DFACE
8
Supports
10
-0.444421
20
0.844664
30
-0.525
11
-0.458552
21
0.849807
31
-0.525
12
-0.457521
22
0.855656
32
-0.508682
13
-0.441451
23
0.849807
33
-0.508682
62
1
0
3DFACE
8
Supports
10
-0.441451
20
0.849807
30
-0.508682
11
-0.457521
21
0.855656
31
-0.508682
12
-0.457521
22
0.855656
32
-0.491318
13
-0.441451
23
0.849807
33
-0.491318
62
1
0
3DFACE
8
Supports
10
-0.441451
20
0.849807
30
-0.491318
11
-0.457521
21
0.855656
31
-0.491318
12
-0.458552
22
0.849807
32
-0.475
13
-0.444421
23
0.844664
33
-0.475
62
1
0
3DFACE
8
Supports
10
-0.444421
20
0.844664
30
-0.475
11
-0.458552
21
0.849807
31
-0.475
12
-0.460491
22
0.838815
32
-0.461698
13
-0.450002
23
0.834997
33
-0.461698
62
1
0
3DFACE
8
Supports
10
-0.450002
20
0.834997
30
-0.461698
11
-0.460491
21
0.838815
31
-0.461698
12
-0.463102
22
0.824005
32
-0.453015
13
-0.457521
23
0.821974
33
-0.453015
62
1
0
3DFACE
8
Supports
10
-0.457521
20
0.821974
30
-0.453015
11
-0.463102
21
0.824005
31
-0.453015
12
-0.466072
22
0.807164
32
-0.45
13
-0.466072
23
0.807164
33
-0.45
62
1
0
3DFACE
8
Supports
10
-0.466072
20
0.807164
30
-0.55
11
-0.466072
21
0.807164
31
-0.55
12
-0.469041
22
0.824005
32
-0.546985
13
-0.463102
23
0.824005
33
-0.546985
62
1
0
3DFACE
8
Supports
10
-0.463102
20
0.824005
30
-0.546985
11
-0.469041
21
0.824005
31
-0.546985
12
-0.471653
22
0.838815
32
-0.538302
13
-0.460491
23
0.838815
33
-0.538302
62
1
0
3DFACE
8
Supports
10
-0.460491
20
0.838815
30
-0.538302
11
-0.471653
21
0.838815
31
-0.538302
12
-0.473591
22
0.849807
32
-0.525
13
-0.458552
23
0.849807
33
-0.525
62
1
0
3DFACE
8
Supports
10
-0.458552
20
0.849807
30
-0.525
11
-0.473591
21
0.849807
31
-0.525
12
-0.474622
22
0.855656
32
-0.508682
13
-0.457521
23
0.855656
33
-0.508682
62
1
0
3DFACE
8
Supports
10
-0.457521
20
0.855656
30
-0.508682
11
-0.474622
21
0.855656
31
-0.508682
12
-0.474622
22
0.855656
32
-0.491318
13
-0.457521
23
0.855656
33
-0.491318
62
1
0
3DFACE
8
Supports
10
-0.457521
20
0.855656
30
-0.491318
11
-0.474622
21
0.855656
31
-0.491318
12
-0.473591
22
0.849807
32
-0.475
13
-0.458552
23
0.849807
33
-0.475
62
1
0
3DFACE
8
Supports
10
-0.458552
20
0.849807
30
-0.475
11
-0.473591
21
0.849807
31
-0.475
12
-0.471653
22
0.838815
32
-0.461698
13
-0.460491
23
0.838815
33
-0.461698
62
1
0
3DFACE
8
Supports
10
-0.460491
20
0.838815
30
-0.461698
11
-0.471653
21
0.838815
31
-0.461698
12
-0.469041
22
0.824005
32
-0.453015
13
-0.463102
23
0.824005
33
-0.453015
62
1
0
3DFACE
8
Supports
10
-0.463102
20
0.824005
30
-0.453015
11
-0.469041
21
0.824005
31
-0.453015
12
-0.466072
22
0.807164
32
-0.45
13
-0.466072
23
0.807164
33
-0.45
62
1
0
3DFACE
8
Supports
10
-0.466072
20
0.807164
30
-0.55
11
-0.466072
21
0.807164
31
-0.55
12
-0.474622
22
0.821974
32
-0.546985
13
-0.469041
23
0.824005
33
-0.546985
62
1
0
3DFACE
8
Supports
10
-0.469041
20
0.824005
30
-0.546985
11
-0.474622
21
0.821974
31
-0.546985
12
-0.482141
22
0.834997
32
-0.538302
13
-0.471653
23
0.838815
33
-0.538302
62
1
0
3DFACE
8
Supports
10
-0.471653
20
0.838815
30
-0.538302
11
-0.482141
21
0.834997
31
-0.538302
12
-0.487722
22
0.844664
32
-0.525
13
-0.473591
23
0.849807
33
-0.525
62
1
0
3DFACE
8
Supports
10
-0.473591
20
0.849807
30
-0.525
11
-0.487722
21
0.844664
31
-0.525
12
-0.490692
22
0.849807
32
-0.508682
13
-0.474622
23
0.855656
33
-0.508682
62
1
0
3DFACE
8
Supports
10
-0.474622
20
0.855656
30
-0.508682
11
-0.490692
21
0.849807
31
-0.508682
12
-0.490692
22
0.849807
32
-0.491318
13
-0.474622
23
0.855656
33
-0.491318
62
1
0
3DFACE
8
Supports
10
-0.474622
20
0.855656
30
-0.491318
11
-0.490692
21
0.849807
31
-0.491318
12
-0.487722
22
0.844664
32
-0.475
13
-0.473591
23
0.849807
33
-0.475
62
1
0
3DFACE
8
Supports
10
-0.473591
20
0.849807
30
-0.475
11
-0.487722
21
0.844664
31
-0.475
12
-0.482141
22
0.834997
32
-0.461698
13
-0.471653
23
0.838815
33
-0.461698
62
1
0
3DFACE
8
Supports
10
-0.471653
20
0.838815
30
-0.461698
11
-0.482141
21
0.834997
31
-0.461698
12
-0.474622
22
0.821974
32
-0.453015
13
-0.469041
23
0.824005
33
-0.453015
62
1
0
3DFACE
8
Supports
10
-0.469041
20
0.824005
30
-0.453015
11
-0.474622
21
0.821974
31
-0.453015
12
-0.466072
22
0.807164
32
-0.45
13
-0.466072
23
0.807164
33
-0.45
62
1
0
3DFACE
8
Supports
10
-0.466072
20
0.807164
30
-0.55
11
-0.466072
21
0.807164
31
-0.55
12
-0.479172
22
0.818156
32
-0.546985
13
-0.474622
23
0.821974
33
-0.546985
62
1
0
3DFACE
8
Supports
10
-0.474622
20
0.821974
30
-0.546985
11
-0.479172
21
0.818156
31
-0.546985
12
-0.490692
22
0.827823
32
-0.538302
13
-0.482141
23
0.834997
33
-0.538302
62
1
0
3DFACE
8
Supports
10
-0.482141
20
0.834997
30
-0.538302
11
-0.490692
21
0.827823
31
-0.538302
12
-0.499242
22
0.834997
32
-0.525
13
-0.487722
23
0.844664
33
-0.525
62
1
0
3DFACE
8
Supports
10
-0.487722
20
0.844664
30
-0.525
11
-0.499242
21
0.834997
31
-0.525
12
-0.503792
22
0.838815
32
-0.508682
13
-0.490692
23
0.849807
33
-0.508682
62
1
0
3DFACE
8
Supports
10
-0.490692
20
0.849807
30
-0.508682
11
-0.503792
21
0.838815
31
-0.508682
12
-0.503792
22
0.838815
32
-0.491318
13
-0.490692
23
0.849807
33
-0.491318
62
1
0
3DFACE
8
Supports
10
-0.490692
20
0.849807
30
-0.491318
11
-0.503792
21
0.838815
31
-0.491318
12
-0.499242
22
0.834997
32
-0.475
13
-0.487722
23
0.844664
33
-0.475
62
1
0
3DFACE
8
Supports
10
-0.487722
20
0.844664
30
-0.475
11
-0.499242
21
0.834997
31
-0.475
12
-0.490692
22
0.827823
32
-0.461698
13
-0.482141
23
0.834997
33
-0.461698
62
1
0
3DFACE
8
Supports
10
-0.482141
20
0.834997
30
-0.461698
11
-0.490692
21
0.827823
31
-0.461698
12
-0.479172
22
0.818156
32
-0.453015
13
-0.474622
23
0.821974
33
-0.453015
62
1
0
3DFACE
8
Supports
10
-0.474622
20
0.821974
30
-0.453015
11
-0.479172
21
0.818156
31
-0.453015
12
-0.466072
22
0.807164
32
-0.45
13
-0.466072
23
0.807164
33
-0.45
62
1
0
3DFACE
8
Supports
10
-0.466072
20
0.807164
30
-0.55
11
-0.466072
21
0.807164
31
-0.55
12
-0.482141
22
0.813013
32
-0.546985
13
-0.479172
23
0.818156
33
-0.546985
62
1
0
3DFACE
8
Supports
10
-0.479172
20
0.818156
30
-0.546985
11
-0.482141
21
0.813013
31
-0.546985
12
-0.496273
22
0.818156
32
-0.538302
13
-0.490692
23
0.827823
33
-0.538302
62
1
0
3DFACE
8
Supports
10
-0.490692
20
0.827823
30
-0.538302
11
-0.496273
21
0.818156
31
-0.538302
12
-0.506761
22
0.821974
32
-0.525
13
-0.499242
23
0.834997
33
-0.525
62
1
0
3DFACE
8
Supports
10
-0.499242
20
0.834997
30
-0.525
11
-0.506761
21
0.821974
31
-0.525
12
-0.512342
22
0.824005
32
-0.508682
13
-0.503792
23
0.838815
33
-0.508682
62
1
0
3DFACE
8
Supports
10
-0.503792
20
0.838815
30
-0.508682
11
-0.512342
21
0.824005
31
-0.508682
12
-0.512342
22
0.824005
32
-0.491318
13
-0.503792
23
0.838815
33
-0.491318
62
1
0
3DFACE
8
Supports
10
-0.503792
20
0.838815
30
-0.491318
11
-0.512342
21
0.824005
31
-0.491318
12
-0.506761
22
0.821974
32
-0.475
13
-0.499242
23
0.834997
33
-0.475
62
1
0
3DFACE
8
Supports
10
-0.499242
20
0.834997
30
-0.475
11
-0.506761
21
0.821974
31
-0.475
12
-0.496273
22
0.818156
32
-0.461698
13
-0.490692
23
0.827823
33
-0.461698
62
1
0
3DFACE
8
Supports
10
-0.490692
20
0.827823
30
-0.461698
11
-0.496273
21
0.818156
31
-0.461698
12
-0.482141
22
0.813013
32
-0.453015
13
-0.479172
23
0.818156
33
-0.453015
62
1
0
3DFACE
8
Supports
10
-0.479172
20
0.818156
30
-0.453015
11
-0.482141
21
0.813013
31
-0.453015
12
-0.466072
22
0.807164
32
-0.45
13
-0.466072
23
0.807164
33
-0.45
62
1
0
3DFACE
8
Supports
10
-0.466072
20
0.807164
30
-0.55
11
-0.466072
21
0.807164
31
-0.55
12
-0.483173
22
0.807164
32
-0.546985
13
-0.482141
23
0.813013
33
-0.546985
62
1
0
3DFACE
8
Supports
10
-0.482141
20
0.813013
30
-0.546985
11
-0.483173
21
0.807164
31
-0.546985
12
-0.498211
22
0.807164
32
-0.538302
13
-0.496273
23
0.818156
33
-0.538302
62
1
0
3DFACE
8
Supports
10
-0.496273
20
0.818156
30
-0.538302
11
-0.498211
21
0.807164
31
-0.538302
12
-0.509373
22
0.807164
32
-0.525
13
-0.506761
23
0.821974
33
-0.525
62
1
0
3DFACE
8
Supports
10
-0.506761
20
0.821974
30
-0.525
11
-0.509373
21
0.807164
31
-0.525
12
-0.515312
22
0.807164
32
-0.508682
13
-0.512342
23
0.824005
33
-0.508682
62
1
0
3DFACE
8
Supports
10
-0.512342
20
0.824005
30
-0.508682
11
-0.515312
21
0.807164
31
-0.508682
12
-0.515312
22
0.807164
32
-0.491318
13
-0.512342
23
0.824005
33
-0.491318
62
1
0
3DFACE
8
Supports
10
-0.512342
20
0.824005
30
-0.491318
11
-0.515312
21
0.807164
31
-0.491318
12
-0.509373
22
0.807164
32
-0.475
13
-0.506761
23
0.821974
33
-0.475
62
1
0
3DFACE
8
Supports
10
-0.506761
20
0.821974
30
-0.475
11
-0.509373
21
0.807164
31
-0.475
12
-0.498211
22
0.807164
32
-0.461698
13
-0.496273
23
0.818156
33
-0.461698
62
1
0
3DFACE
8
Supports
10
-0.496273
20
0.818156
30
-0.461698
11
-0.498211
21
0.807164
31
-0.461698
12
-0.483173
22
0.807164
32
-0.453015
13
-0.482141
23
0.813013
33
-0.453015
62
1
0
3DFACE
8
Supports
10
-0.482141
20
0.813013
30
-0.453015
11
-0.483173
21
0.807164
31
-0.453015
12
-0.466072
22
0.807164
32
-0.45
13
-0.466072
23
0.807164
33
-0.45
62
1
0
3DFACE
8
Supports
10
-0.466072
20
0.807164
30
-0.55
11
-0.466072
21
0.807164
31
-0.55
12
-0.482141
22
0.801315
32
-0.546985
13
-0.483173
23
0.807164
33
-0.546985
62
1
0
3DFACE
8
Supports
10
-0.483173
20
0.807164
30
-0.546985
11
-0.482141
21
0.801315
31
-0.546985
12
-0.496273
22
0.796172
32
-0.538302
13
-0.498211
23
0.807164
33
-0.538302
62
1
0
3DFACE
8
Supports
10
-0.498211
20
0.807164
30
-0.538302
11
-0.496273
21
0.796172
31
-0.538302
12
-0.506761
22
0.792354
32
-0.525
13
-0.509373
23
0.807164
33
-0.525
62
1
0
3DFACE
8
Supports
10
-0.509373
20
0.807164
30
-0.525
11
-0.506761
21
0.792354
31
-0.525
12
-0.512342
22
0.790323
32
-0.508682
13
-0.515312
23
0.807164
33
-0.508682
62
1
0
3DFACE
8
Supports
10
-0.515312
20
0.807164
30
-0.508682
11
-0.512342
21
0.790323
31
-0.508682
12
-0.512342
22
0.790323
32
-0.491318
13
-0.515312
23
0.807164
33
-0.491318
62
1
0
3DFACE
8
Supports
10
-0.515312
20
0.807164
30
-0.491318
11
-0.512342
21
0.790323
31
-0.491318
12
-0.506761
22
0.792354
32
-0.475
13
-0.509373
23
0.807164
33
-0.475
62
1
0
3DFACE
8
Supports
10
-0.509373
20
0.807164
30
-0.475
11
-0.506761
21
0.792354
31
-0.475
12
-0.496273
22
0.796172
32
-0.461698
13
-0.498211
23
0.807164
33
-0.461698
62
1
0
3DFACE
8
Supports
10
-0.498211
20
0.807164
30
-0.461698
11
-0.496273
21
0.796172
31
-0.461698
12
-0.482141
22
0.801315
32
-0.453015
13
-0.483173
23
0.807164
33
-0.453015
62
1
0
3DFACE
8
Supports
10
-0.483173
20
0.807164
30
-0.453015
11
-0.482141
21
0.801315
31
-0.453015
12
-0.466072
22
0.807164
32
-0.45
13
-0.466072
23
0.807164
33
-0.45
62
1
0
3DFACE
8
Supports
10
-0.466072
20
0.807164
30
-0.55
11
-0.466072
21
0.807164
31
-0.55
12
-0.479172
22
0.796172
32
-0.546985
13
-0.482141
23
0.801315
33
-0.546985
62
1
0
3DFACE
8
Supports
10
-0.482141
20
0.801315
30
-0.546985
11
-0.479172
21
0.796172
31
-0.546985
12
-0.490692
22
0.786505
32
-0.538302
13
-0.496273
23
0.796172
33
-0.538302
62
1
0
3DFACE
8
Supports
10
-0.496273
20
0.796172
30
-0.538302
11
-0.490692
21
0.786505
31
-0.538302
12
-0.499242
22
0.77933
32
-0.525
13
-0.506761
23
0.792354
33
-0.525
62
1
0
3DFACE
8
Supports
10
-0.506761
20
0.792354
30
-0.525
11
-0.499242
21
0.77933
31
-0.525
12
-0.503792
22
0.775513
32
-0.508682
13
-0.512342
23
0.790323
33
-0.508682
62
1
0
3DFACE
8
Supports
10
-0.512342
20
0.790323
30
-0.508682
11
-0.503792
21
0.775513
31
-0.508682
12
-0.503792
22
0.775513
32
-0.491318
13
-0.512342
23
0.790323
33
-0.491318
62
1
0
3DFACE
8
Supports
10
-0.512342
20
0.790323
30
-0.491318
11
-0.503792
21
0.775513
31
-0.491318
12
-0.499242
22
0.77933
32
-0.475
13
-0.506761
23
0.792354
33
-0.475
62
1
0
3DFACE
8
Supports
10
-0.506761
20
0.792354
30
-0.475
11
-0.499242
21
0.77933
31
-0.475
12
-0.490692
22
0.786505
32
-0.461698
13
-0.496273
23
0.796172
33
-0.461698
62
1
0
3DFACE
8
Supports
10
-0.496273
20
0.796172
30
-0.461698
11
-0.490692
21
0.786505
31
-0.461698
12
-0.479172
22
0.796172
32
-0.453015
13
-0.482141
23
0.801315
33
-0.453015
62
1
0
3DFACE
8
Supports
10
-0.482141
20
0.801315
30
-0.453015
11
-0.479172
21
0.796172
31
-0.453015
12
-0.466072
22
0.807164
32
-0.45
13
-0.466072
23
0.807164
33
-0.45
62
1
0
3DFACE
8
Supports
10
-0.466072
20
0.807164
30
-0.55
11
-0.466072
21
0.807164
31
-0.55
12
-0.474622
22
0.792354
32
-0.546985
13
-0.479172
23
0.796172
33
-0.546985
62
1
0
3DFACE
8
Supports
10
-0.479172
20
0.796172
30
-0.546985
11
-0.474622
21
0.792354
31
-0.546985
12
-0.482141
22
0.77933
32
-0.538302
13
-0.490692
23
0.786505
33
-0.538302
62
1
0
3DFACE
8
Supports
10
-0.490692
20
0.786505
30
-0.538302
11
-0.482141
21
0.77933
31
-0.538302
12
-0.487722
22
0.769664
32
-0.525
13
-0.499242
23
0.77933
33
-0.525
62
1
0
3DFACE
8
Supports
10
-0.499242
20
0.77933
30
-0.525
11
-0.487722
21
0.769664
31
-0.525
12
-0.490692
22
0.76452
32
-0.508682
13
-0.503792
23
0.775513
33
-0.508682
62
1
0
3DFACE
8
Supports
10
-0.503792
20
0.775513
30
-0.508682
11
-0.490692
21
0.76452
31
-0.508682
12
-0.490692
22
0.76452
32
-0.491318
13
-0.503792
23
0.775513
33
-0.491318
62
1
0
3DFACE
8
Supports
10
-0.503792
20
0.775513
30
-0.491318
11
-0.490692
21
0.76452
31
-0.491318
12
-0.487722
22
0.769664
32
-0.475
13
-0.499242
23
0.77933
33
-0.475
62
1
0
3DFACE
8
Supports
10
-0.499242
20
0.77933
30
-0.475
11
-0.487722
21
0.769664
31
-0.475
12
-0.482141
22
0.77933
32
-0.461698
13
-0.490692
23
0.786505
33
-0.461698
62
1
0
3DFACE
8
Supports
10
-0.490692
20
0.786505
30
-0.461698
11
-0.482141
21
0.77933
31
-0.461698
12
-0.474622
22
0.792354
32
-0.453015
13
-0.479172
23
0.796172
33
-0.453015
62
1
0
3DFACE
8
Supports
10
-0.479172
20
0.796172
30
-0.453015
11
-0.474622
21
0.792354
31
-0.453015
12
-0.466072
22
0.807164
32
-0.45
13
-0.466072
23
0.807164
33
-0.45
62
1
0
3DFACE
8
Supports
10
-0.466072
20
0.807164
30
-0.55
11
-0.466072
21
0.807164
31
-0.55
12
-0.469041
22
0.790323
32
-0.546985
13
-0.474622
23
0.792354
33
-0.546985
62
1
0
3DFACE
8
Supports
10
-0.474622
20
0.792354
30
-0.546985
11
-0.469041
21
0.790323
31
-0.546985
12
-0.471653
22
0.775513
32
-0.538302
13
-0.482141
23
0.77933
33
-0.538302
62
1
0
3DFACE
8
Supports
10
-0.482141
20
0.77933
30
-0.538302
11
-0.471653
21
0.775513
31
-0.538302
12
-0.473591
22
0.76452
32
-0.525
13
-0.487722
23
0.769664
33
-0.525
62
1
0
3DFACE
8
Supports
10
-0.487722
20
0.769664
30
-0.525
11
-0.473591
21
0.76452
31
-0.525
12
-0.474622
22
0.758672
32
-0.508682
13
-0.490692
23
0.76452
33
-0.508682
62
1
0
3DFACE
8
Supports
10
-0.490692
20
0.76452
30
-0.508682
11
-0.474622
21
0.758672
31
-0.508682
12
-0.474622
22
0.758672
32
-0.491318
13
-0.490692
23
0.76452
33
-0.491318
62
1
0
3DFACE
8
Supports
10
-0.490692
20
0.76452
30
-0.491318
11
-0.474622
21
0.758672
31
-0.491318
12
-0.473591
22
0.76452
32
-0.475
13
-0.487722
23
0.769664
33
-0.475
62
1
0
3DFACE
8
Supports
10
-0.487722
20
0.769664
30
-0.475
11
-0.473591
21
0.76452
31
-0.475
12
-0.471653
22
0.775513
32
-0.461698
13
-0.482141
23
0.77933
33
-0.461698
62
1
0
3DFACE
8
Supports
10
-0.482141
20
0.77933
30
-0.461698
11
-0.471653
21
0.775513
31
-0.461698
12
-0.469041
22
0.790323
32
-0.453015
13
-0.474622
23
0.792354
33
-0.453015
62
1
0
3DFACE
8
Supports
10
-0.474622
20
0.792354
30
-0.453015
11
-0.469041
21
0.790323
31
-0.453015
12
-0.466072
22
0.807164
32
-0.45
13
-0.466072
23
0.807164
33
-0.45
62
1
0
3DFACE
8
Supports
10
-0.466072
20
0.807164
30
-0.55
11
-0.466072
21
0.807164
31
-0.55
12
-0.463102
22
0.790323
32
-0.546985
13
-0.469041
23
0.790323
33
-0.546985
62
1
0
3DFACE
8
Supports
10
-0.469041
20
0.790323
30
-0.546985
11
-0.463102
21
0.790323
31
-0.546985
12
-0.460491
22
0.775513
32
-0.538302
13
-0.471653
23
0.775513
33
-0.538302
62
1
0
3DFACE
8
Supports
10
-0.471653
20
0.775513
30
-0.538302
11
-0.460491
21
0.775513
31
-0.538302
12
-0.458552
22
0.76452
32
-0.525
13
-0.473591
23
0.76452
33
-0.525
62
1
0
3DFACE
8
Supports
10
-0.473591
20
0.76452
30
-0.525
11
-0.458552
21
0.76452
31
-0.525
12
-0.457521
22
0.758672
32
-0.508682
13
-0.474622
23
0.758672
33
-0.508682
62
1
0
3DFACE
8
Supports
10
-0.474622
20
0.758672
30
-0.508682
11
-0.457521
21
0.758672
31
-0.508682
12
-0.457521
22
0.758672
32
-0.491318
13
-0.474622
23
0.758672
33
-0.491318
62
1
0
3DFACE
8
Supports
10
-0.474622
20
0.758672
30
-0.491318
11
-0.457521
21
0.758672
31
-0.491318
12
-0.458552
22
0.76452
32
-0.475
13
-0.473591
23
0.76452
33
-0.475
62
1
0
3DFACE
8
Supports
10
-0.473591
20
0.76452
30
-0.475
11
-0.458552
21
0.76452
31
-0.475
12
-0.460491
22
0.775513
32
-0.461698
13
-0.471653
23
0.775513
33
-0.461698
62
1
0
3DFACE
8
Supports
10
-0.471653
20
0.775513
30
-0.461698
11
-0.460491
21
0.775513
31
-0.461698
12
-0.463102
22
0.790323
32
-0.453015
13
-0.469041
23
0.790323
33
-0.453015
62
1
0
3DFACE
8
Supports
10
-0.469041
20
0.790323
30
-0.453015
11
-0.463102
21
0.790323
31
-0.453015
12
-0.466072
22
0.807164
32
-0.45
13
-0.466072
23
0.807164
33
-0.45
62
1
0
3DFACE
8
Supports
10
-0.466072
20
0.807164
30
-0.55
11
-0.466072
21
0.807164
31
-0.55
12
-0.457521
22
0.792354
32
-0.546985
13
-0.463102
23
0.790323
33
-0.546985
62
1
0
3DFACE
8
Supports
10
-0.463102
20
0.790323
30
-0.546985
11
-0.457521
21
0.792354
31
-0.546985
12
-0.450002
22
0.77933
32
-0.538302
13
-0.460491
23
0.775513
33
-0.538302
62
1
0
3DFACE
8
Supports
10
-0.460491
20
0.775513
30
-0.538302
11
-0.450002
21
0.77933
31
-0.538302
12
-0.444421
22
0.769664
32
-0.525
13
-0.458552
23
0.76452
33
-0.525
62
1
0
3DFACE
8
Supports
10
-0.458552
20
0.76452
30
-0.525
11
-0.444421
21
0.769664
31
-0.525
12
-0.441451
22
0.76452
32
-0.508682
13
-0.457521
23
0.758672
33
-0.508682
62
1
0
3DFACE
8
Supports
10
-0.457521
20
0.758672
30
-0.508682
11
-0.441451
21
0.76452
31
-0.508682
12
-0.441451
22
0.76452
32
-0.491318
13
-0.457521
23
0.758672
33
-0.491318
62
1
0
3DFACE
8
Supports
10
-0.457521
20
0.758672
30
-0.491318
11
-0.441451
21
0.76452
31
-0.491318
12
-0.444421
22
0.769664
32
-0.475
13
-0.458552
23
0.76452
33
-0.475
62
1
0
3DFACE
8
Supports
10
-0.458552
20
0.76452
30
-0.475
11
-0.444421
21
0.769664
31
-0.475
12
-0.450002
22
0.77933
32
-0.461698
13
-0.460491
23
0.775513
33
-0.461698
62
1
0
3DFACE
8
Supports
10
-0.460491
20
0.775513
30
-0.461698
11
-0.450002
21
0.77933
31
-0.461698
12
-0.457521
22
0.792354
32
-0.453015
13
-0.463102
23
0.790323
33
-0.453015
62
1
0
3DFACE
8
Supports
10
-0.463102
20
0.790323
30
-0.453015
11
-0.457521
21
0.792354
31
-0.453015
12
-0.466072
22
0.807164
32
-0.45
13
-0.466072
23
0.807164
33
-0.45
62
1
0
3DFACE
8
Supports
10
-0.466072
20
0.807164
30
-0.55
11
-0.466072
21
0.807164
31
-0.55
12
-0.452971
22
0.796172
32
-0.546985
13
-0.457521
23
0.792354
33
-0.546985
62
1
0
3DFACE
8
Supports
10
-0.457521
20
0.792354
30
-0.546985
11
-0.452971
21
0.796172
31
-0.546985
12
-0.441451
22
0.786505
32
-0.538302
13
-0.450002
23
0.77933
33
-0.538302
62
1
0
3DFACE
8
Supports
10
-0.450002
20
0.77933
30
-0.538302
11
-0.441451
21
0.786505
31
-0.538302
12
-0.432901
22
0.77933
32
-0.525
13
-0.444421
23
0.769664
33
-0.525
62
1
0
3DFACE
8
Supports
10
-0.444421
20
0.769664
30
-0.525
11
-0.432901
21
0.77933
31
-0.525
12
-0.428351
22
0.775513
32
-0.508682
13
-0.441451
23
0.76452
33
-0.508682
62
1
0
3DFACE
8
Supports
10
-0.441451
20
0.76452
30
-0.508682
11
-0.428351
21
0.775513
31
-0.508682
12
-0.428351
22
0.775513
32
-0.491318
13
-0.441451
23
0.76452
33
-0.491318
62
1
0
3DFACE
8
Supports
10
-0.441451
20
0.76452
30
-0.491318
11
-0.428351
21
0.775513
31
-0.491318
12
-0.432901
22
0.77933
32
-0.475
13
-0.444421
23
0.769664
33
-0.475
62
1
0
3DFACE
8
Supports
10
-0.444421
20
0.769664
30
-0.475
11
-0.432901
21
0.77933
31
-0.475
12
-0.441451
22
0.786505
32
-0.461698
13
-0.450002
23
0.77933
33
-0.461698
62
1
0
3DFACE
8
Supports
10
-0.450002
20
0.77933
30
-0.461698
11
-0.441451
21
0.786505
31
-0.461698
12
-0.452971
22
0.796172
32
-0.453015
13
-0.457521
23
0.792354
33
-0.453015
62
1
0
3DFACE
8
Supports
10
-0.457521
20
0.792354
30
-0.453015
11
-0.452971
21
0.796172
31
-0.453015
12
-0.466072
22
0.807164
32
-0.45
13
-0.466072
23
0.807164
33
-0.45
62
1
0
3DFACE
8
Supports
10
-0.466072
20
0.807164
30
-0.55
11
-0.466072
21
0.807164
31
-0.55
12
-0.450002
22
0.801315
32
-0.546985
13
-0.452971
23
0.796172
33
-0.546985
62
1
0
3DFACE
8
Supports
10
-0.452971
20
0.796172
30
-0.546985
11
-0.450002
21
0.801315
31
-0.546985
12
-0.43587
22
0.796172
32
-0.538302
13
-0.441451
23
0.786505
33
-0.538302
62
1
0
3DFACE
8
Supports
10
-0.441451
20
0.786505
30
-0.538302
11
-0.43587
21
0.796172
31
-0.538302
12
-0.425382
22
0.792354
32
-0.525
13
-0.432901
23
0.77933
33
-0.525
62
1
0
3DFACE
8
Supports
10
-0.432901
20
0.77933
30
-0.525
11
-0.425382
21
0.792354
31
-0.525
12
-0.419801
22
0.790323
32
-0.508682
13
-0.428351
23
0.775513
33
-0.508682
62
1
0
3DFACE
8
Supports
10
-0.428351
20
0.775513
30
-0.508682
11
-0.419801
21
0.790323
31
-0.508682
12
-0.419801
22
0.790323
32
-0.491318
13
-0.428351
23
0.775513
33
-0.491318
62
1
0
3DFACE
8
Supports
10
-0.428351
20
0.775513
30
-0.491318
11
-0.419801
21
0.790323
31
-0.491318
12
-0.425382
22
0.792354
32
-0.475
13
-0.432901
23
0.77933
33
-0.475
62
1
0
3DFACE
8
Supports
10
-0.432901
20
0.77933
30
-0.475
11
-0.425382
21
0.792354
31
-0.475
12
-0.43587
22
0.796172
32
-0.461698
13
-0.441451
23
0.786505
33
-0.461698
62
1
0
3DFACE
8
Supports
10
-0.441451
20
0.786505
30
-0.461698
11
-0.43587
21
0.796172
31
-0.461698
12
-0.450002
22
0.801315
32
-0.453015
13
-0.452971
23
0.796172
33
-0.453015
62
1
0
3DFACE
8
Supports
10
-0.452971
20
0.796172
30
-0.453015
11
-0.450002
21
0.801315
31
-0.453015
12
-0.466072
22
0.807164
32
-0.45
13
-0.466072
23
0.807164
33
-0.45
62
1
0
3DFACE
8
Supports
10
-0.466072
20
0.807164
30
-0.55
11
-0.466072
21
0.807164
31
-0.55
12
-0.448971
22
0.807164
32
-0.546985
13
-0.450002
23
0.801315
33
-0.546985
62
1
0
3DFACE
8
Supports
10
-0.450002
20
0.801315
30
-0.546985
11
-0.448971
21
0.807164
31
-0.546985
12
-0.433932
22
0.807164
32
-0.538302
13
-0.43587
23
0.796172
33
-0.538302
62
1
0
3DFACE
8
Supports
10
-0.43587
20
0.796172
30
-0.538302
11
-0.433932
21
0.807164
31
-0.538302
12
-0.42277
22
0.807164
32
-0.525
13
-0.425382
23
0.792354
33
-0.525
62
1
0
3DFACE
8
Supports
10
-0.425382
20
0.792354
30
-0.525
11
-0.42277
21
0.807164
31
-0.525
12
-0.416831
22
0.807164
32
-0.508682
13
-0.419801
23
0.790323
33
-0.508682
62
1
0
3DFACE
8
Supports
10
-0.419801
20
0.790323
30
-0.508682
11
-0.416831
21
0.807164
31
-0.508682
12
-0.416831
22
0.807164
32
-0.491318
13
-0.419801
23
0.790323
33
-0.491318
62
1
0
3DFACE
8
Supports
10
-0.419801
20
0.790323
30
-0.491318
11
-0.416831
21
0.807164
31
-0.491318
12
-0.42277
22
0.807164
32
-0.475
13
-0.425382
23
0.792354
33
-0.475
62
1
0
3DFACE
8
Supports
10
-0.425382
20
0.792354
30
-0.475
11
-0.42277
21
0.807164
31
-0.475
12
-0.433932
22
0.807164
32
-0.461698
13
-0.43587
23
0.796172
33
-0.461698
62
1
0
3DFACE
8
Supports
10
-0.43587
20
0.796172
30
-0.461698
11
-0.433932
21
0.807164
31
-0.461698
12
-0.448971
22
0.807164
32
-0.453015
13
-0.450002
23
0.801315
33
-0.453015
62
1
0
3DFACE
8
Supports
10
-0.450002
20
0.801315
30
-0.453015
11
-0.448971
21
0.807164
31
-0.453015
12
-0.466072
22
0.807164
32
-0.45
13
-0.466072
23
0.807164
33
-0.45
62
1
0
ENDSEC
0
EOF
